<svg xmlns="http://www.w3.org/2000/svg" width="580" height="512" fill="none">
  <circle cx="48" cy="112" r="8" fill="white" fill-opacity=".08"/>
  <circle cx="80" cy="112" r="8" fill="white" fill-opacity=".08"/>
  <circle cx="112" cy="112" r="8" fill="#43A1F7"/>
  <circle cx="112" cy="112" r="8" fill="url(#a)"/>
  <circle cx="144" cy="112" r="8" fill="white" fill-opacity=".08"/>
  <circle cx="272" cy="112" r="8" fill="white" fill-opacity=".08"/>
  <circle cx="304" cy="112" r="8" fill="white" fill-opacity=".08"/>
  <circle cx="336" cy="112" r="8" fill="white" fill-opacity=".08"/>
  <circle cx="368" cy="112" r="8" fill="white" fill-opacity=".08"/>
  <circle cx="400" cy="112" r="8" fill="white" fill-opacity=".08"/>
  <circle cx="48" cy="144" r="8" fill="white" fill-opacity=".08"/>
  <circle cx="80" cy="144" r="8" fill="white" fill-opacity=".08"/>
  <circle cx="112" cy="144" r="8" fill="white" fill-opacity=".08"/>
  <circle cx="144" cy="144" r="8" fill="white" fill-opacity=".08"/>
  <circle cx="176" cy="144" r="8" fill="white" fill-opacity=".08"/>
  <circle cx="240" cy="144" r="8" fill="white" fill-opacity=".08"/>
  <circle cx="272" cy="144" r="8" fill="white" fill-opacity=".08"/>
  <circle cx="304" cy="144" r="8" fill="#43A1F7"/>
  <circle cx="304" cy="144" r="8" fill="url(#b)"/>
  <circle cx="336" cy="144" r="8" fill="white" fill-opacity=".08"/>
  <circle cx="368" cy="144" r="8" fill="white" fill-opacity=".08"/>
  <circle cx="400" cy="144" r="8" fill="white" fill-opacity=".08"/>
  <circle cx="432" cy="144" r="8" fill="white" fill-opacity=".08"/>
  <circle cx="496" cy="144" r="8" fill="white" fill-opacity=".08"/>
  <circle cx="112" cy="176" r="8" fill="white" fill-opacity=".08"/>
  <circle cx="144" cy="176" r="8" fill="white" fill-opacity=".08"/>
  <circle cx="176" cy="176" r="8" fill="white" fill-opacity=".08"/>
  <circle cx="176" cy="176" r="8" fill="url(#c)"/>
  <circle cx="208" cy="176" r="8" fill="white" fill-opacity=".08"/>
  <circle cx="240" cy="176" r="8" fill="white" fill-opacity=".08"/>
  <circle cx="272" cy="176" r="8" fill="white" fill-opacity=".08"/>
  <circle cx="304" cy="176" r="8" fill="white" fill-opacity=".08"/>
  <circle cx="336" cy="176" r="8" fill="white" fill-opacity=".08"/>
  <circle cx="368" cy="176" r="8" fill="white" fill-opacity=".08"/>
  <circle cx="400" cy="176" r="8" fill="white" fill-opacity=".08"/>
  <circle cx="432" cy="176" r="8" fill="white" fill-opacity=".08"/>
  <circle cx="464" cy="176" r="8" fill="white" fill-opacity=".08"/>
  <circle cx="496" cy="176" r="8" fill="white" fill-opacity=".08"/>
  <circle cx="144" cy="208" r="8" fill="white" fill-opacity=".08"/>
  <circle cx="176" cy="208" r="8" fill="white" fill-opacity=".08"/>
  <circle cx="208" cy="208" r="8" fill="white" fill-opacity=".08"/>
  <circle cx="240" cy="208" r="8" fill="white" fill-opacity=".08"/>
  <circle cx="272" cy="208" r="8" fill="white" fill-opacity=".08"/>
  <circle cx="304" cy="208" r="8" fill="white" fill-opacity=".08"/>
  <circle cx="336" cy="208" r="8" fill="white" fill-opacity=".08"/>
  <circle cx="368" cy="208" r="8" fill="white" fill-opacity=".08"/>
  <circle cx="400" cy="208" r="8" fill="#43A1F7"/>
  <circle cx="400" cy="208" r="8" fill="url(#d)"/>
  <circle cx="432" cy="208" r="8" fill="white" fill-opacity=".08"/>
  <circle cx="464" cy="208" r="8" fill="white" fill-opacity=".08"/>
  <circle cx="48" cy="240" r="8" fill="white" fill-opacity=".08"/>
  <circle cx="80" cy="240" r="8" fill="white" fill-opacity=".08"/>
  <circle cx="112" cy="240" r="8" fill="white" fill-opacity=".08"/>
  <circle cx="144" cy="240" r="8" fill="white" fill-opacity=".08"/>
  <circle cx="176" cy="240" r="8" fill="white" fill-opacity=".08"/>
  <circle cx="208" cy="240" r="8" fill="white" fill-opacity=".08"/>
  <circle cx="240" cy="240" r="8" fill="white" fill-opacity=".08"/>
  <circle cx="272" cy="240" r="8" fill="white" fill-opacity=".08"/>
  <circle cx="272" cy="240" r="8" fill="url(#e)"/>
  <circle cx="304" cy="240" r="8" fill="white" fill-opacity=".08"/>
  <circle cx="336" cy="240" r="8" fill="white" fill-opacity=".08"/>
  <circle cx="368" cy="240" r="8" fill="white" fill-opacity=".08"/>
  <circle cx="400" cy="240" r="8" fill="white" fill-opacity=".08"/>
  <circle cx="432" cy="240" r="8" fill="white" fill-opacity=".08"/>
  <circle cx="464" cy="240" r="8" fill="white" fill-opacity=".08"/>
  <circle cx="496" cy="240" r="8" fill="white" fill-opacity=".08"/>
  <circle cx="48" cy="272" r="8" fill="white" fill-opacity=".08"/>
  <circle cx="80" cy="272" r="8" fill="white" fill-opacity=".08"/>
  <circle cx="112" cy="272" r="8" fill="#43A1F7"/>
  <circle cx="112" cy="272" r="8" fill="url(#f)"/>
  <circle cx="144" cy="272" r="8" fill="white" fill-opacity=".08"/>
  <circle cx="176" cy="272" r="8" fill="white" fill-opacity=".08"/>
  <circle cx="208" cy="272" r="8" fill="white" fill-opacity=".08"/>
  <circle cx="240" cy="272" r="8" fill="white" fill-opacity=".08"/>
  <circle cx="272" cy="272" r="8" fill="white" fill-opacity=".08"/>
  <circle cx="304" cy="272" r="8" fill="white" fill-opacity=".08"/>
  <circle cx="336" cy="272" r="8" fill="white" fill-opacity=".08"/>
  <circle cx="368" cy="272" r="8" fill="white" fill-opacity=".08"/>
  <circle cx="400" cy="272" r="8" fill="white" fill-opacity=".08"/>
  <circle cx="432" cy="272" r="8" fill="white" fill-opacity=".08"/>
  <circle cx="48" cy="304" r="8" fill="white" fill-opacity=".08"/>
  <circle cx="80" cy="304" r="8" fill="white" fill-opacity=".08"/>
  <circle cx="112" cy="304" r="8" fill="white" fill-opacity=".08"/>
  <circle cx="144" cy="304" r="8" fill="white" fill-opacity=".08"/>
  <circle cx="176" cy="304" r="8" fill="white" fill-opacity=".08"/>
  <circle cx="208" cy="304" r="8" fill="white" fill-opacity=".08"/>
  <circle cx="240" cy="304" r="8" fill="white" fill-opacity=".08"/>
  <circle cx="272" cy="304" r="8" fill="#43A1F7"/>
  <circle cx="272" cy="304" r="8" fill="url(#g)"/>
  <circle cx="304" cy="304" r="8" fill="white" fill-opacity=".08"/>
  <circle cx="336" cy="304" r="8" fill="white" fill-opacity=".08"/>
  <circle cx="368" cy="304" r="8" fill="white" fill-opacity=".08"/>
  <circle cx="400" cy="304" r="8" fill="white" fill-opacity=".08"/>
  <circle cx="432" cy="304" r="8" fill="white" fill-opacity=".08"/>
  <circle cx="496" cy="304" r="8" fill="white" fill-opacity=".08"/>
  <circle cx="80" cy="336" r="8" fill="white" fill-opacity=".08"/>
  <circle cx="112" cy="336" r="8" fill="white" fill-opacity=".08"/>
  <circle cx="144" cy="336" r="8" fill="white" fill-opacity=".08"/>
  <circle cx="176" cy="336" r="8" fill="white" fill-opacity=".08"/>
  <circle cx="208" cy="336" r="8" fill="white" fill-opacity=".08"/>
  <circle cx="240" cy="336" r="8" fill="white" fill-opacity=".08"/>
  <circle cx="272" cy="336" r="8" fill="white" fill-opacity=".08"/>
  <circle cx="304" cy="336" r="8" fill="white" fill-opacity=".08"/>
  <circle cx="336" cy="336" r="8" fill="white" fill-opacity=".08"/>
  <circle cx="368" cy="336" r="8" fill="white" fill-opacity=".08"/>
  <circle cx="400" cy="336" r="8" fill="white" fill-opacity=".08"/>
  <circle cx="432" cy="336" r="8" fill="#43A1F7"/>
  <circle cx="432" cy="336" r="8" fill="url(#h)"/>
  <circle cx="464" cy="336" r="8" fill="white" fill-opacity=".08"/>
  <circle cx="496" cy="336" r="8" fill="white" fill-opacity=".08"/>
  <circle cx="112" cy="368" r="8" fill="white" fill-opacity=".08"/>
  <circle cx="144" cy="368" r="8" fill="white" fill-opacity=".08"/>
  <circle cx="176" cy="368" r="8" fill="white" fill-opacity=".08"/>
  <circle cx="208" cy="368" r="8" fill="#43A1F7"/>
  <circle cx="208" cy="368" r="8" fill="url(#i)"/>
  <circle cx="240" cy="368" r="8" fill="white" fill-opacity=".08"/>
  <circle cx="272" cy="368" r="8" fill="white" fill-opacity=".08"/>
  <circle cx="304" cy="368" r="8" fill="white" fill-opacity=".08"/>
  <circle cx="368" cy="368" r="8" fill="white" fill-opacity=".08"/>
  <circle cx="400" cy="368" r="8" fill="white" fill-opacity=".08"/>
  <circle cx="432" cy="368" r="8" fill="white" fill-opacity=".08"/>
  <circle cx="464" cy="368" r="8" fill="white" fill-opacity=".08"/>
  <circle cx="496" cy="368" r="8" fill="white" fill-opacity=".08"/>
  <circle cx="48" cy="400" r="8" fill="white" fill-opacity=".08"/>
  <circle cx="80" cy="400" r="8" fill="white" fill-opacity=".08"/>
  <circle cx="80" cy="400" r="8" fill="url(#j)"/>
  <circle cx="112" cy="400" r="8" fill="white" fill-opacity=".08"/>
  <circle cx="144" cy="400" r="8" fill="white" fill-opacity=".08"/>
  <circle cx="176" cy="400" r="8" fill="white" fill-opacity=".08"/>
  <circle cx="208" cy="400" r="8" fill="white" fill-opacity=".08"/>
  <circle cx="240" cy="400" r="8" fill="white" fill-opacity=".08"/>
  <circle cx="272" cy="400" r="8" fill="white" fill-opacity=".08"/>
  <circle cx="464" cy="400" r="8" fill="white" fill-opacity=".08"/>
  <defs>
    <linearGradient id="a" x1="112.09" x2="120.081" y1="120" y2="111.628" gradientUnits="userSpaceOnUse">
      <stop stop-color="#FFC657"/>
      <stop offset="1" stop-color="#FFD977"/>
    </linearGradient>
    <linearGradient id="b" x1="304.09" x2="312.081" y1="152" y2="143.628" gradientUnits="userSpaceOnUse">
      <stop stop-color="#FFC657"/>
      <stop offset="1" stop-color="#FFD977"/>
    </linearGradient>
    <linearGradient id="c" x1="176.09" x2="184.081" y1="184" y2="175.628" gradientUnits="userSpaceOnUse">
      <stop stop-color="#FFC657"/>
      <stop offset="1" stop-color="#FFD977"/>
    </linearGradient>
    <linearGradient id="d" x1="400.09" x2="408.081" y1="216" y2="207.628" gradientUnits="userSpaceOnUse">
      <stop stop-color="#FFC657"/>
      <stop offset="1" stop-color="#FFD977"/>
    </linearGradient>
    <linearGradient id="e" x1="272.09" x2="280.081" y1="248" y2="239.628" gradientUnits="userSpaceOnUse">
      <stop stop-color="#FFC657"/>
      <stop offset="1" stop-color="#FFD977"/>
    </linearGradient>
    <linearGradient id="f" x1="112.09" x2="120.081" y1="280" y2="271.628" gradientUnits="userSpaceOnUse">
      <stop stop-color="#FFC657"/>
      <stop offset="1" stop-color="#FFD977"/>
    </linearGradient>
    <linearGradient id="g" x1="272.09" x2="280.081" y1="312" y2="303.628" gradientUnits="userSpaceOnUse">
      <stop stop-color="#FFC657"/>
      <stop offset="1" stop-color="#FFD977"/>
    </linearGradient>
    <linearGradient id="h" x1="432.09" x2="440.081" y1="344" y2="335.628" gradientUnits="userSpaceOnUse">
      <stop stop-color="#FFC657"/>
      <stop offset="1" stop-color="#FFD977"/>
    </linearGradient>
    <linearGradient id="i" x1="208.09" x2="216.081" y1="376" y2="367.628" gradientUnits="userSpaceOnUse">
      <stop stop-color="#FFC657"/>
      <stop offset="1" stop-color="#FFD977"/>
    </linearGradient>
    <linearGradient id="j" x1="80.09" x2="88.081" y1="408" y2="399.628" gradientUnits="userSpaceOnUse">
      <stop stop-color="#FFC657"/>
      <stop offset="1" stop-color="#FFD977"/>
    </linearGradient>
  </defs>
</svg>
