<svg width="580" height="432" viewBox="0 0 580 432" fill="none" xmlns="http://www.w3.org/2000/svg">
<circle cx="48" cy="72" r="8" fill="white" fill-opacity="0.08"/>
<circle cx="80" cy="72" r="8" fill="white" fill-opacity="0.08"/>
<circle cx="112" cy="72" r="8" fill="#43A1F7"/>
<circle cx="112" cy="72" r="8" fill="url(#paint0_linear_1_641)"/>
<circle cx="144" cy="72" r="8" fill="white" fill-opacity="0.08"/>
<circle cx="272" cy="72" r="8" fill="white" fill-opacity="0.08"/>
<circle cx="304" cy="72" r="8" fill="white" fill-opacity="0.08"/>
<circle cx="336" cy="72" r="8" fill="white" fill-opacity="0.08"/>
<circle cx="368" cy="72" r="8" fill="white" fill-opacity="0.08"/>
<circle cx="400" cy="72" r="8" fill="white" fill-opacity="0.08"/>
<circle cx="48" cy="104" r="8" fill="white" fill-opacity="0.08"/>
<circle cx="80" cy="104" r="8" fill="white" fill-opacity="0.08"/>
<circle cx="112" cy="104" r="8" fill="white" fill-opacity="0.08"/>
<circle cx="144" cy="104" r="8" fill="white" fill-opacity="0.08"/>
<circle cx="176" cy="104" r="8" fill="white" fill-opacity="0.08"/>
<circle cx="240" cy="104" r="8" fill="white" fill-opacity="0.08"/>
<circle cx="272" cy="104" r="8" fill="white" fill-opacity="0.08"/>
<circle cx="304" cy="104" r="8" fill="#43A1F7"/>
<circle cx="304" cy="104" r="8" fill="url(#paint1_linear_1_641)"/>
<circle cx="336" cy="104" r="8" fill="white" fill-opacity="0.08"/>
<circle cx="368" cy="104" r="8" fill="white" fill-opacity="0.08"/>
<circle cx="400" cy="104" r="8" fill="white" fill-opacity="0.08"/>
<circle cx="432" cy="104" r="8" fill="white" fill-opacity="0.08"/>
<circle cx="496" cy="104" r="8" fill="white" fill-opacity="0.08"/>
<circle cx="112" cy="136" r="8" fill="white" fill-opacity="0.08"/>
<circle cx="144" cy="136" r="8" fill="white" fill-opacity="0.08"/>
<circle cx="176" cy="136" r="8" fill="white" fill-opacity="0.08"/>
<circle cx="176" cy="136" r="8" fill="url(#paint2_linear_1_641)"/>
<circle cx="208" cy="136" r="8" fill="white" fill-opacity="0.08"/>
<circle cx="240" cy="136" r="8" fill="white" fill-opacity="0.08"/>
<circle cx="272" cy="136" r="8" fill="white" fill-opacity="0.08"/>
<circle cx="304" cy="136" r="8" fill="white" fill-opacity="0.08"/>
<circle cx="336" cy="136" r="8" fill="white" fill-opacity="0.08"/>
<circle cx="368" cy="136" r="8" fill="white" fill-opacity="0.08"/>
<circle cx="400" cy="136" r="8" fill="white" fill-opacity="0.08"/>
<circle cx="432" cy="136" r="8" fill="white" fill-opacity="0.08"/>
<circle cx="464" cy="136" r="8" fill="white" fill-opacity="0.08"/>
<circle cx="496" cy="136" r="8" fill="white" fill-opacity="0.08"/>
<circle cx="144" cy="168" r="8" fill="white" fill-opacity="0.08"/>
<circle cx="176" cy="168" r="8" fill="white" fill-opacity="0.08"/>
<circle cx="208" cy="168" r="8" fill="white" fill-opacity="0.08"/>
<circle cx="240" cy="168" r="8" fill="white" fill-opacity="0.08"/>
<circle cx="272" cy="168" r="8" fill="white" fill-opacity="0.08"/>
<circle cx="304" cy="168" r="8" fill="white" fill-opacity="0.08"/>
<circle cx="336" cy="168" r="8" fill="white" fill-opacity="0.08"/>
<circle cx="368" cy="168" r="8" fill="white" fill-opacity="0.08"/>
<circle cx="400" cy="168" r="8" fill="#43A1F7"/>
<circle cx="400" cy="168" r="8" fill="url(#paint3_linear_1_641)"/>
<circle cx="432" cy="168" r="8" fill="white" fill-opacity="0.08"/>
<circle cx="464" cy="168" r="8" fill="white" fill-opacity="0.08"/>
<circle cx="48" cy="200" r="8" fill="white" fill-opacity="0.08"/>
<circle cx="80" cy="200" r="8" fill="white" fill-opacity="0.08"/>
<circle cx="112" cy="200" r="8" fill="white" fill-opacity="0.08"/>
<circle cx="144" cy="200" r="8" fill="white" fill-opacity="0.08"/>
<circle cx="176" cy="200" r="8" fill="white" fill-opacity="0.08"/>
<circle cx="208" cy="200" r="8" fill="white" fill-opacity="0.08"/>
<circle cx="240" cy="200" r="8" fill="white" fill-opacity="0.08"/>
<circle cx="272" cy="200" r="8" fill="white" fill-opacity="0.08"/>
<circle cx="272" cy="200" r="8" fill="url(#paint4_linear_1_641)"/>
<circle cx="304" cy="200" r="8" fill="white" fill-opacity="0.08"/>
<circle cx="336" cy="200" r="8" fill="white" fill-opacity="0.08"/>
<circle cx="368" cy="200" r="8" fill="white" fill-opacity="0.08"/>
<circle cx="400" cy="200" r="8" fill="white" fill-opacity="0.08"/>
<circle cx="432" cy="200" r="8" fill="white" fill-opacity="0.08"/>
<circle cx="464" cy="200" r="8" fill="white" fill-opacity="0.08"/>
<circle cx="496" cy="200" r="8" fill="white" fill-opacity="0.08"/>
<circle cx="48" cy="232" r="8" fill="white" fill-opacity="0.08"/>
<circle cx="80" cy="232" r="8" fill="white" fill-opacity="0.08"/>
<circle cx="112" cy="232" r="8" fill="#43A1F7"/>
<circle cx="112" cy="232" r="8" fill="url(#paint5_linear_1_641)"/>
<circle cx="144" cy="232" r="8" fill="white" fill-opacity="0.08"/>
<circle cx="176" cy="232" r="8" fill="white" fill-opacity="0.08"/>
<circle cx="208" cy="232" r="8" fill="white" fill-opacity="0.08"/>
<circle cx="240" cy="232" r="8" fill="white" fill-opacity="0.08"/>
<circle cx="272" cy="232" r="8" fill="white" fill-opacity="0.08"/>
<circle cx="304" cy="232" r="8" fill="white" fill-opacity="0.08"/>
<circle cx="336" cy="232" r="8" fill="white" fill-opacity="0.08"/>
<circle cx="368" cy="232" r="8" fill="white" fill-opacity="0.08"/>
<circle cx="400" cy="232" r="8" fill="white" fill-opacity="0.08"/>
<circle cx="432" cy="232" r="8" fill="white" fill-opacity="0.08"/>
<circle cx="48" cy="264" r="8" fill="white" fill-opacity="0.08"/>
<circle cx="80" cy="264" r="8" fill="white" fill-opacity="0.08"/>
<circle cx="112" cy="264" r="8" fill="white" fill-opacity="0.08"/>
<circle cx="144" cy="264" r="8" fill="white" fill-opacity="0.08"/>
<circle cx="176" cy="264" r="8" fill="white" fill-opacity="0.08"/>
<circle cx="208" cy="264" r="8" fill="white" fill-opacity="0.08"/>
<circle cx="240" cy="264" r="8" fill="white" fill-opacity="0.08"/>
<circle cx="272" cy="264" r="8" fill="#43A1F7"/>
<circle cx="272" cy="264" r="8" fill="url(#paint6_linear_1_641)"/>
<circle cx="304" cy="264" r="8" fill="white" fill-opacity="0.08"/>
<circle cx="336" cy="264" r="8" fill="white" fill-opacity="0.08"/>
<circle cx="368" cy="264" r="8" fill="white" fill-opacity="0.08"/>
<circle cx="400" cy="264" r="8" fill="white" fill-opacity="0.08"/>
<circle cx="432" cy="264" r="8" fill="white" fill-opacity="0.08"/>
<circle cx="496" cy="264" r="8" fill="white" fill-opacity="0.08"/>
<circle cx="80" cy="296" r="8" fill="white" fill-opacity="0.08"/>
<circle cx="112" cy="296" r="8" fill="white" fill-opacity="0.08"/>
<circle cx="144" cy="296" r="8" fill="white" fill-opacity="0.08"/>
<circle cx="176" cy="296" r="8" fill="white" fill-opacity="0.08"/>
<circle cx="208" cy="296" r="8" fill="white" fill-opacity="0.08"/>
<circle cx="240" cy="296" r="8" fill="white" fill-opacity="0.08"/>
<circle cx="272" cy="296" r="8" fill="white" fill-opacity="0.08"/>
<circle cx="304" cy="296" r="8" fill="white" fill-opacity="0.08"/>
<circle cx="336" cy="296" r="8" fill="white" fill-opacity="0.08"/>
<circle cx="368" cy="296" r="8" fill="white" fill-opacity="0.08"/>
<circle cx="400" cy="296" r="8" fill="white" fill-opacity="0.08"/>
<circle cx="432" cy="296" r="8" fill="#43A1F7"/>
<circle cx="432" cy="296" r="8" fill="url(#paint7_linear_1_641)"/>
<circle cx="464" cy="296" r="8" fill="white" fill-opacity="0.08"/>
<circle cx="496" cy="296" r="8" fill="white" fill-opacity="0.08"/>
<circle cx="112" cy="328" r="8" fill="white" fill-opacity="0.08"/>
<circle cx="144" cy="328" r="8" fill="white" fill-opacity="0.08"/>
<circle cx="176" cy="328" r="8" fill="white" fill-opacity="0.08"/>
<circle cx="208" cy="328" r="8" fill="#43A1F7"/>
<circle cx="208" cy="328" r="8" fill="url(#paint8_linear_1_641)"/>
<circle cx="240" cy="328" r="8" fill="white" fill-opacity="0.08"/>
<circle cx="272" cy="328" r="8" fill="white" fill-opacity="0.08"/>
<circle cx="304" cy="328" r="8" fill="white" fill-opacity="0.08"/>
<circle cx="368" cy="328" r="8" fill="white" fill-opacity="0.08"/>
<circle cx="400" cy="328" r="8" fill="white" fill-opacity="0.08"/>
<circle cx="432" cy="328" r="8" fill="white" fill-opacity="0.08"/>
<circle cx="464" cy="328" r="8" fill="white" fill-opacity="0.08"/>
<circle cx="496" cy="328" r="8" fill="white" fill-opacity="0.08"/>
<circle cx="48" cy="360" r="8" fill="white" fill-opacity="0.08"/>
<circle cx="80" cy="360" r="8" fill="white" fill-opacity="0.08"/>
<circle cx="80" cy="360" r="8" fill="url(#paint9_linear_1_641)"/>
<circle cx="112" cy="360" r="8" fill="white" fill-opacity="0.08"/>
<circle cx="144" cy="360" r="8" fill="white" fill-opacity="0.08"/>
<circle cx="176" cy="360" r="8" fill="white" fill-opacity="0.08"/>
<circle cx="208" cy="360" r="8" fill="white" fill-opacity="0.08"/>
<circle cx="240" cy="360" r="8" fill="white" fill-opacity="0.08"/>
<circle cx="272" cy="360" r="8" fill="white" fill-opacity="0.08"/>
<circle cx="464" cy="360" r="8" fill="white" fill-opacity="0.08"/>
<defs>
<linearGradient id="paint0_linear_1_641" x1="112.09" y1="80" x2="120.081" y2="71.6285" gradientUnits="userSpaceOnUse">
<stop stop-color="#FFC657"/>
<stop offset="1" stop-color="#FFD977"/>
</linearGradient>
<linearGradient id="paint1_linear_1_641" x1="304.09" y1="112" x2="312.081" y2="103.628" gradientUnits="userSpaceOnUse">
<stop stop-color="#FFC657"/>
<stop offset="1" stop-color="#FFD977"/>
</linearGradient>
<linearGradient id="paint2_linear_1_641" x1="176.09" y1="144" x2="184.081" y2="135.628" gradientUnits="userSpaceOnUse">
<stop stop-color="#FFC657"/>
<stop offset="1" stop-color="#FFD977"/>
</linearGradient>
<linearGradient id="paint3_linear_1_641" x1="400.09" y1="176" x2="408.081" y2="167.628" gradientUnits="userSpaceOnUse">
<stop stop-color="#FFC657"/>
<stop offset="1" stop-color="#FFD977"/>
</linearGradient>
<linearGradient id="paint4_linear_1_641" x1="272.09" y1="208" x2="280.081" y2="199.628" gradientUnits="userSpaceOnUse">
<stop stop-color="#FFC657"/>
<stop offset="1" stop-color="#FFD977"/>
</linearGradient>
<linearGradient id="paint5_linear_1_641" x1="112.09" y1="240" x2="120.081" y2="231.628" gradientUnits="userSpaceOnUse">
<stop stop-color="#FFC657"/>
<stop offset="1" stop-color="#FFD977"/>
</linearGradient>
<linearGradient id="paint6_linear_1_641" x1="272.09" y1="272" x2="280.081" y2="263.628" gradientUnits="userSpaceOnUse">
<stop stop-color="#FFC657"/>
<stop offset="1" stop-color="#FFD977"/>
</linearGradient>
<linearGradient id="paint7_linear_1_641" x1="432.09" y1="304" x2="440.081" y2="295.628" gradientUnits="userSpaceOnUse">
<stop stop-color="#FFC657"/>
<stop offset="1" stop-color="#FFD977"/>
</linearGradient>
<linearGradient id="paint8_linear_1_641" x1="208.09" y1="336" x2="216.081" y2="327.628" gradientUnits="userSpaceOnUse">
<stop stop-color="#FFC657"/>
<stop offset="1" stop-color="#FFD977"/>
</linearGradient>
<linearGradient id="paint9_linear_1_641" x1="80.0899" y1="368" x2="88.0813" y2="359.628" gradientUnits="userSpaceOnUse">
<stop stop-color="#FFC657"/>
<stop offset="1" stop-color="#FFD977"/>
</linearGradient>
</defs>
</svg>
