<svg width="380" height="200" viewBox="0 0 380 200" fill="none" xmlns="http://www.w3.org/2000/svg">
    <rect x="40" y="32" width="118" height="36" rx="16" fill="#43A1F7"/>
    <rect x="40" y="32" width="118" height="36" rx="16" fill="url(#paint0_linear_1333_664)"/>
    <path d="M57.5436 56.1591C56.6951 56.1591 55.9394 56.0133 55.2765 55.7216C54.6174 55.4261 54.0966 55.0208 53.714 54.5057C53.3352 53.9867 53.1402 53.3883 53.1288 52.7102H55.6061C55.6212 52.9943 55.714 53.2443 55.8845 53.4602C56.0587 53.6723 56.2898 53.8371 56.5777 53.9545C56.8655 54.072 57.1894 54.1307 57.5493 54.1307C57.9243 54.1307 58.2557 54.0644 58.5436 53.9318C58.8314 53.7992 59.0568 53.6155 59.2197 53.3807C59.3826 53.1458 59.464 52.875 59.464 52.5682C59.464 52.2576 59.3769 51.983 59.2027 51.7443C59.0322 51.5019 58.786 51.3125 58.464 51.1761C58.1458 51.0398 57.7671 50.9716 57.3277 50.9716H56.2424V49.1648H57.3277C57.6989 49.1648 58.0265 49.1004 58.3106 48.9716C58.5985 48.8428 58.822 48.6648 58.9811 48.4375C59.1402 48.2064 59.2197 47.9375 59.2197 47.6307C59.2197 47.339 59.1496 47.0833 59.0095 46.8636C58.8731 46.6402 58.6799 46.4659 58.4299 46.3409C58.1837 46.2159 57.8958 46.1534 57.5663 46.1534C57.233 46.1534 56.928 46.214 56.6515 46.3352C56.375 46.4527 56.1534 46.6212 55.9868 46.8409C55.8201 47.0606 55.7311 47.3182 55.7197 47.6136H53.3618C53.3731 46.9432 53.5644 46.3523 53.9356 45.8409C54.3068 45.3295 54.8068 44.9299 55.4356 44.642C56.0682 44.3504 56.7822 44.2045 57.5777 44.2045C58.3807 44.2045 59.0833 44.3504 59.6856 44.642C60.2879 44.9337 60.7557 45.3277 61.089 45.8239C61.4261 46.3163 61.5928 46.8693 61.589 47.483C61.5928 48.1345 61.3902 48.678 60.9811 49.1136C60.5758 49.5492 60.0474 49.8258 59.3958 49.9432V50.0341C60.2519 50.1439 60.9034 50.4413 61.3504 50.9261C61.8011 51.4072 62.0246 52.0095 62.0208 52.733C62.0246 53.3958 61.8333 53.9848 61.447 54.5C61.0644 55.0152 60.536 55.4205 59.8618 55.7159C59.1875 56.0114 58.4148 56.1591 57.5436 56.1591ZM68.0958 56.2557C67.1185 56.2519 66.2776 56.0114 65.5731 55.5341C64.8723 55.0568 64.3326 54.3655 63.9538 53.4602C63.5788 52.5549 63.3932 51.4659 63.3969 50.1932C63.3969 48.9242 63.5844 47.8428 63.9594 46.9489C64.3382 46.0549 64.878 45.375 65.5788 44.9091C66.2833 44.4394 67.1223 44.2045 68.0958 44.2045C69.0693 44.2045 69.9064 44.4394 70.6072 44.9091C71.3117 45.3788 71.8534 46.0606 72.2322 46.9545C72.611 47.8447 72.7985 48.9242 72.7947 50.1932C72.7947 51.4697 72.6053 52.5606 72.2265 53.4659C71.8515 54.3712 71.3136 55.0625 70.6129 55.5398C69.9121 56.017 69.0731 56.2557 68.0958 56.2557ZM68.0958 54.2159C68.7625 54.2159 69.2947 53.8807 69.6924 53.2102C70.0901 52.5398 70.2871 51.5341 70.2833 50.1932C70.2833 49.3106 70.1924 48.5758 70.0106 47.9886C69.8326 47.4015 69.5788 46.9602 69.2492 46.6648C68.9235 46.3693 68.539 46.2216 68.0958 46.2216C67.4329 46.2216 66.9026 46.553 66.5049 47.2159C66.1072 47.8788 65.9064 48.8712 65.9026 50.1932C65.9026 51.0871 65.9916 51.8333 66.1697 52.4318C66.3515 53.0265 66.6072 53.4735 66.9367 53.7727C67.2663 54.0682 67.6526 54.2159 68.0958 54.2159ZM80.6623 53.8182V53.2045C80.6623 52.7386 80.7607 52.3106 80.9577 51.9205C81.1585 51.5265 81.4482 51.2121 81.827 50.9773C82.2096 50.7386 82.6755 50.6193 83.2248 50.6193C83.7816 50.6193 84.2494 50.7367 84.6282 50.9716C85.0107 51.2064 85.2986 51.5208 85.4918 51.9148C85.6888 52.3049 85.7873 52.7348 85.7873 53.2045V53.8182C85.7873 54.2841 85.6888 54.714 85.4918 55.108C85.2948 55.4981 85.0051 55.8106 84.6225 56.0455C84.2399 56.2841 83.774 56.4034 83.2248 56.4034C82.6679 56.4034 82.2001 56.2841 81.8213 56.0455C81.4426 55.8106 81.1547 55.4981 80.9577 55.108C80.7607 54.714 80.6623 54.2841 80.6623 53.8182ZM82.3157 53.2045V53.8182C82.3157 54.0871 82.3801 54.3409 82.5088 54.5795C82.6414 54.8182 82.8801 54.9375 83.2248 54.9375C83.5694 54.9375 83.8043 54.8201 83.9293 54.5852C84.0581 54.3504 84.1225 54.0947 84.1225 53.8182V53.2045C84.1225 52.928 84.0619 52.6705 83.9407 52.4318C83.8194 52.1932 83.5808 52.0739 83.2248 52.0739C82.8838 52.0739 82.6471 52.1932 82.5145 52.4318C82.3819 52.6705 82.3157 52.928 82.3157 53.2045ZM74.6907 47.1591V46.5455C74.6907 46.0758 74.791 45.6458 74.9918 45.2557C75.1926 44.8617 75.4823 44.5473 75.8611 44.3125C76.2437 44.0777 76.7058 43.9602 77.2475 43.9602C77.8081 43.9602 78.2778 44.0777 78.6566 44.3125C79.0354 44.5473 79.3232 44.8617 79.5202 45.2557C79.7172 45.6458 79.8157 46.0758 79.8157 46.5455V47.1591C79.8157 47.6288 79.7153 48.0587 79.5145 48.4489C79.3176 48.839 79.0278 49.1515 78.6452 49.3864C78.2664 49.6174 77.8005 49.733 77.2475 49.733C76.6944 49.733 76.2266 49.6155 75.8441 49.3807C75.4653 49.142 75.1774 48.8295 74.9804 48.4432C74.7873 48.053 74.6907 47.625 74.6907 47.1591ZM76.3554 46.5455V47.1591C76.3554 47.4356 76.4198 47.6913 76.5486 47.9261C76.6812 48.161 76.9141 48.2784 77.2475 48.2784C77.596 48.2784 77.8327 48.161 77.9577 47.9261C78.0865 47.6913 78.1509 47.4356 78.1509 47.1591V46.5455C78.1509 46.2689 78.0903 46.0114 77.9691 45.7727C77.8479 45.5341 77.6073 45.4148 77.2475 45.4148C76.9104 45.4148 76.6774 45.536 76.5486 45.7784C76.4198 46.0208 76.3554 46.2765 76.3554 46.5455ZM75.4407 56L83.4407 44.3636H84.9293L76.9293 56H75.4407ZM93.3079 56H90.6716L94.6886 44.3636H97.8591L101.87 56H99.2341L96.3193 47.0227H96.2284L93.3079 56ZM93.1432 51.4261H99.3704V53.3466H93.1432V51.4261ZM103.015 56V44.3636H107.606C108.488 44.3636 109.24 44.5322 109.862 44.8693C110.483 45.2027 110.956 45.6667 111.282 46.2614C111.612 46.8523 111.776 47.5341 111.776 48.3068C111.776 49.0795 111.61 49.7614 111.276 50.3523C110.943 50.9432 110.46 51.4034 109.827 51.733C109.199 52.0625 108.437 52.2273 107.543 52.2273H104.617V50.2557H107.146C107.619 50.2557 108.009 50.1742 108.316 50.0114C108.627 49.8447 108.858 49.6155 109.009 49.3239C109.165 49.0284 109.242 48.6894 109.242 48.3068C109.242 47.9205 109.165 47.5833 109.009 47.2955C108.858 47.0038 108.627 46.7784 108.316 46.6193C108.006 46.4564 107.612 46.375 107.134 46.375H105.475V56H103.015ZM112.437 44.3636H115.192L117.846 49.375H117.959L120.613 44.3636H123.368L119.124 51.8864V56H116.681V51.8864L112.437 44.3636Z" fill="white"/>
    <path fill-rule="evenodd" clip-rule="evenodd" d="M137 42.5L137.323 41.8231C137.091 41.7122 136.818 41.7283 136.6 41.8657C136.382 42.003 136.25 42.2425 136.25 42.5C136.25 43.107 136.28 43.7758 136.309 44.4368L136.309 44.437C136.317 44.6153 136.325 44.793 136.333 44.9687C136.368 45.8119 136.389 46.621 136.345 47.3282C136.3 48.0525 136.19 48.5776 136.02 48.9014C135.94 49.0525 135.862 49.1321 135.797 49.1753C135.737 49.2149 135.649 49.25 135.5 49.25C135.256 49.25 135.115 49.1917 135.02 49.1212C134.917 49.0454 134.802 48.9068 134.696 48.6433C134.474 48.0863 134.375 47.1844 134.375 45.875C134.375 45.5831 134.206 45.3178 133.941 45.1948C133.676 45.0718 133.364 45.1136 133.141 45.3019L133.625 45.875C133.141 45.3019 133.141 45.3021 133.141 45.3023L133.14 45.3027L133.139 45.3037L133.136 45.3064L133.127 45.3143L133.098 45.3398C133.074 45.3611 133.04 45.3911 132.999 45.4296C132.917 45.5064 132.804 45.6172 132.669 45.76C132.4 46.045 132.045 46.4608 131.689 46.9918C130.981 48.0495 130.25 49.5999 130.25 51.5C130.25 55.3261 133.214 58.25 137 58.25C140.786 58.25 143.75 55.3261 143.75 51.5C143.75 48.1658 142.115 45.7353 140.527 44.1655C139.733 43.3798 138.94 42.799 138.345 42.4138C138.047 42.2209 137.797 42.0759 137.619 41.978C137.53 41.929 137.459 41.8916 137.409 41.8659C137.384 41.853 137.364 41.843 137.349 41.8359L137.332 41.8274L137.326 41.8247L137.324 41.8238L137.324 41.8234C137.323 41.8233 137.323 41.8231 137 42.5Z" fill="white"/>
    <rect x="40" y="154" width="24" height="14" rx="7" fill="white" fill-opacity="0.08"/>
    <rect x="70.6665" y="148" width="24" height="20" rx="8" fill="white" fill-opacity="0.08"/>
    <rect x="101.333" y="142" width="24" height="26" rx="8" fill="white" fill-opacity="0.08"/>
    <rect x="132" y="134" width="24" height="34" rx="8" fill="white" fill-opacity="0.08"/>
    <rect x="162.667" y="124" width="24" height="44" rx="8" fill="white" fill-opacity="0.08"/>
    <rect x="193.333" y="112" width="24" height="56" rx="8" fill="white" fill-opacity="0.08"/>
    <rect x="224" y="88" width="24" height="80" rx="8" fill="white" fill-opacity="0.08"/>
    <rect x="254.667" y="72" width="24" height="96" rx="8" fill="white" fill-opacity="0.08"/>
    <rect x="285.333" y="52" width="24" height="116" rx="8" fill="white" fill-opacity="0.08"/>
    <rect x="316" y="32" width="24" height="136" rx="8" fill="white" fill-opacity="0.08"/>
    <defs>
    <linearGradient id="paint0_linear_1333_664" x1="158" y1="32" x2="37.3278" y2="48.7592" gradientUnits="userSpaceOnUse">
    <stop stop-color="#577CFF"/>
    <stop offset="1" stop-color="#4CBFFF"/>
    </linearGradient>
    </defs>
</svg>
