<svg width="380" height="200" viewBox="0 0 380 200" fill="none" xmlns="http://www.w3.org/2000/svg">
    <rect x="70" y="64" width="72" height="72" rx="36" fill="white" fill-opacity="0.08"/>
    <path d="M121.875 94.871C122.591 90.0802 118.944 87.5049 113.956 85.787L115.574 79.2974L111.624 78.3131L110.049 84.6318C109.01 84.3728 107.944 84.1287 106.884 83.8868L108.47 77.5263L104.522 76.542L102.903 83.0295C102.044 82.8338 101.2 82.6404 100.381 82.4366L100.385 82.4162L94.9377 81.0558L93.8869 85.2751C93.8869 85.2751 96.8177 85.947 96.756 85.9883C98.3557 86.3876 98.645 87.4465 98.5969 88.2859L96.7539 95.679C96.864 95.707 97.0069 95.7475 97.1646 95.8108C97.0328 95.7781 96.8925 95.7424 96.747 95.7075L94.1637 106.064C93.9682 106.55 93.4719 107.28 92.3535 107.003C92.3931 107.06 89.4823 106.286 89.4823 106.286L87.521 110.808L92.6618 112.09C93.6182 112.33 94.5554 112.58 95.4783 112.816L93.8436 119.38L97.7894 120.365L99.4083 113.87C100.486 114.163 101.532 114.433 102.556 114.687L100.943 121.151L104.894 122.135L106.528 115.584C113.264 116.859 118.33 116.345 120.462 110.252C122.18 105.346 120.376 102.517 116.832 100.672C119.413 100.076 121.358 98.3785 121.876 94.8715L121.875 94.8706L121.875 94.871ZM112.849 107.527C111.628 112.433 103.369 109.781 100.691 109.116L102.86 100.42C105.538 101.089 114.125 102.411 112.849 107.527H112.849ZM114.071 94.7999C112.957 99.262 106.082 96.9951 103.852 96.4392L105.819 88.5523C108.049 89.1082 115.231 90.1456 114.071 94.7999H114.071Z" fill="white"/>
    <rect x="68.5" y="62.5" width="75" height="75" rx="37.5" stroke="white" stroke-opacity="0.12" stroke-width="3"/>
    <rect x="238" y="64" width="72" height="72" rx="36" fill="white" fill-opacity="0.08"/>
    <path fill-rule="evenodd" clip-rule="evenodd" d="M288.625 89.5L254.5 110.5H293.5L288.625 89.5ZM259.375 89.5L270.746 98.089L254.5 110.5L259.375 89.5Z" fill="white"/>
    <rect x="236.5" y="62.5" width="75" height="75" rx="37.5" stroke="white" stroke-opacity="0.12" stroke-width="3"/>
    <rect x="162" y="84" width="56" height="32" rx="16" fill="#43A1F7"/>
    <rect x="162" y="84" width="56" height="32" rx="16" fill="url(#paint0_linear_1450_1230)"/>
    <rect x="188" y="86" width="28" height="28" rx="14" fill="white"/>
    <g clip-path="url(#clip0_1450_1230)">
    <path fill-rule="evenodd" clip-rule="evenodd" d="M205.25 95.0002C205.25 94.4939 204.84 94.0835 204.333 94.0835H204.28C203.851 94.0835 203.474 94.3645 203.351 94.7749L203.008 95.9168H204.333C204.84 95.9168 205.25 95.5064 205.25 95.0002ZM206.57 95.9168C206.686 95.6342 206.75 95.3246 206.75 95.0002C206.75 93.6655 205.668 92.5835 204.333 92.5835H204.28C203.275 92.5835 202.38 93.1905 202 94.1027C201.62 93.1905 200.725 92.5835 199.72 92.5835H199.667C198.332 92.5835 197.25 93.6655 197.25 95.0002C197.25 95.3246 197.314 95.6342 197.43 95.9168H196.333C195.367 95.9168 194.583 96.7003 194.583 97.6668C194.583 98.6333 195.367 99.4168 196.333 99.4168H207.667C208.633 99.4168 209.417 98.6333 209.417 97.6668C209.417 96.7003 208.633 95.9168 207.667 95.9168H206.57ZM199.667 95.9168H200.992L200.649 94.7749C200.526 94.3645 200.149 94.0835 199.72 94.0835H199.667C199.16 94.0835 198.75 94.4939 198.75 95.0002C198.75 95.5064 199.16 95.9168 199.667 95.9168ZM198.287 99.9167L198.381 99.9168H205.619L205.713 99.9167C206.095 99.916 206.46 99.9153 206.777 100.026C207.338 100.222 207.778 100.663 207.974 101.223C208.085 101.54 208.084 101.905 208.083 102.287L208.083 102.381L208.083 102.53C208.084 103.582 208.084 104.302 207.873 104.905C207.496 105.983 206.649 106.829 205.572 107.206C204.968 107.418 204.249 107.417 203.197 107.417L203.048 107.417H200.952L200.803 107.417C199.751 107.417 199.032 107.418 198.428 107.206C197.351 106.829 196.504 105.983 196.127 104.905C195.916 104.302 195.916 103.582 195.917 102.53L195.917 102.381L195.917 102.287C195.916 101.905 195.915 101.54 196.026 101.223C196.222 100.663 196.663 100.222 197.223 100.026C197.54 99.9153 197.905 99.916 198.287 99.9167Z" fill="#43A1F7"/>
    </g>
    <defs>
    <linearGradient id="paint0_linear_1450_1230" x1="218" y1="84" x2="159.946" y2="88.3046" gradientUnits="userSpaceOnUse">
    <stop stop-color="#577CFF"/>
    <stop offset="1" stop-color="#4CBFFF"/>
    </linearGradient>
    <clipPath id="clip0_1450_1230">
    <rect width="16" height="16" fill="white" transform="translate(194 92)"/>
    </clipPath>
    </defs>
</svg>
