<svg width="58" height="57" fill="none" xmlns="http://www.w3.org/2000/svg">
  <g clip-path="url(#clip0)" fill="#387553">
    <path d="M42.333 4.422a4.922 4.922 0 00-4.815-3.93.983.983 0 100 1.965 2.952 2.952 0 012.948 2.948 2.952 2.952 0 01-2.948 2.948.983.983 0 100 1.966 4.923 4.923 0 004.815-3.931h12.875v8.845H2.138V6.388h16.708a.982.982 0 100-1.966H17.06a2.943 2.943 0 012.767-1.965 2.952 2.952 0 012.949 2.948 2.952 2.952 0 01-2.949 2.948.982.982 0 100 1.966 4.92 4.92 0 004.914-4.914A4.92 4.92 0 0019.828.491a4.923 4.923 0 00-4.814 3.931H.174v52.086h57V4.423H42.332zm12.875 50.121H2.138V17.198h53.07v37.345z"/>
    <path d="M25.725 2.457a2.952 2.952 0 012.948 2.948 2.952 2.952 0 01-2.948 2.948.983.983 0 100 1.966 4.92 4.92 0 004.914-4.914A4.92 4.92 0 0025.725.491a.983.983 0 100 1.966z"/>
    <path d="M31.622 2.457a2.952 2.952 0 012.948 2.948 2.952 2.952 0 01-2.948 2.948.983.983 0 100 1.966 4.92 4.92 0 004.913-4.914A4.92 4.92 0 0031.622.491a.983.983 0 100 1.966zM9.018 25.06h21.62a.983.983 0 100-1.965H9.019a.983.983 0 100 1.965zM48.328 38.819H33.587a.983.983 0 100 1.965h14.741a.982.982 0 100-1.965zM9.018 32.922h9.828a.983.983 0 100-1.965H9.018a.983.983 0 100 1.965zM48.328 46.681h-9.827a.982.982 0 100 1.966h9.827a.983.983 0 100-1.966zM27.69 31.94c0 .543.44.982.983.982h14.742a.983.983 0 100-1.965H28.673a.982.982 0 00-.982.983zM24.457 32.637c.177-.186.285-.442.285-.697a1.03 1.03 0 00-.285-.698c-.363-.364-1.032-.364-1.395 0a1.03 1.03 0 00-.285.698c0 .255.108.51.285.697a.993.993 0 001.395 0zM12.95 39.802c0 .543.44.983.982.983h14.741a.983.983 0 100-1.966H13.932a.983.983 0 00-.983.983zM9.018 40.785c.256 0 .511-.109.698-.285.177-.187.285-.443.285-.698a.988.988 0 00-.285-.688c-.364-.374-1.032-.374-1.396-.01a1.03 1.03 0 00-.285.698c0 .255.108.51.285.697.187.177.433.285.698.285zM48.328 32.922c.256 0 .511-.099.698-.285a.99.99 0 00.285-.697.986.986 0 00-.285-.698c-.373-.364-1.032-.364-1.395 0a1.03 1.03 0 00-.285.698c0 .255.108.51.285.697a.993.993 0 00.697.285zM33.587 46.681H9.018a.983.983 0 100 1.966h24.57a.983.983 0 100-1.966z"/>
  </g>
  <defs>
    <clipPath id="clip0">
      <path fill="#fff" transform="translate(.173)" d="M0 0h57v57H0z"/>
    </clipPath>
  </defs>
</svg>
