<svg width="28" height="28" fill="none" xmlns="http://www.w3.org/2000/svg">
  <path d="M14.353 14.816h12.86c.437 0 .787-.35.787-.787a.784.784 0 00-.787-.787h-12.86a4.002 4.002 0 00-3.918-3.206 4.002 4.002 0 00-3.917 3.206H.793a.784.784 0 00-.787.787c0 .437.35.787.787.787h5.725a4.002 4.002 0 003.917 3.206c1.93 0 3.55-1.375 3.918-3.206zm-6.337-.787a2.42 2.42 0 012.42-2.42 2.42 2.42 0 012.418 2.42 2.42 2.42 0 01-2.419 2.42 2.42 2.42 0 01-2.42-2.42zM20.952 5.18h6.261c.437 0 .787-.35.787-.787a.784.784 0 00-.787-.787h-6.261A4.002 4.002 0 0017.034.399a4.002 4.002 0 00-3.917 3.207H.793a.784.784 0 00-.787.787c0 .437.35.787.787.787h12.33a4.002 4.002 0 003.917 3.206 3.996 3.996 0 003.912-3.206zm-6.337-.787a2.42 2.42 0 012.42-2.42 2.42 2.42 0 012.419 2.42 2.42 2.42 0 01-2.42 2.42 2.425 2.425 0 01-2.419-2.42zM20.952 24.395h6.261c.437 0 .787-.35.787-.787a.784.784 0 00-.787-.787h-6.261a4.002 4.002 0 00-3.918-3.207 4.002 4.002 0 00-3.917 3.207H.787a.784.784 0 00-.787.787c0 .437.35.787.787.787h12.336A4.002 4.002 0 0017.04 27.6a3.99 3.99 0 003.912-3.206zm-6.337-.787a2.42 2.42 0 012.42-2.42 2.42 2.42 0 012.419 2.42 2.42 2.42 0 01-2.42 2.419 2.42 2.42 0 01-2.419-2.42z" fill="#fff"/>
</svg>
