<svg width="56" height="56" fill="none" xmlns="http://www.w3.org/2000/svg">
  <path d="M.432 53.484L53.484.432l2.084 2.084L2.516 55.568.432 53.484zM8.842 17.684c4.877 0 8.842-3.966 8.842-8.842S13.718 0 8.842 0 0 3.966 0 8.842c0 4.877 3.966 8.842 8.842 8.842zm0-14.737a5.9 5.9 0 015.895 5.895 5.9 5.9 0 01-5.895 5.895 5.9 5.9 0 01-5.895-5.895 5.9 5.9 0 015.895-5.895zM47.158 38.316c-4.877 0-8.842 3.965-8.842 8.842 0 4.876 3.965 8.842 8.842 8.842C52.034 56 56 52.034 56 47.158c0-4.877-3.966-8.842-8.842-8.842zm0 14.737a5.9 5.9 0 01-5.895-5.895 5.9 5.9 0 015.895-5.895 5.9 5.9 0 015.895 5.895 5.9 5.9 0 01-5.895 5.895z" fill="#387553"/>
</svg>
