<svg width="68" height="68" fill="none" xmlns="http://www.w3.org/2000/svg">
  <g clip-path="url(#clip0)">
    <path d="M64.779 24.367h-2.806v-10.2H29.877l-5.634-7.934H3.078C1.381 6.233 0 7.623 0 9.33v49.512h.007a2.893 2.893 0 00.588 1.785 2.863 2.863 0 002.295 1.14h50.434c1.302 0 2.45-.883 2.76-2.055l11.523-31.777v-.2c0-1.952-1.19-3.368-2.828-3.368zm-5.06-7.934v7.934h-9.014v-3.4a1.13 1.13 0 00-1.127-1.134 1.13 1.13 0 00-1.126 1.134v3.4h-5.634v-3.4a1.13 1.13 0 00-1.127-1.134 1.13 1.13 0 00-1.127 1.134v3.4H34.93v-3.4a1.13 1.13 0 00-1.127-1.134 1.13 1.13 0 00-1.126 1.134v3.4h-5.634v-3.4a1.13 1.13 0 00-1.127-1.134 1.13 1.13 0 00-1.127 1.134v3.4h-5.634v-3.4a1.13 1.13 0 00-1.127-1.134 1.13 1.13 0 00-1.126 1.134v3.4h-2.557c-.161 0-.32.013-.475.04-1.098.183-2.013.988-2.286 2.014l-.357.986-5.593 15.425V23.233h6.76v-6.8H59.72zM7.227 20.967l2.914-2.931v2.93H7.227zM2.254 9.33c0-.458.37-.83.824-.83h20.004l4.024 5.667H10.8l-7.42 7.464v27.296L2.253 52.02V9.329zm51.684 49.697a.639.639 0 01-.614.473H2.89a.621.621 0 01-.505-.252c-.07-.092-.18-.29-.138-.462L3.38 55.66v.001L13.702 27.2l.029-.093a.639.639 0 01.614-.473H64.78c.428 0 .537.62.565.928L53.938 59.028z" fill="#387553"/>
  </g>
  <defs>
    <clipPath id="clip0">
      <path fill="#fff" d="M0 0h67.607v68H0z"/>
    </clipPath>
  </defs>
</svg>
