<svg width="279" height="72" fill="none" xmlns="http://www.w3.org/2000/svg">
  <g clip-path="url(#clip0)">
    <path d="M106.605 39.068h-8.898l-1.003 8.58h-5.01L96.82 2.864h10.627l5.186 44.786h-5.056l-.972-8.581zm-.501-4.515l-3.126-26.72h-1.689l-3.046 26.715 7.861.005zM130 17.062a8.397 8.397 0 013.207.548 5.598 5.598 0 012.139 1.497c.55.64.96 1.388 1.203 2.195.262.87.392 1.772.385 2.68v16.762a8.293 8.293 0 01-.551 3.193 5.574 5.574 0 01-1.503 2.13 6.057 6.057 0 01-2.205 1.193 9.11 9.11 0 01-2.69.389h-9.771V2.863h15.423v4.99h-10.432v9.209H130zm1.944 6.884a2.253 2.253 0 00-.421-1.357 1.764 1.764 0 00-1.503-.578h-4.795V42.68h4.795c.498.02.989-.128 1.393-.42a1.795 1.795 0 00.551-1.496l-.02-16.818zM157.739 28.481h5.01v12.652a9.006 9.006 0 01-.386 2.68 6.036 6.036 0 01-1.197 2.194 5.597 5.597 0 01-2.14 1.497 8.415 8.415 0 01-3.207.549h-3.757a8.415 8.415 0 01-3.207-.549 5.57 5.57 0 01-2.14-1.497 6 6 0 01-1.197-2.195 9.04 9.04 0 01-.391-2.679V9.383a9.04 9.04 0 01.391-2.678c.23-.812.63-1.567 1.172-2.215a5.584 5.584 0 012.14-1.497 8.397 8.397 0 013.206-.549h3.758a8.394 8.394 0 013.207.549 5.605 5.605 0 012.14 1.497c.548.64.956 1.388 1.197 2.195.263.869.393 1.772.386 2.679v8.665h-5.011V9.384c.01-.49-.15-.97-.45-1.357a1.778 1.778 0 00-1.504-.579h-3.758a1.774 1.774 0 00-1.503.579 2.145 2.145 0 00-.456 1.357v31.75c-.009.49.152.97.456 1.356a1.77 1.77 0 001.503.584h3.758a1.779 1.779 0 001.504-.584c.301-.388.46-.867.45-1.357l.026-12.652zM181.719 2.494a8.399 8.399 0 013.207.55 5.601 5.601 0 012.14 1.496 6 6 0 011.197 2.195c.265.868.397 1.771.391 2.679v31.72a8.975 8.975 0 01-.391 2.678 6 6 0 01-1.197 2.196 5.595 5.595 0 01-2.14 1.496 8.418 8.418 0 01-3.207.55h-3.843a8.421 8.421 0 01-3.207-.55 5.574 5.574 0 01-2.139-1.496 6.016 6.016 0 01-1.198-2.196 9.007 9.007 0 01-.39-2.679V9.384a9.04 9.04 0 01.39-2.68 6.006 6.006 0 011.218-2.214 5.58 5.58 0 012.139-1.497 8.405 8.405 0 013.187-.499h3.843zm0 40.59a1.78 1.78 0 001.504-.584c.301-.388.46-.866.45-1.357V9.384c.01-.49-.15-.969-.45-1.357a1.787 1.787 0 00-1.504-.579h-3.843a1.766 1.766 0 00-1.503.579 2.245 2.245 0 00-.421 1.357v31.75c-.011.485.137.961.421 1.356a1.755 1.755 0 001.503.584l3.843.01zM214.709 2.863V47.65h-5.01V7.832h-5.683l-1.503 33.62c-.087 2.066-.529 3.614-1.328 4.645-.798 1.031-2.234 1.547-4.309 1.547h-2.725v-4.99h2.074c.35.045.705-.034 1.002-.224.199-.294.301-.643.291-.997l1.703-38.57h15.488zM244.201 2.494a8.398 8.398 0 013.207.548c.81.312 1.535.808 2.12 1.447a6 6 0 011.197 2.195c.265.869.397 1.772.391 2.68v31.769a8.975 8.975 0 01-.391 2.679 6 6 0 01-1.197 2.195 5.595 5.595 0 01-2.14 1.497 8.418 8.418 0 01-3.207.548h-3.111a8.406 8.406 0 01-3.207-.548 5.578 5.578 0 01-2.14-1.497 6.057 6.057 0 01-1.202-2.195 9.006 9.006 0 01-.386-2.68V22.096h-5.361v25.553h-5.011V2.863h5.011v14.263h5.381V9.383a9.07 9.07 0 01.386-2.679 6.044 6.044 0 011.203-2.195 5.58 5.58 0 012.139-1.497 8.392 8.392 0 013.207-.548l3.111.03zm1.945 6.904a2.15 2.15 0 00-.451-1.357 1.787 1.787 0 00-1.504-.578h-3.111a1.77 1.77 0 00-1.503.578 2.253 2.253 0 00-.421 1.357v31.735c-.01.485.137.961.421 1.357a1.756 1.756 0 001.503.583h3.111a1.779 1.779 0 001.504-.583c.301-.388.46-.867.451-1.357V9.398zM279 2.863v4.989h-8.227v39.796h-5.011V7.832h-8.217v-4.99l21.455.02z" fill="#377553"/>
    <path d="M72.388 0v72.06h-19.35L44.684 0h27.703z" fill="#55AF7E"/>
    <path d="M0 0v72.06h27.503l1.629-13.54h14.03l1.532 13.54h8.363L44.684 0H0zm29.893 51.386l4.81-44.117h2.671l4.905 44.117H29.893z" fill="#377553"/>
    <path d="M98.809 61.049h-.641v-.23h-2.16v.23h-.501a3.847 3.847 0 00-2.693 1.123 3.813 3.813 0 00-1.12 2.683V67.1a3.813 3.813 0 001.119 2.702 3.847 3.847 0 002.709 1.125h.501v1.122h2.16v-1.122h.64a3.847 3.847 0 002.71-1.125 3.814 3.814 0 001.119-2.702v-2.245a3.815 3.815 0 00-1.131-2.694 3.848 3.848 0 00-2.712-1.112zm-3.287 7.897a1.843 1.843 0 01-1.294-.54 1.827 1.827 0 01-.535-1.29v-2.26a1.818 1.818 0 01.534-1.293 1.834 1.834 0 011.295-.539h.501v5.902l-.501.02zm5.116-1.83c0 .483-.193.947-.535 1.29a1.844 1.844 0 01-1.294.54h-.641v-5.902h.64a1.839 1.839 0 011.692 1.132c.092.222.138.46.138.7v2.24zM115.574 68.074v-7.18h-2.114V72h1.839l4.144-6.955V72h2.114V60.895h-1.784l-4.199 7.179zM139.295 65.085h-3.708v-4.19h-2.145V72h2.145v-4.87h3.708V72h2.134V60.895h-2.134v4.19zM161.026 60.895h-2.536l-3.016 3.826v-3.827h-2.14V72h2.14v-4.934L158.896 72h2.51l-4.259-6.151 3.879-4.955zM175.651 60.895L171.362 72h2.2l.902-2.29h4.509l.867 2.29h2.2l-4.274-11.11-2.115.005zm-.405 6.76l1.503-3.812 1.503 3.812h-3.006zM193.053 72h2.145v-9.13h3.708V72h2.134V60.895h-7.987V72zM215.04 68.074v-7.18h-2.115V72h1.839l4.139-6.955V72h2.114V60.895h-1.778l-4.199 7.179zM231.815 62.975h1.974V72h2.145v-9.025h2.019v-2.08h-6.138v2.08zM252.148 60.895l-4.284 11.11h2.2l.902-2.29h4.509l.867 2.29h2.205l-4.274-11.11h-2.125zm-.406 6.76l1.504-3.812 1.503 3.811h-3.007zM274.731 60.895h-2.145L268.297 72h2.245l3.127-8.167L276.745 72h2.26l-4.274-11.105z" fill="#5B5B5B"/>
  </g>
  <defs>
    <clipPath id="clip0">
      <path fill="#fff" d="M0 0h279v72H0z"/>
    </clipPath>
  </defs>
</svg>
