<svg width="171" height="45" viewBox="0 0 171 45" fill="none" xmlns="http://www.w3.org/2000/svg">
  <g clip-path="url(#clip0)">
  <path d="M65.3388 24.4176H59.8847L59.2705 29.7807H56.1995L59.3411 1.78979H65.8547L69.0332 29.7807H65.9346L65.3388 24.4176ZM65.0317 21.5958L63.1154 4.89539H62.0804L60.2133 21.5927L65.0317 21.5958Z" fill="#387553"/>
  <path d="M79.6774 10.6638C80.3483 10.6464 81.0161 10.7629 81.6428 11.0068C82.1465 11.2091 82.5959 11.5297 82.9541 11.9422C83.2912 12.3425 83.5422 12.8098 83.6912 13.3142C83.852 13.8572 83.9317 14.4216 83.9276 14.9886V25.4653C83.9445 26.1465 83.8297 26.8245 83.5898 27.4609C83.3904 27.9722 83.0747 28.4284 82.6685 28.7923C82.2743 29.1338 81.814 29.3876 81.3173 29.5375C80.7827 29.7022 80.2268 29.7842 79.6682 29.7807H73.6797V1.78979H83.1323V4.90787H76.7384V10.6638H79.6774ZM80.8689 14.9668C80.8749 14.6633 80.7845 14.3659 80.6109 14.1186C80.4967 13.9884 80.3536 13.8876 80.1934 13.8247C80.0332 13.7618 79.8605 13.7386 79.6896 13.7569H76.7507V26.6751H79.6896C79.9951 26.6872 80.2957 26.595 80.5434 26.4132C80.6664 26.2939 80.7609 26.1476 80.8194 25.9854C80.878 25.8232 80.8991 25.6495 80.8812 25.4778L80.8689 14.9668Z" fill="#387553"/>
  <path d="M96.6785 17.8011H99.7495V25.7085C99.7536 26.2755 99.6739 26.8399 99.5131 27.3829C99.3651 27.8871 99.1152 28.3544 98.7791 28.7549C98.421 29.1675 97.9716 29.4881 97.4678 29.6903C96.841 29.9339 96.1733 30.0504 95.5023 30.0333H93.1991C92.5282 30.0504 91.8604 29.9339 91.2336 29.6903C90.7296 29.4885 90.2802 29.1679 89.9223 28.7549C89.5858 28.3547 89.3358 27.8873 89.1884 27.3829C89.0265 26.8401 88.9457 26.2757 88.9488 25.7085V5.86512C88.9458 5.29797 89.0265 4.73355 89.1884 4.19072C89.3296 3.68318 89.5745 3.2115 89.907 2.8063C90.265 2.39347 90.7144 2.07287 91.2183 1.87087C91.845 1.62707 92.5128 1.51054 93.1837 1.52789H95.487C96.1579 1.51046 96.8257 1.62699 97.4524 1.87087C97.9561 2.07329 98.4054 2.39383 98.7638 2.8063C99.0998 3.20676 99.3498 3.67404 99.4977 4.17825C99.6585 4.72124 99.7382 5.28565 99.7342 5.85265V11.2687H96.6632V5.86512C96.6688 5.55873 96.5713 5.25956 96.3868 5.01701C96.2723 4.88714 96.1291 4.78665 95.9689 4.72379C95.8088 4.66092 95.6363 4.63745 95.4655 4.65531H93.1622C92.9914 4.6372 92.8188 4.66054 92.6587 4.72343C92.4985 4.78631 92.3553 4.88694 92.2409 5.01701C92.0549 5.25891 91.9563 5.55828 91.9615 5.86512V25.7085C91.956 26.0154 92.0547 26.3149 92.2409 26.5566C92.355 26.6873 92.498 26.7885 92.6582 26.8519C92.8184 26.9154 92.9912 26.9392 93.1622 26.9215H95.4655C95.6365 26.9389 95.8092 26.915 95.9694 26.8516C96.1295 26.7881 96.2726 26.6871 96.3868 26.5566C96.5715 26.3142 96.669 26.015 96.6632 25.7085L96.6785 17.8011Z" fill="#387553"/>
  <path d="M111.376 1.55906C112.047 1.54171 112.715 1.65824 113.342 1.90205C113.845 2.10436 114.295 2.42491 114.653 2.83747C114.99 3.23761 115.24 3.705 115.387 4.20942C115.549 4.75212 115.63 5.31663 115.627 5.88382V25.7085C115.63 26.2757 115.55 26.8402 115.387 27.3829C115.24 27.8873 114.99 28.3547 114.653 28.7549C114.295 29.1676 113.846 29.4882 113.342 29.6903C112.715 29.9339 112.047 30.0504 111.376 30.0333H109.021C108.35 30.0504 107.682 29.9339 107.055 29.6903C106.551 29.4885 106.102 29.1679 105.744 28.7549C105.408 28.3547 105.158 27.8873 105.01 27.3829C104.848 26.8401 104.767 26.2757 104.771 25.7085V5.86512C104.768 5.29796 104.848 4.73355 105.01 4.19071C105.16 3.68084 105.414 3.20897 105.756 2.80629C106.114 2.39346 106.564 2.07286 107.068 1.87087C107.693 1.63929 108.356 1.53339 109.021 1.55906H111.376ZM111.376 26.9277C111.547 26.9452 111.72 26.9212 111.88 26.8578C112.04 26.7944 112.183 26.6933 112.298 26.5629C112.482 26.3204 112.58 26.0212 112.574 25.7148V5.86512C112.58 5.55872 112.482 5.25955 112.298 5.017C112.183 4.88733 112.04 4.78699 111.88 4.72413C111.72 4.66128 111.547 4.6377 111.376 4.6553H109.021C108.85 4.63667 108.677 4.65978 108.517 4.7227C108.357 4.78562 108.214 4.88652 108.1 5.017C107.926 5.26402 107.835 5.56155 107.842 5.86512V25.7085C107.835 26.0121 107.925 26.3097 108.1 26.5566C108.213 26.6879 108.356 26.7895 108.516 26.853C108.677 26.9165 108.85 26.94 109.021 26.9214L111.376 26.9277Z" fill="#387553"/>
  <path d="M131.596 1.78979V29.7807H128.525V4.89539H125.042L124.121 25.9081C124.068 27.199 123.796 28.1666 123.307 28.811C122.818 29.4554 121.937 29.7776 120.666 29.7776H118.995V26.6595H120.267C120.481 26.6874 120.699 26.6378 120.881 26.5192C121.003 26.3354 121.065 26.1173 121.059 25.8956L122.103 1.78979H131.596Z" fill="#387553"/>
  <path d="M149.672 1.55906C150.343 1.54171 151.011 1.65824 151.637 1.90205C152.134 2.09709 152.578 2.40666 152.936 2.80629C153.273 3.20643 153.523 3.67382 153.67 4.17824C153.833 4.72094 153.914 5.28545 153.91 5.85264V25.7085C153.914 26.2757 153.833 26.8402 153.67 27.3829C153.523 27.8873 153.273 28.3547 152.936 28.7549C152.578 29.1676 152.129 29.4882 151.625 29.6903C150.998 29.9339 150.331 30.0504 149.66 30.0333H147.753C147.082 30.0505 146.414 29.934 145.787 29.6903C145.283 29.4885 144.834 29.1679 144.476 28.7549C144.139 28.3546 143.888 27.8873 143.739 27.3829C143.578 26.8399 143.498 26.2755 143.502 25.7085V13.81H140.216V29.7807H137.145V1.7898H140.216V10.7044H143.515V5.86512C143.51 5.29812 143.59 4.73371 143.751 4.19071C143.9 3.68629 144.151 3.219 144.488 2.81876C144.846 2.40594 145.295 2.08533 145.799 1.88334C146.426 1.63938 147.094 1.52284 147.765 1.54035L149.672 1.55906ZM150.863 5.87447C150.869 5.56807 150.772 5.26891 150.587 5.02636C150.472 4.89669 150.329 4.79634 150.169 4.73349C150.009 4.67064 149.837 4.64705 149.666 4.66466H147.759C147.588 4.64629 147.415 4.66952 147.255 4.73242C147.095 4.79532 146.952 4.89608 146.837 5.02636C146.664 5.27357 146.573 5.57097 146.579 5.87447V25.7085C146.573 26.0121 146.664 26.3095 146.837 26.5566C146.951 26.6877 147.094 26.7892 147.254 26.8526C147.415 26.9161 147.588 26.9397 147.759 26.9214H149.666C149.837 26.9389 150.009 26.915 150.17 26.8516C150.33 26.7881 150.473 26.6871 150.587 26.5566C150.772 26.3142 150.869 26.015 150.863 25.7085V5.87447Z" fill="#387553"/>
  <path d="M171 1.78982V4.90789H165.957V29.7807H162.886V4.89541H157.85V1.77734L171 1.78982Z" fill="#387553"/>
  <path d="M44.3668 0V45.0374H32.5066L27.3872 0H44.3668Z" fill="#387553"/>
  <path d="M0 0V45.0374H16.8568L17.8549 36.575H26.4537L27.3934 45.0374H32.5189L27.3873 0H0ZM18.3216 32.1161L21.2698 4.54303H22.9067L25.9132 32.1161H18.3216Z" fill="#387553"/>
  <path d="M60.5603 38.1558H60.1672V38.0124H58.8436V38.1558H58.5365C57.9169 38.1599 57.3239 38.4121 56.8863 38.8575C56.4487 39.303 56.2019 39.9058 56.1995 40.5349V41.938C56.1986 42.571 56.4453 43.1783 56.8852 43.6267C57.3251 44.0752 57.9224 44.3279 58.5457 44.3296H58.8528V45.0312H60.1764V44.3296H60.5695C61.1929 44.3279 61.7901 44.0752 62.23 43.6267C62.67 43.1783 62.9166 42.571 62.9158 41.938V40.5349C62.9133 39.9025 62.664 39.297 62.2224 38.851C61.7809 38.405 61.1831 38.155 60.5603 38.1558ZM58.5457 43.0917C58.2479 43.0901 57.9628 42.9688 57.7527 42.7544C57.5427 42.5399 57.4248 42.2498 57.4248 41.9474V40.5349C57.4244 40.385 57.4531 40.2366 57.5092 40.0979C57.5653 39.9593 57.6477 39.8333 57.7518 39.727C57.8559 39.6208 57.9796 39.5364 58.1158 39.4786C58.252 39.4209 58.3981 39.391 58.5457 39.3906H58.8528V43.0793L58.5457 43.0917ZM61.6812 41.9474C61.6812 42.2498 61.5633 42.5399 61.3533 42.7544C61.1433 42.9688 60.8582 43.0901 60.5603 43.0917H60.1672V39.403H60.5603C60.7079 39.4035 60.854 39.4334 60.9902 39.4911C61.1264 39.5488 61.2501 39.6332 61.3542 39.7395C61.4583 39.8458 61.5407 39.9718 61.5968 40.1104C61.653 40.249 61.6816 40.3975 61.6812 40.5474V41.9474Z" fill="#387553"/>
  <path d="M70.836 42.546V38.0591H69.54V45H70.6671L73.2068 40.6534V45H74.5028V38.0591H73.4095L70.836 42.546Z" fill="#387553"/>
  <path d="M85.374 40.6783H83.1015V38.0591H81.7871V45H83.1015V41.9567H85.374V45H86.6823V38.0591H85.374V40.6783Z" fill="#387553"/>
  <path d="M98.693 38.0591H97.1391L95.2903 40.4507V38.0591H93.979V45H95.2903V41.9162L97.3878 45H98.9264L96.316 41.1554L98.693 38.0591Z" fill="#387553"/>
  <path d="M107.657 38.0591L105.029 45H106.377L106.93 43.5688H109.693L110.225 45H111.573L108.953 38.056L107.657 38.0591ZM107.409 42.2841L108.33 39.9019L109.251 42.2841H107.409Z" fill="#387553"/>
  <path d="M118.323 45H119.637V39.2939H121.91V45H123.218V38.0591H118.323V45Z" fill="#387553"/>
  <path d="M131.799 42.546V38.0591H130.503V45H131.63L134.166 40.6534V45H135.462V38.0591H134.372L131.799 42.546Z" fill="#387553"/>
  <path d="M142.08 39.3594H143.29V45H144.605V39.3594H145.842V38.0591H142.08V39.3594Z" fill="#387553"/>
  <path d="M154.542 38.0591L151.917 45.0031H153.265L153.818 43.5719H156.582L157.113 45.0031H158.464L155.845 38.0591H154.542ZM154.294 42.2841L155.215 39.9019L156.136 42.2841H154.294Z" fill="#387553"/>
  <path d="M168.384 38.0591H167.069L164.44 45H165.816L167.733 39.8957L169.618 45H171.003L168.384 38.0591Z" fill="#387553"/>
  </g>
  <defs>
  <clipPath id="clip0">
  <rect width="171" height="45" fill="white"/>
  </clipPath>
  </defs>
</svg>
