<svg width="227" height="43" fill="none" xmlns="http://www.w3.org/2000/svg">
  <g clip-path="url(#clip0)" fill="#2F9A41">
    <path d="M59.184 26.526a10.002 10.002 0 003.45 2.363c1.586.591 3.269.879 4.961.848.969 0 1.874-.12 2.618-.183a10.464 10.464 0 002.177-.524c.665-.183 1.21-.487 1.754-.665.43-.246.874-.468 1.329-.666l-.675-1.42c-.361.184-.728.362-1.152.525-.394.181-.798.342-1.209.482a6.09 6.09 0 01-1.513.303 9.8 9.8 0 01-2 .12 6.46 6.46 0 01-3.449-.848 6.806 6.806 0 01-2.177-2.179 10.92 10.92 0 01-1.047-3.268 29.27 29.27 0 01-.303-4.117c0-1.153.12-2.363.183-3.573a8.967 8.967 0 01.864-3.159 6.51 6.51 0 011.873-2.362 6.236 6.236 0 013.392-.969 5.755 5.755 0 013.387 1.048c.968.665 1.512 1.754 1.753 3.21h1.513V6.847a21.184 21.184 0 00-1.513-.523 8.203 8.203 0 00-1.753-.362c-.665-.12-1.21-.12-1.874-.183-.524 0-1.152-.12-1.57-.12a15.231 15.231 0 00-5.266.848 9.023 9.023 0 00-5.627 6.286 17.108 17.108 0 00-.665 5.149c-.038 1.66.186 3.317.665 4.908a8.541 8.541 0 001.874 3.677zM150.988 28.951a8.051 8.051 0 003.088-.969 5.163 5.163 0 002.177-2.363 9.068 9.068 0 00.848-4.237 8.586 8.586 0 00-.523-3.269 5.293 5.293 0 00-1.753-2.242 8.673 8.673 0 00-3.209-1.21 22.246 22.246 0 00-4.779-.361h-1.999V8.72a1.426 1.426 0 01.055-.615c.062-.2.166-.382.306-.537a3.136 3.136 0 011.512-.183h2.843c.728-.028 1.457.012 2.177.12.481.029.944.198 1.33.487.38.302.673.7.848 1.153.276.645.499 1.313.664 1.995h1.173V5.935h-17.273v.728c.12 0 .183.12.481.12.304.12.487.183.524.304.124.16.227.336.303.524 0 .304.121.524.121.969v17.925a2.38 2.38 0 01-.121.969c0 .304-.12.482-.303.524a.82.82 0 01-.524.303c-.148.079-.313.12-.481.121v.728h8.715c1.269 0 2.537-.067 3.8-.199zm-5.711-1.697a.859.859 0 01-.303-.665c0-.304-.121-.666-.121-1.153v-9.748h2c1.753 0 3.088.482 3.873 1.393.785.912 1.152 2.42 1.152 4.484a11.843 11.843 0 01-.362 3.269 4.61 4.61 0 01-1.046 1.875 7.18 7.18 0 01-1.393.849 8.078 8.078 0 01-1.696.183c-.523-.12-1.046-.12-1.329-.183-.287 0-.564-.11-.775-.304zM126.298 28.406c-.12 0-.183-.12-.482-.12-.303-.12-.486-.184-.523-.304-.037-.12-.183-.304-.304-.524 0-.304-.12-.524-.12-.969v-6.443h2.361a20.907 20.907 0 003.449-.304 8.24 8.24 0 002.905-1.047 5.168 5.168 0 002-2.242 8.691 8.691 0 00.727-3.876 9.162 9.162 0 00-.665-3.573 6.178 6.178 0 00-1.884-2.037 6.278 6.278 0 00-2.722-.849 26.993 26.993 0 00-3.208-.183h-9.218v.728c.12 0 .183.12.487.12.303.12.481.184.523.304.125.16.227.336.304.524 0 .304.12.524.12.969v17.867c.028.328-.013.658-.12.97 0 .303-.121.481-.304.523a.815.815 0 01-.523.304c-.15.079-.317.12-.487.12v.666h7.626l.058-.666v.042zm-1.272-19.863a.905.905 0 01.12-.524.515.515 0 01.184-.361.74.74 0 01.523-.183c.304 0 .523-.12 1.047-.12a16.04 16.04 0 011.696.183c.516.186.989.475 1.392.848.398.474.724 1.003.968 1.572a9.41 9.41 0 01.304 2.42c0 1.995-.304 3.451-.848 4.483-.544 1.032-1.57 1.572-3.025 1.572h-2.361v-9.89zM115.589 23.802h-1.513a18.74 18.74 0 01-.524 2.179 2.175 2.175 0 01-.727 1.21 1.788 1.788 0 01-1.33.482 12.51 12.51 0 01-2.36.12 10.497 10.497 0 01-2.178-.12 3.598 3.598 0 01-1.209-.361.941.941 0 01-.481-.729 4.142 4.142 0 01-.121-1.33v-7.386h4.015c.361 0 .727.12 1.151.12a8.87 8.87 0 011.152.184c.335.083.66.205.968.361v-3.027a2.309 2.309 0 01-.968.361c-.76.141-1.527.243-2.298.304h-4.056v-7.7c.001-.357.063-.712.183-1.048.183-.183.487-.183.968-.183h2.544c.728-.028 1.457.013 2.177.12.479.038.938.205 1.33.482.38.302.673.7.848 1.153.276.647.499 1.316.665 2h1.209v-5.06H98.886v.729c.12 0 .183.12.482.12.303.12.481.183.523.304.125.16.227.336.304.524 0 .304.12.524.12.969v17.867c.028.328-.013.658-.12.97 0 .303-.121.481-.304.523a.817.817 0 01-.523.304c-.149.078-.314.12-.482.12v.666h16.703v-5.228zM90.05 28.951a8.052 8.052 0 003.089-.969 5.629 5.629 0 002.24-2.363 9.056 9.056 0 00.848-4.237 8.586 8.586 0 00-.523-3.269 5.29 5.29 0 00-1.754-2.242 8.665 8.665 0 00-3.209-1.21 22.232 22.232 0 00-4.778-.361h-2V8.72a1.457 1.457 0 01.361-1.152 3.138 3.138 0 011.513-.183h2.842a11.74 11.74 0 012.178.12c.478.04.938.208 1.33.487.38.302.672.7.847 1.153.277.645.5 1.313.665 1.995h1.209V5.935H77.582v.728c.12 0 .184.12.487.12.304.12.482.183.524.304.125.16.227.336.303.524 0 .304.12.524.12.969v17.867c.024.328-.017.657-.12.97 0 .303-.12.481-.303.523a.817.817 0 01-.524.304c-.15.079-.317.12-.487.12v.849h8.716c1.402-.079 2.538-.079 3.753-.262zm-5.69-1.697a.866.866 0 01-.303-.665c0-.304-.12-.666-.12-1.153v-9.748h2c1.753 0 3.088.482 3.873 1.393.785.912 1.151 2.42 1.151 4.484a11.901 11.901 0 01-.36 3.269 4.612 4.612 0 01-1.048 1.875c-.43.335-.897.62-1.392.849a8.079 8.079 0 01-1.696.183c-.523-.12-.968-.12-1.33-.183a1.048 1.048 0 01-.774-.304zM226.822 35.73H56.525v2.241h170.297V35.73zM213.202 20.413c.487.665.848 1.21 1.33 1.755.361.524.848 1.152 1.209 1.697.363.593.767 1.16 1.209 1.697a16.1 16.1 0 011.209 1.875c.361.524.665 1.21.969 1.755l7.851.12c-.848-.848-1.57-1.697-2.418-2.545a39.337 39.337 0 00-1.879-2.059c-.728-.848-1.393-1.571-1.995-2.242a59.745 59.745 0 01-1.753-2.058 23.388 23.388 0 01-1.57-2.059c-.424-.665-1.047-1.514-1.513-2.242l.361-.482c.524-.728 1.209-1.514 2-2.42a25.356 25.356 0 012.36-2.723 32.884 32.884 0 012.434-2.536 21.26 21.26 0 012.178-1.755h-5.449c-.246.584-.529 1.15-.848 1.698a15.152 15.152 0 01-1.33 2.152c-.481.729-1.047 1.572-1.512 2.42-.466.85-1.047 1.572-1.571 2.363-.523.79-1.047 1.514-1.512 2.059-.482.665-.848 1.152-1.152 1.57a73.25 73.25 0 001.392 1.96z"/>
    <path d="M212.538 28.406c-.121 0-.183-.12-.487-.12-.304-.12-.482-.184-.523-.304a2.139 2.139 0 01-.304-.524c0-.304-.12-.524-.12-.969V8.68a2.328 2.328 0 01.12-.969c0-.303.12-.482.304-.523a2.16 2.16 0 01.523-.304c.15-.08.317-.12.487-.12v-.786h-7.627v.728c.121 0 .184.12.487.12.304.12.482.183.524.304.125.16.227.336.303.524 0 .304.121.524.121.969v17.867c.028.328-.013.658-.121.97 0 .303-.12.481-.303.523a.813.813 0 01-.524.304c-.15.079-.317.12-.487.12v.666h7.627v-.666zM162.027 26.348c.304-1.33.848-3.21 1.57-5.573h7.443l1.047 3.027a22.67 22.67 0 011.047 3.39c.253.66.415 1.353.482 2.058h5.93c-.304-.482-.523-1.152-.968-1.875a29.155 29.155 0 01-1.33-3.269l-5.381-15.264a8.275 8.275 0 01-.486-1.697c-.121-.482-.121-.849-.184-1.152h-6.652v.728c.12 0 .183.12.481.12.304.12.482.184.524.304.125.16.227.336.303.524v.482a3.75 3.75 0 01-.303 1.514l-3.753 9.203c-.665 1.697-1.33 3.211-1.754 4.3-.424 1.09-.968 2.18-1.209 2.908-.361.728-.665 1.393-.968 1.875-.243.392-.465.795-.665 1.21h4.234c.142-.949.339-1.888.592-2.813zm5.328-16.594l3.047 9.386H164l3.355-9.386zM188.387 28.406h-.189c-.12 0-.183-.12-.486-.12-.304-.12-.482-.184-.524-.304a2.174 2.174 0 01-.303-.524c0-.304-.121-.524-.121-.969v-8.905h9.019v8.842c.028.328-.013.658-.121.97 0 .303-.12.481-.303.523a.817.817 0 01-.524.304c-.148.078-.313.12-.481.12v.729h7.626v-.729c-.12 0-.183-.12-.481-.12-.304-.12-.487-.183-.524-.304a2.126 2.126 0 01-.303-.524c0-.303-.121-.523-.121-.969V8.47a2.345 2.345 0 01.121-.97c0-.303.12-.481.303-.523.16-.125.336-.227.524-.304.148-.078.313-.12.481-.12v-.618h-7.501v.728c.121 0 .184.12.482.12.304.12.487.183.523.304.125.16.228.336.304.524 0 .304.12.524.12.969v7.47H187V8.542a2.362 2.362 0 01.12-.969c0-.304.12-.482.304-.524.159-.125.335-.227.523-.304a.91.91 0 01.482-.12v-.691h-7.606v.728c.121 0 .183.12.482.12.303.12.481.183.523.304.125.16.227.336.304.524 0 .304.12.524.12.969v17.925c.024.328-.017.657-.12.969 0 .304-.121.482-.304.524a.815.815 0 01-.523.303 1.05 1.05 0 01-.482.121v.728h7.627l-.063-.786v.042zM41.031 8.36a36.27 36.27 0 01-1.392-2.001l-26.025 14.96-12.562-7.208a8.747 8.747 0 00-.523 2.42l13.206 7.653L41.03 8.36z"/>
    <path d="M13.614 26.95L.12 19.198c-.1.476-.14.964-.12 1.45a22.357 22.357 0 006.54 15.803 22.324 22.324 0 0031.583 0 22.357 22.357 0 006.541-15.802 21.95 21.95 0 00-2.418-10.173L13.614 26.95z"/>
    <path d="M37.823 4.484a24.694 24.694 0 00-2-1.697L13.614 15.688 2.905 9.57c-.361.665-.728 1.393-1.152 2.18l11.74 6.782 24.33-14.048z"/>
    <path d="M33.646 1.336a21.164 21.164 0 00-2.617-1.33L13.614 10.041 5.81 5.636c-.523.524-1.047 1.21-1.57 1.876l9.317 5.332L33.646 1.336z"/>
  </g>
  <defs>
    <clipPath id="clip0">
      <path fill="#fff" d="M0 0h227v43H0z"/>
    </clipPath>
  </defs>
</svg>
