<svg width="140" height="50" fill="none" xmlns="http://www.w3.org/2000/svg">
  <path fill-rule="evenodd" clip-rule="evenodd" d="M9.512 0l-2.38 6.49h32.974L42.486 0H9.512zm-3.57 9.733l-2.38 6.488h32.974l2.38-6.488H5.942zm-3.563 9.733L0 25.954h32.974l2.378-6.488H2.379z" fill="#009FDF"/>
  <mask id="a" maskUnits="userSpaceOnUse" x="49" y="9" width="91" height="41">
    <path d="M49.471 49.61h90.262V9.857H49.471V49.61z" fill="#fff"/>
  </mask>
  <g mask="url(#a)">
    <path fill-rule="evenodd" clip-rule="evenodd" d="M70.1 28.427v.137c1.507.55 2.947 1.513 3.7 2.132 2.33 1.926 3.36 4.47 3.36 7.771 0 5.435-2.88 9.355-7.609 10.593-1.439.412-2.946.551-5.757.551H49.47V9.857h12.68c2.604 0 4.385.137 5.961.55 4.593 1.238 7.608 4.402 7.608 9.422 0 2.683-.96 4.953-2.535 6.465-.686.688-1.645 1.514-3.085 2.133zm-12.679 4.195v10.454h5.483c1.644 0 3.152-.137 4.25-1.169 1.096-1.032 1.576-2.338 1.576-4.058 0-1.306-.344-2.544-1.029-3.438-1.165-1.445-2.604-1.79-5.07-1.79h-5.21zm-.069-6.878h4.455c1.37 0 2.056 0 2.74-.206 1.853-.551 3.018-2.2 3.018-4.47 0-2.682-1.234-3.853-3.017-4.402-.754-.206-1.507-.275-3.016-.275h-4.18v9.353zM89.084 49.61V16.528H77.64v-6.67h31.802l-2.262 6.67H97.034V49.61h-7.95zm22.823 0V9.857h25.771l-2.261 6.67H119.79v8.804h6.374c5.14 0 7.813 1.239 9.663 2.82 1.44 1.239 3.906 3.99 3.906 9.424 0 5.364-2.535 8.32-4.66 9.835-2.466 1.718-5.071 2.201-10.349 2.201h-12.817zm7.883-6.672h5.963c2.261 0 3.631-.55 4.591-1.789.48-.618 1.165-1.72 1.165-3.783 0-2.063-.685-3.507-2.056-4.54-.821-.618-1.919-.96-3.769-.96h-5.894v11.072z" fill="#0A2973"/>
  </g>
</svg>
