<svg width="45" height="45" viewBox="0 0 45 45" fill="none" xmlns="http://www.w3.org/2000/svg">
<path d="M45 22.5C45 30.2168 41.124 37.0195 35.2002 41.0713C34.251 41.7217 33.249 42.3018 32.2031 42.8027C29.2676 44.209 25.9717 45 22.5 45C21.1465 45 19.8193 44.877 18.5361 44.6484C16.6904 44.3232 14.9238 43.7695 13.2627 43.0225C5.44043 39.498 0 31.6318 0 22.5C0 12.4805 6.55664 3.98145 15.6094 1.07227C15.8379 1.00195 16.0576 0.931641 16.2861 0.870117C17.4727 0.527344 18.6943 0.28125 19.9512 0.140625C20.7861 0.0439453 21.6387 0 22.5 0C22.8691 0 23.2295 0.00878906 23.5986 0.0263672C35.5078 0.597656 45 10.4414 45 22.5Z" fill="#F1F1F1"/>
<path d="M16.1013 23.335C12.5329 23.335 9.65013 26.2178 9.70286 29.7598C9.73802 32.0273 10.9861 33.9961 12.823 35.0947C12.199 34.1367 11.8298 33.0029 11.8122 31.7813C11.7595 28.248 14.6423 25.3652 18.2107 25.3652C18.9138 25.3652 19.5906 25.4795 20.2234 25.6816V18.6064C19.5642 18.5098 18.8874 18.457 18.2107 18.457C18.1755 18.457 18.1492 18.457 18.114 18.457V23.6602C17.4812 23.4492 16.8044 23.335 16.1013 23.335Z" fill="#F00044"/>
<path d="M31.5264 2.10938H31.4736H29.6455C30.1729 4.75488 31.6582 7.05762 33.7324 8.62207C32.3701 6.82031 31.5439 4.57031 31.5264 2.10938Z" fill="#F00044"/>
<path d="M42.2842 19.7842V12.8848C41.5898 12.8848 40.9219 12.8145 40.2627 12.6914V17.7539C37.8721 17.7539 35.5518 17.2881 33.3721 16.3564C31.9658 15.7588 30.6562 14.9941 29.4521 14.0713L29.4873 29.707C29.4697 33.2227 28.0811 36.5186 25.5674 39.0059C23.5195 41.0273 20.9268 42.3193 18.1143 42.7324C17.4551 42.8291 16.7783 42.8818 16.1016 42.8818C14.4229 42.8818 12.7969 42.5742 11.2764 42.0029C11.918 42.3721 12.5771 42.7148 13.2627 43.0225C14.9238 43.7695 16.6904 44.3232 18.5361 44.6484C18.9229 44.7188 19.3096 44.7715 19.7051 44.8242C19.8809 44.8066 20.0479 44.7803 20.2236 44.7539C23.0361 44.3408 25.6289 43.0488 27.6768 41.0273C30.1904 38.54 31.5791 35.2441 31.5967 31.7285L31.4736 16.0928C32.6689 17.0156 33.9785 17.7891 35.3936 18.3779C37.5732 19.3096 39.9023 19.7842 42.2842 19.7842Z" fill="#F00044"/>
<path d="M6.61816 20.3206C4.13086 22.7815 2.71582 26.1565 2.71582 29.6633C2.71582 31.6321 3.15527 33.5393 3.97266 35.2708C4.80762 36.4837 5.76562 37.6175 6.82031 38.637C5.51953 36.5716 4.8252 34.1809 4.8252 31.6848C4.8252 28.178 6.24023 24.803 8.72754 22.3333C11.2324 19.846 14.5635 18.4661 18.1143 18.4397V16.5676C17.4551 16.4709 16.7783 16.4182 16.1016 16.4182C12.5156 16.427 9.14941 17.8069 6.61816 20.3206Z" fill="#08FFF9"/>
<path d="M40.2627 12.6826V10.8018H40.2451C37.8018 10.8018 35.5518 9.99316 33.7412 8.62207C35.3145 10.6963 37.6172 12.1728 40.2627 12.6826Z" fill="#08FFF9"/>
<path d="M17.8506 37.9951C18.6855 38.0391 19.4853 37.9248 20.2236 37.6875C22.7724 36.8525 24.6094 34.4795 24.6094 31.6846L24.6181 21.2256V2.10938H29.6455C29.5136 1.4502 29.4433 0.782227 29.4345 0.0878906H22.5V19.1865L22.4912 29.6455C22.4912 32.4404 20.6543 34.8135 18.1055 35.6484C17.3672 35.8945 16.5674 36.0088 15.7324 35.9561C14.6689 35.8945 13.6758 35.5781 12.8145 35.0684C13.9043 36.7471 15.75 37.8809 17.8506 37.9951Z" fill="#08FFF9"/>
<path d="M40.2627 17.7627V12.6914C37.6172 12.1816 35.3145 10.7051 33.7412 8.63086C31.667 7.06641 30.1816 4.76367 29.6543 2.11816H24.627V21.2168L24.6182 31.6758C24.6182 34.4707 22.7812 36.8438 20.2324 37.6787C19.4941 37.9248 18.6943 38.0391 17.8594 37.9863C15.75 37.8721 13.9131 36.7383 12.832 35.0771C10.9951 33.9873 9.74707 32.0098 9.71191 29.7422C9.65918 26.209 12.542 23.3262 16.1104 23.3262C16.8135 23.3262 17.4902 23.4404 18.123 23.6426V18.4395C14.5723 18.4658 11.2412 19.8457 8.73633 22.333C6.24023 24.8027 4.8252 28.1777 4.8252 31.6846C4.8252 34.1807 5.51953 36.5713 6.82031 38.6367C8.15625 39.9375 9.65039 41.0625 11.2764 42.0029C12.7969 42.583 14.4229 42.8818 16.1016 42.8818C16.7783 42.8818 17.4551 42.8291 18.1143 42.7324C20.9268 42.3193 23.5195 41.0273 25.5674 39.0059C28.0811 36.5186 29.4697 33.2227 29.4873 29.707L29.4522 14.0713C30.6475 14.9941 31.957 15.7676 33.3721 16.3564C35.5518 17.2881 37.8809 17.7627 40.2627 17.7627Z" fill="black"/>
</svg>
