<svg width="76" height="76" viewBox="0 0 76 76" fill="none" xmlns="http://www.w3.org/2000/svg">
<path d="M64.0117 35.2358L63.7886 35.5684L64.1784 35.6602C67.5503 36.4537 70.313 38.1842 72.4779 40.8574C74.6421 43.5304 75.7222 46.5741 75.7226 49.9998C75.7226 54.0665 74.2682 57.5306 71.3518 60.408C68.4349 63.2857 64.9229 64.7227 60.8002 64.7227H17.7331C12.924 64.7227 8.81789 63.0396 5.39996 59.6654L5.39993 59.6654C1.98221 56.2924 0.277283 52.2429 0.277283 47.5002C0.277283 44.1678 1.18519 41.0955 3.00348 38.2749C4.82241 35.4552 7.26197 33.342 10.3281 31.9315L10.5017 31.8517L10.4889 31.661C10.4362 30.8803 10.4103 30.3285 10.4103 30.0002C10.4103 24.5541 12.3589 19.9109 16.2651 16.0573L16.2651 16.0573C20.1713 12.2025 24.8778 10.2773 30.3994 10.2773C34.4622 10.2773 38.176 11.3942 41.5474 13.6299L41.5474 13.6299C44.9189 15.8651 47.3709 18.8296 48.9058 22.5283L49.0527 22.8822L49.3429 22.632C51.165 21.0613 53.2905 20.2772 55.7321 20.2772C58.457 20.2772 60.775 21.2255 62.7016 23.1266C64.6277 25.0283 65.5873 27.314 65.5873 29.9998C65.5873 31.9251 65.0631 33.668 64.0117 35.2358ZM50.4655 42.3842L50.4745 42.3753L50.4826 42.3657C50.7753 42.019 50.9422 41.6466 50.9422 41.2498C50.9422 40.8194 50.8007 40.4459 50.5047 40.1541C50.2099 39.8627 49.8334 39.7229 49.3998 39.7229H40.8104V26.2504C40.8104 25.8346 40.6532 25.4716 40.353 25.1741L40.352 25.1732C40.0499 24.8767 39.6854 24.7233 39.2668 24.7233H31.666C31.248 24.7233 30.8821 24.877 30.581 25.1735L30.5805 25.1739C30.2799 25.4713 30.1222 25.8344 30.1222 26.2504V39.7229H21.5328C21.1147 39.7229 20.7492 39.8768 20.4478 40.1735L20.4476 40.1737C20.1462 40.471 19.9896 40.8343 19.9896 41.2499C19.9896 41.681 20.1325 42.0543 20.4282 42.3457C20.4282 42.3458 20.4282 42.3458 20.4283 42.3459L34.3611 56.0962L34.3614 56.0966C34.6564 56.3866 35.0325 56.5272 35.4663 56.5272C35.9004 56.5272 36.2766 56.3867 36.5713 56.0965L36.5716 56.0962L50.4655 42.3842Z" fill="#45102B" stroke="#1A0B2D" stroke-width="0.554566"/>
</svg>
