<svg width="45" height="45" viewBox="0 0 45 45" fill="none" xmlns="http://www.w3.org/2000/svg">
<g clip-path="url(#clip0)">
<path d="M45 22.5C45 26.6824 43.8585 30.599 41.8703 33.955C40.6322 36.0431 39.0657 37.9148 37.2416 39.4979C33.4654 42.7756 28.5868 44.8163 23.2357 44.988C22.9913 44.9962 22.7462 45 22.5 45C22.2538 45 22.0087 44.9962 21.7643 44.988C16.4397 44.8174 11.5844 42.7969 7.81609 39.5487C5.9206 37.9148 4.3008 35.9696 3.036 33.7939C1.10584 30.475 0 26.6161 0 22.5C0 18.5216 1.03237 14.7838 2.84409 11.5411C5.66826 6.48743 10.3848 2.63466 16.0345 0.943108C18.0818 0.32959 20.2526 0 22.5 0C24.7474 0 26.9182 0.32959 28.9655 0.943108C34.5774 2.62367 39.2693 6.43696 42.0989 11.4409C43.9457 14.7066 45 18.4804 45 22.5Z" fill="url(#paint0_linear)"/>
<path d="M33.9941 16.9251C33.8453 13.46 30.9797 10.687 27.4792 10.687H17.2093C13.7076 10.687 10.842 13.4606 10.6939 16.9261C10.6895 17.0203 10.6875 17.1142 10.6875 17.2088V27.4783C10.6875 27.9346 10.7348 28.3806 10.8246 28.8104C11.8861 30.8221 13.4599 32.5218 15.3719 33.7365C15.9547 33.9082 16.5716 34.0001 17.2093 34.0001H27.4792C28.1169 34.0001 28.7336 33.9082 29.3167 33.7365C31.228 32.5218 32.8012 30.8227 33.8634 28.812C33.9531 28.3816 34.0004 27.9352 34.0004 27.4783V17.2088C34.0004 17.1136 33.9984 17.0191 33.9941 16.9251V16.9251ZM31.872 27.4783C31.872 29.9008 29.9011 31.8715 27.4792 31.8715H17.2093C14.7869 31.8715 12.8159 29.9008 12.8159 27.4783V17.2088C12.8159 14.7864 14.7869 12.8156 17.2093 12.8156H27.4792C29.9011 12.8156 31.872 14.7864 31.872 17.2088V27.4783Z" fill="white"/>
<path d="M22.3451 16.2253C18.9716 16.2253 16.2266 18.9704 16.2266 22.3439C16.2266 25.7174 18.9716 28.4618 22.3451 28.4618C25.7188 28.4618 28.4633 25.7174 28.4633 22.3439C28.4633 18.9704 25.7188 16.2253 22.3451 16.2253ZM22.3451 26.3332C20.1448 26.3332 18.3552 24.5436 18.3552 22.3439C18.3552 20.1435 20.1448 18.354 22.3451 18.354C24.5451 18.354 26.3346 20.1435 26.3346 22.3439C26.3346 24.5436 24.5451 26.3332 22.3451 26.3332Z" fill="white"/>
<path d="M29.9903 16.0664C29.9903 16.8434 29.3602 17.4735 28.5832 17.4735C27.8059 17.4735 27.1758 16.8434 27.1758 16.0664C27.1758 15.2891 27.8059 14.6592 28.5832 14.6592C29.3602 14.6592 29.9903 15.2891 29.9903 16.0664V16.0664Z" fill="white"/>
</g>
<defs>
<linearGradient id="paint0_linear" x1="22.5" y1="45" x2="22.5" y2="0" gradientUnits="userSpaceOnUse">
<stop stop-color="#FFD600"/>
<stop offset="0.5271" stop-color="#FF0095"/>
<stop offset="0.5802" stop-color="#F2069C"/>
<stop offset="0.6791" stop-color="#CF14B0"/>
<stop offset="0.813" stop-color="#962CCF"/>
<stop offset="0.9753" stop-color="#494DFA"/>
<stop offset="0.9951" stop-color="#3F51FF"/>
</linearGradient>
<clipPath id="clip0">
<rect width="45" height="45" fill="white"/>
</clipPath>
</defs>
</svg>
