<svg width="35" height="35" viewBox="0 0 35 35" fill="none" xmlns="http://www.w3.org/2000/svg">
<g clip-path="url(#clip0)">
<path d="M3.18537 27.4721C3.63289 28.1084 4.12277 28.7141 4.65153 29.2848L6.25545 27.8001C5.79304 27.3012 5.36452 26.772 4.97297 26.2158L3.18537 27.4721Z" fill="white"/>
<path d="M2.18722 17.4133C2.19938 9.75519 7.8621 3.28122 15.4504 2.24987L15.164 0.0817871C5.58885 1.36939 -1.12948 10.1754 0.158195 19.7505C0.427565 21.7534 1.04188 23.6944 1.97402 25.4876L3.9125 24.4773C2.77188 22.2978 2.1797 19.8732 2.18722 17.4133Z" fill="white"/>
<path d="M6.34185 30.8888C6.94079 31.3843 7.57151 31.8402 8.23004 32.2533L9.39006 30.3946C8.81278 30.033 8.26017 29.6334 7.73585 29.1985L6.34185 30.8888Z" fill="white"/>
<path d="M24.7204 1.48563C23.1654 0.781247 21.5157 0.308312 19.8237 0.0817871L19.5373 2.24987C27.9119 3.40333 33.7657 11.1274 32.6123 19.5019C31.5712 27.06 25.1232 32.6975 17.4938 32.72C15.3187 32.7253 13.1679 32.2626 11.1875 31.3632L10.2844 33.3552C19.0849 37.3416 29.4508 33.4389 33.4372 24.6384C37.4235 15.8379 33.5209 5.47199 24.7204 1.48563Z" fill="white"/>
</g>
<defs>
<clipPath id="clip0">
<rect width="35" height="35" fill="white"/>
</clipPath>
</defs>
</svg>
