<svg width="44" height="44" viewBox="0 0 44 44" fill="none" xmlns="http://www.w3.org/2000/svg">
<g clip-path="url(#clip0)">
<path d="M9.75133 26.5897L8.21975 32.3073L2.62187 32.4257C0.948922 29.3227 0 25.7726 0 21.9999C0 18.3518 0.887219 14.9115 2.45988 11.8823H2.46108L7.44477 12.796L9.62792 17.7498C9.17099 19.0819 8.92195 20.5119 8.92195 21.9999C8.92212 23.6149 9.21465 25.1622 9.75133 26.5897Z" fill="#FBBB00"/>
<path d="M43.6153 17.8901C43.868 19.221 43.9997 20.5954 43.9997 22C43.9997 23.5751 43.8341 25.1115 43.5187 26.5935C42.4477 31.6365 39.6493 36.0401 35.7728 39.1564L35.7716 39.1552L29.4944 38.8349L28.6059 33.2889C31.1782 31.7804 33.1885 29.4196 34.2474 26.5935H22.4834V17.8901H34.419H43.6153Z" fill="#518EF8"/>
<path d="M35.7715 39.1552L35.7727 39.1564C32.0025 42.1868 27.2132 44 21.9997 44C13.6216 44 6.33743 39.3172 2.62158 32.4259L9.75104 26.5898C11.6089 31.5483 16.3921 35.078 21.9997 35.078C24.41 35.078 26.6681 34.4264 28.6057 33.2889L35.7715 39.1552Z" fill="#28B446"/>
<path d="M36.0426 5.06481L28.9156 10.8996C26.9102 9.64614 24.5397 8.92203 22.0001 8.92203C16.2656 8.92203 11.3929 12.6136 9.62809 17.7499L2.46116 11.8824H2.45996C6.12141 4.82307 13.4974 0 22.0001 0C27.3381 0 32.2325 1.90145 36.0426 5.06481Z" fill="#F14336"/>
</g>
<defs>
<clipPath id="clip0">
<rect width="44" height="44" fill="white"/>
</clipPath>
</defs>
</svg>
