<svg width="30" height="30" viewBox="0 0 30 30" fill="none" xmlns="http://www.w3.org/2000/svg">
<path d="M14.9791 5.81738C12.3683 5.81738 10.244 7.94164 10.244 10.5525C10.244 13.1636 12.3683 15.2878 14.9791 15.2878C17.5902 15.2878 19.7145 13.1636 19.7145 10.5525C19.7145 7.94164 17.5902 5.81738 14.9791 5.81738Z" fill="white"/>
<path d="M14.9792 0C8.91655 0 3.98438 4.93217 3.98438 10.9948C3.98438 13.7798 5.73921 17.7148 9.20036 22.6904C11.7302 26.3276 14.2184 29.1422 14.3232 29.2603L14.9792 30L15.6354 29.2603C15.74 29.1422 18.2282 26.3276 20.7582 22.6904C24.2191 17.7148 25.9742 13.7798 25.9742 10.9948C25.9742 4.93217 21.0418 0 14.9792 0ZM14.9792 17.0419C11.4011 17.0419 8.49014 14.1307 8.49014 10.5526C8.49014 6.97449 11.4011 4.06357 14.9792 4.06357C18.5575 4.06357 21.4684 6.97449 21.4684 10.5526C21.4684 14.1307 18.5575 17.0419 14.9792 17.0419Z" fill="white"/>
</svg>
