<svg fill="none" xmlns="http://www.w3.org/2000/svg" viewBox="0 0 17 17">
  <path d="M16.957 4.998c-.04-.903-.186-1.524-.395-2.062a4.148 4.148 0 00-.984-1.508 4.184 4.184 0 00-1.504-.98C13.532.24 12.914.093 12.01.053 11.101.01 10.811 0 8.503 0S5.906.01 5 .05c-.903.04-1.525.186-2.063.395a4.149 4.149 0 00-1.508.983c-.432.425-.767.94-.98 1.504-.209.542-.355 1.16-.395 2.063C.01 5.905 0 6.194 0 8.502s.01 2.597.05 3.503c.04.904.186 1.525.395 2.063.216.57.551 1.082.983 1.507.425.432.94.768 1.505.98.541.21 1.16.355 2.063.395.906.04 1.196.05 3.504.05 2.309 0 2.598-.01 3.504-.05.904-.04 1.525-.186 2.063-.395a4.349 4.349 0 002.488-2.487c.21-.542.355-1.16.395-2.063.04-.906.05-1.195.05-3.503s-.003-2.597-.043-3.504zm-1.531 6.94c-.037.831-.177 1.28-.293 1.578a2.82 2.82 0 01-1.614 1.614c-.299.117-.75.256-1.578.292-.897.04-1.166.05-3.434.05-2.269 0-2.541-.01-3.435-.05-.83-.036-1.279-.175-1.578-.292a2.616 2.616 0 01-.976-.634 2.642 2.642 0 01-.635-.976c-.116-.3-.255-.75-.292-1.578-.04-.896-.05-1.165-.05-3.434 0-2.268.01-2.54.05-3.434.037-.83.176-1.278.292-1.577.137-.369.352-.704.638-.976a2.64 2.64 0 01.977-.635c.299-.116.75-.255 1.577-.292.897-.04 1.166-.05 3.435-.05 2.272 0 2.541.01 3.434.05.83.037 1.28.176 1.578.292.369.136.704.352.977.635.282.275.498.607.634.976.117.299.256.75.293 1.577.04.897.05 1.166.05 3.434 0 2.269-.01 2.534-.05 3.43z" fill="#fff"/>
  <path d="M8.503 4.135a4.369 4.369 0 00-4.368 4.367 4.369 4.369 0 008.736 0 4.369 4.369 0 00-4.368-4.367zm0 7.2a2.834 2.834 0 110-5.668 2.834 2.834 0 010 5.668zM14.064 3.962a1.02 1.02 0 11-2.04 0 1.02 1.02 0 012.04 0z" fill="#fff"/>
</svg>
