<svg width="343" height="303" viewBox="0 0 343 303" fill="none" xmlns="http://www.w3.org/2000/svg">
<path opacity="0.2" d="M246.825 303H343V145.42C338.705 145.42 334.372 144.579 330.493 145.621C324.762 147.436 319.154 149.665 313.71 152.291C307.485 154.975 301.582 155.115 295.792 150.849C271.573 133.001 246.125 133.382 220.657 146.842C209.797 152.531 200.128 160.864 190.743 167.294C180.431 165.932 170.214 163.288 160.053 163.548C144.576 163.828 131.842 171.901 120.925 183.278C118.162 186.162 115.892 190.589 110.159 187.645C110.159 183.638 110.159 179.312 110.159 175.085C110.159 162.426 110.045 149.747 110.045 137.028C109.808 134.703 109.949 132.352 110.462 130.077C118.03 109.205 125.92 88.5539 141.265 71.1073C146.601 71.8084 152.201 72.2691 157.707 73.3107C168.258 75.5621 179.2 74.5325 189.211 70.3462C195.351 67.8553 201.778 66.2387 208.321 65.5389C221.092 64.0366 229.569 52.3187 224.328 39.8197C219.087 27.3207 211.651 16.1037 204.593 4.72635C201.528 -0.20114 195.946 -0.761989 190.819 0.720266C175.058 5.20709 159.069 9.21318 143.762 15.2223C135.778 18.327 128.626 24.5365 121.833 30.1851C104.804 44.2064 93.2056 62.4742 82.4396 81.9839C75.2118 95.0838 65.2026 106.561 55.8557 118.259C32.2045 147.844 15.8379 181.095 8.55328 219.253C7.5585 223.067 6.00037 226.69 3.93658 229.989C-1.92892 240.785 -1.30453 250.861 6.24493 260.535C14.7235 271.025 25.9926 278.564 38.5808 282.168C53.6501 286.897 69.005 290.537 84.5398 293.065C104.431 296.411 124.479 298.611 144.595 299.655C168.673 300.635 192.549 294.652 213.656 282.349C225.785 275.418 228.907 276.339 237.364 288.137C240.751 292.865 243.703 297.992 246.825 303Z" fill="url(#paint0_linear)"/>
<defs>
<linearGradient id="paint0_linear" x1="527.033" y1="303" x2="-9.465" y2="283.53" gradientUnits="userSpaceOnUse">
<stop stop-color="#F6C891"/>
<stop offset="1" stop-color="#7C532A"/>
</linearGradient>
</defs>
</svg>
