<svg width="288" height="312" viewBox="0 0 288 312" fill="none" xmlns="http://www.w3.org/2000/svg">
<g style="mix-blend-mode:darken" opacity="0.2">
<path d="M96 226C96 213.2 99.2 201 105.6 189.4C112.4 177.4 120.4 167 129.6 158.2C139.2 149 148.6 140.2 157.8 131.8C167.4 123.4 175.4 114.4 181.8 104.8C188.6 95.2 192 85.6 192 76C192 52.8 177.2 41.2 147.6 41.2C118.8 41.2 97.2 58 82.8 91.6L7.15256e-07 44.2C13.2 13.8 33.2 -9.8 60 -26.6C87.2 -43.8 117.6 -52.4 151.2 -52.4C188 -52.4 220 -41.6 247.2 -20C274.4 1.59999 288 30.8 288 67.6C288 84 284.6 99.4 277.8 113.8C271.4 128.2 263.4 140.4 253.8 150.4C244.6 160.4 235.2 169.6 225.6 178C216.4 186.4 208.4 194.6 201.6 202.6C195.2 210.6 192 218.4 192 226H96ZM184.2 367.6C173 378.8 159.6 384.4 144 384.4C128.4 384.4 115 378.8 103.8 367.6C92.6 356.4 87 343 87 327.4C87 311.8 92.6 298.4 103.8 287.2C115 276 128.4 270.4 144 270.4C159.6 270.4 173 276 184.2 287.2C195.4 298.4 201 311.8 201 327.4C201 343 195.4 356.4 184.2 367.6Z" fill="url(#paint0_linear)"/>
</g>
<defs>
<linearGradient id="paint0_linear" x1="-198.277" y1="605" x2="327.883" y2="598.485" gradientUnits="userSpaceOnUse">
<stop stop-color="#F6C891"/>
<stop offset="1" stop-color="#7C532A"/>
</linearGradient>
</defs>
</svg>
