<svg width="100" height="100" viewBox="0 0 100 100" fill="none" xmlns="http://www.w3.org/2000/svg">
<path d="M61.6666 19.221L89.5874 65.7251C93.5999 72.4043 91.6291 81.1918 85.1832 85.3501C83.0198 86.7509 80.4981 87.4975 77.9207 87.5001H22.0749C14.4874 87.5001 8.33325 81.1251 8.33325 73.2543C8.33325 70.5918 9.05408 67.9876 10.4083 65.7251L38.3332 19.221C42.3416 12.5418 50.8166 10.496 57.2624 14.6543C59.0457 15.8043 60.5541 17.3668 61.6666 19.221ZM49.9999 70.8335C51.105 70.8335 52.1648 70.3945 52.9462 69.6131C53.7276 68.8317 54.1666 67.7719 54.1666 66.6668C54.1666 65.5617 53.7276 64.5019 52.9462 63.7205C52.1648 62.9391 51.105 62.5001 49.9999 62.5001C48.8948 62.5001 47.835 62.9391 47.0536 63.7205C46.2722 64.5019 45.8332 65.5617 45.8332 66.6668C45.8332 67.7719 46.2722 68.8317 47.0536 69.6131C47.835 70.3945 48.8948 70.8335 49.9999 70.8335ZM49.9999 33.3335C48.8948 33.3335 47.835 33.7725 47.0536 34.5539C46.2722 35.3353 45.8332 36.3951 45.8332 37.5001V54.1668C45.8332 55.2719 46.2722 56.3317 47.0536 57.1131C47.835 57.8945 48.8948 58.3335 49.9999 58.3335C51.105 58.3335 52.1648 57.8945 52.9462 57.1131C53.7276 56.3317 54.1666 55.2719 54.1666 54.1668V37.5001C54.1666 36.3951 53.7276 35.3353 52.9462 34.5539C52.1648 33.7725 51.105 33.3335 49.9999 33.3335Z" fill="#828282"/>
</svg>
