<svg xmlns="http://www.w3.org/2000/svg" viewBox="0 0 504.43 346.23"><defs><style>.cls-1{fill:#3c3c3b;}</style></defs><title>Ресурс 1</title><g id="Слой_2" data-name="Слой 2"><g id="Objects"><path class="cls-1" d="M502.66.2l-.22.15-.14,0c-51.63,16.56-103.13,33.54-154.67,50.4-14.75,4.82-29.81,9.12-44.3,14.68a1.08,1.08,0,0,0-.55,1.58,1.1,1.1,0,0,0,.2,1.4C316.46,81.53,332.1,94,349.24,102.06a.91.91,0,0,0,.73.88,530.45,530.45,0,0,0,13.55,57.54s0,.07,0,.11a.83.83,0,0,0,1,1.06c2.74-.92,5.05-3.13,7.31-4.88,2.58-2,5.12-4.07,7.59-6.22,4.71-4.09,10.4-8.56,13.84-13.82a.9.9,0,0,0,.14-.77q2.64,1.84,5.31,3.68c5.84,4,11.62,8.15,17.26,12.47,5.88,4.49,11.36,9.89,17.5,14a14.07,14.07,0,0,1,3.07-1.54,637.25,637.25,0,0,1,48.56-128q8.5-16.6,18-32.69l.81-.75A1,1,0,0,0,504.2,2C504.92,1,503.83-.57,502.66.2ZM350.2,100.36c-7.81-4.77-15.68-9.36-23.11-14.75a203.36,203.36,0,0,1-22-18.51c12.81-3.56,25.4-8.17,38-12.31L382.34,42l77.2-25.26q18.18-6,36.33-12L383.27,78.75c-10.82,7.11-21.95,13.94-32.41,21.59A.77.77,0,0,0,350.2,100.36Zm1.35,1.85c9.91-5.81,19.39-12.47,29-18.78L410.4,63.8l59.69-39.28L490,11.44c-4.37,3.7-8.68,7.48-13.05,11.11l-26.4,22q-26.4,22-52.8,43.94l-14.49,12.07c-2.58,2.15-5.18,4.3-7.76,6.47a43.57,43.57,0,0,0-5.53,5c-.2.08-.38.17-.58.24a1.71,1.71,0,0,0-1.42,1,1.2,1.2,0,0,0-1.62,1c-1.22,12.88-1.59,25.87-2.38,38.8C359.36,136.21,355.45,119.22,351.55,102.21Zm40.16,33.3c-2.51,1.94-4.59,4.56-6.87,6.78s-4.38,4.16-6.64,6.15-4.59,3.93-7,5.8c-1.59,1.25-3.49,2.41-5.16,3.75,1.11-14,2.52-28.23,2.55-42.28,1,2.06,3.4,3.54,5.09,5q3.93,3.45,8,6.69c3.48,2.74,7.08,5.33,10.71,7.88A1.09,1.09,0,0,0,391.71,135.51Zm53.54-9q-6,18.58-10.74,37.51s0,.09,0,.13c-4.53-4.83-10.39-8.82-15.61-12.85q-8.46-6.54-17.28-12.61c-6.11-4.22-12.27-8.38-18.12-13q-3.89-3-7.61-6.26c-1.89-1.64-4-4.41-6.49-5.19a2,2,0,0,0,.5-.31h0c4.62-2,8.59-6.39,12.44-9.59L395.8,93.16l25.9-21.52L474,28.15c7.66-6.37,15.69-12.51,23.27-19.06A617.56,617.56,0,0,0,445.25,126.48Z"/><path class="cls-1" d="M357.52,160.33a123.81,123.81,0,0,1-38.58,53.74,53.18,53.18,0,0,1-12.88,7.74,17.4,17.4,0,0,0-.12-8.24c-2.08-7.54-14.3-14.37-19.31-5.55-2,3.58-1.05,8,1.13,11.31a13.35,13.35,0,0,0,12.44,5.91,20.87,20.87,0,0,0,3.34-.5,52.16,52.16,0,0,1-4.5,9c-3,4.92-6.13,9.73-9.43,14.42a187.54,187.54,0,0,1-22.37,26.5c-17,16.57-38.33,29.19-62,33l-1.18.17c4.39-11.75,6-26.62-5.11-34-5-3.33-12.09-3.74-16.28,1.13a11.39,11.39,0,0,0-2.51,10.23c-4-2.53-8.67-4.41-13.15-2.28-3.77,1.79-5.59,5.91-5.74,9.92-.42,11.82,12.08,16.4,21.86,17.38a84.77,84.77,0,0,0,17.88-.14,66,66,0,0,1-4.31,8c-12.24,19.41-35.25,30.45-57.84,24.26-10.75-2.94-20.65-9.36-27.06-18.56a38,38,0,0,1-5.8-12.52c4.16-1.64,8.17-3.85,10.79-7.21,3.17-4.08,3.17-9.94-1.09-13.32-4.58-3.63-9.16.17-11,4.66a25.56,25.56,0,0,0-1.09,14.44,75.56,75.56,0,0,1-15.51,4,78,78,0,0,1-38.26-4c-25.49-9.41-43.5-32.86-48.17-59.33-.2-1.1-1.81-.62-1.66.45,4.06,28.66,25.35,53.58,52.93,62.22a79.37,79.37,0,0,0,46,.41c1.64-.49,3.38-1,5.12-1.64a37,37,0,0,0,1.65,4.93c5,12.12,15.51,21.23,27.62,25.87,26.06,10,54.16-3.1,67.09-27a61.85,61.85,0,0,0,2.83-6c21.6-3,42.09-13.64,58.5-27.76A177.36,177.36,0,0,0,290.45,250a179.81,179.81,0,0,0,11.81-18.45,41.27,41.27,0,0,0,3.17-7.31c5.12-1.64,9.72-5,13.85-8.29A121.48,121.48,0,0,0,336,199.69a122.77,122.77,0,0,0,22.35-39.14C358.51,160,357.7,159.83,357.52,160.33ZM105.16,306.08a22.24,22.24,0,0,1,1.46-9.89c1.71-4.17,6.29-6.89,9.28-2.15,4.59,7.25-4.58,12.7-10.17,15l-.2.08A28.89,28.89,0,0,1,105.16,306.08Zm80.1,2.57c-6.19-.43-13.06-1.6-17.87-5.86-4.09-3.63-5.74-9.91-3-14.87,4.28-7.76,13.31-2.3,18.33,1.51.89.67,1.94-.77,1.17-1.52-4.12-4-1.89-11.23,2.92-13.69,6.08-3.11,13.37,1.72,16.2,7.07,4.21,8,2.45,18.11-1.16,26.88A86.79,86.79,0,0,1,185.26,308.65Zm103.09-91.92c-2.28-4.74-.61-11.12,5.55-11.16,5,0,9.67,4.5,10.64,9.23a17.08,17.08,0,0,1-.32,7.66C298,224.44,291.77,223.88,288.35,216.73Z"/></g></g></svg>