<svg width="30" height="30" viewBox="0 0 30 30" fill="none" xmlns="http://www.w3.org/2000/svg">
<path d="M23.4733 24.5127C23.4733 25.5606 22.6193 26.4146 21.5692 26.4146H3.80722C2.75714 26.4146 1.90307 25.5606 1.90307 24.5127V5.80291C1.90307 4.75498 2.75714 3.90092 3.80722 3.90092H21.5692C22.6193 3.90092 23.4733 4.75498 23.4733 5.80291L25.3764 4.5C25.595 2.95988 23.4884 2 21.5692 2H3.80722C1.70382 2 0 3.70167 0 5.80291V24.5127C0 26.6139 1.70382 28.3177 3.80722 28.3177H21.5692C23.6726 28.3177 25.3764 26.6139 25.3764 24.5127V4.5L23.4733 5V24.5127Z" fill="black"/>
</svg>
