<svg fill="none" xmlns="http://www.w3.org/2000/svg" viewBox="0 0 18 10">
  <path d="M17.323 8.634c-.046-.071-.331-.638-1.705-1.802-1.438-1.22-1.245-1.022.487-3.13 1.055-1.284 1.477-2.069 1.345-2.404-.125-.32-.901-.235-.901-.235l-2.58.014s-.192-.024-.335.054a.676.676 0 00-.227.253s-.41.994-.954 1.839c-1.15 1.783-1.61 1.877-1.798 1.766-.437-.258-.328-1.037-.328-1.59 0-1.728.287-2.449-.559-2.635-.281-.062-.487-.103-1.205-.11-.921-.009-1.701.003-2.143.2-.294.132-.52.425-.382.441.171.02.557.095.762.35.266.329.256 1.068.256 1.068S7.208 4.747 6.7 5c-.35.173-.827-.18-1.852-1.799-.525-.828-.922-1.745-.922-1.745s-.076-.17-.212-.262c-.166-.11-.398-.146-.398-.146l-2.453.014s-.368.01-.504.156c-.12.13-.01.399-.01.399S2.273 5.72 4.448 7.79c1.995 1.896 4.26 1.772 4.26 1.772h1.026s.31-.031.468-.187c.146-.143.14-.412.14-.412s-.02-1.258.62-1.443c.63-.182 1.439 1.216 2.297 1.754.648.407 1.14.317 1.14.317l2.294-.03s1.2-.067.631-.928z" fill="#fff"/>
</svg>
