<svg width="30" height="26" viewBox="0 0 30 26" fill="none" xmlns="http://www.w3.org/2000/svg">
<g opacity="0.5">
<path d="M25.7854 12.4463L29.8371 8.39464C30.0543 8.17741 30.0543 7.8263 29.8371 7.60908C29.6199 7.39186 29.2688 7.39186 29.0515 7.60908L24.9999 11.6607L20.9482 7.60908C20.731 7.39186 20.3799 7.39186 20.1627 7.60908C19.9455 7.8263 19.9455 8.17741 20.1627 8.39464L24.2143 12.4463L20.1627 16.4979C19.9455 16.7152 19.9455 17.0663 20.1627 17.2835C20.271 17.3918 20.4132 17.4463 20.5555 17.4463C20.6977 17.4463 20.8399 17.3918 20.9482 17.2835L24.9999 13.2318L29.0515 17.2835C29.1599 17.3918 29.3021 17.4463 29.4443 17.4463C29.5865 17.4463 29.7288 17.3918 29.8371 17.2835C30.0543 17.0663 30.0543 16.7152 29.8371 16.4979L25.7854 12.4463Z" fill="#F6C891"/>
<path d="M15.7799 0.446332C15.2383 0.139667 14.596 0.149667 14.0633 0.470776C14.0377 0.485776 14.0133 0.503554 13.991 0.522443L6.4633 6.89075H0.555553C0.248332 6.89075 0 7.13908 0 7.4463V18.0018C0 18.1496 0.0583331 18.2907 0.162777 18.3946C0.267221 18.4985 0.407776 18.5574 0.555553 18.5574L6.44997 18.5546L13.9738 25.4657C14.0016 25.4912 14.0316 25.5134 14.0633 25.5323C14.3366 25.6973 14.6394 25.7801 14.9422 25.7801C15.2294 25.7795 15.516 25.7057 15.7799 25.5568C16.3349 25.2434 16.6666 24.6712 16.6666 24.0262V1.97744C16.6666 1.33244 16.3349 0.760219 15.7799 0.446332ZM15.5555 24.0262C15.5555 24.2657 15.4349 24.4762 15.2338 24.5901C15.1477 24.6384 14.9294 24.7318 14.6783 24.6046L7.22219 17.7551V15.224C7.22219 14.9168 6.97386 14.6685 6.66664 14.6685C6.35942 14.6685 6.11108 14.9168 6.11108 15.224V17.444L1.11111 17.4463V8.00185H6.11108V10.2241C6.11108 10.5313 6.35942 10.7796 6.66664 10.7796C6.97386 10.7796 7.22219 10.5313 7.22219 10.2241V7.70408L14.6694 1.40411C14.9249 1.26966 15.1472 1.36522 15.2338 1.41411C15.4349 1.52799 15.5555 1.73799 15.5555 1.97744V24.0262Z" fill="#F6C891"/>
</g>
</svg>
