<svg width="350" height="100" viewBox="0 0 350 100" fill="none" xmlns="http://www.w3.org/2000/svg">
<g opacity="0.8">
<path d="M18.0527 1.01127H29.7122V6.841H26.7779V27.828H29.6344V33.6577H17.975V27.828H20.7927V19.4526H8.70572V27.828H11.5429V33.6577H0V27.828H2.79827V6.93816H0V1.10843H11.5429V6.93816H8.70572V13.7395H20.8704V6.93816H18.0527V1.01127Z" fill="url(#paint0_linear)"/>
<path d="M50.8158 27.828H54.1582L52.6424 23.1254H42.3821L40.8081 27.828H44.3448V33.6577H31.7526V27.828H34.2399L43.3343 1.01127H52.176L61.0761 27.828H63.4857V33.6577H50.8158V27.828ZM44.131 17.5871H50.8741L47.4734 6.93816L44.131 17.5871Z" fill="url(#paint1_linear)"/>
<path d="M64.8654 1.01128H80.2753C81.8892 0.989438 83.4944 1.25257 85.0168 1.78857C86.3783 2.27236 87.6419 2.99634 88.7478 3.92614C89.7538 4.78538 90.5794 5.83554 91.1769 7.01589C91.7694 8.14212 92.0764 9.39661 92.0708 10.6692C92.0821 12.1236 91.8455 13.5693 91.3712 14.9443C90.9259 16.2424 90.1955 17.4243 89.2337 18.4033C88.1896 19.4429 86.9289 20.2391 85.5415 20.7352C83.8528 21.3384 82.0681 21.6281 80.2753 21.5902H75.631V27.828H78.7013V33.6577H64.8654V27.828H68.3244V6.93816H64.8654V1.01128ZM75.631 6.841V15.6439H78.643C80.054 15.7184 81.4531 15.3516 82.6461 14.5945C83.148 14.215 83.5463 13.7152 83.8044 13.1413C84.0625 12.5674 84.172 11.9378 84.1229 11.3105C84.1524 10.693 84.0418 10.0769 83.7995 9.50816C83.5572 8.93946 83.1895 8.4329 82.7238 8.02638C81.5472 7.15972 80.1008 6.73958 78.643 6.841H75.631Z" fill="url(#paint2_linear)"/>
<path d="M94.8691 1.01128H110.279C111.893 0.989438 113.498 1.25257 115.02 1.78857C116.382 2.27236 117.646 2.99634 118.752 3.92614C119.757 4.78538 120.583 5.83554 121.181 7.01589C121.773 8.14212 122.08 9.39661 122.074 10.6692C122.086 12.1236 121.849 13.5693 121.375 14.9443C120.93 16.2424 120.199 17.4243 119.237 18.4033C118.193 19.4429 116.933 20.2391 115.545 20.7352C113.856 21.3384 112.072 21.6281 110.279 21.5902H105.635V27.828H108.705V33.6577H94.8691V27.828H98.328V6.93816H94.8691V1.01128ZM105.635 6.841V15.6439H108.647C110.067 15.7597 111.487 15.4267 112.708 14.6917C113.21 14.3121 113.608 13.8124 113.866 13.2385C114.124 12.6646 114.234 12.035 114.185 11.4076C114.205 10.7839 114.082 10.1639 113.826 9.59478C113.57 9.02566 113.188 8.52247 112.708 8.12354C111.531 7.25688 110.085 6.83674 108.627 6.93816L105.635 6.841Z" fill="url(#paint3_linear)"/>
<path d="M121.997 1.01127H135.716V6.841H133.034L137.329 14.3613L141.857 6.93816H138.786V1.10843H152.525V6.93816H150.154L140.613 20.1716V27.828H144.499V33.6577H130.197V27.828H133.753V20.055L124.795 6.91873H121.977L121.997 1.01127Z" fill="url(#paint4_linear)"/>
<path d="M162.125 1.01127H187.97V12.1655H180.721V7.57943H172.949V14.4585H179.808V20.7546H172.949V27.828H176.485V33.6577H162.183V27.828H165.642V7.57943H162.183L162.125 1.01127Z" fill="url(#paint5_linear)"/>
<path d="M189.291 1.01127H203.593V6.841H200.154V27.828H203.671V33.6577H189.369V27.828H192.828V6.91873H189.369L189.291 1.01127Z" fill="url(#paint6_linear)"/>
<path d="M211.813 27.828H215.059V6.7244H211.172V10.9607H204.448V1.01127H232.917V10.9607H226.135V6.7244H221.821V27.828H225.125V33.6577H211.813V27.828Z" fill="url(#paint7_linear)"/>
<path d="M254.098 1.01127H265.758V6.841H263.27V33.6577H256.508L243.663 12.4764V27.7308H246.248V33.5606H234.588V27.7308H237.075V6.93816H234.569V1.10843H243.896L256.644 22.4841V6.93816H254.021L254.098 1.01127Z" fill="url(#paint8_linear)"/>
<path d="M267.546 1.01127H294.11V12.1655H286.92V7.52113H278.35V13.9921H284.996V20.2494H278.35V27.828H286.92V21.9983H294.11V33.6577H267.546V27.828H271.043V7.52113H267.546V1.01127Z" fill="url(#paint9_linear)"/>
<path d="M313.95 10.2222C313.874 9.71554 313.688 9.23152 313.406 8.80367C313.123 8.34784 312.753 7.95178 312.318 7.63772C311.85 7.31627 311.34 7.06122 310.802 6.87986C310.225 6.69184 309.621 6.59993 309.014 6.60781C308.492 6.60845 307.972 6.66051 307.46 6.76326C307.007 6.86071 306.578 7.04553 306.197 7.30737C305.814 7.5414 305.502 7.87443 305.294 8.27123C305.085 8.66803 304.987 9.11385 305.011 9.56153C304.979 10.1066 305.129 10.647 305.439 11.0967C305.737 11.4881 306.115 11.8125 306.546 12.0489C307.017 12.2931 307.512 12.4885 308.023 12.6319C308.567 12.7679 309.092 12.9233 309.617 13.0982L315.68 15.0415C316.509 15.3382 317.299 15.7363 318.031 16.2268C318.784 16.7604 319.441 17.4174 319.974 18.1701C320.528 18.9247 320.955 19.7649 321.237 20.6574C321.561 21.6749 321.718 22.7379 321.704 23.8055C321.725 25.2978 321.42 26.7768 320.81 28.1389C320.231 29.4356 319.376 30.5898 318.303 31.5202C317.159 32.4887 315.84 33.2276 314.417 33.6966C312.814 34.2356 311.132 34.4984 309.442 34.4739C308.217 34.4836 306.997 34.34 305.808 34.0464C304.721 33.7894 303.675 33.384 302.699 32.8416C301.788 32.3146 300.957 31.6602 300.231 30.8983C299.532 30.1707 298.972 29.321 298.579 28.3915H296.305V21.8428H304.292V23.1837C304.283 23.7938 304.389 24.4002 304.603 24.9714C304.809 25.516 305.134 26.0075 305.555 26.4094C306.022 26.8288 306.572 27.1465 307.168 27.3422C307.901 27.5827 308.671 27.6945 309.442 27.6725C310.521 27.7525 311.593 27.4345 312.454 26.7787C312.803 26.4695 313.077 26.0849 313.256 25.6539C313.434 25.2229 313.512 24.7569 313.484 24.2913C313.501 23.8075 313.379 23.3289 313.134 22.9116C312.884 22.5452 312.568 22.2289 312.201 21.9788C311.798 21.7254 311.368 21.5169 310.919 21.357L309.52 20.8712L304.487 19.2777C303.524 18.9815 302.599 18.5773 301.727 18.0729C300.837 17.5575 300.037 16.9012 299.356 16.1297C298.656 15.3189 298.104 14.3915 297.724 13.3897C297.312 12.2433 297.108 11.0324 297.122 9.81415C297.093 8.37742 297.399 6.95377 298.016 5.65562C298.588 4.45978 299.426 3.40987 300.464 2.5853C301.587 1.70522 302.866 1.04584 304.234 0.642056C305.789 0.201192 307.398 -0.0147597 309.014 0.000782898C310.292 -0.0119517 311.567 0.144878 312.804 0.467164C313.895 0.747635 314.946 1.16553 315.932 1.71084C316.792 2.18212 317.578 2.77802 318.264 3.47919C318.861 4.08771 319.353 4.79017 319.722 5.55846H321.937V12.0877H313.95V10.2222Z" fill="url(#paint10_linear)"/>
<path d="M341.816 10.2222C341.74 9.71554 341.554 9.23152 341.272 8.80367C340.976 8.35177 340.601 7.95685 340.164 7.63772C339.697 7.31627 339.187 7.06122 338.649 6.87986C338.078 6.69187 337.481 6.59994 336.88 6.60781C336.352 6.60755 335.825 6.65962 335.306 6.76326C334.855 6.86436 334.427 7.0489 334.043 7.30737C333.692 7.5418 333.399 7.85439 333.188 8.22069C332.961 8.63046 332.847 9.0932 332.858 9.56153C332.831 10.1088 332.988 10.6494 333.305 11.0967C333.591 11.4919 333.963 11.8174 334.393 12.0489C334.871 12.293 335.372 12.4883 335.889 12.6319C336.433 12.7744 336.958 12.9298 337.463 13.0982L343.526 15.0415C344.358 15.334 345.148 15.7324 345.878 16.2268C346.636 16.754 347.294 17.4121 347.821 18.1701C348.381 18.9237 348.814 19.7639 349.103 20.6574C349.411 21.6781 349.562 22.7396 349.55 23.8055C349.572 25.2978 349.267 26.7768 348.656 28.1389C348.088 29.4363 347.238 30.5913 346.169 31.5202C345.027 32.4915 343.707 33.2308 342.283 33.6966C340.68 34.2356 338.998 34.4984 337.308 34.4739C336.09 34.4836 334.876 34.34 333.693 34.0464C332.601 33.7892 331.548 33.3839 330.565 32.8416C329.657 32.3095 328.827 31.6557 328.097 30.8983C327.404 30.1654 326.845 29.317 326.445 28.3915H324.191V21.8428H332.158V23.1837C332.149 23.7938 332.255 24.4002 332.469 24.9714C332.684 25.5161 333.016 26.0069 333.441 26.4094C333.905 26.8331 334.455 27.1513 335.054 27.3422C335.781 27.5812 336.543 27.693 337.308 27.6725C338.393 27.7501 339.47 27.4327 340.339 26.7787C340.684 26.466 340.956 26.0807 341.134 25.6506C341.312 25.2205 341.392 24.7563 341.369 24.2913C341.39 23.8045 341.261 23.3231 341 22.9116C340.761 22.5364 340.443 22.218 340.067 21.9788C339.664 21.7254 339.234 21.5169 338.785 21.357L337.405 20.8712L332.353 19.2777C331.392 18.9779 330.466 18.5739 329.593 18.0729C328.709 17.5569 327.915 16.9006 327.242 16.1297C326.542 15.3189 325.989 14.3915 325.61 13.3897C325.186 12.2462 324.982 11.0332 325.007 9.81415C324.982 8.37986 325.281 6.95843 325.882 5.65562C326.472 4.44868 327.337 3.39707 328.408 2.5853C329.526 1.69784 330.806 1.03769 332.178 0.642056C333.732 0.201192 335.342 -0.0147597 336.958 0.000782898C338.236 -0.00947016 339.51 0.14732 340.747 0.467164C341.833 0.747588 342.877 1.16553 343.857 1.71084C344.717 2.18212 345.503 2.77802 346.188 3.47919C346.784 4.09282 347.282 4.79404 347.665 5.55846H349.784V12.0877H341.816V10.2222Z" fill="url(#paint11_linear)"/>
<path d="M68.3049 73.9217L76.5249 75.1654C77.3863 75.2909 78.2206 75.5602 78.9928 75.9621C79.682 76.3131 80.301 76.7873 80.8194 77.3612C81.2975 77.8935 81.6672 78.514 81.9076 79.1879C82.1265 79.8109 82.1931 80.4772 82.102 81.1311C82.0117 81.9047 81.7812 82.6554 81.4218 83.3464C81.0867 84.0125 80.601 84.5913 80.0033 85.037C79.3619 85.5072 78.6258 85.8321 77.8463 85.9892C76.8819 86.1568 75.8958 86.1568 74.9314 85.9892L72.4246 85.6006L71.8999 89.0207L73.5711 89.2539L73.1048 92.4019C70.5785 92.0327 68.0718 91.6441 65.5455 91.236L66.0702 88.1074L68.0135 88.3988C68.5964 84.7261 69.16 81.034 69.7429 77.3612L67.8969 77.0698L68.3049 73.9217ZM73.5711 77.9442L72.8716 82.608L74.5039 82.8412C75.255 82.9962 76.0357 82.9147 76.7386 82.608C77.0385 82.4534 77.2929 82.2233 77.4769 81.9405C77.6609 81.6577 77.7681 81.3319 77.788 80.9951C77.8627 80.6543 77.8559 80.3006 77.7681 79.9629C77.6803 79.6253 77.514 79.3131 77.2827 79.0519C76.7172 78.4999 75.9726 78.169 75.184 78.1191L73.5711 77.9442Z" fill="url(#paint12_linear)"/>
<path d="M99.2219 78.0997C102.37 78.4689 105.518 78.7992 108.666 79.1102C109.506 79.1843 110.328 79.4012 111.095 79.7514C111.746 80.051 112.333 80.4733 112.825 80.9951C113.276 81.4742 113.621 82.0439 113.835 82.6663C114.037 83.293 114.109 83.954 114.049 84.6095C114.021 85.1355 113.909 85.6537 113.718 86.1447C113.555 86.555 113.325 86.9358 113.038 87.2718C112.747 87.6013 112.406 87.8832 112.028 88.1074C111.608 88.3502 111.165 88.552 110.706 88.7098C111.116 88.9674 111.456 89.3209 111.698 89.7397C111.998 90.2452 112.19 90.8077 112.261 91.3914C112.417 92.3242 112.494 92.7906 112.669 93.7233L114.165 93.8594C114.049 95.2196 113.991 95.8026 113.893 97.26L108.569 96.6771C108.433 94.9864 108.375 94.1509 108.239 92.4602C108.221 92.0205 108.155 91.584 108.044 91.1583C107.94 90.8168 107.768 90.4997 107.539 90.2255C107.3 89.9711 107.008 89.7721 106.684 89.6425C106.282 89.4753 105.855 89.3768 105.421 89.351L103.886 89.1956L103.497 93.0821L105.168 93.257L104.935 96.3467C102.344 96.1006 99.8178 95.8285 97.3564 95.5306L97.7062 92.3825L99.6494 92.5963L100.874 81.4809L98.9304 81.2672L99.2219 78.0997ZM104.644 81.9862L104.216 86.2224L106.587 86.4556C106.993 86.5141 107.405 86.5141 107.811 86.4556C108.149 86.4233 108.478 86.3312 108.783 86.1836C109.047 86.0368 109.273 85.8306 109.443 85.5812C109.609 85.303 109.709 84.9905 109.735 84.6678C109.774 84.3661 109.741 84.0594 109.64 83.7725C109.539 83.4857 109.372 83.2265 109.152 83.0161C108.54 82.5373 107.791 82.2652 107.014 82.2388L104.644 81.9862Z" fill="url(#paint13_linear)"/>
<path d="M131.771 81.0145C136.532 81.3255 141.274 81.5781 146.035 81.7918C146.035 83.7351 145.86 85.6783 145.763 87.777L141.876 87.5827L142.012 85.1148L137.387 84.8621L137.193 88.3017L140.788 88.5155L140.613 91.8578L136.999 91.6635L136.765 95.7054L141.449 95.9581L141.604 92.8683L145.491 93.0432L145.199 99.3199C140.341 99.0867 135.483 98.8341 130.586 98.5037L130.8 95.3557L132.743 95.4722C132.957 91.8578 133.19 88.2434 133.423 84.6095L131.48 84.4929L131.771 81.0145Z" fill="url(#paint14_linear)"/>
<path d="M162.338 96.6771H164.029C164.029 92.946 164.184 89.215 164.243 85.484H162.572V82.2971C165.046 82.2971 167.514 82.3359 169.975 82.4137C171.685 86.6499 173.434 90.8797 175.222 95.103C176.893 90.9056 178.545 86.6694 180.177 82.4525H187.659V85.6394H185.968C185.968 89.3705 186.065 93.1015 186.104 96.8325H187.795V100C185.502 100 183.209 100 180.916 100V96.8714H182.179V86.786C180.391 91.1388 178.584 95.4917 176.757 99.8445H173.337C171.511 95.6083 169.684 91.3526 167.916 87.0969C167.916 90.3421 167.916 93.5873 167.779 96.8131H169.14V99.9806C166.827 99.9806 164.534 99.9806 162.222 99.864L162.338 96.6771Z" fill="url(#paint15_linear)"/>
<path d="M204.934 81.9862C207.499 81.8696 210.064 81.7724 212.61 81.6364L212.785 84.8039H210.842L211.366 95.9775H213.31L213.465 99.145C210.874 99.2875 208.251 99.4041 205.595 99.4948L205.459 96.3273H207.402L206.936 85.0176H204.993L204.934 81.9862Z" fill="url(#paint16_linear)"/>
<path d="M228.311 80.6648C230.702 80.4899 233.111 80.315 235.501 80.1012L235.754 83.2881L234.122 83.4242L234.705 90.6725C234.732 91.2465 234.857 91.8116 235.074 92.3436C235.244 92.7471 235.495 93.111 235.812 93.4124C236.117 93.6744 236.475 93.8667 236.862 93.976C237.286 94.0546 237.72 94.0546 238.144 93.976C238.583 93.9537 239.016 93.8618 239.427 93.7039C239.795 93.5575 240.121 93.3241 240.379 93.0238C240.648 92.6748 240.834 92.2695 240.923 91.8384C241.005 91.2453 241.005 90.6437 240.923 90.0506C240.709 87.641 240.476 85.2314 240.262 82.8023L238.319 82.9772L238.047 79.8097L245.218 79.149L245.529 82.3165L244.091 82.4525C244.304 84.7067 244.518 86.9803 244.751 89.2539C244.87 90.3677 244.785 91.4938 244.499 92.5768C244.256 93.5162 243.812 94.3915 243.197 95.1419C242.618 95.8613 241.888 96.4451 241.059 96.8519C240.189 97.2822 239.247 97.5459 238.28 97.6292C237.331 97.711 236.375 97.6121 235.463 97.3378C234.587 97.0806 233.778 96.6364 233.092 96.0358C232.378 95.4103 231.802 94.6425 231.401 93.7816C230.932 92.8015 230.661 91.7382 230.604 90.653L230.08 83.6379L228.447 83.7739L228.311 80.6648Z" fill="url(#paint17_linear)"/>
<path d="M263.698 91.6635L265.389 91.4497C264.922 87.7576 264.475 84.0654 264.009 80.3538L262.338 80.5676L261.949 77.4001C264.397 77.1151 266.846 76.8042 269.294 76.4673C271.607 80.3538 273.958 84.3569 276.31 88.2823C277.378 83.8905 278.408 79.4794 279.438 75.0488L286.861 73.9217L287.367 77.0698L285.657 77.2446C286.24 80.9368 286.803 84.6095 287.386 88.3017L289.038 88.0296L289.543 91.1777L282.722 92.2076L282.256 89.079L283.5 88.8847C282.994 85.5617 282.508 82.2388 282.003 78.9158C280.857 83.4825 279.671 88.0685 278.467 92.5185L275.085 93.0043C272.663 89.1179 270.266 85.1666 267.895 81.1506L269.139 90.8668L270.499 90.6919L270.907 93.8205C268.614 94.1314 266.321 94.4229 264.028 94.695L263.698 91.6635Z" fill="url(#paint18_linear)"/>
<path d="M148.23 54.0229H62.7084V58.5701H148.23V54.0229Z" fill="url(#paint19_linear)"/>
<path d="M286.065 54.0229H200.543V58.5701H286.065V54.0229Z" fill="url(#paint20_linear)"/>
<path d="M174.6 64.2444L166.244 69.0053L168.188 59.5806L161.075 53.0901L170.636 52.0408L174.6 43.2768L178.584 52.0408L188.145 53.0901L181.032 59.5806L182.976 69.0053L174.6 64.2444Z" fill="url(#paint21_linear)"/>
</g>
<defs>
<linearGradient id="paint0_linear" x1="-187.672" y1="100" x2="353.353" y2="39.3304" gradientUnits="userSpaceOnUse">
<stop stop-color="#F6C891"/>
<stop offset="1" stop-color="#7C532A"/>
</linearGradient>
<linearGradient id="paint1_linear" x1="-187.672" y1="100" x2="353.353" y2="39.3304" gradientUnits="userSpaceOnUse">
<stop stop-color="#F6C891"/>
<stop offset="1" stop-color="#7C532A"/>
</linearGradient>
<linearGradient id="paint2_linear" x1="-187.672" y1="100" x2="353.353" y2="39.3304" gradientUnits="userSpaceOnUse">
<stop stop-color="#F6C891"/>
<stop offset="1" stop-color="#7C532A"/>
</linearGradient>
<linearGradient id="paint3_linear" x1="-187.672" y1="100" x2="353.353" y2="39.3304" gradientUnits="userSpaceOnUse">
<stop stop-color="#F6C891"/>
<stop offset="1" stop-color="#7C532A"/>
</linearGradient>
<linearGradient id="paint4_linear" x1="-187.672" y1="100" x2="353.353" y2="39.3304" gradientUnits="userSpaceOnUse">
<stop stop-color="#F6C891"/>
<stop offset="1" stop-color="#7C532A"/>
</linearGradient>
<linearGradient id="paint5_linear" x1="-187.672" y1="100" x2="353.353" y2="39.3304" gradientUnits="userSpaceOnUse">
<stop stop-color="#F6C891"/>
<stop offset="1" stop-color="#7C532A"/>
</linearGradient>
<linearGradient id="paint6_linear" x1="-187.672" y1="100" x2="353.353" y2="39.3304" gradientUnits="userSpaceOnUse">
<stop stop-color="#F6C891"/>
<stop offset="1" stop-color="#7C532A"/>
</linearGradient>
<linearGradient id="paint7_linear" x1="-187.672" y1="100" x2="353.353" y2="39.3304" gradientUnits="userSpaceOnUse">
<stop stop-color="#F6C891"/>
<stop offset="1" stop-color="#7C532A"/>
</linearGradient>
<linearGradient id="paint8_linear" x1="-187.672" y1="100" x2="353.353" y2="39.3304" gradientUnits="userSpaceOnUse">
<stop stop-color="#F6C891"/>
<stop offset="1" stop-color="#7C532A"/>
</linearGradient>
<linearGradient id="paint9_linear" x1="-187.672" y1="100" x2="353.353" y2="39.3304" gradientUnits="userSpaceOnUse">
<stop stop-color="#F6C891"/>
<stop offset="1" stop-color="#7C532A"/>
</linearGradient>
<linearGradient id="paint10_linear" x1="-187.672" y1="100" x2="353.353" y2="39.3304" gradientUnits="userSpaceOnUse">
<stop stop-color="#F6C891"/>
<stop offset="1" stop-color="#7C532A"/>
</linearGradient>
<linearGradient id="paint11_linear" x1="-187.672" y1="100" x2="353.353" y2="39.3304" gradientUnits="userSpaceOnUse">
<stop stop-color="#F6C891"/>
<stop offset="1" stop-color="#7C532A"/>
</linearGradient>
<linearGradient id="paint12_linear" x1="-187.672" y1="100" x2="353.353" y2="39.3304" gradientUnits="userSpaceOnUse">
<stop stop-color="#F6C891"/>
<stop offset="1" stop-color="#7C532A"/>
</linearGradient>
<linearGradient id="paint13_linear" x1="-187.672" y1="100" x2="353.353" y2="39.3304" gradientUnits="userSpaceOnUse">
<stop stop-color="#F6C891"/>
<stop offset="1" stop-color="#7C532A"/>
</linearGradient>
<linearGradient id="paint14_linear" x1="-187.672" y1="100" x2="353.353" y2="39.3304" gradientUnits="userSpaceOnUse">
<stop stop-color="#F6C891"/>
<stop offset="1" stop-color="#7C532A"/>
</linearGradient>
<linearGradient id="paint15_linear" x1="-187.672" y1="100" x2="353.353" y2="39.3304" gradientUnits="userSpaceOnUse">
<stop stop-color="#F6C891"/>
<stop offset="1" stop-color="#7C532A"/>
</linearGradient>
<linearGradient id="paint16_linear" x1="-187.672" y1="100" x2="353.353" y2="39.3304" gradientUnits="userSpaceOnUse">
<stop stop-color="#F6C891"/>
<stop offset="1" stop-color="#7C532A"/>
</linearGradient>
<linearGradient id="paint17_linear" x1="-187.672" y1="100" x2="353.353" y2="39.3304" gradientUnits="userSpaceOnUse">
<stop stop-color="#F6C891"/>
<stop offset="1" stop-color="#7C532A"/>
</linearGradient>
<linearGradient id="paint18_linear" x1="-187.672" y1="100" x2="353.353" y2="39.3304" gradientUnits="userSpaceOnUse">
<stop stop-color="#F6C891"/>
<stop offset="1" stop-color="#7C532A"/>
</linearGradient>
<linearGradient id="paint19_linear" x1="-187.672" y1="100" x2="353.353" y2="39.3304" gradientUnits="userSpaceOnUse">
<stop stop-color="#F6C891"/>
<stop offset="1" stop-color="#7C532A"/>
</linearGradient>
<linearGradient id="paint20_linear" x1="-187.672" y1="100" x2="353.353" y2="39.3304" gradientUnits="userSpaceOnUse">
<stop stop-color="#F6C891"/>
<stop offset="1" stop-color="#7C532A"/>
</linearGradient>
<linearGradient id="paint21_linear" x1="-187.672" y1="100" x2="353.353" y2="39.3304" gradientUnits="userSpaceOnUse">
<stop stop-color="#F6C891"/>
<stop offset="1" stop-color="#7C532A"/>
</linearGradient>
</defs>
</svg>
