<svg xmlns="http://www.w3.org/2000/svg" xmlns:xlink="http://www.w3.org/1999/xlink" viewBox="0 0 260 130">
  <defs>
    <clipPath id="a">
      <path fill="none" d="M-334.68-1307.1h1152v1064.8h-1152z"/>
    </clipPath>
    <style>
      .c{fill:#fff}
    </style>
  </defs>
  <g clip-path="url(#a)">
    <image width="5000" height="2532" transform="matrix(.82 0 0 .82 -1717.08 -1307.1)" xlink:href="../bg.png"/>
  </g>
  <path class="c" d="M49.29 39.77h6v3h-1.51v10.8h1.47v3h-6v-3h1.45v-4.31h-6.22v4.31h1.46v3H40v-3h1.44V42.82H40v-3h5.94v3h-1.46v3.5h6.26v-3.5h-1.45zM66.15 53.57h1.72l-.78-2.42h-5.28L61 53.57h1.82v3h-6.48v-3h1.28l4.68-13.8h4.55l4.58 13.8h1.24v3h-6.52zm-3.44-5.27h3.47l-1.75-5.48zM73.38 39.77h7.93a7.06 7.06 0 012.44.4 6.22 6.22 0 011.92 1.1 5.15 5.15 0 011.25 1.59 4 4 0 01.46 1.88 6.59 6.59 0 01-.36 2.2 4.73 4.73 0 01-1.1 1.78 5.15 5.15 0 01-1.9 1.2 7.58 7.58 0 01-2.71.44h-2.39v3.21h1.58v3h-7.12v-3h1.78V42.82h-1.78zm5.54 3v4.53h1.55a3.5 3.5 0 002.06-.54 1.93 1.93 0 00.76-1.69 2.11 2.11 0 00-.72-1.69 3.17 3.17 0 00-2.1-.61zM88.82 39.77h7.93a7.06 7.06 0 012.44.4 6.22 6.22 0 011.92 1.1 5.15 5.15 0 011.25 1.59 4 4 0 01.46 1.88 6.59 6.59 0 01-.36 2.2 4.73 4.73 0 01-1.1 1.78 5.15 5.15 0 01-1.9 1.2 7.58 7.58 0 01-2.71.44h-2.39v3.21h1.58v3h-7.12v-3h1.78V42.82h-1.78zm5.54 3v4.53h1.55a3.5 3.5 0 002.09-.49 1.93 1.93 0 00.76-1.69 2.11 2.11 0 00-.76-1.69 3.17 3.17 0 00-2.1-.61zM102.78 39.77h7.06v3h-1.38l2.21 3.87 2.33-3.82h-1.58v-3h7.07v3h-1.22l-4.91 6.81v3.94h2v3H107v-3h1.83v-4l-4.61-6.76h-1.45zM123.43 39.77h13.3v5.74H133v-2.36h-4v3.54h3.53v3.24H129v3.64h1.82v3h-7.36v-3h1.78V43.15h-1.78zM137.41 39.77h7.36v3H143v10.8h1.81v3h-7.36v-3h1.78V42.81h-1.78zM149 53.57h1.67V42.71h-2v2.18h-3.46v-5.12h14.65v5.12h-3.49v-2.18h-2.22v10.86h1.7v3H149zM170.76 39.77h6v3h-1.28v13.8H172l-6.61-10.9v7.85h1.33v3h-6v-3H162v-10.7h-1.29v-3h4.8l6.56 11v-8h-1.35zM177.68 39.77h13.67v5.74h-3.7v-2.39h-4.41v3.33h3.42v3.22h-3.42v3.9h4.41v-3h3.7v6h-13.67v-3h1.8V43.12h-1.8zM201.56 44.51a1.82 1.82 0 00-.28-.73 2.12 2.12 0 00-.56-.6 3.16 3.16 0 00-.78-.39 2.85 2.85 0 00-.92-.14 4.09 4.09 0 00-.8.08 1.83 1.83 0 00-.65.28 1.28 1.28 0 00-.61 1.16 1.26 1.26 0 00.22.79 1.81 1.81 0 00.57.49 4 4 0 00.76.3c.28.07.55.15.82.24l3.12 1a5.5 5.5 0 011.21.61 4.21 4.21 0 011 1 4.41 4.41 0 01.65 1.28 5.11 5.11 0 01.24 1.62 5.27 5.27 0 01-.46 2.23 5 5 0 01-1.29 1.74 6 6 0 01-2 1.12 7.68 7.68 0 01-2.56.4 7.55 7.55 0 01-1.87-.22 6.26 6.26 0 01-1.6-.62 5.69 5.69 0 01-1.27-1 4.25 4.25 0 01-.85-1.29h-1.17v-3.37h4.11v.69a2.51 2.51 0 00.16.92 2 2 0 00.49.74 2.33 2.33 0 00.83.48 3.44 3.44 0 001.17.17 2.28 2.28 0 001.55-.46 1.58 1.58 0 00.53-1.28 1.31 1.31 0 00-.18-.71 1.83 1.83 0 00-.48-.48 3.36 3.36 0 00-.66-.32l-.72-.25-2.59-.82a6.87 6.87 0 01-1.42-.62 4.9 4.9 0 01-1.22-1 4.71 4.71 0 01-.84-1.41 5.26 5.26 0 01-.31-1.84 4.77 4.77 0 01.46-2.14 4.5 4.5 0 011.26-1.58 5.81 5.81 0 011.94-1 8.71 8.71 0 012.46-.33 7.44 7.44 0 011.95.24 6.85 6.85 0 011.61.64 5.12 5.12 0 011.2.91 4 4 0 01.75 1.07h1.14v3.36h-4.11zM215.9 44.51a1.82 1.82 0 00-.28-.73 2.32 2.32 0 00-.57-.6 3.16 3.16 0 00-.78-.39 2.79 2.79 0 00-.91-.14 4.12 4.12 0 00-.81.08 1.91 1.91 0 00-.65.28 1.41 1.41 0 00-.44.47 1.36 1.36 0 00-.17.69 1.26 1.26 0 00.23.79 1.67 1.67 0 00.56.49 4.11 4.11 0 00.77.3q.42.11.81.24l3.12 1a5.28 5.28 0 011.21.61 4 4 0 011 1 4.43 4.43 0 01.66 1.28 5.42 5.42 0 01.23 1.62 5.27 5.27 0 01-.46 2.23 4.92 4.92 0 01-1.28 1.74 5.93 5.93 0 01-2 1.12 7.68 7.68 0 01-2.56.4 7.47 7.47 0 01-1.86-.22 6.34 6.34 0 01-1.61-.62 5.93 5.93 0 01-1.27-1 4.45 4.45 0 01-.85-1.29h-1.16v-3.37h4.1v.69a2.51 2.51 0 00.16.92 2.06 2.06 0 00.5.74 2.24 2.24 0 00.83.48 3.42 3.42 0 001.16.17 2.32 2.32 0 001.56-.46 1.62 1.62 0 00.53-1.28 1.23 1.23 0 00-.19-.71 1.57 1.57 0 00-.48-.48 3.36 3.36 0 00-.66-.32l-.71-.25-2.6-.82a7.11 7.11 0 01-1.42-.62 4.86 4.86 0 01-1.21-1 4.71 4.71 0 01-.84-1.41 5 5 0 01-.31-1.84 4.91 4.91 0 01.45-2.14 4.42 4.42 0 011.3-1.58 5.63 5.63 0 011.94-1 8.71 8.71 0 012.46-.33 7.55 7.55 0 011.95.24 6.77 6.77 0 011.6.64 5.12 5.12 0 011.2.91 4.31 4.31 0 01.76 1.07H220v3.36h-4.1zM75.15 77.29l4.23.64a4 4 0 011.27.41 3.26 3.26 0 01.94.72 2.83 2.83 0 01.56.94 2.13 2.13 0 01.1 1 3.3 3.3 0 01-.35 1.14 2.47 2.47 0 01-.73.87 2.82 2.82 0 01-1.11.49 4.38 4.38 0 01-1.5 0l-1.29-.2-.27 1.76.86.12-.24 1.62c-1.3-.19-2.59-.39-3.89-.6l.27-1.61 1 .15c.3-1.89.59-3.79.89-5.68l-.95-.15zm2.71 2.07l-.36 2.4.84.12a1.91 1.91 0 001.15-.12 1 1 0 00.54-.83 1.14 1.14 0 00-.26-1 1.7 1.7 0 00-1.08-.48zM91.06 79.44c1.62.19 3.24.36 4.86.52a3.82 3.82 0 011.25.33 2.87 2.87 0 01.89.64 2.39 2.39 0 01.52.86 2.51 2.51 0 01.11 1 2.56 2.56 0 01-.17.79 2.08 2.08 0 01-.35.58 2.17 2.17 0 01-.52.43 3.88 3.88 0 01-.68.31 1.53 1.53 0 01.51.53 2.18 2.18 0 01.29.85c.08.48.12.72.21 1.2l.77.07c-.06.7-.09 1-.14 1.75l-2.74-.3c-.07-.87-.1-1.3-.17-2.17a3.16 3.16 0 00-.1-.67 1.38 1.38 0 00-.26-.48 1.23 1.23 0 00-.44-.3 2 2 0 00-.65-.15l-.79-.08-.2 2 .86.09-.12 1.59q-2-.19-3.9-.42l.18-1.62 1 .11.63-5.72-1-.11zm2.79 2l-.22 2.18 1.22.12a2.21 2.21 0 00.63 0 1.47 1.47 0 00.5-.14 1 1 0 00.34-.31 1.09 1.09 0 00.15-.47 1 1 0 00-.3-.85 1.89 1.89 0 00-1.1-.4zM107.81 80.94c2.45.16 4.89.29 7.34.4 0 1-.09 2-.14 3.08l-2-.1.07-1.27-2.38-.13-.1 1.77 1.85.11-.09 1.72-1.86-.1-.12 2.08 2.41.13.08-1.59 2 .09-.15 3.23c-2.5-.12-5-.25-7.52-.42l.11-1.62 1 .06c.11-1.86.23-3.72.35-5.59l-1-.06zM123.54 89h.87c0-1.92.08-3.84.11-5.76h-.86V81.6q1.91 0 3.81.06 1.32 3.27 2.7 6.53c.86-2.16 1.71-4.34 2.55-6.51h3.85v1.64h-.87c0 1.92.05 3.84.07 5.76h.87v1.63h-3.54V89.1h.65v-5.19q-1.38 3.36-2.79 6.72h-1.76c-.94-2.18-1.88-4.37-2.79-6.56 0 1.67 0 3.34-.07 5h.7v1.63c-1.19 0-2.37 0-3.56-.06zM145.46 81.44c1.32-.06 2.64-.11 3.95-.18l.09 1.63h-1l.27 5.75h1l.08 1.63q-2 .11-4.05.18l-.07-1.63h1l-.24-5.82h-1zM157.49 80.76c1.23-.09 2.47-.18 3.7-.29l.13 1.64-.84.07.3 3.73a2.6 2.6 0 00.19.86 1.63 1.63 0 00.38.55 1.42 1.42 0 00.54.29 1.81 1.81 0 00.66 0 2.14 2.14 0 00.66-.14 1.26 1.26 0 00.49-.35 1.5 1.5 0 00.28-.61 3.35 3.35 0 000-.92c-.11-1.24-.23-2.48-.34-3.73l-1 .09-.14-1.63 3.69-.34.16 1.63-.74.07c.11 1.16.22 2.33.34 3.5a4.73 4.73 0 01-.13 1.71 3.44 3.44 0 01-.67 1.32 3.25 3.25 0 01-1.1.88 4 4 0 01-1.43.4 3.88 3.88 0 01-1.45-.15 3.24 3.24 0 01-1.22-.67 3.51 3.51 0 01-.87-1.16 4.24 4.24 0 01-.41-1.61l-.27-3.61-.84.07zM175.7 86.42l.87-.11c-.24-1.9-.47-3.8-.71-5.71l-.86.11-.2-1.63q1.89-.22 3.78-.48c1.19 2 2.4 4.06 3.61 6.08.55-2.26 1.08-4.53 1.61-6.81l3.82-.58.26 1.62-.88.09c.3 1.9.59 3.79.89 5.69l.85-.14.26 1.62-3.51.53-.24-1.61.64-.1c-.26-1.71-.51-3.42-.77-5.13-.59 2.35-1.2 4.71-1.82 7l-1.74.25q-1.87-3-3.7-6.1l.64 5 .7-.09.21 1.61q-1.77.24-3.54.45zM72.27 67.05h44.01v2.34H72.27zM143.2 67.05h44.01v2.34H143.2zM129.85 72.31l-4.3 2.45 1-4.85-3.66-3.34 4.92-.54 2.04-4.51 2.05 4.51 4.92.54-3.66 3.34 1 4.85-4.31-2.45z"/>
</svg>
