<svg width="27" height="36" viewBox="0 0 27 36" fill="none" xmlns="http://www.w3.org/2000/svg">
<path d="M13.1708 0.830078C6.0694 0.830078 0.292725 6.73873 0.292725 14.0008C0.292725 23.7174 12.1745 35.2661 12.6803 35.7534C12.8186 35.8856 12.9947 35.952 13.1708 35.952C13.3468 35.952 13.5229 35.8856 13.6613 35.7534C14.1671 35.2661 26.0488 23.7174 26.0488 14.0008C26.0488 6.73873 20.2721 0.830078 13.1708 0.830078ZM13.1708 34.1963C10.9224 31.9005 1.7236 22.0153 1.7236 14.0008C1.7236 7.54551 6.85892 2.29347 13.1708 2.29347C19.4826 2.29347 24.618 7.54551 24.618 14.0008C24.618 22.0153 15.4191 31.9005 13.1708 34.1963Z" fill="url(#paint0_linear)"/>
<path d="M13.1708 6.68371C9.226 6.68371 6.01628 9.96638 6.01628 14.0008C6.01628 18.0352 9.22607 21.3179 13.1708 21.3179C17.1155 21.3179 20.3253 18.0352 20.3253 14.0008C20.3253 9.96638 17.1155 6.68371 13.1708 6.68371ZM13.1708 19.8544C10.0141 19.8544 7.44722 17.2285 7.44722 14.0008C7.44722 10.7732 10.0142 8.14717 13.1708 8.14717C16.3274 8.14717 18.8943 10.7732 18.8943 14.0008C18.8943 17.2285 16.3274 19.8544 13.1708 19.8544Z" fill="url(#paint1_linear)"/>
<path fill-rule="evenodd" clip-rule="evenodd" d="M13.1708 34.1963C10.9224 31.9005 1.7236 22.0153 1.7236 14.0008C1.7236 7.54551 6.85892 2.29347 13.1708 2.29347C19.4826 2.29347 24.618 7.54551 24.618 14.0008C24.618 22.0153 15.4191 31.9005 13.1708 34.1963ZM6.01628 14.0008C6.01628 9.96638 9.226 6.68371 13.1708 6.68371C17.1155 6.68371 20.3253 9.96638 20.3253 14.0008C20.3253 18.0352 17.1155 21.3179 13.1708 21.3179C9.22607 21.3179 6.01628 18.0352 6.01628 14.0008Z" fill="url(#paint2_linear)"/>
<defs>
<linearGradient id="paint0_linear" x1="-13.5264" y1="35.952" x2="26.7903" y2="35.0042" gradientUnits="userSpaceOnUse">
<stop stop-color="#F6C891"/>
<stop offset="1" stop-color="#7C532A"/>
</linearGradient>
<linearGradient id="paint1_linear" x1="-13.5264" y1="35.952" x2="26.7903" y2="35.0042" gradientUnits="userSpaceOnUse">
<stop stop-color="#F6C891"/>
<stop offset="1" stop-color="#7C532A"/>
</linearGradient>
<linearGradient id="paint2_linear" x1="-13.5264" y1="35.952" x2="26.7903" y2="35.0042" gradientUnits="userSpaceOnUse">
<stop stop-color="#F6C891"/>
<stop offset="1" stop-color="#7C532A"/>
</linearGradient>
</defs>
</svg>
