<svg width="100" height="100" viewBox="0 0 100 100" fill="none" xmlns="http://www.w3.org/2000/svg">
<g>
<path d="M81.0522 78.0475C81.0422 77.6631 80.9584 77.284 80.7977 76.926C80.4977 76.2582 81.8442 77.8285 57.8231 51.8748C63.4444 47.2346 63.8157 38.8447 58.7315 33.6141C57.103 31.9387 55.1055 30.7875 52.9313 30.2428V21.6797H57.8141C59.3205 21.6797 60.5815 20.5371 60.7297 19.0379L62.2922 3.21758C62.4623 1.49238 61.1051 0 59.3764 0H40.6264C38.8944 0 37.5408 1.49609 37.711 3.21758L39.2735 19.0379C39.4215 20.5371 40.6824 21.6797 42.1889 21.6797H47.0717V32.8125C47.0717 34.4305 48.3834 35.7422 50.0014 35.7422C53.4951 35.7422 56.4467 38.7832 56.4467 42.3828C56.4467 45.9367 53.5553 48.8281 50.0014 48.8281C47.8397 48.8281 45.8321 47.7518 44.6313 45.949C43.7342 44.6023 41.9155 44.2379 40.569 45.1348C39.2223 46.0316 38.8576 47.8506 39.7547 49.1973C40.436 50.2201 41.2545 51.1191 42.1758 51.8791C18.2387 77.7422 19.6344 76.1978 19.4096 76.5486C19.2104 76.8596 19.0653 77.2166 18.9953 77.6057C18.9252 77.9977 18.9467 76.4502 18.9467 97.0703C18.9467 98.6883 20.2584 100 21.8764 100H78.1264C79.7444 100 81.0561 98.6883 81.0561 97.0703C81.0561 76.1133 81.058 78.2719 81.0522 78.0475ZM52.2487 54.4781L71.4229 75.1953H28.5797L47.7512 54.4809C49.1928 54.7478 50.6973 54.7658 52.2487 54.4781Z" fill="#828282"/>
</g>
</svg>
