<svg width="100" height="100" viewBox="0 0 100 100" fill="none" xmlns="http://www.w3.org/2000/svg">
<path d="M39.616 75.04C39.6152 76.5586 39.197 78.0479 38.407 79.345C37.6171 80.642 36.4858 81.697 35.1368 82.3946C33.7879 83.0922 32.2731 83.4056 30.758 83.3006C29.243 83.1955 27.786 82.676 26.5462 81.7989C25.3064 80.9217 24.3316 79.7207 23.7283 78.327C23.1249 76.9333 22.9163 75.4006 23.1251 73.8963C23.3339 72.3921 23.9522 70.9742 24.9124 69.7975C25.8726 68.6209 27.1378 67.7308 28.5696 67.2246V58.4703C28.5696 57.7379 28.8605 57.0355 29.3784 56.5176C29.8963 55.9997 30.5988 55.7087 31.3312 55.7087C32.0636 55.7087 32.766 55.9997 33.2839 56.5176C33.8018 57.0355 34.0928 57.7379 34.0928 58.4703V67.2246C35.7088 67.7959 37.1078 68.8544 38.097 70.2541C39.0862 71.6539 39.6169 73.326 39.616 75.04Z" fill="#828282"/>
<path d="M17.5232 19.808C17.5232 16.1459 18.978 12.6338 21.5675 10.0443C24.157 7.45477 27.6691 6 31.3312 6C34.9933 6 38.5055 7.45477 41.095 10.0443C43.6845 12.6338 45.1392 16.1459 45.1392 19.808V61.5082C47.8033 64.2272 49.6053 67.6721 50.3193 71.4111C51.0333 75.1501 50.6276 79.0167 49.153 82.526C47.6783 86.0353 45.2004 89.0312 42.03 91.1379C38.8596 93.2446 35.1378 94.3684 31.3312 94.3684C27.5247 94.3684 23.8028 93.2446 20.6324 91.1379C17.462 89.0312 14.9841 86.0353 13.5095 82.526C12.0349 79.0167 11.6291 75.1501 12.3431 71.4111C13.0572 67.6721 14.8592 64.2272 17.5232 61.5082V19.808ZM31.3312 11.5232C29.134 11.5232 27.0267 12.3961 25.473 13.9498C23.9193 15.5035 23.0464 17.6107 23.0464 19.808V63.9218L22.124 64.7503C20.0394 66.6145 18.57 69.0677 17.9102 71.7854C17.2505 74.503 17.4314 77.3569 18.4292 79.9694C19.4269 82.582 21.1945 84.83 23.4978 86.4159C25.8012 88.0019 28.5319 88.851 31.3285 88.851C34.125 88.851 36.8557 88.0019 39.1591 86.4159C41.4625 84.83 43.23 82.582 44.2277 79.9694C45.2255 77.3569 45.4065 74.503 44.7467 71.7854C44.0869 69.0677 42.6175 66.6145 40.5329 64.7503L39.616 63.9163V19.808C39.616 17.6107 38.7432 15.5035 37.1895 13.9498C35.6358 12.3961 33.5285 11.5232 31.3312 11.5232ZM58.9472 17.0464C59.6797 17.0464 60.3821 17.3374 60.9 17.8553C61.4179 18.3732 61.7088 19.0756 61.7088 19.808V26.9495L65.2768 23.376C65.7954 22.8574 66.4987 22.5661 67.232 22.5661C67.9654 22.5661 68.6687 22.8574 69.1873 23.376C69.7058 23.8946 69.9971 24.5979 69.9971 25.3312C69.9971 26.0646 69.7058 26.7679 69.1873 27.2864L61.7088 34.7593V45.4025L70.9271 40.0837L73.661 29.8658C73.7553 29.5154 73.9177 29.1871 74.1389 28.8995C74.3601 28.612 74.6357 28.3708 74.9501 28.1897C75.2645 28.0087 75.6115 27.8913 75.9712 27.8444C76.331 27.7974 76.6964 27.8218 77.0468 27.9161C77.3971 28.0104 77.7254 28.1727 78.013 28.3939C78.3006 28.6151 78.5418 28.8907 78.7228 29.2051C78.9039 29.5195 79.0212 29.8665 79.0682 30.2263C79.1151 30.586 79.0908 30.9515 78.9965 31.3018L77.6875 36.1733L83.8735 32.6053C84.5074 32.2448 85.2582 32.1498 85.962 32.3408C86.6657 32.5319 87.2654 32.9936 87.63 33.6251C87.9946 34.2567 88.0947 35.0068 87.9083 35.7118C87.7219 36.4169 87.2642 37.0196 86.6351 37.3884L80.4491 40.9564L85.3316 42.2654C85.6819 42.3596 86.0102 42.522 86.2978 42.7432C86.5854 42.9644 86.8266 43.24 87.0076 43.5544C87.1887 43.8688 87.306 44.2158 87.353 44.5755C87.3999 44.9353 87.3756 45.3007 87.2813 45.6511C87.187 46.0014 87.0246 46.3297 86.8034 46.6173C86.5823 46.9049 86.3066 47.1461 85.9922 47.3271C85.6778 47.5082 85.3308 47.6255 84.9711 47.6725C84.6114 47.7194 84.2459 47.6951 83.8956 47.6008L73.6887 44.8668L64.4704 50.1856L73.6887 55.5045L83.9011 52.7705C84.2536 52.67 84.6226 52.6407 84.9865 52.6842C85.3505 52.7278 85.7021 52.8434 86.0209 53.0243C86.3397 53.2052 86.6193 53.4477 86.8435 53.7377C87.0676 54.0278 87.2317 54.3595 87.3263 54.7137C87.4209 55.0678 87.444 55.4372 87.3944 55.8004C87.3447 56.1636 87.2232 56.5132 87.0371 56.829C86.8509 57.1447 86.6037 57.4202 86.3099 57.6395C86.0162 57.8587 85.6817 58.0173 85.3261 58.1059L80.4491 59.4149L86.6351 62.9829C87.2642 63.3517 87.7219 63.9544 87.9083 64.6594C88.0947 65.3644 87.9946 66.1146 87.63 66.7461C87.2654 67.3777 86.6657 67.8393 85.962 68.0304C85.2582 68.2215 84.5074 68.1264 83.8735 67.766L77.6875 64.198L78.9965 69.075C79.097 69.4275 79.1263 69.7965 79.0827 70.1604C79.0391 70.5244 78.9235 70.876 78.7427 71.1948C78.5618 71.5136 78.3193 71.7932 78.0292 72.0174C77.7392 72.2415 77.4074 72.4056 77.0533 72.5002C76.6991 72.5948 76.3297 72.6179 75.9666 72.5683C75.6034 72.5186 75.2537 72.3971 74.938 72.211C74.6222 72.0248 74.3467 71.7776 74.1275 71.4839C73.9083 71.1901 73.7497 70.8556 73.661 70.5L70.9326 60.2931L61.7088 54.9687V65.6119L69.1873 73.0848C69.444 73.3416 69.6477 73.6464 69.7867 73.9819C69.9256 74.3174 69.9971 74.6769 69.9971 75.04C69.9971 75.4032 69.9256 75.7627 69.7867 76.0982C69.6477 76.4337 69.444 76.7385 69.1873 76.9953C68.9305 77.252 68.6257 77.4557 68.2902 77.5947C67.9547 77.7336 67.5952 77.8051 67.232 77.8051C66.8689 77.8051 66.5094 77.7336 66.1739 77.5947C65.8384 77.4557 65.5336 77.252 65.2768 76.9953L61.7088 73.4217V80.5632C61.7088 81.2957 61.4179 81.9981 60.9 82.516C60.3821 83.0339 59.6797 83.3248 58.9472 83.3248C58.2148 83.3248 57.5124 83.0339 56.9945 82.516C56.4766 81.9981 56.1856 81.2957 56.1856 80.5632V19.808C56.1856 19.0756 56.4766 18.3732 56.9945 17.8553C57.5124 17.3374 58.2148 17.0464 58.9472 17.0464Z" fill="#828282"/>
</svg>
