<svg id="Слой_1" data-name="Слой 1" xmlns="http://www.w3.org/2000/svg" viewBox="0 0 145 145"><defs><style>.cls-1{fill:#beaf87;}.cls-2{fill:none;}</style></defs><title>2</title><path class="cls-1" d="M111.14,59.3c-3.91-3.88-7.88-7.71-11.76-11.63a6.74,6.74,0,0,0-5.11-2.1c-7.21,0-14.42,0-21.64,0v0c-7.34,0-14.68,0-22,0a6.22,6.22,0,0,0-4.69,1.89C42,51.33,38.07,55.17,34.14,59c-2.94,2.91-3,5.38-.13,8.38q17.22,18,34.46,36.06c2.56,2.68,5.59,2.7,8.12,0q17.35-18.18,34.67-36.38C113.75,64.51,113.71,61.85,111.14,59.3ZM93.33,50.63,88.61,54.5,85,50.63Zm-.41,12.31H82.3l6-5ZM86.2,56.48c-1.67,1.38-3.58,3-5.53,4.5a1.12,1.12,0,0,1-1,0c-1.66-1.3-3.27-2.66-5.06-4.13l6.76-5.57Zm-8.49,6.21L77.6,63H67.49l-.14-.24c1.64-1.34,3.28-2.69,4.94-4a.76.76,0,0,1,.65.07C74.54,60.07,76.12,61.38,77.71,62.69Zm.37-12c-1.89,1.55-3.51,2.88-5.15,4.18a.79.79,0,0,1-.76,0c-1.65-1.3-3.26-2.63-5.14-4.17Zm-14.34.56,6.82,5.6c-1.8,1.47-3.47,2.87-5.18,4.21a1,1,0,0,1-.94-.06c-1.94-1.53-3.84-3.12-5.65-4.61ZM62.45,62.65l-.15.3H52.2L57,58.15ZM60,50.67l-3.53,3.81-4.65-3.81Zm-22.52,12c3.65-3.55,7.3-7.11,11-10.63a1,1,0,0,1,.93,0c1.76,1.37,3.47,2.81,5.07,4.12-2.14,2.25-4.2,4.43-6.29,6.61a.83.83,0,0,1-.55.23c-3.34,0-6.68,0-10,0ZM39.77,66l.12-.37c2.64,0,5.28,0,7.92,0,.29,0,.65.34.83.62Q55.87,78.13,63.08,90a2.76,2.76,0,0,1,.05.47Zm11.62-.23c.42-.06.72-.15,1-.16,3.35,0,6.71,0,10.06,0,.76,0,1.21.15,1.39,1,1.88,9.42,3.8,18.83,5.7,28.24,0,.18,0,.37.07.89Zm21,30c-2-9.95-4.06-19.9-6.13-30H78.83c-2.06,10.13-4.09,20.08-6.12,30Zm3.27-.27-.24-.09c.31-1.6.62-3.2,1-4.8L81.1,67.29c.35-1.74.35-1.75,2.15-1.75h8.82c.48,0,1,0,1.76.1C87.67,75.75,81.67,85.59,75.68,95.44ZM81.63,91l-.2-.15,1-1.65q6.87-11.25,13.7-22.5a2.09,2.09,0,0,1,2.09-1.18c2,.07,4,0,6,0,.43,0,.86.06,1.61.12Zm22.5-27.92c-2,0-4,0-6,0a2.19,2.19,0,0,1-1.37-.38c-2.08-2.07-4.1-4.2-6.27-6.45,1.69-1.39,3.45-2.87,5.26-4.3a1,1,0,0,1,.92.18c3.52,3.63,7,7.28,10.57,11Z"/><rect class="cls-2" width="145" height="145"/></svg>