<svg data-name="Слой 1" xmlns="http://www.w3.org/2000/svg" viewBox="0 0 145 145">
  <path d="M97 45.2c-9.78-1.17-19.56-1.59-29.27.7-8 1.88-15.14 5.24-20.23 11.92-4.34 5.69-6.1 12.13-5.19 19.87C58.06 61.17 79.14 55.53 88 57.27c-8.51 4.89-17.75 9.82-26.58 15.39a65.06 65.06 0 00-21.85 22.89 55.84 55.84 0 00-2.48 5.69l4.31 2.51c3.87-5.14 5.79-11.29 10.8-15.24 3.44.87 6.76 2 10.18 2.53C74.6 93 83.57 90.59 90.25 78.75a105.71 105.71 0 004.8-9.87c3.14-7.18 7.57-13.28 14.12-17.74.77-.53 1.44-1.22 2.74-2.34-2.27-.75-3.92-1.46-5.64-1.84A92.84 92.84 0 0097 45.2z" fill="#beaf87"/>
  <path fill="none" d="M0 0h145v145H0z"/>
</svg>
