<svg data-name="Слой 1" xmlns="http://www.w3.org/2000/svg" viewBox="0 0 145 145">
  <path d="M111.33 70.72c3-4.64 2.54-13.13-5.81-15.33a29 29 0 00-6.38-.67c-4.56-.16-9.13-.26-13.69-.41-.41 0-1.16.26-1-.71a33.75 33.75 0 00.55-6.88c0-6.11-2-11.35-6.73-15.39a8.25 8.25 0 00-7.13-2.24c-3.88.77-6.14 3.81-6.32 8.09-.36 8.38-3.74 14.9-11.71 18.49a1.44 1.44 0 01-1.7-.06 7.54 7.54 0 00-4.7-1.39h-6.2c-5.39 0-8.52 3.1-8.52 8.48Q32 72.36 32 82v19.9c0 4.53 2.89 7.71 7.41 8 2.69.18 5.4.11 8.1 0a7 7 0 006-3.51 1.17 1.17 0 011.55-.58c1.41.39 2.86.65 4.27 1 11.81 3.4 23.9 3.43 36 3 6.73-.26 9.61-6.6 9-11.08a1.6 1.6 0 01.6-1.5 13.07 13.07 0 003.69-11.86 1.9 1.9 0 01.38-1.67c2.64-3.52 3.66-7.35 2-11.61a1.28 1.28 0 01.33-1.37zM49.7 101.33c0 2.66-.76 3.42-3.37 3.42h-6.31c-1.94 0-2.82-.89-2.82-2.86V82.01 62.49c0-2.27.79-3.06 3.08-3.08h6.19c2.4 0 3.22.82 3.23 3.22v28.46c0 3.41.01 6.82 0 10.24zM98.15 72c1.71 0 3.42 0 5.12.09a3.45 3.45 0 013.4 3.93c-.4 4.24-2.31 6-6 6h-5c-.91 0-1.66.25-1.69 1.24s.75 1.39 1.69 1.4h4.53c3 .07 4.08 1.42 3.44 4.37a17.38 17.38 0 01-.84 2.59 4.46 4.46 0 01-3.93 2.84 41.81 41.81 0 01-5.71.18c-.94 0-1.71.22-1.7 1.33s.77 1.29 1.64 1.3h3.81a2.34 2.34 0 012.41 2.76c-.47 3-1.77 4.53-4.66 4.6-12.33.33-24.61.2-36.57-3.46-1.21-.37-2.46-.58-3.69-.92-1.53-.43-2-1-2-2.66V64.2c0-2.27.4-2.81 2.46-3.67 8.63-3.62 13.34-10.27 14.84-19.35.26-1.52.31-3.08.45-4.62a2.42 2.42 0 013.58-2.13 7.28 7.28 0 012.59 2 14.84 14.84 0 013.58 9.13 30.24 30.24 0 01-2 12.6c-.38 1-.14 1.21.86 1.21q9 0 18 .13a32.56 32.56 0 017.81.71c2.36.61 3.33 1.94 3.27 4.41-.07 3.32-1 4.41-4.36 4.67-1.73.13-3.49.06-5.23.07-.94 0-1.72.23-1.69 1.35S97.27 72 98.15 72zM43.43 94.69a3.87 3.87 0 00-3.87 3.84 4 4 0 003.8 3.85 3.88 3.88 0 003.89-3.83 3.79 3.79 0 00-3.82-3.86zm-.08 5a1.11 1.11 0 01-1.09-1.28 1 1 0 011.18-1c.76 0 1.13.44 1.14 1.22a1.09 1.09 0 01-1.23 1.06z" fill="#beaf87"/>
  <path fill="none" d="M0 0h145v145H0z"/>
</svg>
