<svg id="Слой_1" data-name="Слой 1" xmlns="http://www.w3.org/2000/svg" viewBox="0 0 145 145">
  <defs>
    <style>
      .cls-1{fill:#beaf87}.cls-2{fill:none}
    </style>
  </defs>
  <path class="cls-1" d="M109.4 48.18l-29.85-14.1a16.57 16.57 0 00-14.1 0L35.6 48.18a2.92 2.92 0 000 5.28l29.85 14.09a16.5 16.5 0 0014.1 0l29.85-14.09a2.92 2.92 0 000-5.28z"/>
  <path class="cls-1" d="M109.4 70.18l-7.3-3.45a2 2 0 00-1.74 0L76.08 78.2a8.46 8.46 0 01-7.16 0L44.64 66.73a2 2 0 00-1.74 0l-7.3 3.45a2.92 2.92 0 000 5.28l31.3 14.78a13.07 13.07 0 0011.2 0l31.3-14.78a2.92 2.92 0 000-5.28z"/>
  <path class="cls-1" d="M109.4 91.18l-7.3-3.45a2 2 0 00-1.74 0L76.08 99.2a8.46 8.46 0 01-7.16 0L44.64 87.73a2 2 0 00-1.74 0l-7.3 3.45a2.92 2.92 0 000 5.28l31.3 14.78a13.07 13.07 0 0011.2 0l31.3-14.78a2.92 2.92 0 000-5.28z"/>
  <path class="cls-2" d="M0 0h145v145H0z"/>
  <path class="cls-2" d="M-7-12.5h145v145H-7z"/>
</svg>
