<svg width="96" height="40" fill="none" xmlns="http://www.w3.org/2000/svg"><g clip-path="url(#clip0)"><path d="M57.385 13.779c-2.07 0-3.612 1.017-3.612 3.466 0 1.845 1.016 3.126 3.5 3.126 2.106 0 3.536-1.242 3.536-3.202 0-2.222-1.28-3.39-3.424-3.39zm-4.14 17.291c-.49.602-.978 1.242-.978 1.996 0 1.506 1.919 1.96 4.554 1.96 2.182 0 5.156-.154 5.156-2.185 0-1.208-1.43-1.282-3.238-1.396l-5.493-.375zm11.14-17.178c.676.867 1.392 2.073 1.392 3.805 0 4.181-3.274 6.63-8.015 6.63-1.205 0-2.296-.15-2.973-.339l-1.242 1.996 3.687.226c6.511.415 10.348.604 10.348 5.612 0 4.332-3.8 6.78-10.348 6.78-6.81 0-9.408-1.733-9.408-4.709 0-1.695.753-2.597 2.07-3.842-1.242-.526-1.655-1.467-1.655-2.485 0-.83.413-1.582 1.092-2.298.677-.715 1.429-1.431 2.332-2.26-1.843-.904-3.236-2.863-3.236-5.65 0-4.332 2.86-7.306 8.616-7.306 1.62 0 2.598.148 3.463.376h7.34v3.2l-3.463.264zm10.083-6.844c-2.146 0-3.388-1.245-3.388-3.392 0-2.145 1.242-3.314 3.388-3.314 2.182 0 3.424 1.169 3.424 3.314 0 2.147-1.242 3.392-3.424 3.392zm-4.856 22.636V26.71l1.92-.263c.527-.076.602-.188.602-.755V14.618c0-.413-.112-.678-.49-.79l-2.032-.717.414-3.05h7.79v15.631c0 .604.037.68.603.755l1.919.263v2.974H69.612zm25.607-1.46c-1.618.79-3.99 1.506-6.135 1.506-4.478 0-6.17-1.806-6.17-6.065v-9.868c0-.226 0-.376-.303-.376h-2.633v-3.354c3.312-.377 4.628-2.035 5.042-6.14h3.576v5.35c0 .263 0 .376.301.376h5.305v3.767h-5.606v9.002c0 2.223.527 3.088 2.558 3.088 1.055 0 2.145-.263 3.048-.602l1.017 3.316" fill="#2F2707"/><path d="M39.462 18.339L22.255 1.117a2.537 2.537 0 00-3.589 0l-3.573 3.577 4.533 4.536a3.01 3.01 0 013.906 2.182 3.023 3.023 0 01-.09 1.664l4.368 4.373a3.013 3.013 0 013.775 1.698 3.024 3.024 0 01-2.493 4.165 3.018 3.018 0 01-3.187-2.126 3.026 3.026 0 01.097-2.033l-4.074-4.077v10.73a3.023 3.023 0 01.799 4.847A3.016 3.016 0 0117.7 29.39a3.025 3.025 0 011.745-3.672v-10.83a3.024 3.024 0 01-1.639-3.964L13.337 6.45 1.54 18.259a2.54 2.54 0 000 3.594l17.207 17.222a2.537 2.537 0 003.589 0l17.126-17.142a2.543 2.543 0 000-3.594" fill="#DE4C36"/></g><defs><clipPath id="clip0"><path fill="#fff" transform="translate(.797)" d="M0 0h94.694v40H0z"/></clipPath></defs></svg>