<svg width="32" height="70" fill="none" xmlns="http://www.w3.org/2000/svg"><g clip-path="url(#clip0)"><path d="M24.677 67.867l.658-11.185 1.815-3.163s-4.131 1.726-11.047 1.726c-6.915 0-10.983-1.694-10.983-1.694L7.154 57l.72 10.866c0 1.164 3.76 2.108 8.401 2.108 4.64 0 8.402-.944 8.402-2.108zm-2.073-52.228l1.38-5.568 7.64-8.21L29.61.112l-8.088 8.744-1.602 6.653a105.169 105.169 0 00-3.618-.062c-8.52 0-15.425.992-15.425 2.214 0 1.223 6.906 2.214 15.425 2.214 8.518 0 15.424-.99 15.424-2.214 0-.9-3.745-1.675-9.122-2.02" fill="#D34A47"/><path d="M21.802 18.758s-.3.068-1.178.072c-.88.004-1.503-.006-1.752-.237a.405.405 0 01-.103-.27c0-.158.111-.252.252-.31l.133.213c-.058.02-.091.044-.091.07 0 .12.899.204 1.587.195.688-.009 1.519-.067 1.52-.186 0-.036-.063-.07-.173-.096l.133-.212c.178.056.334.166.334.355-.002.32-.403.37-.662.406" fill="#fff"/><path d="M31.609 1.878c.192-.227-.1-.806-.651-1.294-.552-.488-1.155-.7-1.348-.474-.192.227.1.806.652 1.294.551.488 1.155.7 1.347.474zm-7.299 38.67c-.181-1.778 3.81-4.355 2.786-4.437-2.205.129-3.303 2.639-4.412 5.268-.407.963-1.798 5.072-2.71 4.566-.913-.505 1.182-3.884 1.77-5.89-.678.507-3.163 2.478-3.803.632-1.03.893-3.23 1.377-2.981-.969-.548.99-1.777 2.374-3.253 1.8-1.937-.755 1.123-7.058 1.884-6.74.761.318-.153 1.754-.393 2.311-.527 1.227-1.136 2.77-.729 3.085.697.541 2.592-2.046 2.634-2.103.355-.478 1.365-3.607 2.179-3.248.814.36-2.03 4.49-.967 5.31.214.166 1.092-.102 1.626-.691.345-.382.226-1.227 1.378-4.03 1.151-2.805 2.178-6.297 2.967-6.03.79.265.139 2.057-.144 2.726-1.33 3.135-3.628 8.316-2.544 7.923 1.084-.392 1.648-.415 2.71-1.683 1.061-1.269 1.012-3.358 1.72-3.314.708.045.59.715.417 1.225.697-.814 3.302-2.528 3.93-.83.745 2.01-3.726 4.912-2.611 4.764 1.087-.144 2.848-1.283 3.6-2.319l2.07-19s-2.083 1.76-15.333 1.76S.985 18.911.985 18.911l1.762 17.342c.935-2.714 3.156-8.204 6.657-8.02 1.592.084 3.718 3.215 1.897 3.321-.77.045-.85-1.563-1.762-1.799-.658-.17-1.575.377-2.168.969-1.182 1.181-3.724 5.841-3.388 8.164.428 2.962 4.003-1.029 4.608-2.214.426-.835.713-3.308 1.645-3.048.932.26-.081 2.811-.757 5.068-.758 2.534-1.157 5.206-2.108 4.899-.951-.307.598-3.578.542-4.151-.894.842-2.54 2.974-4.647 1.918L4.36 52.13s2.908 2.346 11.67 2.346c8.76 0 11.777-2.31 11.777-2.31l1.358-12.473c-1.111 1.105-4.63 3.068-4.855.856" fill="#D34A47"/></g><defs><clipPath id="clip0"><path fill="#fff" transform="translate(.784)" d="M0 0h31.013v70H0z"/></clipPath></defs></svg>