<svg width="73" height="30" fill="none" xmlns="http://www.w3.org/2000/svg"><g clip-path="url(#clip0)"><path d="M70 10.94c0-2.245.36-3.57.36-5.988C70.36 1.209 68.92 0 65.74 0h-2.339v2.649h.72c1.62 0 1.98.518 1.98 2.418 0 1.785-.18 3.57-.18 5.643 0 2.649.9 3.685 2.699 4.088v.173c-1.8.403-2.7 1.44-2.7 4.088 0 2.073.18 3.743.18 5.643 0 1.958-.42 2.476-1.98 2.476v.058h-.719V30h2.34c3.179 0 4.618-1.21 4.618-4.952 0-2.476-.36-3.743-.36-5.988 0-1.21.78-2.476 3.12-2.592v-2.994c-2.34-.058-3.12-1.324-3.12-2.534zm-12.057 3.513c-1.8-.691-3.48-1.094-3.48-2.246 0-.863.72-1.382 2.04-1.382s2.52.519 3.839 1.44l2.4-3.052c-1.5-1.094-3.54-2.246-6.299-2.246-4.079 0-6.838 2.246-6.838 5.413 0 2.821 2.58 4.261 4.739 5.067 1.86.691 3.659 1.267 3.659 2.419 0 .863-.72 1.44-2.34 1.44-1.5 0-2.999-.577-4.618-1.786l-2.4 3.34c1.8 1.44 4.559 2.418 6.838 2.418 4.799 0 7.378-2.418 7.378-5.585s-2.579-4.492-4.918-5.24zm-40.97 6.507c-.419 0-.959-.346-.959-1.44V0H7.496C4.257 0 2.818 1.21 2.818 4.952c0 2.476.36 3.858.36 5.989 0 1.209-.78 2.475-3.12 2.59v2.995c2.34.058 3.12 1.324 3.12 2.534 0 2.13-.36 3.397-.36 5.873 0 3.743 1.44 4.952 4.618 4.952h2.34v-2.649h-.72c-1.5 0-1.98-.576-1.98-2.476s.18-3.512.18-5.643c0-2.649-.9-3.685-2.699-4.088v-.173c1.8-.403 2.7-1.44 2.7-4.088 0-2.073-.18-3.743-.18-5.643s.42-2.419 1.979-2.419h1.62v16.526c0 3.513 1.26 5.816 4.918 5.816 1.14 0 2.04-.173 2.7-.403l-.6-3.743c-.36.058-.54.058-.72.058zm26.454-6.507c-1.86-.691-3.54-1.094-3.54-2.246 0-.863.72-1.382 2.04-1.382s2.52.519 3.839 1.44l2.4-3.052c-1.5-1.094-3.54-2.246-6.299-2.246-4.079 0-6.838 2.246-6.838 5.413 0 2.821 2.58 4.261 4.739 5.067 1.86.691 3.659 1.267 3.659 2.419 0 .863-.72 1.44-2.34 1.44-1.5 0-2.999-.577-4.619-1.786l-2.339 3.34c1.8 1.44 4.559 2.418 6.838 2.418 4.799 0 7.378-2.418 7.378-5.585s-2.58-4.492-4.918-5.24zM25.73 6.91c-4.378 0-8.577 3.512-8.457 9.04 0 5.7 3.899 9.04 9.057 9.04 2.16 0 4.559-.748 6.418-1.957L30.95 19.98c-1.32.748-2.58 1.094-3.899 1.094-2.4 0-4.259-1.094-4.739-3.743H33.17c.06-.403.18-1.21.18-2.13.06-4.665-2.579-8.292-7.618-8.292zm-3.419 7.255c.36-2.303 1.8-3.397 3.48-3.397 2.159 0 2.999 1.44 2.999 3.397h-6.479z" fill="#4A4A4A"/></g><defs><clipPath id="clip0"><path fill="#fff" d="M0 0h73v30H0z"/></clipPath></defs></svg>