<svg width="104" height="40" fill="none" xmlns="http://www.w3.org/2000/svg"><path d="M0 0h104v34.286H52V40H28.889v-5.714H0V0zm5.778 28.571h11.555V11.43h5.778V28.57h5.778V5.714H5.778v22.857zM34.667 5.714v28.572h11.555V28.57h11.556V5.714H34.667zm11.555 5.715H52v11.428h-5.778V11.43zm17.334-5.715v22.857H75.11V11.43h5.778V28.57h5.778V11.43h5.777V28.57h5.778V5.714H63.556z" fill="#CB3837"/><path d="M5.778 28.571h11.555V11.43h5.778V28.57h5.778V5.714H5.778v22.857zM34.667 5.714v28.572h11.555V28.57h11.556V5.714H34.667zM52 22.857h-5.778V11.43H52v11.428zM63.556 5.714v22.857H75.11V11.43h5.778V28.57h5.778V11.43h5.777V28.57h5.778V5.714H63.556z" fill="#fff"/></svg>