<svg width="51" height="50" fill="none" xmlns="http://www.w3.org/2000/svg"><g clip-path="url(#clip0)"><path d="M42.444 19.883c-.079-1.719.156-3.242-.626-4.531-1.874-3.204-6.562-5.079-15.937-5.079v.274h-.195.195v-.274c-9.375 0-14.297 1.875-16.172 5.118-.742 1.328-.664 2.812-.781 4.53-.078 1.368-.703 2.813-.43 4.376.313 2.031.43 4.062.742 5.937.235 1.524 2.344 2.813 2.54 4.258.546 3.985 4.687 5.82 14.062 5.82v.313h-.234.273v-.313c9.375 0 13.36-1.835 13.867-5.82.196-1.484 2.149-2.734 2.383-4.258.313-1.875.43-3.906.742-5.937.274-1.563-.351-3.047-.43-4.414z" fill="#EFCCA3"/><path d="M25.725 21.29c1.68.038 2.851 1.093 3.945 2.07 1.29 1.132 3.477 1.913 4.375 2.89.899.977 2.07 1.953 2.5 3.477.43 1.523.547 3.476.547 3.984s.273.39 1.055 0c1.836-.898 3.867-3.32 3.867-3.32-.235 1.523-2.227 2.89-2.422 4.336-.469 3.984-4.336 5.898-13.906 5.898h-.04.235" fill="#CCAC8D"/><path d="M31.897 18.242c.351 1.211 1.601 5.313-.82 3.945 0 0 1.015.586 1.64 2.813.664 2.227 2.266 2.5 2.266 2.5s2.617.508 4.57-1.172c1.64-1.406 1.914-3.906 1.21-5.82-.702-1.875-1.952-2.461-3.788-2.852-1.836-.43-5.508-.781-5.078.586z" fill="#CCAC8D"/><path d="M36.545 26.133a3.437 3.437 0 100-6.875 3.437 3.437 0 000 6.875z" fill="#000"/><path d="M35.647 22.07a.898.898 0 100-1.796.898.898 0 000 1.796z" fill="#fff"/><path d="M31.31 22.54s3.087 2.108 4.766 4.179c1.68 2.07 1.64 2.46 1.64 2.46l-1.21.548s-1.719-3.243-3.828-4.454c-2.149-1.21-2.383-2.226-2.383-2.226l1.016-.508z" fill="#EFCCA3"/><path d="M25.842 21.29c-1.68.038-2.93 1.093-4.063 2.07-1.289 1.132-3.554 1.913-4.453 2.89-.898.977-2.11 1.953-2.539 3.477-.43 1.523-.586 3.476-.586 3.984s.078.547-1.054 0c-1.836-.86-3.868-3.32-3.868-3.32.235 1.523 2.227 2.89 2.422 4.336.547 3.984 4.414 5.898 13.985 5.898h.195" fill="#CCAC8D"/><path d="M34.904 27.89c-1.875-2.304-4.882-4.453-9.062-4.453h-.04c-4.179 0-7.187 2.149-9.062 4.454-1.953 2.382-1.796 3.32-1.796 5.586 0 8.203 2.89 5.859 4.804 6.875 1.953.976 3.985.664 6.055.664h.039c2.11 0 4.102.273 6.055-.703 1.914-.977 4.804 1.445 4.804-6.758.04-2.266.157-3.282-1.797-5.664z" fill="#56332B"/><path d="M25.647 25.469s-.274 3.789-.82 4.531l1.015-.234-.195-4.297z" fill="#442823"/><path d="M25.92 25.469s.273 3.789.82 4.531l-1.015-.234.195-4.297z" fill="#442823"/><path d="M22.639 24.57c-.39-.898 1.015-2.343 3.242-2.383 2.227 0 3.633 1.446 3.242 2.383-.39.938-1.797 1.211-3.242 1.25-1.406-.039-2.852-.312-3.242-1.25z" fill="#56332B"/><path d="M25.881 25.469c0-.157 1.328-.196 2.031-.664 0 0-1.445.468-1.758.273-.312-.156-.39-.625-.39-.625s-.117.469-.352.625c-.273.156-1.914-.273-1.914-.273s2.188.547 2.188.664c0 .117-.04.508-.04.781 0 .977 0 3.398.157 3.594.234.351.156-2.617.156-3.594-.039-.313-.039-.625-.078-.781z" fill="#000"/><path d="M25.96 30.703c.663 0 1.835.469 2.89 1.211C27.834 30.781 26.623 30 25.96 30c-.704 0-2.188.86-3.243 2.11 1.094-.86 2.5-1.407 3.242-1.407z" fill="#7F4A41"/><path d="M25.686 37.617c-1.485 0-2.93-.469-4.258-.82-.274-.078-.547.117-.82.039-2.461-.781-4.454-2.11-5.665-3.79v.392c0 8.203 2.891 5.898 4.805 6.874 1.953.977 3.985.665 6.055.665h.039c2.11 0 4.102.273 6.055-.704 1.914-.976 4.804 1.407 4.804-6.796 0-.313 0-.625.04-.899-1.133 1.836-3.204 3.281-5.782 4.14-.234.079-.781-.116-1.015-.077-1.407.468-2.657.976-4.258.976z" fill="#442823"/><path d="M21.975 33.203s-.977 2.93-.313 4.219l-.898-.39s.664-2.97 1.21-3.829zM29.71 33.203s.976 2.93.312 4.219l.898-.39s-.703-2.97-1.21-3.829z" fill="#442823"/><path d="M19.475 18.242c-.352 1.211-1.602 5.313.82 3.945 0 0-1.016.586-1.64 2.813-.626 2.227-2.266 2.5-2.266 2.5s-2.617.508-4.57-1.172c-1.641-1.406-1.915-3.906-1.211-5.82.703-1.914 1.953-2.461 3.789-2.852 1.836-.43 5.468-.781 5.078.586z" fill="#CCAC8D"/><path d="M25.842 30c1.055 0 4.336 2.266 4.375 5.04v-.157c0-2.89-2.656-5.196-4.375-5.196-1.719 0-4.375 2.344-4.375 5.196v.156c.039-2.773 3.32-5.039 4.375-5.039z" fill="#000"/><path d="M26.695 24.591c.167-.043.237-.332.156-.645-.08-.313-.282-.532-.449-.49-.167.044-.237.333-.156.646.08.314.282.533.449.49zM24.687 24.586c.165.05.376-.158.472-.467.096-.31.04-.601-.125-.652-.165-.052-.376.158-.472.466-.096.31-.04.602.125.653z" fill="#331712"/><path d="M15.022 26.133a3.437 3.437 0 100-6.875 3.437 3.437 0 000 6.875z" fill="#000"/><path d="M15.92 22.07a.898.898 0 100-1.796.898.898 0 000 1.796z" fill="#fff"/><path d="M26.858 22.734c0-.039-.899.391-1.133.43-.235-.039-1.133-.469-1.133-.43h2.266z" fill="#7F4A41"/><path d="M20.022 22.54s-3.086 2.108-4.766 4.179c-1.68 2.07-1.64 2.46-1.64 2.46l1.21.548s1.72-3.243 3.828-4.454c2.11-1.21 2.383-2.226 2.383-2.226l-1.015-.508z" fill="#EFCCA3"/><path d="M13.264 16.29s-1.055 2.89-3.399 4.1c0 0 3.672-.43 3.399-4.1zM37.912 16.29s1.055 2.89 3.399 4.1c0 0-3.672-.43-3.399-4.1zM31.233 21.68s-2.305-2.422-5.391-2.5h.039.039c-3.125.078-5.39 2.5-5.39 2.5 2.695-1.875 5-1.836 5.39-1.836-.039 0 2.617-.04 5.313 1.836zM28.537 16.602s-1.172-1.641-2.734-1.68h.078c-1.172.039-2.695 1.68-2.695 1.68 1.328-1.29 2.695-1.25 2.695-1.25s1.289-.04 2.656 1.25zM15.022 28.594s-1.836.898-3.165.351h-.038c-1.172-.664-1.758-2.656-1.758-2.656s1.171 3.516 4.96 2.305zM36.428 28.594s1.836.898 3.164.351c1.562-.664 1.797-2.656 1.797-2.656s-1.172 3.516-4.961 2.305z" fill="#CCAC8D"/><path d="M17.131 16.094c1.016-.196 2.695-.235 4.023.195 1.68.586.313 2.734.665 2.852.351.117.82-1.485 3.945-1.328 3.164.156 3.515 1.562 3.945 1.328.43-.235-.43-3.907 4.297-3.047 0 0-4.961-1.328-4.727 2.265 0 0-2.851-2.187-6.835-.234.039 0 1.054-3.36-5.313-2.031zM34.436 16.094c.078 0 .117.039.156.039.04 0-.039-.04-.156-.04zM15.764 11.29s-4.219 5.312-4.844 7.343c-.625 2.07-1.094 10.547-1.64 11.758l-1.954-8.36 3.594-8.71 4.844-2.032zM35.608 11.29s4.218 5.312 4.843 7.343c.625 2.07 1.094 10.547 1.641 11.758l1.953-8.36-3.594-8.71-4.843-2.032z" fill="#CCAC8D"/><path d="M35.412 11.29s4.532 3.788 5.86 8.163c1.328 4.375.78 9.688 1.797 10.352 1.445.937 3.085-4.649 3.632-5.235.86-.937 3.711-3.32 3.907-3.75.195-.43-5.782-6.953-8.399-8.242-3.164-1.484-7.07-1.601-6.797-1.289z" fill="#56332B"/><path d="M39.28 13.633s5.351 6.836 5.273 15.351L46.7 24.61c-.039 0-1.914-5.586-7.422-10.976z" fill="#442823"/><path d="M15.764 11.29s-4.531 3.788-5.86 8.163c-1.328 4.375-.78 9.688-1.796 10.352-1.446.937-3.086-4.649-3.633-5.235-.86-.937-3.711-3.32-3.906-3.75-.196-.43 5.78-6.953 8.398-8.242 3.164-1.484 7.07-1.601 6.797-1.289z" fill="#56332B"/><path d="M11.897 13.633s-5.352 6.836-5.274 15.351l-2.11-4.375s1.876-5.586 7.384-10.976z" fill="#442823"/><path d="M9.006 29.14s.39 2.11 1.016 2.774c.625.664.195-.508.195-.508s-.664-.351-.547-3.047c.117-2.695-.664.782-.664.782zM42.326 29.14s-.39 2.11-1.015 2.774c-.625.664-.196-.508-.196-.508s.664-.351.547-3.047c-.117-2.695.664.782.664.782z" fill="#CCAC8D"/><path d="M21.78 27.852a.312.312 0 100-.625.312.312 0 000 .625zM19.983 29.727a.312.312 0 100-.625.312.312 0 000 .625zM19.397 27.852a.312.312 0 100-.625.312.312 0 000 .625zM29.397 27.852a.312.312 0 100-.625.312.312 0 000 .625zM31.194 29.727a.312.312 0 100-.625.312.312 0 000 .625zM31.78 27.852a.312.312 0 100-.625.312.312 0 000 .625z" fill="#442823"/></g><defs><clipPath id="clip0"><path fill="#fff" transform="translate(.49)" d="M0 0h50v50H0z"/></clipPath></defs></svg>