<svg width="66" height="50" fill="none" xmlns="http://www.w3.org/2000/svg"><g clip-path="url(#clip0)"><path d="M56.796 28.724a13.486 13.486 0 00-5.981 1.406c-.619-1.237-1.238-2.317-1.34-3.125-.117-.937-.258-1.51-.117-2.63.142-1.12.787-2.708.787-2.839-.014-.117-.142-.69-1.47-.703-1.328-.013-2.475.26-2.604.612a15.07 15.07 0 00-.554 1.992c-.232 1.224-2.656 5.56-4.035 7.839-.451-.885-.838-1.667-.915-2.292-.116-.937-.258-1.51-.116-2.63.142-1.12.786-2.708.786-2.838-.013-.118-.142-.69-1.47-.703-1.327-.014-2.474.26-2.603.611-.13.352-.27 1.185-.555 1.993-.27.807-3.493 8.047-4.33 9.934-.426.964-.8 1.732-1.07 2.253-.271.521-.014.04-.04.091l-.36.69v.014c-.18.325-.374.637-.465.637-.064 0-.193-.872.026-2.07.477-2.513 1.637-6.432 1.624-6.575 0-.065.22-.756-.747-1.107-.941-.352-1.276.234-1.354.234-.077 0-.142.209-.142.209s1.045-4.414-1.998-4.414c-1.907 0-4.537 2.096-5.84 4.01-.824.456-2.577 1.42-4.433 2.448-.71.39-1.444.807-2.14 1.185l-.142-.157c-3.687-3.97-10.506-6.783-10.222-12.122.103-1.94.773-7.057 13.097-13.255 10.093-5.078 18.176-3.685 19.58-.586 1.999 4.427-4.318 12.656-14.81 13.841-3.997.456-6.098-1.107-6.627-1.693-.554-.612-.631-.638-.837-.52-.335.182-.13.729 0 1.054.309.82 1.598 2.279 3.79 3.008 1.92.638 6.612.99 12.284-1.224 6.355-2.487 11.318-9.388 9.862-15.156-1.483-5.873-11.125-7.8-20.239-4.531-5.427 1.953-11.305 5-15.533 8.997-5.027 4.74-5.827 8.88-5.491 10.599 1.173 6.133 9.539 10.13 12.89 13.086-.167.09-.322.182-.464.26-1.676.834-8.056 4.206-9.655 7.774-1.805 4.036.284 6.94 1.676 7.33 4.305 1.211 8.714-.963 11.099-4.544 2.371-3.58 2.088-8.229.992-10.351l-.039-.078 1.315-.782c.851-.508 1.69-.976 2.424-1.38-.413 1.133-.71 2.474-.864 4.427-.18 2.292.748 5.26 1.972 6.432.542.508 1.186.521 1.586.521 1.418 0 2.063-1.185 2.771-2.604.877-1.732 1.65-3.737 1.65-3.737s-.966 5.43 1.676 5.43c.967 0 1.934-1.263 2.372-1.914v.013s.026-.04.078-.13a4.78 4.78 0 00.154-.248v-.026c.387-.677 1.25-2.226 2.54-4.792 1.662-3.307 3.26-7.448 3.26-7.448s.156 1.016.633 2.683c.283.99.902 2.07 1.379 3.125-.387.547-.619.86-.619.86l.013.012c-.31.417-.657.86-1.018 1.302-1.315 1.589-2.888 3.399-3.094 3.92-.245.612-.194 1.067.283 1.432.349.26.967.312 1.625.26 1.186-.078 2.01-.377 2.423-.56a8.365 8.365 0 002.088-1.106c1.29-.964 2.076-2.33 1.998-4.154-.038-1.002-.36-1.992-.76-2.93.116-.169.232-.338.348-.52 2.037-3.008 3.61-6.315 3.61-6.315s.154 1.015.631 2.682c.245.846.735 1.77 1.173 2.682-1.908 1.576-3.107 3.399-3.52 4.597-.76 2.213-.167 3.216.955 3.45.502.104 1.224-.13 1.766-.364.67-.222 1.482-.6 2.23-1.16 1.289-.963 2.527-2.304 2.462-4.114-.039-.833-.258-1.654-.554-2.435 1.624-.677 3.725-1.067 6.394-.742 5.736.677 6.87 4.297 6.651 5.807-.219 1.51-1.418 2.344-1.818 2.605-.4.247-.528.338-.49.52.052.274.233.26.58.209.478-.078 3.017-1.237 3.12-4.023.155-3.582-3.21-7.488-9.178-7.45zm-44.24 15.065c-1.895 2.096-4.564 2.89-5.698 2.214-1.225-.717-.748-3.803 1.585-6.03 1.418-1.353 3.262-2.603 4.473-3.371.271-.17.684-.417 1.173-.717.078-.052.13-.078.13-.078.09-.052.193-.117.296-.182.864 3.177.038 5.964-1.96 8.164zm13.857-9.518c-.657 1.627-2.05 5.807-2.888 5.573-.722-.196-1.16-3.36-.141-6.485.515-1.575 1.61-3.45 2.255-4.18 1.045-1.171 2.179-1.562 2.463-1.08.335.625-1.277 5.156-1.69 6.172zm11.434 5.52c-.284.144-.541.248-.658.17-.09-.052.116-.247.116-.247s1.431-1.55 1.998-2.266c.323-.416.71-.898 1.122-1.445v.156c0 1.875-1.779 3.125-2.578 3.633zm8.817-2.03c-.206-.157-.18-.639.515-2.15.271-.598.89-1.6 1.96-2.551.129.39.206.768.193 1.12-.013 2.343-1.663 3.216-2.668 3.58z" fill="#4A4A4A"/></g><defs><clipPath id="clip0"><path fill="#fff" d="M0 0h66v50H0z"/></clipPath></defs></svg>