<svg width="142" height="40" viewBox="0 0 142 40" fill="none" xmlns="http://www.w3.org/2000/svg">
<g clip-path="url(#clip0_1154_169)">
<path d="M18.3196 -0.5L36.2718 9.65436V29.9677L18.3196 40.1221L0.367432 29.9677V9.65436L18.3196 -0.5Z" fill="white"/>
<path d="M33.0665 29.2673L18.9135 37.2739V31.0393L27.7318 26.1871L33.0665 29.2673V29.2673ZM34.036 28.3906V11.6491L28.8591 14.6411V25.4032L34.036 28.3906V28.3906ZM3.51724 29.2673L17.6703 37.2739V31.0393L8.84724 26.1871L3.51724 29.2673V29.2673ZM2.54773 28.3906V11.6491L7.72464 14.6411V25.4032L2.54773 28.3906ZM3.15541 10.5636L17.6703 2.35291V8.37872L8.36944 13.4953L8.29522 13.5371L3.15541 10.5636V10.5636ZM33.4283 10.5636L18.9135 2.35291V8.37872L28.2143 13.4907L28.2885 13.5324L33.4283 10.5636Z" fill="#8ED6FB"/>
<path d="M17.6703 29.6198L8.9679 24.8326V15.3555L17.6703 20.3793V29.6198ZM18.9135 29.6198L27.6159 24.8372V15.3555L18.9135 20.3793V29.6198ZM9.55702 14.2607L18.2919 9.45953L27.0268 14.2607L18.2919 19.3031L9.55702 14.2607V14.2607Z" fill="#1C78C0"/>
<path d="M54.377 26.2335H58.204L62.1052 13.2355H58.3756L56.0655 22.4575L53.6023 13.2355H50.3737L47.8873 22.4575L45.6003 13.2355H41.8707L45.7488 26.2335H49.5758L51.988 17.9068L54.377 26.2335ZM62.3047 19.7716C62.3047 23.6728 64.9627 26.5582 69.1423 26.5582C72.3756 26.5582 74.1151 24.6191 74.6115 23.7007L72.3477 21.9843C71.9766 22.5317 70.9561 23.5754 69.1887 23.5754C67.2729 23.5754 65.8812 22.3322 65.807 20.5927H74.9594C74.9826 20.3422 74.9826 20.0963 74.9826 19.8458C74.9826 15.5967 72.6956 12.9108 68.6691 12.9108C64.9627 12.9108 62.3047 15.8425 62.3047 19.7716V19.7716ZM65.9091 18.3521C66.0575 16.8631 67.1012 15.7173 68.7202 15.7173C70.2881 15.7173 71.4292 16.761 71.5035 18.3521H65.9091ZM76.2768 26.2335H79.5101V24.8928C79.858 25.315 81.1522 26.5582 83.3649 26.5582C87.0945 26.5582 89.7294 23.7517 89.7294 19.7484C89.7294 15.7219 87.294 12.9154 83.5644 12.9154C81.3285 12.9154 80.0342 14.1586 79.7095 14.6039V8.2627H76.2814V26.2335H76.2768ZM79.6075 19.7716C79.6075 17.3362 81.0501 15.9446 82.9381 15.9446C84.9282 15.9446 86.2688 17.5125 86.2688 19.7716C86.2688 22.0817 84.8772 23.5244 82.9381 23.5244C80.8507 23.5244 79.6075 21.8312 79.6075 19.7716ZM91.0653 30.8815H94.4934V24.8882C94.8181 25.3103 96.1077 26.5535 98.3483 26.5535C102.078 26.5535 104.513 23.7471 104.513 19.7206C104.513 15.7451 101.878 12.9108 98.1488 12.9108C95.9361 12.9108 94.6419 14.154 94.294 14.5993V13.2309H91.0607V30.8815H91.0653ZM94.396 19.6974C94.396 17.6331 95.6392 15.9446 97.7267 15.9446C99.6657 15.9446 101.057 17.3872 101.057 19.6974C101.057 21.9611 99.7167 23.5244 97.7267 23.5244C95.8387 23.5244 94.396 22.1327 94.396 19.6974ZM105.135 22.207C105.135 24.9392 107.371 26.5582 110.006 26.5582C111.499 26.5582 112.492 26.1128 113.165 25.3892L113.387 26.2335H116.421V18.0042C116.421 15.0957 115.178 12.9108 111.003 12.9108C109.013 12.9108 107.051 13.6576 105.882 14.4509L107.176 16.7888C108.145 16.2925 109.338 15.8703 110.632 15.8703C112.149 15.8703 112.993 16.6404 112.993 17.7862V18.6304C112.52 18.3057 111.499 17.9114 110.182 17.9114C107.148 17.9068 105.135 19.6463 105.135 22.207V22.207ZM108.563 22.1049C108.563 21.038 109.481 20.2911 110.799 20.2911C112.116 20.2911 113.063 20.9638 113.063 22.1049C113.063 23.1997 112.116 23.8955 110.827 23.8955C109.537 23.8955 108.563 23.1765 108.563 22.1049ZM124.748 23.5244C122.586 23.5244 121.046 21.9565 121.046 19.7484C121.046 17.6609 122.414 15.9446 124.627 15.9446C126.093 15.9446 127.09 16.6636 127.661 17.1878L128.63 14.3024C127.786 13.6576 126.441 12.9108 124.53 12.9108C120.577 12.9108 117.618 15.8193 117.618 19.7716C117.618 23.7239 120.503 26.5582 124.553 26.5582C126.441 26.5582 127.86 25.7649 128.603 25.1665L127.684 22.36C127.109 22.8286 126.065 23.5244 124.748 23.5244V23.5244ZM129.892 26.2335H133.32V19.5211L137.671 26.2335H141.698L136.776 19.1222L141.35 13.2309H137.495L133.32 18.7V8.2627H129.892V26.2335V26.2335Z" fill="#1A1C1C"/>
</g>
<defs>
<clipPath id="clip0_1154_169">
<rect width="142" height="40" fill="white"/>
</clipPath>
</defs>
</svg>
