<svg width="45" height="45" fill="none" xmlns="http://www.w3.org/2000/svg"><g clip-path="url(#clip0)" fill="#464342"><path d="M3.198 22.5c0 7.64 4.44 14.242 10.879 17.371L4.87 14.644A19.228 19.228 0 003.198 22.5zm32.333-.974c0-2.386-.857-4.038-1.592-5.324-.978-1.59-1.895-2.936-1.895-4.526 0-1.775 1.345-3.426 3.24-3.426.086 0 .167.01.251.015A19.232 19.232 0 0022.5 3.198c-6.743 0-12.675 3.46-16.127 8.7.453.014.88.023 1.242.023 2.02 0 5.144-.245 5.144-.245 1.041-.061 1.164 1.467.125 1.59 0 0-1.046.123-2.21.184l7.029 20.907 4.224-12.668-3.007-8.24c-1.04-.06-2.024-.183-2.024-.183-1.04-.061-.918-1.652.122-1.59 0 0 3.187.245 5.084.245 2.018 0 5.144-.245 5.144-.245 1.041-.062 1.164 1.467.124 1.59 0 0-1.048.123-2.21.184l6.976 20.749 1.925-6.434c.835-2.67 1.47-4.587 1.47-6.24z"/><path d="M22.839 24.188l-5.791 16.828a19.288 19.288 0 0011.862-.308 1.644 1.644 0 01-.137-.265l-5.934-16.255zm16.598-10.95c.083.616.13 1.276.13 1.986 0 1.958-.366 4.16-1.468 6.913l-5.895 17.047c5.738-3.346 9.597-9.563 9.597-16.685a19.196 19.196 0 00-2.364-9.26z"/><path d="M22.501 0C10.095 0 .001 10.093.001 22.5S10.095 45 22.501 45s22.501-10.092 22.501-22.5c0-12.407-10.095-22.5-22.5-22.5zm0 43.969c-11.837 0-21.468-9.632-21.468-21.47 0-11.837 9.63-21.467 21.468-21.467 11.837 0 21.468 9.63 21.468 21.467 0 11.838-9.631 21.47-21.468 21.47z"/></g><defs><clipPath id="clip0"><path fill="#fff" d="M0 0h45v45H0z"/></clipPath></defs></svg>