<svg width="30" height="30" viewBox="0 0 30 30" fill="none" xmlns="http://www.w3.org/2000/svg">
<g clip-path="url(#clip0)">
<path d="M29.7357 5.96094L20.6373 15.0007L29.7357 24.0405C29.9002 23.6967 30 23.3167 30 22.9109V7.09057C30 6.68469 29.9002 6.30471 29.7357 5.96094Z" fill="white"/>
<path d="M27.3633 4.45312H2.63671C2.23083 4.45312 1.85085 4.55291 1.50708 4.71738L13.1358 16.2875C14.164 17.3157 15.836 17.3157 16.8642 16.2875L28.4929 4.71738C28.1491 4.55291 27.7691 4.45312 27.3633 4.45312Z" fill="white"/>
<path d="M0.264258 5.96094C0.0997852 6.30471 0 6.68469 0 7.09057V22.9109C0 23.3168 0.0997852 23.6968 0.264258 24.0405L9.36264 15.0007L0.264258 5.96094Z" fill="white"/>
<path d="M19.3945 16.2432L18.107 17.5306C16.3938 19.2439 13.6061 19.2439 11.8929 17.5306L10.6055 16.2432L1.50708 25.2829C1.85085 25.4474 2.23083 25.5472 2.63671 25.5472H27.3633C27.7691 25.5472 28.1491 25.4474 28.4929 25.2829L19.3945 16.2432Z" fill="white"/>
</g>
<defs>
<clipPath id="clip0">
<rect width="30" height="30" fill="white"/>
</clipPath>
</defs>
</svg>
