<svg width="45" height="45" viewBox="0 0 45 45" fill="none" xmlns="http://www.w3.org/2000/svg">
<g clip-path="url(#clip0)">
<path d="M22.5 45.0001C34.9265 45.0001 45.0001 34.9265 45.0001 22.5C45.0001 10.0736 34.9265 0 22.5 0C10.0736 0 0 10.0736 0 22.5C0 34.9265 10.0736 45.0001 22.5 45.0001Z" fill="#D42428"/>
<path d="M38.4088 6.58789C47.1956 15.3755 47.1964 29.6222 38.4088 38.4098C29.622 47.1966 15.3745 47.197 6.58691 38.4098L38.4088 6.58789Z" fill="#CC202D"/>
<path d="M44.5481 27.0065L33.4121 15.8708L20.2784 17.3662L12.334 29.6654L27.1787 44.5097C35.9066 42.6634 42.7682 35.7596 44.5481 27.0065Z" fill="#BA202E"/>
<path d="M34.2739 18.1582C34.2739 16.272 32.7458 14.7432 30.8607 14.7432H14.8471C12.9623 14.7432 11.4346 16.2723 11.4346 18.1582V27.3156C11.4346 29.2018 12.9626 30.7306 14.8471 30.7306H30.8604C32.7459 30.7306 34.2736 29.2014 34.2736 27.3156V18.1582H34.2739ZM20.5696 26.6V17.999L27.0922 22.2997L20.5696 26.6Z" fill="white"/>
</g>
<defs>
<clipPath id="clip0">
<rect width="45" height="45" fill="white"/>
</clipPath>
</defs>
</svg>
