<svg width="20" height="20" viewBox="0 0 20 20" fill="none" xmlns="http://www.w3.org/2000/svg">
<g clip-path="url(#clip0)">
<path d="M12.3567 7.64312C12.1942 7.48062 11.93 7.48062 11.7675 7.64312C11.605 7.80562 11.605 8.07061 11.7675 8.23229C12.2392 8.70397 12.5 9.33147 12.5 9.99979C12.5 11.3781 11.3784 12.4998 10 12.4998C9.33172 12.4998 8.70422 12.2398 8.23254 11.7673C8.07004 11.6048 7.80586 11.6048 7.64336 11.7673C7.48086 11.929 7.48086 12.194 7.64336 12.3565C8.27168 12.9865 9.10918 13.3331 10 13.3331C11.8384 13.3331 13.3334 11.8382 13.3334 9.99983C13.3334 9.10893 12.9867 8.27143 12.3567 7.64312Z" fill="black"/>
<path d="M10.5806 6.724C10.3915 6.69068 10.1981 6.6665 9.99982 6.6665C8.1615 6.6665 6.6665 8.1615 6.6665 9.99982C6.6665 10.1981 6.69068 10.3915 6.72482 10.5806C6.76064 10.7823 6.9365 10.9248 7.134 10.9248C7.15818 10.9248 7.18232 10.9231 7.20732 10.9181C7.43314 10.8781 7.58482 10.6615 7.54482 10.4356C7.519 10.294 7.49982 10.1498 7.49982 9.99982C7.49982 8.6215 8.6215 7.49982 9.99982 7.49982C10.1498 7.49982 10.294 7.519 10.4356 7.544C10.6573 7.589 10.8781 7.43232 10.9181 7.2065C10.9581 6.98068 10.8065 6.764 10.5806 6.724Z" fill="black"/>
<path d="M19.9009 9.73059C19.8067 9.61891 17.5526 6.98809 14.4434 5.37728C14.2417 5.27146 13.9876 5.35146 13.8817 5.55645C13.7759 5.76063 13.8559 6.01227 14.0609 6.11813C16.4559 7.35813 18.3692 9.29313 19.0234 9.99981C18.0301 11.0756 14.1209 14.9998 10.0001 14.9998C8.60179 14.9998 7.19262 14.6623 5.81012 13.9956C5.60512 13.8948 5.3543 13.9823 5.2543 14.1898C5.15348 14.3965 5.24098 14.6456 5.44848 14.7456C6.9443 15.4681 8.47597 15.8331 10.0002 15.8331C15.1343 15.8331 19.7093 10.4964 19.9018 10.2689C20.0334 10.1139 20.0326 9.88641 19.9009 9.73059Z" fill="black"/>
<path d="M12.7337 4.6465C11.7854 4.32732 10.8654 4.1665 9.99955 4.1665C4.86538 4.1665 0.290388 9.50317 0.0978885 9.73067C-0.023791 9.87399 -0.0337909 10.0824 0.0745682 10.2382C0.132068 10.3207 1.50957 12.2765 3.89706 13.8623C3.96788 13.9098 4.04706 13.9323 4.12706 13.9323C4.26124 13.9323 4.39374 13.8673 4.47374 13.7448C4.60124 13.554 4.54874 13.2948 4.35706 13.1682C2.60374 12.0023 1.40375 10.5949 0.954567 10.0224C1.91374 8.98068 5.84874 4.99986 9.99955 4.99986C10.7754 4.99986 11.6062 5.14654 12.4679 5.43568C12.6862 5.514 12.9229 5.39318 12.9954 5.174C13.0687 4.95568 12.952 4.71986 12.7337 4.6465Z" fill="black"/>
</g>
<defs>
<clipPath id="clip0">
<rect width="20" height="20" fill="white"/>
</clipPath>
</defs>
</svg>
