<svg width="30" height="30" viewBox="0 0 30 30" fill="none" xmlns="http://www.w3.org/2000/svg">
<g clip-path="url(#clip0)">
<path d="M29.7307 7.27886L15.2687 21.742C14.9047 22.1038 14.3155 22.1038 13.9515 21.742L13.6607 21.4512L13.3452 21.1356L11.9795 19.77L11.9601 19.7409L5.70598 13.4383C5.3441 13.0764 5.3441 12.4851 5.70598 12.1232L7.67689 10.1545C8.04092 9.78936 8.62788 9.78936 8.99191 10.1545L14.6171 15.8217L26.4426 3.99292C26.8066 3.62997 27.3957 3.62997 27.7576 3.99292L29.7307 5.96599C30.0915 6.32679 30.0915 6.91699 29.7307 7.27886Z" fill="#28B446"/>
<path d="M23.4733 24.3584C23.4733 25.4063 22.6193 26.2604 21.5692 26.2604H3.80722C2.75714 26.2604 1.90307 25.4063 1.90307 24.3584V5.64861C1.90307 4.60068 2.75714 3.74662 3.80722 3.74662H21.5692C22.6193 3.74662 23.4733 4.60068 23.4733 5.64861L24.8261 4.39713C25.0447 2.85701 23.4884 1.8457 21.5692 1.8457H3.80722C1.70382 1.8457 0 3.54737 0 5.64861V24.3584C0 26.4596 1.70382 28.1634 3.80722 28.1634H21.5692C23.6726 28.1634 25.3764 26.4596 25.3764 24.3584V13.2049L23.4723 15.277L23.4733 24.3584Z" fill="black"/>
</g>
<defs>
<clipPath id="clip0">
<rect width="30" height="30" fill="white"/>
</clipPath>
</defs>
</svg>
