<svg width="32" height="32" viewBox="0 0 32 32" fill="none" xmlns="http://www.w3.org/2000/svg">
<path d="M21.8335 2.66675H10.1615C9.86283 2.66675 8.29616 2.75341 6.82416 4.46808C5.37483 6.15475 5.3335 7.81608 5.3335 8.00008V22.6667C5.3335 23.374 5.61445 24.0523 6.11454 24.5524C6.61464 25.0525 7.29292 25.3334 8.00016 25.3334H9.3335L6.66683 29.3334H9.80416L10.6935 28.0001H21.3602L22.2628 29.3334H25.3335L22.6668 25.3334H24.0002C24.7074 25.3334 25.3857 25.0525 25.8858 24.5524C26.3859 24.0523 26.6668 23.374 26.6668 22.6667V8.00008C26.6682 7.74942 26.6242 6.08808 25.1615 4.44675C23.6202 2.71608 22.0122 2.66675 21.8335 2.66675ZM13.3335 5.33342H18.6668V8.00008H13.3335V5.33342ZM10.0002 22.6667C9.46955 22.6666 8.96075 22.4556 8.58567 22.0803C8.2106 21.705 7.99999 21.196 8.00016 20.6654C8.00034 20.1348 8.21129 19.626 8.58662 19.2509C8.96194 18.8759 9.47089 18.6652 10.0015 18.6654C10.5321 18.6656 11.0409 18.8765 11.416 19.2519C11.7911 19.6272 12.0017 20.1361 12.0015 20.6667C12.0013 21.1974 11.7904 21.7062 11.415 22.0812C11.0397 22.4563 10.5308 22.6669 10.0002 22.6667ZM22.0002 22.6667C21.4696 22.6666 20.9607 22.4556 20.5857 22.0803C20.2106 21.705 20 21.196 20.0002 20.6654C20.0003 20.1348 20.2113 19.626 20.5866 19.2509C20.9619 18.8759 21.4709 18.6652 22.0015 18.6654C22.5321 18.6656 23.0409 18.8765 23.416 19.2519C23.7911 19.6272 24.0017 20.1361 24.0015 20.6667C24.0013 21.1974 23.7904 21.7062 23.415 22.0812C23.0397 22.4563 22.5308 22.6669 22.0002 22.6667ZM24.0002 16.0001H8.00016V10.6667H24.0002V16.0001Z" fill="#B81414"/>
</svg>
