<svg width="33" height="33" viewBox="0 0 33 33" fill="none" xmlns="http://www.w3.org/2000/svg">
<path d="M28.1611 15.0287C23.9559 10.7467 27.6839 8.00954 27.6839 8.00954C27.6839 8.00954 23.8057 8.01406 22.7405 11.1897C22.966 11.1711 23.191 11.2228 23.3818 11.376C24.8187 12.5311 22.9559 14.2136 22.0881 13.4643C21.0464 12.5673 21.7114 11.4714 22.5124 11.2334C22.295 11.0295 22.079 10.8266 21.8651 10.6307C21.8143 11.4036 20.8154 12.0374 20.264 11.5618C19.3233 10.7512 19.9591 9.7543 20.6873 9.576C20.4784 9.39269 20.271 9.21289 20.0651 9.03761C19.9059 9.73823 18.9993 10.2621 18.4845 9.81808C17.6363 9.08683 18.0712 8.20541 18.699 7.90809C18.5413 7.78203 18.3826 7.65497 18.2274 7.53393C18.2125 7.62985 18.1779 7.72166 18.126 7.80363C17.2531 9.12199 15.558 7.41892 16.1306 6.62238C16.2486 6.45815 16.3772 6.34012 16.5113 6.26077C16.4088 6.18945 16.3064 6.11613 16.2054 6.04632C16.1833 6.07746 16.1637 6.10809 16.1331 6.13923C14.8911 7.38728 14.0729 5.27037 14.4742 4.93538C14.4752 4.93438 14.4762 4.93438 14.4772 4.93287C14.4009 4.88783 14.3244 4.84313 14.2477 4.79877C14.2222 4.85814 14.1858 4.91216 14.1402 4.95798C13.1599 5.94286 12.5095 4.33622 12.7827 4.00977C12.7094 3.9736 12.6376 3.93945 12.5652 3.9053C12.5585 3.92828 12.5487 3.95024 12.5361 3.97059C12.1127 4.626 11.385 3.68231 11.4463 3.42567C11.3689 3.39554 11.2906 3.3654 11.2142 3.33778C10.9174 4.02734 9.95012 3.20569 10.0536 2.99174L10.0546 2.99023C9.97422 2.97165 9.89387 2.95206 9.81552 2.93549C9.61663 3.34381 9.11289 3.0495 8.92305 2.80742C8.84549 2.8017 8.76778 2.79818 8.69002 2.79688C8.85073 2.99325 8.92305 3.24939 8.79448 3.40859C8.34147 3.96908 7.65793 3.30112 7.75586 2.86367C7.53075 2.90544 7.31094 2.97197 7.10045 3.06205C7.21546 3.08616 7.32545 3.13086 7.42339 3.2082C8.76585 4.26892 6.92417 5.94537 6.11407 5.2558C5.84939 5.0303 5.71027 4.78622 5.65904 4.54515C5.5795 4.741 5.51944 4.94421 5.47975 5.15184C5.90765 5.00368 6.6173 5.7274 6.05129 6.20151C5.88304 6.34213 5.60531 6.24721 5.40843 6.05737C5.40943 6.13622 5.41345 6.21758 5.41848 6.29994C5.66909 6.46719 6.03622 7.06484 5.54454 7.26172C5.56111 7.34559 5.57919 7.43097 5.59878 7.51685C5.61234 7.5048 5.6259 7.49174 5.64197 7.48421C5.85793 7.37623 6.70118 8.41183 5.93829 8.68655C5.96641 8.76741 5.99303 8.84727 6.02316 8.92963C6.02718 8.92511 6.02969 8.91909 6.03421 8.91557C6.21753 8.75837 7.28226 9.55692 6.60425 10.0104C6.56906 10.0341 6.52806 10.0476 6.48572 10.0496C6.52439 10.135 6.56256 10.2199 6.60374 10.3062C6.60927 10.2977 6.61278 10.2882 6.61881 10.2801C6.88399 9.95067 8.56345 10.6232 7.57355 11.6437C7.51697 11.7049 7.44526 11.7501 7.36563 11.7748C7.41535 11.8632 7.46507 11.9526 7.5168 12.042C7.52835 12.0229 7.53689 12.0013 7.55045 11.9847C7.87891 11.5764 9.95916 12.4086 8.73271 13.6737C8.68851 13.7189 8.64331 13.7541 8.59811 13.7822C8.67194 13.8942 8.74878 14.0067 8.82562 14.1197C8.90196 13.962 9.02199 13.8088 9.20681 13.6707C9.98979 13.0871 11.6617 14.8133 10.367 15.7027C10.3414 15.7208 10.3132 15.7304 10.2861 15.7439C5.30949 14.9147 1.5759 15.4597 1.5759 15.4597C1.5759 15.4597 12.7551 19.6111 16.8839 26.0829C19.144 29.6251 23.3115 31.2925 26.5208 28.5478L26.5147 28.5744C26.9868 29.0727 27.7522 29.0727 28.2238 28.5739L30.3322 26.3506C30.7018 25.9608 30.7777 25.3823 30.5683 24.9107C32.2367 22.6602 32.5616 19.5107 28.1611 15.0287ZM29.9992 21.5236C29.3569 21.5904 28.4488 19.5905 29.3192 19.3916C30.7511 19.0652 30.4321 21.4794 29.9992 21.5236ZM27.3329 25.2733C26.9077 24.7582 26.463 24.2594 25.9999 23.7781C26.3867 23.3296 27.0295 23.0966 27.4474 23.422C28.1997 24.0086 27.8803 24.8253 27.3329 25.2733ZM13.1403 16.3054C12.4949 15.4481 14.078 13.6581 15.1342 14.9554C15.547 15.4627 15.0106 16.4134 14.3135 16.6821C13.9427 16.5694 13.5698 16.4638 13.195 16.3652C13.1775 16.3441 13.1584 16.329 13.1403 16.3054ZM12.4974 8.22751C13.7837 9.23047 11.9465 10.9114 11.1715 10.2575C9.89788 9.18225 11.6557 7.57059 12.4974 8.22751ZM9.48304 8.58661C8.20888 7.51183 9.96669 5.89967 10.8089 6.55709C12.0941 7.55954 10.2575 9.24102 9.48304 8.58661ZM14.1864 9.89743C15.4727 10.9004 13.635 12.5819 12.8606 11.9285C11.5864 10.8522 13.3447 9.24102 14.1864 9.89743ZM17.8658 17.0633C16.5916 15.9885 18.3494 14.3758 19.1912 15.0333C20.4774 16.0357 18.6402 17.7177 17.8658 17.0633ZM20.7486 16.6188C22.0348 17.6213 20.1972 19.3027 19.4222 18.6488C18.1486 17.5741 19.9064 15.9629 20.7486 16.6188ZM16.2114 15.4325C14.9373 14.3573 16.6951 12.7456 17.5373 13.4025C18.8225 14.4055 16.9859 16.0864 16.2114 15.4325ZM14.5722 13.6215C13.298 12.5452 15.0558 10.934 15.8981 11.5905C17.1833 12.5934 15.3466 14.2749 14.5722 13.6215ZM13.3839 13.1725C14.0257 13.9615 12.3749 15.8323 11.39 14.523C10.7446 13.6657 12.3277 11.8757 13.3839 13.1725ZM14.995 16.9026C15.4059 16.3089 16.2436 15.9503 16.8879 16.7419C17.0783 16.9759 17.0637 17.3049 16.9281 17.6172C16.2923 17.3565 15.6476 17.1181 14.995 16.9026ZM22.4416 18.2737C23.3446 18.9778 22.7073 20.0134 21.9801 20.3429C21.5534 20.0499 21.1181 19.7697 20.6748 19.5026C20.614 18.6031 21.7953 17.7699 22.4416 18.2737ZM25.7478 23.519C25.2844 23.0427 24.8028 22.5844 24.3039 22.1454C24.6796 21.6451 25.3712 21.3619 25.8126 21.7074C26.5434 22.277 26.2656 23.0639 25.7478 23.519ZM26.1717 21.5984C24.8986 20.5227 26.6564 18.9115 27.4981 19.5679C28.7838 20.5704 26.9467 22.2513 26.1717 21.5984ZM24.4551 19.8492C23.1809 18.7734 24.9387 17.1617 25.7805 17.8186C27.0662 18.8211 25.229 20.5026 24.4551 19.8492ZM24.0076 20.047C24.7333 20.6136 24.4636 21.396 23.9518 21.8521C23.4488 21.4285 22.93 21.0241 22.3964 20.6397C22.7334 20.046 23.5214 19.6674 24.0076 20.047ZM29.2735 21.3759C30.5592 22.3789 28.722 24.0599 27.9476 23.406C26.6739 22.3312 28.4318 20.7195 29.2735 21.3759ZM28.9385 17.6509C29.9832 19.1752 28.3152 19.9777 27.6895 19.0114C26.6589 17.4234 28.2555 16.653 28.9385 17.6509ZM27.1496 15.3672C28.5864 16.5219 26.7237 18.2044 25.8548 17.455C24.4254 16.2241 26.2079 14.6109 27.1496 15.3672ZM25.3249 13.3553C26.7618 14.5099 24.8991 16.1924 24.0312 15.4431C22.6018 14.2121 24.3843 12.5994 25.3249 13.3553ZM23.989 15.995C25.2752 16.997 23.4376 18.679 22.6636 18.0251C21.3895 16.9503 23.1473 15.3386 23.989 15.995ZM22.2387 14.2121C23.5244 15.2146 21.6878 16.8965 20.9128 16.2421C19.6387 15.1674 21.397 13.5552 22.2387 14.2121ZM20.4714 12.4126C21.7571 13.4156 19.9194 15.097 19.145 14.4431C17.8708 13.3674 19.6286 11.7557 20.4714 12.4126ZM18.7176 10.6272C20.0033 11.6296 18.1661 13.3111 17.3917 12.6572C16.1175 11.5819 17.8753 9.97026 18.7176 10.6272ZM16.9668 8.84475C18.253 9.84671 16.4153 11.5287 15.6409 10.8743C14.3672 9.7995 16.1251 8.18733 16.9668 8.84475ZM15.2959 7.14319C16.5821 8.14615 14.7449 9.82762 13.97 9.17321C12.6963 8.09844 14.4546 6.48627 15.2959 7.14319ZM13.5205 5.54358C14.8067 6.54654 12.969 8.22751 12.1946 7.5736C10.9204 6.49833 12.6782 4.88717 13.5205 5.54358ZM11.7707 4.22372C12.9369 5.13426 11.271 6.65904 10.5679 6.0659C9.41273 5.08956 11.0073 3.62807 11.7707 4.22372ZM9.93103 3.44626C10.8828 4.24431 9.83661 5.16389 9.25854 4.65011C8.30782 3.80586 9.30776 2.92394 9.93103 3.44626ZM9.10134 4.86808C10.5217 6.00815 8.67344 7.67807 7.81513 6.93828C6.40235 5.72188 8.17071 4.12126 9.10134 4.86808ZM6.08845 7.35865C5.57567 6.72433 6.44202 5.7058 7.27121 6.67461C7.77545 7.26373 6.87193 8.32796 6.08845 7.35865ZM6.85185 9.23248C6.26624 8.45452 7.70263 6.8308 8.66089 8.00753C9.24348 8.72372 7.74582 10.4203 6.85185 9.23248ZM8.14811 11.0139C7.50324 10.1566 9.08577 8.36663 10.142 9.6639C10.7838 10.4529 9.13298 12.3232 8.14811 11.0139ZM9.71909 12.8224C9.07422 11.9651 10.6568 10.1752 11.713 11.4724C12.3548 12.2609 10.704 14.1312 9.71909 12.8224ZM12.3463 16.0679C12.3719 16.0995 12.3834 16.1352 12.4025 16.1688C11.8758 16.0447 11.346 15.9345 10.8135 15.8383C11.2147 15.5049 11.8194 15.434 12.3463 16.0679ZM28.2334 26.4339C28.0066 26.1285 27.7733 25.828 27.5338 25.5324C27.933 25.0448 28.5543 24.657 28.8371 24.8373C29.3483 25.1643 28.814 25.9729 28.2334 26.4339ZM29.615 24.4958C28.4147 25.1713 29.952 21.7411 30.4683 22.6431C30.7219 23.085 30.055 24.2482 29.615 24.4958Z" fill="white"/>
</svg>
