<svg width="50" height="50" viewBox="0 0 50 50" fill="none" xmlns="http://www.w3.org/2000/svg">
<path d="M41.6169 37.4211C41.1396 36.4698 40.0248 34.2342 38.8761 32.3274C38.5817 31.8391 38.2886 31.3846 38.0093 30.9541H19.9326C19.652 31.3846 19.3614 31.8391 19.067 32.3274C17.9159 34.2356 16.801 36.4713 16.3263 37.4211L16.1985 37.678C15.7087 38.6519 15.7025 39.9814 16.1835 40.9115C16.5492 41.6144 17.1317 42.0039 17.8282 42.0039H19.4103H25.2751H32.6656H38.5655H40.1125C40.8077 42.0039 41.3914 41.6144 41.7584 40.9115C42.2357 39.9814 42.2307 38.6519 41.7384 37.678L41.6169 37.4211Z" fill="#828282"/>
<path d="M44.3651 37.1982L44.1484 36.7691C43.338 35.1446 41.444 31.3423 39.4861 28.0989C38.831 27.0122 38.1696 25.996 37.5721 25.0772C36.6138 23.6065 35.4226 21.7787 35.4101 21.2354C35.484 18.8515 35.4339 13.2116 35.4176 11.4699H36.6652V9H20.867V11.4713H22.5243C22.5042 13.213 22.4566 18.8515 22.5305 21.2339C22.5168 21.7787 21.3268 23.6065 20.3685 25.0786C19.7697 25.9974 19.1096 27.0136 18.4545 28.1004C16.4966 31.3437 14.6026 35.1432 13.7922 36.7705L13.5755 37.201C12.7425 38.858 12.7337 41.1204 13.5492 42.7012C14.1705 43.8995 15.1663 44.56 16.3488 44.56H41.5893H41.593C42.7718 44.56 43.7676 43.8981 44.3864 42.7012C45.2069 41.119 45.1981 38.8552 44.3651 37.1982ZM42.8206 41.6695C42.5325 42.2284 42.1166 42.5163 41.5905 42.5163H16.3501C15.8252 42.5163 15.4093 42.2312 15.1212 41.6695C14.6277 40.721 14.644 39.2292 15.1576 38.2073L15.3755 37.767C16.1722 36.1665 18.0411 32.4192 19.9564 29.2492C20.5977 28.1822 21.2453 27.1886 21.8341 26.2839C23.5063 23.7138 24.3782 22.3207 24.3468 21.1662C24.2805 19.0449 24.3143 14.1106 24.3356 11.9809H33.6075C33.6276 14.1121 33.6639 19.0449 33.5975 21.1662C33.5624 22.3221 34.4355 23.7138 36.1078 26.2839C36.6953 27.1886 37.3429 28.1822 37.9867 29.2492C39.8995 32.4192 41.7697 36.1665 42.5663 37.767L42.783 38.2073C43.2979 39.2278 43.3129 40.721 42.8206 41.6695Z" fill="#828282"/>
<path d="M19.2023 11.5758V11.3683H5V15.6914H6.99168V38.4529C6.99168 39.9772 8.05266 44.3299 12.7613 44.3299C12.9367 44.3299 13.0907 44.3003 13.2586 44.2876C12.7049 43.9742 12.2327 43.4774 11.8819 42.8028C11.768 42.5798 11.674 42.3398 11.5913 42.0943C8.93701 41.4182 8.84682 38.4839 8.84682 38.4515V15.6928H16.0307V29.4891C16.2799 29.0558 16.5317 28.6254 16.7872 28.2048C17.1568 27.5908 17.5263 27.0065 17.887 26.4434V15.6928H19.8812V11.5758H19.2023Z" fill="#828282"/>
<path d="M10.3926 38.5814C10.3926 38.8481 10.5366 39.8206 11.2945 40.3739C11.2531 39.3125 11.4523 38.2173 11.912 37.3027L12.1262 36.8736C12.6047 35.9153 13.4653 34.1934 14.4887 32.2781C14.4887 29.5132 14.4887 26.8838 14.4887 26.8838H10.3926C10.3926 26.8838 10.3926 38.2046 10.3926 38.5814Z" fill="#828282"/>
</svg>
