<svg width="24" height="24" viewBox="0 0 24 24" fill="none" xmlns="http://www.w3.org/2000/svg">
<g clip-path="url(#clip0)">
<path d="M1.19714 20.7147H17.2458C17.9073 20.7147 18.4434 20.1786 18.4434 19.5172C18.4434 18.8558 17.9073 18.3197 17.2458 18.3197H1.19754C0.536098 18.3197 -1.90735e-06 18.8558 -1.90735e-06 19.5172C-1.90735e-06 20.1786 0.5357 20.7147 1.19714 20.7147Z" fill="white"/>
<path d="M1.19714 13.1977H22.2458C22.9073 13.1977 23.4434 12.6616 23.4434 12.0002C23.4434 11.3388 22.9073 10.8027 22.2458 10.8027H1.19754C0.5361 10.8027 -1.90735e-06 11.3388 -1.90735e-06 12.0002C-0.000400543 12.6616 0.5357 13.1977 1.19714 13.1977Z" fill="white"/>
<path d="M1.19714 5.68077H22.2458C22.9073 5.68077 23.4434 5.14466 23.4434 4.48322C23.4434 3.82178 22.9073 3.28568 22.2458 3.28568H1.19754C0.5361 3.28568 -1.90735e-06 3.82178 -1.90735e-06 4.48322C-1.90735e-06 5.14466 0.5357 5.68077 1.19714 5.68077Z" fill="white"/>
</g>
<defs>
<clipPath id="clip0">
<rect width="24" height="24" fill="white" transform="matrix(-1 0 0 1 24 1.52588e-05)"/>
</clipPath>
</defs>
</svg>
