<svg width="269" height="222" viewBox="0 0 269 222" fill="none" xmlns="http://www.w3.org/2000/svg">
<g clip-path="url(#clip0)">
<path d="M94.16 107.67L93.64 107.23C93.562 107.159 93.4701 107.106 93.3702 107.073C93.2702 107.041 93.1646 107.029 93.06 107.04C83.06 101.56 69.69 99.96 58.33 101.26C57.39 101.37 57.38 102.87 58.33 102.76C65.7736 101.921 73.3054 102.34 80.61 104C80.5812 104.176 80.6156 104.357 80.707 104.511C80.7985 104.665 80.9411 104.781 81.11 104.84C94.8 109.93 99.57 124.43 106.48 135.96C106.567 136.096 106.696 136.202 106.847 136.26C106.998 136.318 107.163 136.327 107.32 136.284C107.476 136.242 107.615 136.151 107.715 136.024C107.816 135.897 107.874 135.742 107.88 135.58C109.53 122.15 103.43 113.15 94.16 107.67ZM90.22 108.58C91.22 109.1 92.22 109.58 93.22 110.18C93.1413 110.285 93.0987 110.413 93.0987 110.545C93.0987 110.677 93.1413 110.805 93.22 110.91C94.44 112.63 95.69 114.31 96.98 115.97C97.14 116.36 97.3 116.74 97.47 117.12C95.4535 113.956 93.0143 111.083 90.22 108.58ZM99.86 114.36C99.49 113.89 99.11 113.44 98.73 112.99H98.81C99.24 113.4 99.66 113.81 100.07 114.24C99.9931 114.266 99.9218 114.307 99.86 114.36ZM106.6 133.06C106.6 133.06 106.6 133.11 106.6 133.13L106.52 133C106.544 133.023 106.571 133.043 106.6 133.06ZM105.97 125.33H105.88C105.61 124.33 105.37 123.41 105.13 122.45C105.48 123.391 105.771 124.353 106 125.33H105.97ZM101.97 123.14C101.97 123.2 101.97 123.27 102.04 123.34C102.081 123.506 102.182 123.651 102.325 123.746C102.468 123.84 102.641 123.878 102.81 123.85C103.13 124.69 103.46 125.52 103.81 126.36C103.851 126.472 103.918 126.572 104.005 126.654C104.091 126.735 104.196 126.796 104.31 126.83C104.38 127.07 104.45 127.32 104.51 127.57C104.54 127.701 104.608 127.821 104.706 127.914C104.804 128.006 104.927 128.068 105.06 128.09C105.261 129.515 105.596 130.918 106.06 132.28C104.44 129.38 102.89 126.4 101.27 123.48C101.411 123.5 101.556 123.478 101.685 123.418C101.815 123.358 101.924 123.261 102 123.14H101.97Z" fill="white"/>
<path d="M163.92 126C147.09 119.55 127.25 116.77 120.57 134.59L120.51 134.65C120.437 134.73 120.382 134.826 120.349 134.929C120.316 135.033 120.306 135.142 120.32 135.25C120.04 136.07 119.78 136.93 119.55 137.84C119.515 138.025 119.551 138.215 119.651 138.375C119.75 138.534 119.905 138.651 120.086 138.701C120.267 138.751 120.461 138.732 120.628 138.646C120.795 138.561 120.924 138.416 120.99 138.24C121.22 137.35 121.47 136.51 121.75 135.71C132.18 131.93 142.04 125.65 153.45 125.71C156.418 125.752 159.37 126.155 162.24 126.91C168.56 129.325 174.69 132.21 180.58 135.54C180.75 135.627 180.947 135.645 181.13 135.592C181.314 135.539 181.47 135.417 181.567 135.253C181.664 135.088 181.694 134.893 181.652 134.706C181.61 134.52 181.498 134.357 181.34 134.25C176.05 130.52 170.157 127.729 163.92 126ZM127.48 128.18C127.387 128.219 127.305 128.279 127.241 128.357C127.177 128.434 127.133 128.526 127.112 128.625C127.091 128.723 127.095 128.825 127.122 128.922C127.15 129.019 127.201 129.107 127.27 129.18C125.943 130.036 124.661 130.961 123.43 131.95C124.513 129.983 125.95 128.233 127.67 126.79C127.6 127.29 127.97 127.79 128.57 127.62L128.89 127.52C128.42 127.77 128 128 127.48 128.19V128.18ZM130.82 130.28L130.16 130.58L130.87 130.05C130.837 130.126 130.82 130.207 130.82 130.29V130.28ZM133.57 128.28C133.02 128.59 132.48 128.92 131.93 129.28L132.18 129.07C132.71 128.76 133.24 128.47 133.77 128.17L133.57 128.28ZM128.76 126C132.015 123.853 135.803 122.655 139.7 122.54C135.99 123.483 132.337 124.638 128.76 126ZM140.94 126.21L144.38 124.61C144.482 124.566 144.571 124.497 144.64 124.41C145.16 124.25 145.68 124.08 146.2 123.9C147.747 123.849 149.296 123.882 150.84 124C150.964 124.011 151.089 123.986 151.199 123.928C151.309 123.869 151.4 123.779 151.46 123.67C152.24 123.84 153.03 124.03 153.81 124.23C149.433 124.067 145.065 124.739 140.94 126.21Z" fill="white"/>
<path d="M96.45 104.83C98.4734 105.375 100.349 106.366 101.94 107.73C102.66 108.36 103.72 107.31 102.94 106.73C101.17 105.181 99.0703 104.055 96.8 103.44C96.6399 103.448 96.4868 103.508 96.3629 103.61C96.2391 103.712 96.1512 103.85 96.1121 104.006C96.0729 104.161 96.0846 104.325 96.1454 104.474C96.2063 104.622 96.313 104.747 96.45 104.83Z" fill="white"/>
<path d="M100.21 102.26C101.33 102.56 102.66 102.84 103.32 103.9C103.83 104.71 105.13 103.96 104.61 103.14C103.72 101.71 102.15 101.23 100.61 100.82C100.425 100.785 100.234 100.821 100.075 100.921C99.9157 101.02 99.7993 101.175 99.749 101.356C99.6988 101.537 99.7182 101.731 99.8036 101.898C99.8889 102.065 100.034 102.194 100.21 102.26Z" fill="white"/>
<path d="M102.66 98.83C103.527 98.9825 104.35 99.3239 105.07 99.83C105.8 100.45 106.86 99.4 106.13 98.83C105.23 98.1213 104.18 97.6287 103.06 97.39C102.875 97.3554 102.685 97.3913 102.525 97.4906C102.366 97.5899 102.249 97.7454 102.199 97.9264C102.149 98.1074 102.168 98.3006 102.254 98.468C102.339 98.6353 102.484 98.7645 102.66 98.83Z" fill="white"/>
<path d="M105.21 97L106.64 97.38C106.825 97.4146 107.015 97.3787 107.175 97.2794C107.334 97.1801 107.451 97.0246 107.501 96.8436C107.551 96.6626 107.532 96.4694 107.446 96.3021C107.361 96.1347 107.216 96.0055 107.04 95.94L105.61 95.56C105.425 95.5254 105.234 95.5613 105.075 95.6606C104.916 95.7599 104.799 95.9154 104.749 96.0964C104.699 96.2774 104.718 96.4706 104.804 96.6379C104.889 96.8053 105.034 96.9345 105.21 97Z" fill="white"/>
<path d="M107.58 92.88C107.381 92.88 107.19 92.959 107.05 93.0997C106.909 93.2403 106.83 93.4311 106.83 93.63C106.83 93.8289 106.909 94.0197 107.05 94.1603C107.19 94.301 107.381 94.38 107.58 94.38C107.779 94.38 107.97 94.301 108.11 94.1603C108.251 94.0197 108.33 93.8289 108.33 93.63C108.33 93.4311 108.251 93.2403 108.11 93.0997C107.97 92.959 107.779 92.88 107.58 92.88Z" fill="white"/>
<path d="M138.08 100.43L138.82 100.03L139.08 99.9H139.16C139.362 99.9628 139.58 99.9434 139.767 99.846C139.954 99.7486 140.096 99.5811 140.16 99.38C140.19 99.2262 140.18 99.0672 140.13 98.9187C140.08 98.7702 139.992 98.6374 139.874 98.5334C139.757 98.4293 139.615 98.3576 139.462 98.3255C139.308 98.2933 139.149 98.3018 139 98.35C138.424 98.5315 137.878 98.7978 137.38 99.14C137.249 99.2515 137.16 99.4046 137.129 99.5737C137.097 99.7428 137.125 99.9177 137.207 100.069C137.289 100.22 137.42 100.338 137.579 100.404C137.738 100.47 137.915 100.479 138.08 100.43ZM138.54 98.96C138.54 98.96 138.6 98.96 138.6 99.02C138.57 99.1942 138.598 99.3735 138.68 99.53C138.6 99.47 138.54 99.42 138.54 99.36V98.96Z" fill="white"/>
<path d="M139.73 103.66C140.57 103.986 141.5 103.986 142.34 103.66C143.21 103.23 142.45 101.94 141.59 102.37C141.104 102.493 140.592 102.455 140.13 102.26C139.963 102.254 139.798 102.304 139.662 102.403C139.527 102.501 139.428 102.642 139.382 102.803C139.336 102.965 139.345 103.136 139.408 103.292C139.471 103.447 139.585 103.577 139.73 103.66Z" fill="white"/>
<path d="M139.31 107.13C140.256 107.271 141.221 107.087 142.05 106.61C142.9 106.15 142.15 104.86 141.3 105.32C140.817 105.593 140.264 105.719 139.71 105.68C138.77 105.48 138.37 106.93 139.31 107.13Z" fill="white"/>
<path d="M142.14 108.49L138.89 109.15C137.94 109.34 138.35 110.79 139.29 110.59L142.54 109.93C143.48 109.74 143.08 108.29 142.14 108.49Z" fill="white"/>
<path d="M142.62 111.81C141.547 112.372 140.361 112.683 139.15 112.72C138.15 112.78 138.15 114.28 139.15 114.21C140.626 114.165 142.072 113.786 143.38 113.1C144.22 112.63 143.47 111.34 142.62 111.81Z" fill="white"/>
<path d="M141.38 115.59C141.38 115.59 141.38 115.74 141.38 115.76C141.274 115.842 141.16 115.912 141.04 115.97C140.882 116.077 140.77 116.24 140.728 116.426C140.686 116.613 140.716 116.808 140.813 116.973C140.91 117.137 141.066 117.259 141.25 117.312C141.433 117.365 141.63 117.347 141.8 117.26C142.064 117.144 142.299 116.969 142.486 116.749C142.673 116.529 142.808 116.27 142.88 115.99C142.906 115.892 142.913 115.789 142.899 115.688C142.886 115.587 142.853 115.489 142.802 115.401C142.751 115.313 142.683 115.236 142.602 115.174C142.521 115.112 142.428 115.066 142.33 115.04C142.231 115.014 142.129 115.007 142.028 115.021C141.927 115.034 141.829 115.067 141.741 115.118C141.653 115.169 141.576 115.237 141.514 115.318C141.452 115.399 141.406 115.492 141.38 115.59Z" fill="white"/>
<path d="M134 146.06C133.11 145.69 132.72 147.14 133.6 147.51C135.582 148.343 137.34 149.632 138.73 151.272C140.12 152.913 141.104 154.858 141.6 156.95C141.82 157.89 143.26 157.49 143.05 156.55C142.475 154.212 141.356 152.043 139.783 150.22C138.21 148.396 136.229 146.971 134 146.06Z" fill="white"/>
<path d="M141.39 147C141.205 146.965 141.015 147.001 140.855 147.101C140.696 147.2 140.579 147.355 140.529 147.536C140.479 147.717 140.498 147.911 140.584 148.078C140.669 148.245 140.814 148.374 140.99 148.44C143.16 149.09 144.54 151.22 145.17 153.27C145.45 154.19 146.9 153.8 146.62 152.87C145.83 150.33 144.07 147.84 141.39 147Z" fill="white"/>
<path d="M146.28 146.4C146.185 146.426 146.095 146.47 146.017 146.53C145.939 146.59 145.873 146.665 145.824 146.75C145.775 146.836 145.743 146.93 145.73 147.028C145.718 147.125 145.724 147.225 145.75 147.32C145.806 147.51 145.933 147.67 146.104 147.769C146.275 147.868 146.478 147.897 146.67 147.85C147.43 147.72 147.94 149.52 148.1 150C148.42 150.9 149.86 150.52 149.55 149.6C149 148.1 148.21 146.09 146.28 146.4Z" fill="white"/>
<path d="M154 148.63C153.92 148.94 153.83 149.26 153.75 149.63C153.715 149.815 153.751 150.005 153.851 150.165C153.95 150.324 154.105 150.441 154.286 150.491C154.467 150.541 154.661 150.522 154.828 150.436C154.995 150.351 155.124 150.206 155.19 150.03C155.28 149.71 155.36 149.39 155.45 149.03C155.503 148.838 155.478 148.632 155.379 148.459C155.281 148.285 155.117 148.158 154.925 148.105C154.733 148.052 154.527 148.077 154.354 148.176C154.18 148.274 154.053 148.438 154 148.63Z" fill="white"/>
<path d="M93.76 138.88C90.4347 138.976 87.1351 139.494 83.94 140.42C83.03 140.71 83.42 142.16 84.34 141.86C87.4054 140.973 90.5703 140.476 93.76 140.38C94.72 140.32 94.72 138.82 93.76 138.88Z" fill="white"/>
<path d="M84.56 137.71C85.7853 137.004 87.151 136.578 88.56 136.46C88.7589 136.46 88.9497 136.381 89.0904 136.24C89.231 136.1 89.31 135.909 89.31 135.71C89.31 135.511 89.231 135.32 89.0904 135.18C88.9497 135.039 88.7589 134.96 88.56 134.96C86.8456 134.968 85.1706 135.475 83.74 136.42C83.569 136.529 83.4481 136.701 83.404 136.899C83.36 137.097 83.3963 137.304 83.505 137.475C83.6138 137.646 83.786 137.767 83.9839 137.811C84.1817 137.855 84.389 137.819 84.56 137.71Z" fill="white"/>
<path d="M87.5 132.29L85.69 133.34C85.5398 133.449 85.4355 133.61 85.3972 133.792C85.3589 133.974 85.3894 134.163 85.4827 134.324C85.576 134.484 85.7256 134.604 85.9024 134.661C86.0792 134.717 86.2708 134.706 86.44 134.63L88.26 133.63C88.348 133.58 88.4253 133.513 88.4875 133.434C88.5496 133.354 88.5955 133.263 88.6224 133.165C88.6494 133.068 88.6568 132.966 88.6444 132.865C88.632 132.765 88.5999 132.668 88.55 132.58C88.5001 132.492 88.4333 132.415 88.3536 132.353C88.2738 132.29 88.1825 132.244 88.085 132.218C87.9875 132.191 87.8857 132.183 87.7853 132.196C87.6849 132.208 87.588 132.24 87.5 132.29Z" fill="white"/>
<path d="M85.41 126.9C84.41 126.74 83.99 127.39 83.76 128.25C83.7254 128.435 83.7613 128.625 83.8606 128.785C83.9599 128.944 84.1154 129.061 84.2964 129.111C84.4774 129.161 84.6706 129.142 84.8379 129.056C85.0053 128.971 85.1345 128.826 85.2 128.65L85.28 128.39C86 128.21 86.27 127.05 85.41 126.9Z" fill="white"/>
<path d="M83.61 125.41C83.4111 125.41 83.2203 125.489 83.0797 125.63C82.939 125.77 82.86 125.961 82.86 126.16C82.86 126.359 82.939 126.55 83.0797 126.69C83.2203 126.831 83.4111 126.91 83.61 126.91C83.8089 126.91 83.9997 126.831 84.1403 126.69C84.281 126.55 84.36 126.359 84.36 126.16C84.36 125.961 84.281 125.77 84.1403 125.63C83.9997 125.489 83.8089 125.41 83.61 125.41Z" fill="white"/>
<path d="M78.77 93.38C79.55 93.3 79.77 92.09 78.95 91.94C78.6306 91.8597 78.2926 91.9066 78.0071 92.0708C77.7217 92.235 77.5112 92.5036 77.42 92.82C77.16 93.67 78.37 94.06 78.77 93.38ZM78.83 93.27V93.34C78.83 93.34 78.84 93.27 78.83 93.27Z" fill="white"/>
<path d="M84.7 88.64L84.82 88.16C84.8496 87.977 84.8104 87.7894 84.7099 87.6336C84.6093 87.4778 84.4547 87.3648 84.2757 87.3163C84.0967 87.2678 83.9061 87.2874 83.7407 87.3712C83.5753 87.455 83.4468 87.597 83.38 87.77C83.38 87.93 83.29 88.09 83.25 88.25C83.1983 88.4423 83.2251 88.6472 83.3245 88.8198C83.4239 88.9923 83.5877 89.1183 83.78 89.17C83.9723 89.2217 84.1772 89.1949 84.3498 89.0955C84.5223 88.9961 84.6483 88.8323 84.7 88.64Z" fill="white"/>
<path d="M90 80.35C90.05 80.19 90.09 80.03 90.13 79.87C90.1596 79.687 90.1204 79.4995 90.0198 79.3436C89.9193 79.1878 89.7646 79.0748 89.5857 79.0263C89.4067 78.9779 89.2161 78.9974 89.0507 79.0812C88.8853 79.165 88.7568 79.3071 88.69 79.48C88.64 79.63 88.6 79.79 88.56 79.95C88.5253 80.1346 88.5612 80.3255 88.6606 80.4849C88.7599 80.6443 88.9154 80.7607 89.0964 80.811C89.2774 80.8612 89.4706 80.8418 89.6379 80.7564C89.8052 80.6711 89.9344 80.526 90 80.35Z" fill="white"/>
<path d="M66 138.79C66.83 138.79 67.09 137.53 66.21 137.35C66.2418 137.195 66.2819 137.041 66.33 136.89C66.3666 136.807 66.3854 136.717 66.3852 136.626C66.3849 136.535 66.3656 136.445 66.3285 136.362C66.2914 136.279 66.2373 136.205 66.1698 136.144C66.1022 136.084 66.0226 136.038 65.9362 136.01C65.8498 135.982 65.7584 135.972 65.6681 135.981C65.5777 135.991 65.4903 136.019 65.4115 136.064C65.3327 136.109 65.2642 136.171 65.2106 136.244C65.1569 136.317 65.1192 136.401 65.1 136.49C65.03 136.72 64.98 136.95 64.92 137.18C60.55 136.73 53.04 137.42 52.15 141.74C52.1374 141.636 52.103 141.536 52.0489 141.447C51.9949 141.357 51.9225 141.28 51.8365 141.221C51.7506 141.161 51.6529 141.12 51.5501 141.101C51.4473 141.082 51.3416 141.085 51.24 141.11C48.7 141.72 46.5 143.6 48.52 146.11C49.5301 147.35 50.8137 148.339 52.27 149C50.55 154.22 52.27 159.8 53.86 164.9C54.6 167.24 55.73 173.16 58.09 174.55C58.1853 174.606 58.2923 174.64 58.4026 174.648C58.513 174.656 58.6237 174.639 58.7262 174.597C58.8287 174.555 58.9203 174.491 58.9938 174.408C59.0673 174.325 59.1207 174.227 59.15 174.12C61.2 177.68 63.62 181.12 64.15 185.33C65 192.54 52.99 188.58 49.97 186.85C44.89 183.94 43.3 176.01 41.69 170.79C39.49 163.67 36.08 147.68 46.91 146.16C47.86 146.02 47.46 144.58 46.51 144.71C37.34 146 37.51 156.61 38.51 163.71C39.21 168.57 40.86 173.14 42.43 177.78C44.21 183.05 46.78 187.5 52.19 189.53C55.68 190.84 60.28 191.87 63.68 189.86C67.59 187.54 64.83 181.17 63.44 178.28C61.8 174.86 59.56 171.84 58.19 168.28C57.05 165.28 57.51 161.99 57.61 158.91C57.7 156.03 57.76 152.41 56.2 149.91C56.2963 149.862 56.3812 149.794 56.4488 149.71C56.5163 149.626 56.5651 149.528 56.5916 149.424C56.6182 149.32 56.622 149.211 56.6027 149.105C56.5834 148.999 56.5416 148.898 56.48 148.81C60.88 150.95 67.48 150.81 70.24 147.81C70.378 147.668 70.4553 147.478 70.4553 147.28C70.4553 147.082 70.378 146.892 70.24 146.75C68 144.41 65.91 141.94 66 138.79ZM50.52 146C49.8428 145.528 49.3764 144.81 49.22 144C49.22 143 51 142.65 51.67 142.49C51.7638 142.469 51.8523 142.429 51.9298 142.373C52.0073 142.316 52.0721 142.243 52.12 142.16C52.0518 143.131 52.2163 144.105 52.6 145C53.2555 146.466 54.3865 147.667 55.81 148.41C55.4737 148.388 55.1394 148.341 54.81 148.27C54.4752 147.998 54.1093 147.766 53.72 147.58C53.5989 147.512 53.461 147.481 53.3226 147.49C53.1842 147.499 53.0514 147.547 52.94 147.63C52.0665 147.193 51.2531 146.645 50.52 146ZM56.36 167.28C56.7845 169.289 57.52 171.218 58.54 173C56.62 171.31 55.44 165 54.79 162.82C53.9041 160.014 53.3044 157.126 53 154.2C52.94 153.57 52.86 149.93 53.7 149.53C53.8906 149.587 54.0842 149.634 54.28 149.67C55.81 150.91 55.95 153.73 56.09 155.47C56.4 159.44 55.59 163.38 56.36 167.32V167.28ZM54.45 144.84C52.14 141.54 55.96 139.35 58.6 138.76C60.6174 138.345 62.6917 138.284 64.73 138.58C64.44 141.91 66.04 144.67 68.97 147.18C64.76 150.16 57 148.48 54.45 144.88V144.84Z" fill="white"/>
<path d="M95.89 10.91C107.41 5.33 115.69 22.23 126.76 23.22C127.76 23.31 127.71 21.81 126.76 21.73C115.13 20.68 107.82 3.47 95.13 9.61C94.26 10 95 11.32 95.89 10.91Z" fill="white"/>
<path d="M103.69 12.19L103.45 12.13C103.267 12.1004 103.079 12.1396 102.924 12.2402C102.768 12.3407 102.655 12.4953 102.606 12.6743C102.558 12.8533 102.577 13.0439 102.661 13.2093C102.745 13.3747 102.887 13.5032 103.06 13.57L103.29 13.63C103.475 13.6646 103.665 13.6287 103.825 13.5294C103.984 13.4301 104.101 13.2746 104.151 13.0936C104.201 12.9126 104.182 12.7194 104.096 12.5521C104.011 12.3847 103.866 12.2555 103.69 12.19Z" fill="white"/>
<path d="M106.58 13.17C106.381 13.17 106.19 13.249 106.05 13.3897C105.909 13.5303 105.83 13.7211 105.83 13.92C105.83 14.1189 105.909 14.3097 106.05 14.4503C106.19 14.591 106.381 14.67 106.58 14.67C106.779 14.67 106.97 14.591 107.11 14.4503C107.251 14.3097 107.33 14.1189 107.33 13.92C107.33 13.7211 107.251 13.5303 107.11 13.3897C106.97 13.249 106.779 13.17 106.58 13.17Z" fill="white"/>
<path d="M98.91 14.74L98.68 14.68C98.4954 14.6454 98.3045 14.6812 98.1451 14.7806C97.9857 14.8799 97.8693 15.0354 97.819 15.2164C97.7688 15.3974 97.7882 15.5906 97.8736 15.7579C97.9589 15.9253 98.104 16.0545 98.28 16.12L98.52 16.19C98.7123 16.2417 98.9172 16.2149 99.0898 16.1155C99.2623 16.0161 99.3883 15.8523 99.44 15.66C99.4917 15.4677 99.4649 15.2628 99.3655 15.0902C99.2661 14.9177 99.1023 14.7917 98.91 14.74Z" fill="white"/>
<path d="M96.6 12.23V13.73C96.7989 13.73 96.9897 13.651 97.1303 13.5103C97.271 13.3697 97.35 13.1789 97.35 12.98C97.35 12.7811 97.271 12.5903 97.1303 12.4497C96.9897 12.309 96.7989 12.23 96.6 12.23Z" fill="white"/>
<path d="M91.6 18.67C91.7989 18.67 91.9897 18.591 92.1303 18.4503C92.271 18.3097 92.35 18.1189 92.35 17.92C92.35 17.7211 92.271 17.5303 92.1303 17.3897C91.9897 17.249 91.7989 17.17 91.6 17.17C91.4011 17.17 91.2103 17.249 91.0696 17.3897C90.929 17.5303 90.85 17.7211 90.85 17.92C90.85 18.1189 90.929 18.3097 91.0696 18.4503C91.2103 18.591 91.4011 18.67 91.6 18.67Z" fill="white"/>
<path d="M86.62 18.62L86.69 18.38C86.743 18.1877 86.7175 17.9822 86.6191 17.8088C86.5206 17.6353 86.3573 17.508 86.165 17.455C85.9727 17.402 85.7672 17.4275 85.5937 17.5259C85.4203 17.6244 85.293 17.7877 85.24 17.98L85.18 18.22C85.1453 18.4046 85.1812 18.5955 85.2806 18.7549C85.3799 18.9143 85.5354 19.0307 85.7164 19.0809C85.8974 19.1312 86.0906 19.1117 86.2579 19.0264C86.4252 18.941 86.5544 18.796 86.62 18.62Z" fill="white"/>
<path d="M82.93 23.76L83.16 23.83C83.3523 23.883 83.5578 23.8575 83.7313 23.7591C83.9047 23.6606 84.032 23.4973 84.085 23.305C84.1381 23.1127 84.1126 22.9072 84.0141 22.7338C83.9156 22.5603 83.7523 22.433 83.56 22.38L83.32 22.32C83.137 22.2904 82.9495 22.3296 82.7937 22.4302C82.6379 22.5307 82.5248 22.6853 82.4763 22.8643C82.4279 23.0433 82.4474 23.2339 82.5312 23.3993C82.615 23.5647 82.7571 23.6932 82.93 23.76Z" fill="white"/>
<path d="M216.14 59C216.71 59.78 218.01 59 217.44 58.25C209.84 47.82 194.97 53.48 185.49 46.42C184.72 45.84 183.97 47.14 184.74 47.71C193.91 54.56 208.94 49.12 216.14 59Z" fill="white"/>
<path d="M206.93 60.08C206.93 60.23 206.85 60.39 206.8 60.55C206.747 60.7423 206.772 60.9478 206.871 61.1212C206.969 61.2947 207.133 61.422 207.325 61.475C207.517 61.528 207.723 61.5025 207.896 61.4041C208.07 61.3056 208.197 61.1423 208.25 60.95C208.25 60.79 208.33 60.63 208.38 60.47C208.432 60.2777 208.405 60.0728 208.306 59.9002C208.206 59.7277 208.042 59.6017 207.85 59.55C207.658 59.4983 207.453 59.5251 207.28 59.6245C207.108 59.7239 206.982 59.8877 206.93 60.08Z" fill="white"/>
<path d="M214.45 62.61C214.45 62.45 214.54 62.3 214.58 62.14C214.633 61.9477 214.608 61.7422 214.509 61.5688C214.411 61.3953 214.247 61.2681 214.055 61.215C213.863 61.162 213.657 61.1875 213.484 61.2859C213.31 61.3844 213.183 61.5477 213.13 61.74L213.01 62.22C212.98 62.403 213.02 62.5906 213.12 62.7464C213.221 62.9022 213.375 63.0152 213.554 63.0637C213.733 63.1122 213.924 63.0926 214.089 63.0088C214.255 62.9251 214.383 62.783 214.45 62.61Z" fill="white"/>
<path d="M210.44 67C210.241 67 210.05 67.079 209.91 67.2197C209.769 67.3603 209.69 67.5511 209.69 67.75C209.69 67.9489 209.769 68.1397 209.91 68.2803C210.05 68.421 210.241 68.5 210.44 68.5C210.639 68.5 210.83 68.421 210.97 68.2803C211.111 68.1397 211.19 67.9489 211.19 67.75C211.19 67.5511 211.111 67.3603 210.97 67.2197C210.83 67.079 210.639 67 210.44 67Z" fill="white"/>
<path d="M216.8 68.47C216.49 68.61 216.27 68.94 215.98 69.12C215.17 69.63 215.92 70.93 216.74 70.41C216.923 70.289 217.1 70.1588 217.27 70.02L217.46 69.84H217.52C218.35 69.84 218.66 68.55 217.77 68.4C217.449 68.3084 217.105 68.3332 216.8 68.47Z" fill="white"/>
<path d="M213.44 74.83C213.241 74.83 213.05 74.909 212.91 75.0497C212.769 75.1903 212.69 75.3811 212.69 75.58C212.69 75.7789 212.769 75.9697 212.91 76.1103C213.05 76.251 213.241 76.33 213.44 76.33C213.639 76.33 213.83 76.251 213.97 76.1103C214.111 75.9697 214.19 75.7789 214.19 75.58C214.19 75.3811 214.111 75.1903 213.97 75.0497C213.83 74.909 213.639 74.83 213.44 74.83Z" fill="white"/>
<path d="M213.3 80.18C213.25 80.34 213.21 80.5 213.17 80.66C213.135 80.8446 213.171 81.0355 213.271 81.1949C213.37 81.3543 213.525 81.4707 213.706 81.5209C213.887 81.5712 214.081 81.5517 214.248 81.4664C214.415 81.381 214.544 81.236 214.61 81.06C214.61 80.9 214.7 80.74 214.74 80.58C214.775 80.3954 214.739 80.2045 214.639 80.0451C214.54 79.8857 214.385 79.7693 214.204 79.719C214.023 79.6688 213.829 79.6882 213.662 79.7736C213.495 79.8589 213.366 80.004 213.3 80.18Z" fill="white"/>
<path d="M216.92 82.94L216.44 82.81C216.248 82.757 216.042 82.7825 215.869 82.8809C215.695 82.9794 215.568 83.1427 215.515 83.335C215.462 83.5273 215.487 83.7328 215.586 83.9062C215.684 84.0797 215.848 84.207 216.04 84.26L216.52 84.39C216.615 84.4163 216.715 84.4235 216.813 84.4113C216.911 84.3992 217.005 84.3678 217.091 84.3191C217.177 84.2703 217.253 84.2051 217.313 84.1272C217.374 84.0493 217.419 83.9602 217.445 83.865C217.471 83.7698 217.479 83.6703 217.466 83.5723C217.454 83.4743 217.423 83.3797 217.374 83.2938C217.325 83.2079 217.26 83.1324 217.182 83.0717C217.104 83.011 217.015 82.9663 216.92 82.94Z" fill="white"/>
<path d="M255.19 140.85C252.89 141.75 237.68 147.93 231.33 152.95C230.427 152.376 229.397 152.033 228.33 151.95C228.226 151.947 228.123 151.967 228.028 152.009C227.933 152.051 227.848 152.113 227.78 152.191C227.712 152.27 227.663 152.363 227.635 152.463C227.607 152.563 227.602 152.668 227.62 152.77C220.06 150.49 211.79 153.42 204.45 151.77C206.22 150.59 204.45 149.37 201.98 148.53C201.15 145.27 198.51 142.69 195.67 140.61C199.32 139.76 202.82 138.48 205.43 135.73C205.519 135.635 205.582 135.519 205.614 135.393C205.646 135.267 205.645 135.135 205.612 135.009C205.58 134.883 205.515 134.768 205.426 134.674C205.336 134.579 205.224 134.509 205.1 134.47C195.403 130.684 186.395 125.325 178.44 118.61C178.92 118.61 179.44 118.55 179.92 118.51C180.083 118.506 180.24 118.451 180.369 118.352C180.499 118.253 180.594 118.116 180.64 117.96C180.77 117.48 180.9 117.01 181.02 116.53C181.067 116.371 181.059 116.2 180.997 116.046C180.936 115.892 180.824 115.763 180.68 115.68C179.57 115.17 176.08 113.56 177.43 112.37C177.526 112.278 177.595 112.161 177.63 112.033C177.666 111.904 177.665 111.768 177.63 111.64C176.316 107.25 174.208 103.139 171.41 99.51C180.638 97.4309 190.221 97.5165 199.41 99.76C201 100.12 198.87 107.57 198.87 109.05C198.871 109.593 198.982 110.13 199.197 110.629C199.412 111.127 199.726 111.577 200.12 111.95C193.96 114.45 186.76 115.01 180.85 117.95C179.99 118.39 180.75 119.68 181.61 119.25C187.89 116.09 194.97 115.63 201.39 112.97L201.45 113.02C201.62 113.11 201.818 113.132 202.003 113.082C202.189 113.032 202.348 112.913 202.45 112.75C202.45 112.64 202.55 112.53 202.59 112.42L203.1 112.19C208.57 109.48 213.87 103.33 216.19 97.71C216.481 97.0201 216.613 96.2738 216.576 95.5261C216.54 94.7784 216.336 94.0484 215.98 93.39C218.036 91.6957 219.758 89.634 221.06 87.31C227.13 77.07 224.53 65.01 220.45 54.65C212.8 35.18 204.83 14.85 184.72 5.32C184.591 5.25098 184.446 5.22047 184.3 5.23211C184.155 5.24376 184.015 5.29707 183.899 5.38567C183.783 5.47427 183.695 5.59441 183.646 5.73173C183.596 5.86904 183.587 6.01773 183.62 6.16C184.24 10.16 187.17 12.45 189.8 15.28C192.43 18.11 192.41 22.75 192.8 26.39C193.119 29.1122 193.792 31.7813 194.8 34.33C196.577 38.5443 199.28 42.3041 202.71 45.33C202.86 45.47 203.02 45.6 203.18 45.73C200.094 45.3323 197.049 44.6631 194.08 43.73C194.08 43.73 194.08 43.73 194.08 43.67C192.31 41.4 188.2 39.75 188.08 36.91C188.08 36.7128 188.002 36.5235 187.864 36.3832C187.725 36.2428 187.537 36.1626 187.34 36.16C184.67 36.16 185.84 35.4 185.95 34C186.099 32.2764 185.909 30.5403 185.39 28.89C185.136 28.0254 184.707 27.2221 184.13 26.53C182.99 25.29 183.13 24.43 183.23 22.75C183.141 21.2727 182.778 19.8247 182.16 18.48C181.62 17.01 182.16 16 182.24 14.64C182.213 14.2913 182.06 13.9643 181.81 13.72C180.54 12.46 181.76 11.03 182.58 9.72C182.638 9.62137 182.672 9.51084 182.681 9.39685C182.689 9.28286 182.672 9.16843 182.629 9.0623C182.587 8.95616 182.521 8.86114 182.436 8.78448C182.351 8.70782 182.25 8.65156 182.14 8.62L179.75 7.98C179.69 7.97029 179.63 7.97029 179.57 7.98C179.206 5.89251 178.681 3.83635 178 1.83C177.959 1.69054 177.879 1.56593 177.768 1.47134C177.658 1.37675 177.523 1.31624 177.379 1.29718C177.235 1.27811 177.088 1.3013 176.957 1.36394C176.826 1.42658 176.716 1.52596 176.64 1.65C169.71 15.65 167.81 35.42 177.52 48.65C187.43 62.17 182.45 85.88 197.8 95.73C197.308 96.2706 196.85 96.8418 196.43 97.44C196.398 97.4963 196.375 97.5569 196.36 97.62C187.799 95.9512 178.978 96.149 170.5 98.2C170.5 98.2 170.5 98.2 170.42 98.2C166.326 93.5591 161.278 89.8579 155.62 87.35C155.678 87.2424 155.709 87.1223 155.71 87C155.71 85.63 155.71 84.26 155.71 82.9C157.41 82.27 158.41 80.49 158.97 78.9C159.002 78.7714 159.001 78.6366 158.966 78.5087C158.931 78.3808 158.863 78.2642 158.77 78.17C157.282 76.6759 155.327 75.737 153.23 75.51C153.285 75.3643 153.295 75.2056 153.26 75.0539C153.225 74.9022 153.146 74.7643 153.033 74.6574C152.919 74.5506 152.777 74.4796 152.624 74.4534C152.47 74.4271 152.312 74.4468 152.17 74.51C148.83 75.98 148.17 79.68 151.05 82.05C151.22 82.1823 151.397 82.3058 151.58 82.42C151.527 83.4379 151.349 84.4455 151.05 85.42C139.75 81.13 126.62 79.27 114.54 76.96C115.3 75.62 115.75 74.12 116.54 72.82C116.592 72.7335 116.629 72.6388 116.65 72.54C117.97 72.15 119.31 71.34 119.58 70C119.96 68.1 117.96 67.09 116.11 66.54C116.097 66.402 116.04 66.2717 115.949 66.1676C115.857 66.0635 115.735 65.9909 115.6 65.96C114.39 65.62 112.94 64.96 111.78 65.8C110.62 66.64 110.39 68.6 110.69 69.95C110.854 70.7473 111.302 71.458 111.95 71.95C111.95 71.95 111.95 72.03 111.95 72.06C111.57 73.06 111.15 74.12 110.85 75.18C110.798 75.3723 110.825 75.5772 110.924 75.7498C111.024 75.9223 111.188 76.0483 111.38 76.1C111.572 76.1517 111.777 76.1249 111.95 76.0255C112.122 75.9261 112.248 75.7623 112.3 75.57C112.52 74.79 112.83 74.02 113.1 73.26L113.34 72.63C113.836 72.7801 114.352 72.851 114.87 72.84C114.24 74.08 113.8 75.41 113.06 76.59C113.06 76.59 113.06 76.65 113.06 76.68C108.501 75.829 103.988 74.7443 99.54 73.43C99.5403 73.2764 99.4893 73.127 99.3951 73.0057C99.3009 72.8843 99.1689 72.7979 99.02 72.76C96.6198 72.0089 94.0434 72.0369 91.66 72.84C89.8893 69.4561 87.8459 66.2221 85.55 63.17C82.37 59.07 80.4 54.61 77.64 50.28C77.6795 50.1087 77.682 49.9309 77.6476 49.7585C77.6131 49.5861 77.5423 49.423 77.44 49.28C77.1627 48.8414 76.8026 48.461 76.38 48.16C77.38 45.68 79.07 42.37 77.93 40.07C78.0193 40.0965 78.1136 40.1021 78.2055 40.0865C78.2973 40.0709 78.3844 40.0345 78.46 39.98C78.7199 39.7939 78.961 39.5829 79.18 39.35C81.63 42.64 86.65 42.77 90.63 42.72C99.25 42.62 107.05 38.93 114.86 35.72C119.503 33.6718 124.417 32.3011 129.45 31.65C134.03 31.15 138.6 30.99 143.15 30.2C147.226 29.5809 151.106 28.0345 154.49 25.68C158.49 22.85 161.74 19.39 166.74 18.31C167.64 18.12 167.31 16.94 166.54 16.84C162.077 16.2417 157.544 16.438 153.15 17.42C152.58 17.55 152.03 17.69 151.5 17.85C153.035 17.1539 154.641 16.6274 156.29 16.28C157.29 16.12 156.83 14.68 155.89 14.83C154.16 15.12 151.72 15.4 150.23 16.25C148.74 17.1 147.58 17.92 145.79 17.61C145.44 17.55 144.85 17.28 144.46 17.39C142.13 18.08 140.98 18.27 138.69 17.3C137.42 16.76 135.27 18.51 134.36 19.15C134.291 19.2007 134.233 19.2654 134.19 19.34C131.979 18.5006 129.861 17.4349 127.87 16.16C128.017 16.1811 128.167 16.1593 128.302 16.0972C128.437 16.0351 128.551 15.9354 128.63 15.81C129.92 13.46 132.01 15.3 133.81 14.4C136.16 13.24 136.75 15.58 138.45 15.07C139.57 14.73 143.09 12.85 143.86 13.68C144.076 13.9374 144.343 14.1468 144.644 14.2949C144.945 14.443 145.274 14.5265 145.61 14.54C146.78 14.77 148.48 12.17 149.27 12.96C149.803 13.4429 150.462 13.7635 151.171 13.884C151.879 14.0045 152.608 13.9198 153.27 13.64C155.44 12.64 155.08 14.08 157.18 14.08C159.53 14.08 158.97 12.92 160.55 14.62C161.76 15.91 163.99 14.85 165.17 14.19C165.221 14.1555 165.268 14.1152 165.31 14.07L165.67 14.28C165.81 14.3468 165.967 14.3686 166.12 14.3424C166.273 14.3162 166.414 14.2432 166.524 14.1336C166.633 14.0239 166.706 13.8829 166.732 13.7301C166.759 13.5772 166.737 13.42 166.67 13.28C162.98 6.33 156.32 2.81 148.67 1.76C144.39 1.18 140.05 1.88 135.79 2.26C129.2 2.85 123.36 1.95 116.92 0.62C112.735 -0.253747 108.397 -0.0368001 104.32 1.25C99.71 2.55 95.43 5 91.05 7.83C84.21 12.19 78 16.61 77.39 25.23C77.2992 25.1099 77.1743 25.0199 77.0316 24.9717C76.8889 24.9236 76.735 24.9195 76.59 24.96C73.12 26.3 70.28 27.75 69.31 31.6C69.2746 31.7276 69.2746 31.8624 69.31 31.99C67.44 31.38 66.07 33.99 65.14 35.53C63.9886 37.2215 63.2141 39.1407 62.869 41.1576C62.524 43.1744 62.6164 45.2419 63.14 47.22C63.1655 47.3314 63.2179 47.4349 63.2926 47.5215C63.3673 47.608 63.4621 47.6749 63.5687 47.7163C63.6752 47.7577 63.7903 47.7724 63.9038 47.7591C64.0174 47.7458 64.1259 47.7049 64.22 47.64C64.2396 47.6821 64.263 47.7223 64.29 47.76C60.1 50.89 62.04 57.58 63.81 61.84C65.81 66.69 69.05 70.94 70.81 75.84C71.87 78.84 71.81 82.56 74.17 84.84L73.63 85.18C73.5854 85.0129 73.4779 84.8696 73.33 84.78C67.2323 80.788 60.8136 77.3094 54.14 74.38C52.27 73.6 48.79 72 45.86 72C45.8067 71.9396 45.7462 71.8859 45.68 71.84C44.8373 71.3139 43.8804 70.9983 42.89 70.92C39.4927 63.2774 34.7508 56.3068 28.89 50.34C28.27 49.73 27.46 48.98 26.54 48.23C26.6003 48.1453 26.6375 48.0464 26.648 47.9429C26.6585 47.8395 26.642 47.7351 26.6 47.64C26.3097 46.8683 25.9759 46.1138 25.6 45.38C34 38.13 32.41 20.55 28.45 11.69C28.392 11.5907 28.312 11.5061 28.2161 11.4427C28.1202 11.3793 28.011 11.3388 27.897 11.3243C27.7829 11.3098 27.6671 11.3217 27.5583 11.3591C27.4496 11.3965 27.351 11.4584 27.27 11.54C20.73 19.54 17.67 33.43 18.6 43.54C18.6041 43.6704 18.6416 43.7976 18.7091 43.9092C18.7765 44.0209 18.8716 44.1134 18.9851 44.1777C19.0986 44.242 19.2268 44.2759 19.3572 44.2763C19.4877 44.2768 19.6161 44.2436 19.73 44.18C21.0601 44.0368 22.3982 44.366 23.51 45.11C23.3598 45.2034 23.2486 45.3482 23.1971 45.5174C23.1456 45.6866 23.1573 45.8688 23.23 46.03C22.5284 45.6079 21.7411 45.3484 20.9261 45.2705C20.111 45.1926 19.2888 45.2984 18.52 45.58C14.56 47.38 20.86 57 21.88 58.63C26.46 65.75 34.47 70.05 40.41 75.89C40.5402 76.0081 40.7078 76.0766 40.8835 76.0837C41.0591 76.0908 41.2317 76.036 41.371 75.9288C41.5103 75.8216 41.6076 75.6689 41.6458 75.4973C41.684 75.3257 41.6607 75.1462 41.58 74.99C41.58 74.91 41.63 74.85 41.65 74.78C41.85 76.97 45.17 79.55 46.2 80.39C51.39 84.58 56.5 89 61.94 92.88C59.64 95.88 53.45 96.27 49.74 97.46C45.9549 96.7276 42.1325 96.2035 38.29 95.89C38.126 95.8889 37.9663 95.9424 37.836 96.0419C37.7057 96.1415 37.6121 96.2815 37.57 96.44V96.66C37.2485 96.533 36.9127 96.4457 36.57 96.4C36.6186 96.2991 36.6466 96.1895 36.6523 96.0777C36.658 95.9658 36.6412 95.8539 36.603 95.7486C36.5648 95.6434 36.5059 95.5468 36.4299 95.4646C36.3538 95.3824 36.262 95.3162 36.16 95.27C27.29 91.56 23.61 81.58 13.91 79.08C13.7194 79.0363 13.5192 79.0667 13.3502 79.1651C13.1812 79.2635 13.056 79.4226 13 79.61C13.0379 79.452 13.0255 79.2861 12.9645 79.1356C12.9035 78.985 12.7971 78.8572 12.66 78.77C12.56 78.71 12.48 78.63 12.38 78.56C12.1731 78.0497 11.9929 77.529 11.84 77C12.3229 77.3763 12.7653 77.8019 13.16 78.27C13.2237 78.3391 13.301 78.3942 13.387 78.4319C13.4731 78.4697 13.566 78.4891 13.66 78.4891C13.754 78.4891 13.8469 78.4697 13.933 78.4319C14.019 78.3942 14.0963 78.3391 14.16 78.27C14.2995 78.4016 14.4465 78.5251 14.6 78.64C15.35 79.23 16.42 78.18 15.65 77.58C9.7 73 9.85 63.63 9 56.81C8.21 50.39 7 43.76 2.52 38.81C2.42723 38.7181 2.31206 38.652 2.18589 38.6182C2.05972 38.5845 1.92692 38.5842 1.80064 38.6176C1.67436 38.6509 1.55897 38.7167 1.4659 38.8083C1.37283 38.8999 1.3053 39.0143 1.27 39.14C-0.454827 46.6185 -0.454827 54.3915 1.27 61.87C2.09212 65.7231 3.48765 69.431 5.41 72.87C7.17904 75.1497 9.06141 77.3391 11.05 79.43C11.17 79.71 11.28 80 11.42 80.29C11.4973 80.4133 11.6085 80.5117 11.7401 80.5737C11.8718 80.6357 12.0185 80.6585 12.1628 80.6396C12.307 80.6206 12.4428 80.5606 12.554 80.4668C12.6652 80.3729 12.7471 80.2491 12.79 80.11C12.79 79.95 12.87 79.8 12.92 79.64C12.9109 79.6963 12.9109 79.7537 12.92 79.81C13.29 85.34 18.44 90.81 22.08 94.57C24.72 97.29 29.9 102.11 34.08 100.29C34.7495 100.89 35.5567 101.316 36.43 101.53C36.613 101.56 36.8006 101.52 36.9564 101.42C37.1122 101.319 37.2252 101.165 37.2737 100.986C37.3222 100.807 37.3026 100.616 37.2188 100.451C37.1351 100.285 36.993 100.157 36.82 100.09C36.2278 99.943 35.6771 99.6625 35.21 99.27C35.2168 99.1672 35.2028 99.0642 35.169 98.9669C35.1353 98.8696 35.0823 98.7801 35.0133 98.7036C34.9443 98.6272 34.8607 98.5653 34.7673 98.5218C34.674 98.4782 34.5729 98.4538 34.47 98.45C34.47 98.38 34.38 98.29 34.33 98.21C34.7942 97.9722 35.3084 97.8482 35.83 97.8482C36.3516 97.8482 36.8658 97.9722 37.33 98.21C37.1 108.21 53.66 113.44 62.11 110.21C63.48 110.78 64.86 111.3 66.23 111.79C65.36 111.79 64.49 111.89 63.61 111.91C63.4332 111.919 63.2653 111.99 63.1351 112.11C63.0049 112.23 62.9207 112.392 62.897 112.567C62.8733 112.743 62.9116 112.921 63.0052 113.071C63.0989 113.221 63.242 113.334 63.41 113.39C64.98 113.98 66.41 114.75 67.98 115.39C67.4495 115.709 66.902 116 66.34 116.26C66.2415 116.302 66.1503 116.359 66.07 116.43C62.07 115.82 58.19 116.43 54.19 116.5C50.1305 116.447 46.0815 116.076 42.08 115.39L41.88 115.25C41.7699 115.169 41.6368 115.125 41.5 115.125C41.3632 115.125 41.2301 115.169 41.12 115.25L40.4 115.15C35.89 114.59 38.82 120.61 39.47 122.32C39.85 123.32 41.92 128.66 43.79 125.51C44.4282 124.2 44.7456 122.757 44.716 121.299C44.6864 119.842 44.3108 118.413 43.62 117.13C46.62 117.3 50.26 117.72 50.74 117.77C54.5 118.17 58.26 117.58 62.01 117.59C61.954 117.675 61.9201 117.772 61.9113 117.874C61.9026 117.975 61.9193 118.077 61.96 118.17C62.96 120.74 63.49 123.44 64.46 126C64.5103 126.173 64.6208 126.321 64.7715 126.419C64.9222 126.517 65.1031 126.558 65.2812 126.533C65.4592 126.509 65.6227 126.422 65.7418 126.287C65.8609 126.153 65.9277 125.98 65.93 125.8C65.93 125.21 66.01 124.64 66.03 124.08C66.1098 124.61 66.2234 125.134 66.37 125.65C66.3053 125.79 66.2583 125.938 66.23 126.09C65.7553 127.144 65.3445 128.226 65 129.33C64.9686 129.457 64.9706 129.59 65.0057 129.716C65.0408 129.842 65.1079 129.957 65.2004 130.05C65.293 130.142 65.4078 130.209 65.5339 130.244C65.66 130.279 65.793 130.281 65.92 130.25C66.4539 130.115 66.9947 130.008 67.54 129.93C67.6018 130.107 67.7273 130.254 67.8919 130.343C68.0566 130.431 68.2485 130.455 68.43 130.41C69.69 130.12 70.92 129.72 72.18 129.41C72.1746 129.436 72.1746 129.464 72.18 129.49C72.0814 129.667 72.0562 129.875 72.11 130.07C68.33 132.58 61.66 129.19 57.87 128.12C53.5736 126.955 49.1301 126.422 44.68 126.54C44.6171 126.47 44.5401 126.413 44.4539 126.375C44.3678 126.336 44.2744 126.316 44.18 126.316C44.0856 126.316 43.9922 126.336 43.9061 126.375C43.8199 126.413 43.7429 126.47 43.68 126.54L43.62 126.6H43.37C43.2515 126.603 43.1353 126.633 43.0309 126.69C42.9266 126.746 42.8371 126.826 42.7697 126.924C42.7024 127.021 42.6592 127.134 42.6436 127.251C42.628 127.369 42.6404 127.488 42.68 127.6C39.68 130.6 36.07 133.02 32.73 135.74C30.34 137.74 28.14 139.85 25.59 141.56C25.13 141.37 24.51 141.56 24.59 142.2L24.44 142.29C23.17 143.29 22.23 142.9 21.64 141C22.0199 139.767 22.5685 138.593 23.27 137.51C24.2099 135.89 25.2451 134.327 26.37 132.83C29.85 127.99 33.69 123.38 37.37 118.74C37.97 117.99 36.92 116.93 36.31 117.68C34.66 119.74 15.58 140.34 20.75 143.91C21.336 144.262 22.0066 144.447 22.69 144.447C23.3734 144.447 24.044 144.262 24.63 143.91C24.9591 149.67 23.6669 155.407 20.9 160.47C19.4242 162.93 18.121 165.489 17 168.13C15.84 171.34 16.12 175.02 15.29 178.3C14.9591 177.995 14.716 177.607 14.5858 177.176C14.4557 176.745 14.4433 176.287 14.55 175.85C14.6704 174.441 14.9318 173.047 15.33 171.69C15.75 169.95 16.33 168.26 16.71 166.51C18.28 159.17 16.85 151.79 19.31 144.51C19.62 143.59 18.17 143.2 17.87 144.11C15.1 152.35 16.79 161.04 14.45 169.26C13.54 172.46 11.26 178.61 14.95 180.89C15.0497 180.946 15.1606 180.978 15.2746 180.985C15.3886 180.992 15.5027 180.973 15.6084 180.93C15.7141 180.887 15.8086 180.82 15.8851 180.735C15.9616 180.651 16.0179 180.55 16.05 180.44C17.41 177.08 17.49 173.79 18.05 170.24C18.7 165.94 21.8 162.24 23.65 158.46C26.01 153.58 26.47 148.46 26.1 143.19C27.198 142.425 28.2561 141.604 29.27 140.73C34.27 136.73 39.85 132.87 44.27 128.17C50.82 128.01 56.93 129.54 63.18 131.39C66.39 132.34 70.18 133.28 73.12 131.31C73.5066 131.969 73.7167 132.716 73.73 133.48C73.7395 133.641 73.7969 133.796 73.8949 133.924C73.9929 134.052 74.127 134.148 74.28 134.2C75.02 134.51 75.34 134.33 75.4 134.28C75.2252 134.536 75.0966 134.82 75.02 135.12C74.8162 135.935 74.8439 136.79 75.1 137.59C75.7 139.73 77.73 141.48 79.42 142.75C80.23 143.35 81.06 143.92 81.91 144.47C81.8028 144.453 81.6932 144.458 81.5881 144.486C81.4831 144.513 81.3849 144.562 81.3 144.63C80.1869 145.511 78.8907 146.132 77.5064 146.447C76.122 146.762 74.6848 146.763 73.3 146.45C73.191 146.419 73.0757 146.416 72.9653 146.442C72.855 146.469 72.7533 146.523 72.67 146.6C72.4074 146.426 72.1537 146.239 71.91 146.04C69.15 143.83 69.12 136.14 73.55 135.77C74.55 135.69 74.55 134.19 73.55 134.27C68.55 134.69 67.28 142.14 69.55 145.73C72.21 149.86 80.55 152.14 84.19 148.24C84.85 147.53 83.79 146.47 83.13 147.18C81.3 149.18 78.37 149.06 75.75 148.18C78.1458 148.079 80.4471 147.217 82.32 145.72C82.3879 145.673 82.4451 145.612 82.488 145.541C82.5308 145.47 82.5583 145.392 82.5687 145.309C82.579 145.227 82.5721 145.144 82.5482 145.065C82.5243 144.986 82.484 144.913 82.43 144.85C88.56 148.7 95.61 151.28 102.34 153.68C112.11 157.125 122.074 159.993 132.18 162.27C136.431 163.39 140.741 164.274 145.09 164.92C145.087 165.046 145.107 165.172 145.15 165.29C145.871 167.179 147.179 168.787 148.88 169.88C147.222 169.453 145.733 168.533 144.61 167.24C143.97 166.51 142.91 167.33 143.55 168.05C144.518 169.204 145.752 170.105 147.146 170.674C148.54 171.244 150.051 171.466 151.55 171.32C151.56 171.468 151.614 171.61 151.705 171.727C151.796 171.845 151.919 171.933 152.06 171.98C156.7 173.57 158.72 178.5 163.06 180.69C162.949 180.757 162.857 180.851 162.791 180.962C162.725 181.074 162.687 181.2 162.681 181.329C162.675 181.458 162.701 181.587 162.757 181.704C162.812 181.821 162.896 181.923 163 182C165.8 183.94 170.34 185.36 173 183.87C187.17 190.54 162.95 212.95 156.33 216.87C153.61 218.48 150.5 219.81 147.33 219.74C142.78 219.65 141.11 215.16 143.9 211.87C145.469 210.099 147.218 208.497 149.12 207.09V207.15C148.8 208.06 150.25 208.45 150.56 207.55C150.82 206.8 151.11 206.08 151.41 205.38C152.94 204.25 154.48 203.13 155.92 201.95C158.548 199.608 160.783 196.86 162.54 193.81C162.92 193.65 163.31 193.49 163.72 193.34C163.864 193.28 163.988 193.179 164.075 193.049C164.162 192.919 164.208 192.766 164.208 192.61C164.208 192.454 164.162 192.301 164.075 192.171C163.988 192.041 163.864 191.94 163.72 191.88C164.99 189.78 166.24 187.68 167.64 185.75C168.2 184.96 166.9 184.22 166.34 184.99C164.54 187.49 162.94 190.14 161.34 192.75C156.198 195.129 152.146 199.366 150 204.61C149.54 204.94 149.08 205.28 148.65 205.61C146.38 207.36 139.13 212.08 140.65 215.97C143.4 223.22 150.94 221.41 156.45 218.47C164.45 214.22 189 190.47 174.17 182.74C174.843 181.652 175.131 180.371 174.99 179.1C174.987 179.002 174.965 178.905 174.925 178.816C174.885 178.726 174.827 178.646 174.756 178.579C174.684 178.512 174.6 178.46 174.508 178.426C174.416 178.392 174.318 178.376 174.22 178.38C174.64 176.25 173.37 173.56 172.22 172.13C168.98 168.13 164.08 166.05 159.58 163.77C159.734 162.659 159.7 161.53 159.48 160.43C159.34 159.69 158.29 159.76 158.05 160.43C158.093 160.253 158.064 160.066 157.97 159.91C157.15 158.48 158.86 158.77 160.03 157.98C160.172 157.895 160.283 157.766 160.346 157.613C160.409 157.46 160.421 157.29 160.38 157.13C159.79 155.62 159.77 156.51 160.76 155.95C162.41 155.001 164.128 154.175 165.9 153.48C165.989 153.595 166.106 153.685 166.24 153.74C173.81 156.52 179.24 162.27 185.24 167.41C185.399 167.545 185.601 167.619 185.81 167.62C185.881 167.674 185.963 167.712 186.05 167.73C188.97 168.36 191.59 168.09 193.05 166.22C194.98 173.95 199.05 183.37 193.86 190.51C193.822 190.406 193.756 190.315 193.67 190.246C193.583 190.177 193.48 190.134 193.37 190.12L192.71 190.02C192.674 189.988 192.634 189.961 192.59 189.94L189.86 188.69C189.719 188.626 189.563 188.606 189.41 188.63C188.808 186.366 188.4 184.054 188.19 181.72C187.79 177.39 187.63 173.04 187.59 168.72C187.59 168.521 187.511 168.33 187.37 168.19C187.23 168.049 187.039 167.97 186.84 167.97C186.641 167.97 186.45 168.049 186.31 168.19C186.169 168.33 186.09 168.521 186.09 168.72C185.999 175.297 186.46 181.87 187.47 188.37C187.649 189.329 187.987 190.252 188.47 191.1C181.7 197.34 183.83 207.91 180.47 216.1C180.426 216.26 180.436 216.431 180.5 216.585C180.563 216.739 180.676 216.867 180.82 216.95C190.13 221.13 192.82 198.03 194.56 192.21C196.47 190.27 197.36 186.4 197.61 184.41C198.46 177.59 195.61 171.23 194.19 164.7C194.157 164.541 194.068 164.399 193.94 164.3C194.02 163.97 194.08 163.637 194.12 163.3C194.12 163.3 194.12 163.24 194.12 163.21C194.173 163.13 194.209 163.04 194.226 162.946C194.242 162.851 194.24 162.754 194.219 162.661C194.197 162.567 194.157 162.479 194.1 162.402C194.044 162.324 193.972 162.259 193.89 162.21C187.15 158.12 182.51 151.52 175.97 147.21C179.97 145.07 183.91 143.03 188.44 142.11C190.19 141.76 192.02 141.46 193.85 141.11C193.895 141.165 193.945 141.215 194 141.26C196.7 143.11 199.7 145.57 200.61 148.75C200.541 148.906 200.523 149.079 200.557 149.245C200.591 149.412 200.676 149.564 200.8 149.68C200.881 150.216 200.901 150.759 200.86 151.3C194.76 149.79 189.56 146.62 184.02 143.73C183.17 143.29 182.41 144.58 183.27 145.03C189.19 148.11 194.68 151.52 201.27 152.95C201.429 152.987 201.596 152.973 201.746 152.91C201.897 152.847 202.024 152.739 202.11 152.6C202.183 152.655 202.264 152.699 202.35 152.73C205.86 153.98 209.46 153.78 213.13 153.55C214.52 153.46 227.62 152.76 227.23 154.55C225.39 162.84 211.14 158.31 207.46 154.22C206.82 153.5 205.76 154.56 206.46 155.28C211.65 161.06 226.71 164.02 228.94 154C228.966 153.891 228.966 153.779 228.94 153.67C229.398 153.753 229.838 153.916 230.24 154.15C228.89 155.47 228.32 156.66 228.98 157.61C229.98 159.07 231.98 158.29 232.9 157.07C233.237 156.658 233.413 156.138 233.395 155.606C233.376 155.074 233.165 154.567 232.8 154.18C235.158 152.346 237.702 150.764 240.39 149.46C244.924 147.022 249.599 144.854 254.39 142.97C251.45 151.56 242.04 159.79 232.69 158.3C231.69 158.15 231.34 159.59 232.29 159.74C243 161.46 253.75 151.88 256.29 141.89C256.24 141.27 255.74 140.63 255.19 140.85ZM202.33 108.76C202.183 110.76 201.517 110.49 200.33 107.95C200.487 105.855 200.882 103.785 201.51 101.78C202.51 103.12 202.51 104.78 202.56 106.4C202.51 107.19 202.42 108 202.33 108.76ZM207.24 107.38C206.106 108.52 204.828 109.508 203.44 110.32C204.53 106.8 204.72 102.5 201.98 100C201.953 99.9969 201.927 99.9969 201.9 100C201.9 99.83 201.96 99.66 201.98 99.49C201.978 99.3268 201.923 99.1687 201.824 99.0391C201.725 98.9094 201.587 98.8151 201.43 98.77C200.29 98.48 199.15 98.23 198 97.99C198.475 97.524 198.994 97.1053 199.55 96.74C199.693 96.7424 199.834 96.7055 199.957 96.6332C200.081 96.5609 200.182 96.456 200.25 96.33C203.71 94.58 206.82 96.49 211.15 95.72C212.525 95.4524 213.833 94.9154 215 94.14C216.35 98.12 209.2 105.39 207.24 107.38ZM202.43 93.76C205.132 91.9248 208.44 91.208 211.66 91.76C212.488 91.9211 213.269 92.2625 213.95 92.76C211.2 94.07 207.95 94.14 204.35 93.76C203.713 93.6793 203.067 93.6793 202.43 93.76ZM184.43 33.76C183.918 32.6091 183.471 31.4306 183.09 30.23C182.71 29.07 182.4 27.9 182.09 26.71C184.15 28.33 184.83 31.24 184.41 33.79L184.43 33.76ZM181.59 24C181.36 22.61 181.17 21.2 181.01 19.79C181.475 21.1423 181.672 22.5723 181.59 24ZM180.08 11.44C180 10.83 179.92 10.23 179.83 9.62C180.87 10.07 180.65 10.63 180.08 11.47V11.44ZM180.57 50.6C178.57 46.94 176.08 44 174.57 39.98C173.134 35.6836 172.414 31.1801 172.44 26.65C172.326 18.8756 173.921 11.171 177.11 4.08C179.85 13.74 178.59 24.39 182.68 33.66C183.01 34.42 183.38 35.15 183.76 35.87C183.692 36.0324 183.685 36.2139 183.74 36.3811C183.795 36.5483 183.909 36.69 184.06 36.78L184.35 36.93C185.988 39.8001 188.301 42.227 191.09 44C195.09 46.51 200.42 46.64 204.93 47.5C205.071 47.5299 205.218 47.5184 205.353 47.467C205.488 47.4155 205.605 47.3263 205.69 47.21C209.4 48.92 213.8 49.21 216.49 52.54C217.1 53.3 218.15 52.23 217.55 51.48C215.01 48.32 211.82 47.92 208.09 46.79C202.25 45.05 197.82 37.98 195.79 32.63C193.76 27.28 194.36 21.63 192.47 16.41C191.11 12.62 187.01 11.1 185.54 7.41C203.71 16.82 211.4 35.54 218.54 53.75C222.96 65.06 225.71 76.63 219.1 87.8C218.13 89.5384 216.759 91.0196 215.1 92.12C213.941 90.9351 212.384 90.2224 210.73 90.12C208.549 90.0501 206.376 90.4196 204.34 91.2064C202.304 91.9932 200.447 93.1813 198.88 94.7C184.67 85.78 187.94 63.83 180.57 50.63V50.6ZM118.11 69.6C118.101 69.74 118.062 69.8764 117.997 70.0004C117.931 70.1245 117.84 70.2333 117.73 70.32C117.814 69.9809 117.801 69.6251 117.694 69.2928C117.586 68.9605 117.387 68.6651 117.12 68.44C117.69 68.79 118.1 69.17 118.11 69.65V69.6ZM116.31 68.1C116.15 68.0894 115.99 68.0894 115.83 68.1C115.669 68.1027 115.513 68.1593 115.388 68.2608C115.263 68.3624 115.176 68.5029 115.14 68.66C114.889 68.3848 114.741 68.0317 114.72 67.66C115.26 67.7903 115.791 67.954 116.31 68.15V68.1ZM113.82 71.22C113.911 71.1298 113.973 71.0151 114 70.89C114.052 70.7524 114.079 70.6069 114.08 70.46C114.073 70.2635 113.991 70.077 113.852 69.9379C113.713 69.7988 113.527 69.7174 113.33 69.71C112.98 69.71 112.71 69.98 112.5 70.36L112.39 70.22C112.139 69.7599 112.007 69.2442 112.007 68.72C112.007 68.1958 112.139 67.6801 112.39 67.22C112.46 67.1004 112.561 67.002 112.683 66.9351C112.804 66.8682 112.941 66.8354 113.08 66.84C113.075 66.8664 113.075 66.8936 113.08 66.92C113.146 67.8909 113.463 68.8281 114 69.64C114.59 70.28 115.84 70.44 116.6 70.78H116.8C116.419 70.9424 116.024 71.0696 115.62 71.16C115.037 71.3368 114.42 71.3745 113.82 71.27V71.22ZM113.82 71.12C113.88 70.99 113.98 70.94 113.82 71.12V71.12ZM20 42.32C19.74 37.22 20.76 32.08 22 27.16C22.6568 24.5945 23.4649 22.0701 24.42 19.6C24.75 18.74 27.14 12.12 28.02 14.67C30.72 22.5 31.84 37.67 24.8 44.05C23.64 42.42 22.12 41.49 20 42.32ZM24.83 47C24.57 46.82 24.3 46.66 24.02 46.5C24.0886 46.4881 24.1535 46.4607 24.21 46.42C24.3046 46.3635 24.3948 46.2999 24.48 46.23C24.6146 46.4781 24.7316 46.7354 24.83 47ZM39.77 73.24C36.19 69.98 32.27 67.12 28.63 63.92C26.2363 61.8081 24.1465 59.375 22.42 56.69C21.73 55.62 16.69 46.1 20.6 46.77C25.08 47.53 29.06 52.42 31.6 55.77C35.3784 60.5176 38.6307 65.661 41.3 71.11C40.8694 71.2836 40.4969 71.5759 40.226 71.953C39.9551 72.3302 39.797 72.7765 39.77 73.24ZM11.12 74.8C10.9918 74.7261 10.8447 74.6918 10.697 74.7014C10.5494 74.7109 10.4079 74.7639 10.2903 74.8537C10.1727 74.9435 10.0843 75.0661 10.0362 75.206C9.98812 75.3459 9.98248 75.4969 10.02 75.64C10.08 76.01 10.15 76.36 10.23 76.71C1.6 68.08 -1.19209e-06 52.49 2.41 41C7.13 47.1 7.35 55.63 8.26 63C8.75 67 9.37 71.41 11.41 75L11.12 74.8ZM33 97.22C32.8387 97.3232 32.7216 97.4829 32.6717 97.6678C32.6218 97.8527 32.6426 98.0496 32.73 98.22C32.8492 98.487 32.9828 98.7474 33.13 99C29.13 100.17 24.05 94.47 21.8 92C19.2 89.21 15.4 84.9 14.58 80.8C23.12 83.73 27 92.7 35.12 96.44C34.3752 96.5816 33.6589 96.8451 33 97.22ZM41.62 123.59C40.84 121.59 40.0767 119.59 39.33 117.59C39.18 117.2 40.27 117.08 41.84 117.1C42.92 118.27 43.09 120.16 43.19 121.65C43.23 122.61 42.44 125.72 41.6 123.59H41.62ZM159.54 195.32C158.84 196.32 158.12 197.38 157.35 198.37C155.976 200.029 154.385 201.495 152.62 202.73C154.258 199.718 156.632 197.169 159.52 195.32H159.54ZM186.49 212.87C186.046 213.653 185.497 214.373 184.86 215.01C184.63 215.25 181.76 216.66 182.32 215.27C183.16 212.866 183.701 210.367 183.93 207.83C184.71 202.13 185.02 196.19 189.27 192.22C189.686 192.659 190.209 192.982 190.787 193.157C191.366 193.333 191.98 193.354 192.57 193.22C190.6 199.83 189.85 206.77 186.47 212.87H186.49ZM190.54 191.3C190.826 191.316 191.114 191.316 191.4 191.3C191.89 191.36 192.4 191.42 192.87 191.51C192.725 191.694 192.536 191.838 192.321 191.931C192.106 192.023 191.871 192.061 191.638 192.04C191.405 192.019 191.181 191.941 190.985 191.812C190.79 191.682 190.63 191.507 190.52 191.3H190.54ZM157.32 78.92C156.976 79.8066 156.386 80.5767 155.62 81.14C155.623 81.1134 155.623 81.0866 155.62 81.06C156.42 80.62 155.68 79.39 154.83 79.8C154.21 80.1 153.38 79.62 152.92 79.24C152.599 78.9585 152.344 78.6105 152.171 78.2202C151.998 77.8299 151.913 77.4067 151.92 76.98C152.904 76.9242 153.89 77.0672 154.817 77.4005C155.745 77.7338 156.596 78.2506 157.32 78.92ZM153 83C153.386 83.0964 153.782 83.1434 154.18 83.14C154.18 84.33 154.18 85.52 154.18 86.71C153.59 86.45 152.99 86.19 152.38 85.94C152.406 85.9032 152.426 85.8628 152.44 85.82C152.708 84.8981 152.896 83.9545 153 83ZM152.94 81.07C153.322 81.2606 153.743 81.3631 154.17 81.37V81.63C153.764 81.6493 153.358 81.5811 152.98 81.43C153 81.35 153 81.23 152.94 81.11V81.07ZM151.38 80.28C150.89 79.7258 150.608 79.0191 150.58 78.28C150.57 78.1836 150.57 78.0864 150.58 77.99C150.776 78.717 151.116 79.3972 151.58 79.99C151.483 80.0787 151.414 80.1932 151.38 80.32V80.28ZM75.26 47C75.1292 44.8131 75.4703 42.6236 76.26 40.58C77.22 42.27 76.19 44.71 75.26 47ZM75.52 49.88C75.5986 49.8133 75.6631 49.7318 75.71 49.64L75.93 49.83C76 49.88 75.8 49.89 75.52 49.87V49.88ZM140.52 19.6C141.99 20.09 143.42 18.53 144.69 18.85C145.876 19.1403 147.114 19.1403 148.3 18.85C144.94 20.05 141.85 21.18 137.67 20.33C137.06 20.2 136.46 20.05 135.87 19.87C137.51 18.79 138.37 18.88 140.47 19.59L140.52 19.6ZM127.18 13L128.7 12.88L129.34 12.82C128.45 13.12 127.72 13.77 127.18 13ZM125.79 13.62C126.168 14.4226 126.663 15.1641 127.26 15.82C126.79 15.51 126.34 15.2 125.9 14.89C125.1 14.32 124.34 13.74 123.58 13.2C124.31 13.2 125.02 13.15 125.72 13.11C125.692 13.2669 125.716 13.4286 125.79 13.57V13.62ZM130.65 12.71C131.82 12.59 132.98 12.45 134.14 12.29C133.066 12.8514 131.818 12.9836 130.65 12.66V12.71ZM144.83 12.61C144.31 12.16 144.19 11.86 143.49 11.67C142.794 11.5853 142.09 11.7367 141.49 12.1C140.736 12.5158 139.893 12.7422 139.032 12.7596C138.172 12.777 137.32 12.585 136.55 12.2C136.354 12.1224 136.149 12.0687 135.94 12.04C140.009 11.3802 144.112 10.9528 148.23 10.76H148.5C147.71 11.34 145.81 13.4 144.83 12.56V12.61ZM154.61 11C153.24 12.4 151.61 12.38 149.61 10.92C149.539 10.8341 149.454 10.7598 149.36 10.7C151.121 10.7003 152.88 10.8004 154.63 11H154.61ZM155.61 11.27C155.574 11.2079 155.527 11.1535 155.47 11.11C156.74 11.28 158.01 11.5 159.25 11.79C158 12.69 156.83 12.53 155.63 11.27H155.61ZM110 1.45C114.6 1.14 119 2.68 123.47 3.5C137.24 6 154.61 -1.95 164 11.69C154.83 7.59 143.23 9.94 133.82 10.83C129.73 11.22 125.01 12.06 120.75 11.44C119.804 10.9966 118.79 10.716 117.75 10.61H117.57C116.262 10.1426 115.052 9.43741 114 8.53C111.34 6.2 109.47 3.53 106.45 1.97C107.617 1.7003 108.804 1.52639 110 1.45ZM78.86 25.53C79.35 15.69 88.72 10.84 96.32 6.35C98.7869 4.81711 101.416 3.56276 104.16 2.61C108.76 4 111.16 8.37 114.83 11.11C116.611 12.3037 118.688 12.9789 120.83 13.06C123.52 14.39 125.93 16.74 128.39 18.18C131.596 20.1298 135.147 21.4438 138.85 22.05C142.66 22.54 145.64 21.7 149.17 20.28C153.495 18.5558 158.139 17.7784 162.79 18C158.21 20.14 154.68 24.05 150.18 26.51C142.59 30.66 132.83 29.18 124.58 30.83C117.02 32.35 110.06 36.29 102.84 38.83C98.02 40.55 83.44 44.29 79.94 37.91C81.2 34.52 78.45 29.39 77.65 26.1C77.7619 26.1749 77.8913 26.2196 78.0256 26.2297C78.1599 26.2397 78.2945 26.2149 78.4163 26.1575C78.5382 26.1001 78.6431 26.0121 78.7208 25.9022C78.7986 25.7922 78.8465 25.664 78.86 25.53ZM70.75 32C71.52 28.94 73.63 27.75 76.26 26.7C76.99 29.25 79.11 33.64 78.76 36.51C78.5847 36.5164 78.4163 36.5796 78.28 36.69C77.83 36.3 76.97 36.46 77.04 37.2C77.11 37.94 77.17 38.51 77.23 39.2L76.89 38.81L77 38.54C77.29 37.83 76.44 37.38 75.89 37.66C74.1532 35.7873 72.2523 34.0738 70.21 32.54C70.3443 32.5157 70.468 32.451 70.5645 32.3545C70.661 32.258 70.7257 32.1343 70.75 32ZM66.06 36.94C66.684 35.7605 67.446 34.6595 68.33 33.66C69.04 32.87 70.11 34.34 70.76 34.9C72.2732 36.2616 73.712 37.7037 75.07 39.22C74.0652 41.6535 73.6177 44.281 73.76 46.91C73.05 46.68 72.35 46.49 71.76 46.33C69.64 45.77 66.53 45.19 64.59 46.57C64.1864 44.9473 64.1085 43.2608 64.3608 41.6078C64.6132 39.9549 65.1907 38.3684 66.06 36.94ZM74.36 49.54C74.3879 49.6163 74.4285 49.6873 74.48 49.75L74 49.66C72.9 49.35 71.84 48.91 70.78 48.51C69.5344 47.8921 68.1698 47.551 66.78 47.51C66.7638 47.4396 66.7368 47.3721 66.7 47.31C69.2264 46.9803 71.7933 47.4267 74.06 48.59C74.14 48.9 74.23 49.21 74.34 49.52L74.36 49.54ZM72.3 75.48C71.41 72.35 69.45 69.48 67.85 66.68C65.47 62.54 59.85 51.81 65.95 48.48C66.0077 48.6587 66.1296 48.8097 66.2921 48.9039C66.4546 48.9981 66.6462 49.0288 66.83 48.99C67.91 48.76 69.43 49.59 70.41 49.99C71.8363 50.5922 73.3117 51.0707 74.82 51.42C75.3431 51.4975 75.877 51.453 76.38 51.29C78.52 54.72 79.97 58.52 82.38 61.77C85.2285 65.4568 87.8085 69.3435 90.1 73.4C84.86 75.64 80.21 80.65 75.41 84.1C75.3802 84.0477 75.3468 83.9976 75.31 83.95C73.26 82 73.06 78.12 72.3 75.48ZM72.39 86L71.78 86.31C71.732 86.0028 71.634 85.7056 71.49 85.43L72.39 86ZM69.1 85.68C69.1573 85.5865 69.1925 85.4811 69.2029 85.3719C69.2133 85.2628 69.1986 85.1526 69.16 85.05C69.4405 85.1958 69.6887 85.3967 69.8897 85.6407C70.0908 85.8847 70.2405 86.1668 70.33 86.47C69.65 86.7 68.96 86.93 68.33 87.18C68.4175 86.9545 68.5176 86.7342 68.63 86.52L69.1 85.68ZM70.63 89.16L67.63 89.45C67.4319 89.4526 67.2426 89.5324 67.1025 89.6725C66.9624 89.8126 66.8826 90.0019 66.88 90.2C66.6191 90.8122 66.1926 91.3396 65.6486 91.723C65.1045 92.1063 64.4643 92.3303 63.8 92.37L63.24 92C63.2876 91.9604 63.3282 91.9131 63.36 91.86C63.48 91.62 63.59 91.37 63.7 91.14C63.7382 91.2614 63.8072 91.3709 63.9001 91.4579C63.993 91.5449 64.1068 91.6064 64.2305 91.6366C64.3541 91.6668 64.4835 91.6645 64.606 91.6301C64.7286 91.5956 64.8402 91.5302 64.93 91.44C65.56 90.72 66.16 89.97 66.75 89.21C66.8586 89.2645 66.9785 89.2929 67.1 89.2929C67.2215 89.2929 67.3414 89.2645 67.45 89.21C68.3653 88.7669 69.3151 88.399 70.29 88.11C70.3827 88.4664 70.4962 88.817 70.63 89.16ZM52.53 83.45C51.23 82.36 49.92 81.23 48.53 80.23C48.53 80.23 39.9 73.99 45.23 73.58C50.15 73.21 56 76.7 60.16 78.8C62.8 80.14 65.36 81.64 67.89 83.19C67.7931 83.2613 67.7159 83.3561 67.6657 83.4654C67.6155 83.5747 67.5939 83.695 67.6029 83.8149C67.6119 83.9349 67.6512 84.0506 67.7172 84.1512C67.7831 84.2518 67.8736 84.3339 67.98 84.39L68.39 84.61C68.275 84.6156 68.1626 84.6462 68.0607 84.6997C67.9588 84.7533 67.8698 84.8285 67.8 84.92C67.5816 85.2152 67.3908 85.5299 67.23 85.86C66.85 86.46 66.46 87.04 66.05 87.61C66.34 86.53 66.63 85.46 66.91 84.38C66.9349 84.2625 66.9322 84.1409 66.9024 84.0246C66.8725 83.9082 66.8162 83.8004 66.7378 83.7094C66.6594 83.6184 66.561 83.5468 66.4504 83.5001C66.3398 83.4533 66.2199 83.4328 66.1 83.44C66.089 83.2663 66.018 83.1019 65.8991 82.9748C65.7802 82.8477 65.6208 82.766 65.4483 82.7435C65.2757 82.7211 65.1007 82.7593 64.9532 82.8517C64.8058 82.9441 64.695 83.0849 64.64 83.25C63.9 85.91 62.79 88.43 62.04 91.08C58.76 88.68 55.66 86.06 52.53 83.45ZM46.28 107.16C43.5742 106.109 41.2541 104.256 39.63 101.85C38.83 100.57 38.63 99.66 38.77 99.03C38.891 99.0423 39.0132 99.0257 39.1265 98.9817C39.2399 98.9376 39.3412 98.8674 39.4221 98.7766C39.5031 98.6859 39.5614 98.5773 39.5924 98.4597C39.6233 98.3421 39.6259 98.2188 39.6 98.1C41.42 97.23 45.66 98.1 48.35 98.7C48.3455 98.7599 48.3455 98.8201 48.35 98.88C48.7392 99.6723 49.1871 100.434 49.69 101.16C49.2283 100.512 48.6562 99.95 48 99.5C47.8276 99.3992 47.6222 99.371 47.4291 99.4217C47.2359 99.4723 47.0708 99.5976 46.97 99.77C46.8692 99.9424 46.841 100.148 46.8917 100.341C46.9423 100.534 47.0676 100.699 47.24 100.8C47.3748 100.87 47.5021 100.954 47.62 101.05C47.5546 101.156 47.5243 101.279 47.5333 101.403C47.5422 101.527 47.5901 101.645 47.67 101.74C48.27 102.51 48.84 103.26 49.45 103.98C49.3084 103.994 49.1732 104.046 49.0592 104.131C48.9451 104.216 48.8565 104.331 48.8029 104.463C48.7494 104.595 48.7329 104.739 48.7553 104.879C48.7777 105.02 48.8381 105.151 48.93 105.26C50.1062 106.796 51.5088 108.145 53.09 109.26C50.7512 108.806 48.4681 108.102 46.28 107.16ZM55.12 107.68C55.2749 108.056 55.3233 108.468 55.26 108.87C54.6152 108.495 53.994 108.081 53.4 107.63C53.5685 107.63 53.7364 107.61 53.9 107.57C54.23 107.47 54.65 107.1 54.65 106.74C54.65 106.74 54.4 106.68 54.39 106.66C54.38 106.64 54.25 106.53 54.23 106.47C54.0155 106.035 53.7785 105.611 53.52 105.2C54.21 105.77 54.92 106.29 55.67 106.8C55.4826 106.848 55.3207 106.966 55.2182 107.13C55.1158 107.293 55.0806 107.491 55.12 107.68ZM56.68 109.63C56.8304 109.144 56.8511 108.627 56.74 108.13L57.38 108.05C57.4126 108.094 57.4534 108.131 57.5 108.16C58.0206 108.425 58.5667 108.636 59.13 108.79C59.37 108.92 59.62 109.03 59.86 109.15C59.93 109.15 60.02 109.23 60.08 109.28C58.965 109.534 57.8233 109.651 56.68 109.63ZM64.68 118.28C64.4933 118.255 64.3037 118.289 64.1371 118.377C63.9705 118.465 63.8353 118.602 63.75 118.77C63.64 118.45 63.54 118.13 63.42 117.77C63.3982 117.712 63.3679 117.658 63.33 117.61C64.4043 117.654 65.4739 117.778 66.53 117.98C66.553 117.985 66.577 117.985 66.6 117.98C66.82 118.15 67.02 118.3 67.21 118.43C67.1429 118.401 67.0723 118.381 67 118.37C66.25 118.34 65.49 118.41 64.71 118.28H64.68ZM66.87 128.58V128.52L67.02 128.46V128.54L66.87 128.58ZM67.35 123.4C67.35 123.11 67.24 122.82 67.17 122.54L67.93 122.65C67.7209 122.88 67.5366 123.131 67.38 123.4H67.35ZM67 121.16C66.9074 121.243 66.8296 121.341 66.77 121.45C66.6576 121.367 66.5256 121.316 66.387 121.3C66.2484 121.284 66.1081 121.305 65.98 121.36V121.23C66.1221 120.907 66.3269 120.614 66.5827 120.371C66.8384 120.127 67.14 119.936 67.47 119.81C68.02 119.58 67.92 119 67.58 118.66C68.66 119.44 69 119.61 67 121.16ZM72 127.99C70.87 128.19 69.76 128.26 68.64 128.37C68.55 128.09 68.45 127.82 68.34 127.55C68.66 127.26 68.98 126.97 69.34 126.67C69.4185 126.684 69.499 126.681 69.5765 126.662C69.6539 126.643 69.7266 126.608 69.79 126.56L70.11 126.31C70.1153 126.436 70.1508 126.559 70.2134 126.669C70.276 126.778 70.364 126.871 70.47 126.94C71.17 127.42 71.93 127.63 72.32 128C72.1952 127.969 72.0648 127.969 71.94 128L72 127.99ZM69.3 122.89C69.5864 122.924 69.8616 123.022 70.1055 123.176C70.3494 123.33 70.5559 123.536 70.71 123.78C70.0029 123.985 69.3292 124.292 68.71 124.69C68.92 124.25 69.14 123.81 69.32 123.34C69.3506 123.185 69.3221 123.025 69.24 122.89H69.3ZM115.53 156.26C113.63 155.71 106.53 153.66 98.86 150.83C104.095 151.125 109.28 152.004 114.32 153.45C119.39 154.73 125.97 156.33 129.93 160.13C125 159 120.23 157.66 115.47 156.26H115.53ZM173.53 179.92C173.526 180.705 173.258 181.466 172.77 182.08C172.53 181.98 172.29 181.89 172.04 181.81C171.31 181.56 170.93 182.42 171.25 182.94C169.39 183.33 166.79 182.39 164.86 181.29C167.69 182.18 171.28 182.29 173.41 180.07C173.422 180.021 173.432 179.97 173.44 179.92H173.53ZM159.27 165.27C162.141 166.634 164.93 168.167 167.62 169.86C170.83 172 176.35 179.52 169.3 180.33C161.72 181.2 159.3 173.54 153.54 170.86C154.853 170.437 156.048 169.71 157.028 168.739C158.008 167.768 158.745 166.579 159.18 165.27H159.27ZM152.94 169.78C155.158 168.586 156.956 166.739 158.09 164.49C157.814 165.781 157.174 166.965 156.245 167.902C155.316 168.84 154.138 169.492 152.85 169.78H152.94ZM158.03 160.56C157.273 163.325 155.655 165.777 153.41 167.56C150.41 169.79 148.12 167.66 146.79 164.98C148.251 165.1 149.719 165.1 151.18 164.98C151.343 164.974 151.501 164.918 151.631 164.82C151.762 164.721 151.859 164.585 151.91 164.43C152.358 163.37 153.121 162.473 154.096 161.861C155.071 161.249 156.21 160.952 157.36 161.01C157.484 160.984 157.601 160.93 157.702 160.852C157.802 160.774 157.884 160.674 157.94 160.56H158.03ZM190.38 166.41C189.289 166.645 188.161 166.645 187.07 166.41C188.039 165.36 189.283 164.601 190.66 164.22C190.48 164.94 190.38 165.67 190.29 166.41H190.38ZM191.82 162.58C190.281 162.743 188.796 163.241 187.47 164.04C187.11 164.25 185.84 165.92 185.07 165.25C183.84 164.25 182.66 163.11 181.47 162.03C177.26 158.22 172.97 154.83 167.72 152.68C167.849 152.571 167.935 152.419 167.961 152.251C167.986 152.084 167.951 151.913 167.86 151.77C167.772 151.643 167.672 151.526 167.56 151.42C170.07 150.33 172.46 149.03 174.85 147.73C174.839 147.86 174.864 147.99 174.923 148.106C174.981 148.223 175.07 148.321 175.18 148.39C181.21 152.42 185.66 158.46 191.73 162.58H191.82ZM185.65 141.09C178.43 142.72 172.54 147.93 165.71 150.57C165.571 150.613 165.447 150.695 165.353 150.806C165.259 150.917 165.199 151.053 165.18 151.197C165.161 151.342 165.184 151.488 165.246 151.62C165.308 151.752 165.407 151.863 165.53 151.94C166.69 152.8 165.48 151.94 164.05 152.57C162.181 153.408 160.368 154.363 158.62 155.43C158.523 155.49 158.441 155.57 158.378 155.666C158.316 155.761 158.276 155.869 158.261 155.982C158.246 156.095 158.255 156.21 158.29 156.318C158.324 156.427 158.382 156.527 158.46 156.61C158.74 156.9 156.46 158.28 156.29 158.39C156.127 158.492 156.008 158.651 155.958 158.837C155.908 159.022 155.93 159.22 156.02 159.39L156.14 159.6C154.793 159.663 153.498 160.137 152.43 160.96C151.61 161.71 150.99 163.48 150.22 163.5C147.307 163.452 144.407 163.117 141.56 162.5C138.33 161.95 135.11 161.29 131.91 160.56C131.955 160.435 131.966 160.301 131.941 160.171C131.917 160.041 131.857 159.92 131.77 159.82C128 155.51 121.24 153.82 115.97 152.29C109.83 150.55 103.08 149.06 96.66 149.29C96.5294 149.291 96.4018 149.329 96.292 149.4C96.1823 149.471 96.0949 149.571 96.04 149.69C93.68 148.77 91.33 147.79 89.12 146.76C98.41 146.27 106.25 140.76 115.9 143.17C126.07 145.73 134.49 154.46 141.11 162.17C141.74 162.9 142.8 161.84 142.17 161.11C135.4 153.29 127.58 145.91 117.74 142.23C106.96 138.23 98.13 145.5 87.5 145.35C87.3714 145.342 87.2435 145.373 87.1328 145.439C87.0222 145.505 86.9341 145.603 86.88 145.72C79.68 142.1 74.64 138.03 77.09 134.31C77.1807 134.141 77.2043 133.944 77.1561 133.759C77.1079 133.574 76.9914 133.413 76.83 133.31C75.58 132.67 75.31 132.43 75.01 131.04C74.94 130.75 74.01 129.58 73.73 130.04C74.1032 129.343 74.437 128.625 74.73 127.89C74.7573 127.795 74.7654 127.696 74.7539 127.599C74.7425 127.501 74.7116 127.406 74.6632 127.321C74.6148 127.235 74.5498 127.16 74.4719 127.1C74.3941 127.04 74.3051 126.995 74.21 126.97C71.47 126.19 72.21 125.52 72.89 123.31C72.9173 123.215 72.9254 123.116 72.9139 123.019C72.9025 122.921 72.8716 122.826 72.8232 122.741C72.7748 122.655 72.7098 122.58 72.6319 122.52C72.5541 122.46 72.4651 122.415 72.37 122.39C71.2312 122.136 70.1117 121.802 69.02 121.39C69.54 120.92 70.02 120.39 70.61 119.96C70.6898 119.878 70.75 119.779 70.7863 119.671C70.8226 119.562 70.834 119.447 70.8196 119.334C70.8051 119.22 70.7653 119.112 70.7031 119.016C70.6408 118.92 70.5577 118.839 70.46 118.78C69.5462 118.369 68.6973 117.826 67.94 117.17C68.6515 116.792 69.3394 116.371 70 115.91C70.1233 115.833 70.2217 115.722 70.2837 115.59C70.3457 115.458 70.3685 115.312 70.3496 115.167C70.3306 115.023 70.2706 114.887 70.1768 114.776C70.0829 114.665 69.9591 114.583 69.82 114.54C68.82 114.16 67.82 113.7 66.82 113.24C67.99 113.18 69.16 113.13 70.34 113.15C70.5197 113.148 70.6926 113.081 70.8272 112.962C70.9618 112.843 71.0491 112.679 71.0734 112.501C71.0976 112.323 71.0571 112.142 70.9592 111.992C70.8613 111.841 70.7125 111.73 70.54 111.68C68.27 110.91 66 110.11 63.78 109.2C63.8321 109.056 63.8393 108.899 63.8007 108.751C63.7621 108.602 63.6795 108.469 63.5637 108.368C63.448 108.268 63.3045 108.204 63.1521 108.187C62.9997 108.169 62.8456 108.198 62.71 108.27C62.55 108.37 62.37 108.44 62.21 108.52C61.57 108.24 60.94 107.94 60.32 107.63C60.48 107.63 60.63 107.51 60.78 107.45L60.96 107.38C61.77 107.01 61.16 105.85 60.38 106.01C59.6 106.17 58.82 106.32 58.04 106.45C56.6435 105.666 55.3065 104.78 54.04 103.8C52.93 102.94 49.43 99.99 50.38 98.89C50.4404 98.8481 50.4943 98.7976 50.54 98.74C50.6245 98.6834 50.715 98.6364 50.81 98.6C52.97 97.85 55.24 97.37 57.44 96.73C59.1197 96.2774 60.7235 95.5799 62.2 94.66C63.47 93.82 63.84 94.13 65.43 93.81C65.937 93.7817 66.4307 93.6371 66.8729 93.3874C67.3151 93.1376 67.6939 92.7896 67.98 92.37C68.98 90.6 69.35 90.76 71.75 90.55C71.8962 90.5454 72.0379 90.4987 72.1583 90.4155C72.2786 90.3324 72.3723 90.2163 72.4283 90.0811C72.4842 89.946 72.5 89.7976 72.4737 89.6537C72.4474 89.5098 72.3801 89.3766 72.28 89.27C70.78 87.49 72.68 87.57 74.22 86.71C76.4121 85.3796 78.4864 83.8641 80.42 82.18C85.28 78.24 91.02 72.45 97.79 74.07C97.804 74.2149 97.861 74.3523 97.9536 74.4645C98.0463 74.5768 98.1704 74.6588 98.31 74.7C112.47 79.2 127.42 80.46 141.77 84.22C149.1 85.9676 156.084 88.9356 162.43 93C165.9 95.3634 168.92 98.3264 171.35 101.75C172.89 103.89 177.46 110.4 175.06 112.52C174.98 112.601 174.92 112.699 174.884 112.807C174.848 112.914 174.836 113.029 174.851 113.141C174.865 113.254 174.905 113.362 174.967 113.457C175.029 113.552 175.112 113.632 175.21 113.69C174.48 113.18 179.32 117.22 179.5 116.53C179.19 117.7 177.45 117.23 176.34 117.1C176.194 117.105 176.052 117.151 175.932 117.234C175.811 117.318 175.718 117.434 175.662 117.569C175.606 117.704 175.59 117.852 175.616 117.996C175.643 118.14 175.71 118.273 175.81 118.38C184.049 125.588 193.435 131.368 203.58 135.48C198.85 139.58 191.42 139.77 185.56 141.09H185.65ZM202.37 151.2C202.405 150.754 202.405 150.306 202.37 149.86C202.65 150.08 202.67 150.52 202.28 151.2H202.37ZM230.37 156.79C230.616 156.284 230.929 155.813 231.3 155.39C231.373 155.582 231.43 155.779 231.47 155.98L230.37 156.79Z" fill="white"/>
<path d="M203 132.89C208.35 133.72 214.37 133.44 214.55 127.89C215.37 128.89 216.15 129.89 216.96 130.89C217.49 131.55 218.3 130.8 218.21 130.16C216.27 116.63 196.21 122.59 187.28 120.97C186.34 120.8 185.93 122.24 186.88 122.42C188.204 122.619 189.541 122.712 190.88 122.7C190.775 122.747 190.683 122.82 190.613 122.911C190.542 123.003 190.496 123.11 190.477 123.224C190.458 123.338 190.468 123.455 190.505 123.564C190.542 123.673 190.606 123.771 190.69 123.85C190.742 123.908 190.799 123.962 190.86 124.01C190.751 124.16 190.705 124.346 190.73 124.53L189.47 124.12C188.78 123.93 188.16 124.88 188.74 125.38C191.334 127.525 194.37 129.072 197.63 129.91C197.739 129.935 197.853 129.936 197.963 129.912C198.072 129.889 198.176 129.841 198.265 129.774C198.355 129.706 198.428 129.62 198.481 129.521C198.534 129.421 198.564 129.312 198.57 129.2C199.66 130.11 200.75 131.01 201.81 131.95C201.896 132.027 201.998 132.082 202.11 132.112C202.221 132.141 202.337 132.144 202.45 132.12C202.424 132.207 202.418 132.3 202.434 132.39C202.449 132.48 202.484 132.565 202.537 132.639C202.59 132.714 202.659 132.775 202.74 132.818C202.82 132.862 202.909 132.886 203 132.89ZM195.72 123.36C195.605 123.264 195.464 123.203 195.315 123.184C195.166 123.166 195.015 123.191 194.88 123.256C194.745 123.322 194.631 123.425 194.553 123.553C194.475 123.682 194.436 123.83 194.44 123.98C194.32 123.986 194.204 124.02 194.1 124.08C193.31 123.59 192.5 123.08 191.65 122.71C198.78 122.63 208.55 121.29 213.59 125.02C213.48 125.03 213.374 125.064 213.277 125.118C213.181 125.172 213.097 125.246 213.031 125.335C212.965 125.423 212.919 125.525 212.894 125.632C212.87 125.74 212.869 125.852 212.89 125.96C214.25 132.61 207.76 132.12 203.4 131.45C203.308 131.43 203.212 131.43 203.12 131.45C203.129 131.31 203.094 131.17 203.02 131.05C201.1 128 198.38 125.72 195.7 123.36H195.72Z" fill="white"/>
<path d="M267 91.15C266.957 91.0109 266.875 90.8871 266.764 90.7932C266.653 90.6994 266.517 90.6394 266.373 90.6204C266.228 90.6015 266.082 90.6243 265.95 90.6863C265.818 90.7483 265.707 90.8467 265.63 90.97C258.42 102.35 252.86 116.12 238.38 119.49C238.221 119.531 238.08 119.624 237.98 119.754C237.88 119.885 237.827 120.046 237.83 120.21C237.83 120.723 237.83 121.213 237.83 121.68C236.995 121.713 236.182 121.95 235.46 122.37C234.49 121.903 233.449 121.602 232.38 121.48C226.84 121.08 221.31 123.09 215.78 122.54C214.78 122.44 214.83 123.94 215.78 124.04C219.39 124.39 223.15 123.61 226.78 123.25C227.78 123.14 239.13 122.72 236.26 126.25C234.47 128.49 229.43 128.78 226.85 129.12C224.279 129.534 221.67 129.665 219.07 129.51C218.07 129.42 218.12 130.92 219.07 131.01C222.661 131.196 226.261 130.913 229.78 130.17C232.34 129.73 237 129.05 237.99 126.17C238.073 125.936 238.113 125.688 238.11 125.44L238.78 126.06C238.944 126.405 239.131 126.739 239.34 127.06C239.399 127.151 239.477 127.228 239.569 127.287C239.66 127.345 239.763 127.384 239.87 127.4C239.26 127.4 238.65 127.47 238.04 127.46C237.841 127.46 237.65 127.539 237.51 127.68C237.369 127.82 237.29 128.011 237.29 128.21C237.29 128.409 237.369 128.6 237.51 128.74C237.65 128.881 237.841 128.96 238.04 128.96C256.22 129.13 274.22 109.31 267 91.15ZM240.25 127.37C240.35 127.333 240.438 127.27 240.505 127.187C240.572 127.105 240.615 127.005 240.63 126.9C240.94 124.85 240.52 123.11 239.47 122.25C240.17 120.06 243.77 119.49 246.54 117.98C249.529 116.199 252.188 113.915 254.4 111.23C259.16 105.82 262.4 99.23 266.1 93.08C271.17 109.14 256.28 126 240.29 127.37H240.25Z" fill="white"/>
</g>
<defs>
<clipPath id="clip0">
<rect width="268.66" height="221.05" fill="white"/>
</clipPath>
</defs>
</svg>
