<svg xmlns="http://www.w3.org/2000/svg" viewBox="0 0 494 526"><defs><style>.a{fill:#d14f5c;}</style></defs><title>icon-qualification</title><path class="a" d="M221.62,321.62l44.2,30.22a8.45,8.45,0,0,0,9.59,0l44.07-30.21c15.31-10.45,26.61-32.28,26.61-50.8V209.68a8.35,8.35,0,0,0-4.57-7.69l-67.3-33.11a8.45,8.45,0,0,0-7.5,0l-67.18,33a8.36,8.36,0,0,0-4.56,7.7v61.24C195,289.35,206.31,311.18,221.62,321.62Z" transform="translate(0 -100)"/><path d="M441.91,100H122.47c-27.72,0-50.28,32.34-50.28,59.72L70.13,511H7.79C3.37,511,0,514.91,0,519.32V558c0,36.23,29,65.87,64,67.5V626H333v-.52c2,.08,3.21.52,4.59.52h.19A67.61,67.61,0,0,0,405,558V242h81.21c4.42,0,7.79-4,7.79-8.41v-71C494.05,133.69,470.77,100.21,441.91,100ZM67.5,610h0C39,610,16,586.48,16,558V527H270v30.89a67.71,67.71,0,0,0,19.77,48.05c1.35,1.36,2.76,2.06,4.21,4.06ZM389,558c0,28.46-22.77,52-51.23,52h-.17A52,52,0,0,1,286,557.9V519.32a8.29,8.29,0,0,0-8-8.32H86.13l2.06-351.23c0-18.6,15.38-43.77,34.28-43.77H404.14C395,126,389,148.65,389,162.77ZM478,162.7V226H405V162.76c0-20,16.66-46.76,36.67-46.76h.22c20.07.2,36.2,26.57,36.11,46.64Z" transform="translate(0 -100)"/><path d="M187.86,306.91l41.24,28.2a7.86,7.86,0,0,0,8.94,0l41.12-28.19c14.29-9.74,24.84-30.12,24.84-47.4v-57a7.8,7.8,0,0,0-4.27-7.18l-62.8-30.9a7.88,7.88,0,0,0-7,0L167.26,195.2a7.8,7.8,0,0,0-4.26,7.18v57.14C163,276.8,173.57,297.18,187.86,306.91ZM179,207.38l54.5-26.9,54.5,27v52.07c0,12.05-7.9,27.38-17.86,34.18l-36.73,25.12L196.82,293.7c-10-6.8-17.82-22.13-17.82-34.18Z" transform="translate(0 -100)"/><path d="M220,271.6a8,8,0,0,0,5.66,2.4h0a8,8,0,0,0,5.66-2.37l31.82-31.83a8,8,0,0,0-11.31-11.33l-26.14,26.14-10.45-10.55a8,8,0,1,0-11.37,11.27Z" transform="translate(0 -100)"/><path d="M333,398H141a8,8,0,0,0,0,16H333a8,8,0,0,0,0-16Z" transform="translate(0 -100)"/><path d="M333,435H141a8,8,0,0,0,0,16H333a8,8,0,0,0,0-16Z" transform="translate(0 -100)"/></svg>