<?xml version="1.0" encoding="utf-8"?>
<!-- Generator: Adobe Illustrator 22.0.1, SVG Export Plug-In . SVG Version: 6.00 Build 0)  -->
<svg version="1.1" id="Слой_1" xmlns="http://www.w3.org/2000/svg" xmlns:xlink="http://www.w3.org/1999/xlink" x="0px" y="0px"
	 viewBox="0 0 569 559" style="enable-background:new 0 0 569 559;" xml:space="preserve">
<style type="text/css">
	.st0{fill:#D14F5C;}
</style>
<title>017 - Pet Insurance</title>
<desc>Created with Sketch.</desc>
<g id="Page-1">
	<g id="_x30_17---Pet-Insurance" transform="translate(0.000000, -1.000000)">
		<path id="Shape_3_" class="st0" d="M432.8,270.8l-89.5,38.1c-3.7,1.6-6.1,5.2-6,9.2v105.2c0.1,17.4,8.7,33.5,23,43.4l70.7,49.6
			c3.4,2.4,8,2.4,11.4,0l70.8-49.6c14.3-9.9,22.9-26.1,23-43.4V318c0-4-2.4-7.6-6-9.2l-89.5-38.1
			C438.1,269.7,435.3,269.7,432.8,270.8z"/>
		<path id="Shape" d="M486.1,221.6c36.9-13.6,25.3-63.1,19.6-87.3c-0.6-2.4-1.1-4.6-1.5-6.6c-1.5-13.8-12.4-24.6-26.2-26
			c-9-1.5-18.1-2.3-26.8-3.1c-9.3-0.9-18.2-1.6-27-3.2c-18.4-3.2-25.1-9.2-26.4-23.9l-0.2-2.2c-0.2-8.7-2.2-17.3-5.9-25.2
			c-7.2-12.9-18.6-23.1-32.3-28.8C338.5,7.3,316.4,2.8,293.9,2c-22.8-2.5-45.8-1-68.1,4.4c-18.7,5.9-36.4,14.4-52.7,25.2
			c-6.3,3.8-12.6,7.6-18.9,11c-26.4,14.3-45.1,42.6-52.7,79.5l-0.7,3.5c-2.5,10-3.8,20.2-4,30.4c0.6,15.5,14.3,24,21.7,28.6
			c2.1,1.3,4.1,2.7,6.2,4c2.3,22.7-15.4,60.5-50,106.5c-0.4,0.5-10.8,13.3-62.5,28.8C4.9,326,0,332.7,0,340.2v155.7
			c0,9.4,7.6,17.1,17.1,17.1h315.7c9.4,0,17.1-7.6,17.1-17.1v-9.6l34.1,23.9c5.1,3.6,11.9,3.6,17.1,0l76.7-53.8
			c21.4-14.8,34.1-39.1,34.3-65.2V278.6c0-3.4-2-6.5-5.2-7.9L458.2,250C470.2,243.7,480,233.8,486.1,221.6z M275.3,409.8
			c-51.1-8.1-142.7-77.5-182.3-110.9c4.9-6.6,9.8-13.7,14.5-20.9c20.3,16.2,104.7,82.2,165.5,101.9v11.5
			C273.1,397.6,273.8,403.8,275.3,409.8z M332.8,495.9H17.1l0.1-155.8c37.5-11.2,55.7-21.6,64.5-28.5c27,22.6,139,113.5,200.3,115.9
			c6,11.6,14.7,21.5,25.4,29l25.4,17.9V495.9z M494.9,391.4c-0.1,20.5-10.2,39.6-27,51.2l-75.4,52.8l-75.4-52.8
			c-16.8-11.6-26.9-30.7-27-51.2V284.2l102.4-43.5l102.4,43.5V391.4z M437.3,241.1l-41.4-17.6c-2.1-0.9-4.6-0.9-6.7,0l-110.9,47.2
			c-3.1,1.3-5.2,4.4-5.2,7.9v83.3c-58.7-21.3-140.9-85.9-156.5-98.4c12.6-19.4,21.1-41.1,25-63.9c5.7,3.8,11.4,7.6,17.3,11.2
			c23.4,14.7,48,27.3,73.6,37.5c20,7.9,33.7,5.7,40.7-6.3c7.3-12.4,3.3-29.1,0.7-40.2l-0.2-1c-5-18.6-11.6-36.7-19.6-54.2
			c-2.5-5.9-5-11.8-7.4-17.7c-11.5-28.9-11.4-46.1,0.4-50.9c4.2-1.9,6.2-6.8,4.4-11.1c-1.8-4.3-6.6-6.4-10.9-4.7
			c-22.1,9.1-25.3,33.7-9.7,73c2.4,6.1,5,12.1,7.5,18.1c7.6,16.6,13.9,33.9,18.7,51.5l0.2,1c2,8.4,5,21.1,1.2,27.6
			c-2.1,3.7-8.8,3.4-19.7-1c-24.7-9.9-48.4-22-70.9-36.1c-6.6-4-13-8.3-19.4-12.6c-6.9-4.6-13.9-9.2-21-13.6
			c-7.1-4.4-13.4-8.8-13.7-14.7c0.2-8.9,1.4-17.7,3.6-26.3l0.8-3.5c3.8-18.5,14.6-51.9,44.2-68c6.5-3.5,13-7.4,19.6-11.4
			c14.9-10,31.1-17.8,48.2-23.4c20.4-4.8,41.5-6.1,62.3-3.9c20.5,0.7,40.7,4.8,59.9,12c10.2,4.2,18.6,11.6,24.1,21.1
			c2.5,6,3.9,12.4,4,18.9l0.2,2.2c2.6,28.9,23,36.1,40.5,39.1c9.6,1.7,19.2,2.6,28.5,3.3c8.8,0.8,17.2,1.5,25.5,2.9
			c7.5,1.3,10.3,3.3,12.4,12.8c0.4,2,1,4.3,1.6,6.8c6.8,29,12.1,60.4-10.2,67.8c-0.3-0.1-0.7-0.2-1-0.2h-42.7
			c-4.7,0-8.5,3.8-8.5,8.5s3.8,8.5,8.5,8.5h30C457.6,231.2,448,237.5,437.3,241.1z"/>
		<path id="Shape_1_" d="M389.2,260.6l-76.8,32.7c-3.1,1.3-5.2,4.4-5.2,7.9v90.2c0.1,14.9,7.5,28.8,19.7,37.2l60.7,42.6
			c2.9,2.1,6.9,2.1,9.8,0l60.7-42.5c12.3-8.5,19.6-22.4,19.7-37.2v-90.2c0-3.4-2-6.5-5.2-7.9l-76.8-32.7
			C393.7,259.7,391.3,259.7,389.2,260.6z M460.8,306.8v84.6c-0.1,9.3-4.8,18-12.5,23.2l-55.8,39.1l-55.8-39.1
			c-7.7-5.3-12.4-13.9-12.5-23.3v-84.6l68.3-29L460.8,306.8z"/>
		<path id="Shape_2_" d="M355.3,372.3c-2.4-2-5.6-2.6-8.5-1.5c-2.9,1.1-5,3.6-5.5,6.7c-0.5,3.1,0.8,6.1,3.2,8l28.4,23.1
			c1.5,1.2,3.4,1.9,5.4,1.9c0.4,0,0.7,0,1.1-0.1c2.3-0.3,4.4-1.5,5.8-3.4l56.9-77c2.8-3.8,2-9.1-1.8-11.9c-3.8-2.8-9.1-2-11.9,1.8
			l-51.6,69.9L355.3,372.3z"/>
	</g>
</g>
</svg>
