<svg width="21" height="21" viewBox="0 0 21 21" fill="none" xmlns="http://www.w3.org/2000/svg">
<path d="M4.65521 7.8655L10.2748 13.6802L15.8943 7.8655C16.047 7.70701 16.1304 7.49438 16.1263 7.27436C16.1222 7.05435 16.0309 6.84498 15.8724 6.69232C15.7139 6.53966 15.5012 6.4562 15.2812 6.46032C15.0612 6.46444 14.8519 6.55579 14.6992 6.71427L10.2748 11.2948L5.84546 6.71427C5.6928 6.55579 5.48343 6.46444 5.26342 6.46032C5.04341 6.4562 4.83077 6.53966 4.67228 6.69232C4.5138 6.84498 4.42245 7.05435 4.41833 7.27436C4.41422 7.49438 4.49767 7.70701 4.65033 7.8655L4.65521 7.8655Z" fill="#333333"/>
</svg>
