<svg width="32" height="32" viewBox="0 0 32 32" fill="none" xmlns="http://www.w3.org/2000/svg">
<path d="M28.6665 5.33325H25.7776V7.11103H28.4442V26.6666H3.55535V7.11103H6.22202V5.33325H3.33313C3.12534 5.33672 2.92027 5.3811 2.72963 5.46384C2.53899 5.54658 2.36652 5.66606 2.22207 5.81547C2.07762 5.96487 1.96401 6.14127 1.88775 6.33459C1.81148 6.5279 1.77404 6.73435 1.77757 6.94214V26.8355C1.77404 27.0433 1.81148 27.2497 1.88775 27.443C1.96401 27.6363 2.07762 27.8127 2.22207 27.9622C2.36652 28.1116 2.53899 28.231 2.72963 28.3138C2.92027 28.3965 3.12534 28.4409 3.33313 28.4444H28.6665C28.8743 28.4409 29.0793 28.3965 29.27 28.3138C29.4606 28.231 29.6331 28.1116 29.7775 27.9622C29.922 27.8127 30.0356 27.6363 30.1118 27.443C30.1881 27.2497 30.2255 27.0433 30.222 26.8355V6.94214C30.2255 6.73435 30.1881 6.5279 30.1118 6.33459C30.0356 6.14127 29.922 5.96487 29.7775 5.81547C29.6331 5.66606 29.4606 5.54658 29.27 5.46384C29.0793 5.3811 28.8743 5.33672 28.6665 5.33325Z" fill="#333333"/>
<path d="M7.11133 12.4443H8.88911V14.2221H7.11133V12.4443Z" fill="#333333"/>
<path d="M12.4443 12.4443H14.2221V14.2221H12.4443V12.4443Z" fill="#333333"/>
<path d="M17.7778 12.4443H19.5556V14.2221H17.7778V12.4443Z" fill="#333333"/>
<path d="M23.1113 12.4443H24.8891V14.2221H23.1113V12.4443Z" fill="#333333"/>
<path d="M7.11133 16.8889H8.88911V18.6667H7.11133V16.8889Z" fill="#333333"/>
<path d="M12.4443 16.8889H14.2221V18.6667H12.4443V16.8889Z" fill="#333333"/>
<path d="M17.7778 16.8889H19.5556V18.6667H17.7778V16.8889Z" fill="#333333"/>
<path d="M23.1113 16.8889H24.8891V18.6667H23.1113V16.8889Z" fill="#333333"/>
<path d="M7.11133 21.3333H8.88911V23.111H7.11133V21.3333Z" fill="#333333"/>
<path d="M12.4443 21.3333H14.2221V23.111H12.4443V21.3333Z" fill="#333333"/>
<path d="M17.7778 21.3333H19.5556V23.111H17.7778V21.3333Z" fill="#333333"/>
<path d="M23.1113 21.3333H24.8891V23.111H23.1113V21.3333Z" fill="#333333"/>
<path d="M8.88889 8.88894C9.12464 8.88894 9.35073 8.79529 9.51743 8.62859C9.68413 8.46189 9.77778 8.2358 9.77778 8.00005V2.66672C9.77778 2.43097 9.68413 2.20488 9.51743 2.03818C9.35073 1.87148 9.12464 1.77783 8.88889 1.77783C8.65314 1.77783 8.42705 1.87148 8.26035 2.03818C8.09365 2.20488 8 2.43097 8 2.66672V8.00005C8 8.2358 8.09365 8.46189 8.26035 8.62859C8.42705 8.79529 8.65314 8.88894 8.88889 8.88894Z" fill="#333333"/>
<path d="M23.1111 8.88894C23.3468 8.88894 23.5729 8.79529 23.7396 8.62859C23.9063 8.46189 23.9999 8.2358 23.9999 8.00005V2.66672C23.9999 2.43097 23.9063 2.20488 23.7396 2.03818C23.5729 1.87148 23.3468 1.77783 23.1111 1.77783C22.8753 1.77783 22.6492 1.87148 22.4825 2.03818C22.3158 2.20488 22.2222 2.43097 22.2222 2.66672V8.00005C22.2222 8.2358 22.3158 8.46189 22.4825 8.62859C22.6492 8.79529 22.8753 8.88894 23.1111 8.88894Z" fill="#333333"/>
<path d="M11.5557 5.33325H20.4446V7.11103H11.5557V5.33325Z" fill="#333333"/>
</svg>
