<svg width="30" height="31" viewBox="0 0 30 31" fill="none" xmlns="http://www.w3.org/2000/svg">
<g clip-path="url(#clip0)">
<path d="M14.8505 0.0700684C11.9815 0.0724647 9.22995 1.21009 7.19694 3.23448C5.16392 5.25887 4.0146 8.0055 4 10.8745C4 15.176 6.41326 18.7775 8.18176 21.4026L8.50414 21.8816C10.2637 24.4317 12.1513 26.8911 14.1597 29.2503L14.8597 30.0701L15.5597 29.2503C17.5678 26.8909 19.4554 24.4315 21.2152 21.8816L21.5376 21.3934C23.2969 18.7683 25.7102 15.176 25.7102 10.8745C25.6956 8.00391 24.545 5.25588 22.51 3.23123C20.475 1.20658 17.7211 0.0700312 14.8505 0.0700684V0.0700684ZM14.8505 15.7287C13.6554 15.7287 12.4872 15.3743 11.4935 14.7103C10.4999 14.0464 9.72539 13.1027 9.26805 11.9986C8.81072 10.8945 8.69106 9.67958 8.92421 8.50747C9.15735 7.33537 9.73283 6.25872 10.5779 5.41368C11.4229 4.56864 12.4996 3.99316 13.6717 3.76001C14.8438 3.52687 16.0587 3.64652 17.1628 4.10386C18.2669 4.56119 19.2106 5.33566 19.8745 6.32932C20.5385 7.32298 20.8928 8.49121 20.8928 9.68628C20.8928 11.2888 20.2562 12.8257 19.1231 13.9589C17.9899 15.092 16.453 15.7287 14.8505 15.7287V15.7287Z" fill="#333333"/>
<path d="M14.8507 13.1218C16.7482 13.1218 18.2864 11.5836 18.2864 9.68617C18.2864 7.78869 16.7482 6.25049 14.8507 6.25049C12.9532 6.25049 11.415 7.78869 11.415 9.68617C11.415 11.5836 12.9532 13.1218 14.8507 13.1218Z" fill="#333333"/>
</g>
<defs>
<clipPath id="clip0">
<rect width="30" height="30" fill="white" transform="translate(0 0.0700684)"/>
</clipPath>
</defs>
</svg>
