<svg width="30" height="31" viewBox="0 0 30 31" fill="none" xmlns="http://www.w3.org/2000/svg">
<path d="M12.8074 16.8686C14.4012 18.4854 16.3295 19.7336 18.4571 20.5256L21.3354 18.2352C21.4207 18.1765 21.5219 18.145 21.6255 18.145C21.7291 18.145 21.8302 18.1765 21.9156 18.2352L27.2598 21.6785C27.4627 21.8004 27.6345 21.9679 27.7615 22.1677C27.8886 22.3674 27.9674 22.594 27.9918 22.8295C28.0163 23.0649 27.9856 23.3029 27.9023 23.5245C27.819 23.7461 27.6853 23.9452 27.5118 24.1063L25.0076 26.5799C24.649 26.9342 24.2082 27.1943 23.7246 27.3368C23.2411 27.4794 22.7297 27.5 22.2362 27.3968C17.3136 26.3801 12.7762 23.999 9.14282 20.5256C5.59002 17.0177 3.1315 12.5542 2.06549 7.67651C1.96019 7.19067 1.98217 6.68586 2.1293 6.21102C2.27644 5.73617 2.54374 5.30738 2.90531 4.96621L5.50109 2.46204C5.66172 2.29697 5.85761 2.17038 6.0741 2.09174C6.29059 2.01311 6.52207 1.98447 6.75119 2.00797C6.98032 2.03147 7.20116 2.1065 7.39718 2.22744C7.5932 2.34839 7.75932 2.51211 7.8831 2.70635L11.4408 7.98189C11.5022 8.06473 11.5353 8.1651 11.5353 8.26819C11.5353 8.37129 11.5022 8.47165 11.4408 8.55449L9.09701 11.3717C9.91054 13.4567 11.178 15.3344 12.8074 16.8686V16.8686Z" fill="#333333"/>
</svg>
