<svg width="50" height="50" viewBox="0 0 50 50" fill="none" xmlns="http://www.w3.org/2000/svg">
<path d="M15.9976 29.8708L15.7937 29.9274C14.8489 30.1908 13.8532 29.7375 13.3433 28.8326C12.8245 27.9128 12.8949 26.7363 13.5203 25.9031L16.6934 21.6705H7.00012V31.6688H15.9976V29.8708Z" fill="#828282"/>
<path d="M23.8074 12.1804C24.8451 10.7973 26.3702 10.0042 27.9897 10.0042C28.807 10.0042 29.6363 10.2191 30.3861 10.6274C30.491 10.6841 30.605 10.7124 30.7145 10.7124C30.9634 10.7124 31.2063 10.5741 31.3473 10.3275C31.4433 10.1591 31.5813 9.99417 31.7807 9.80593C32.0206 9.58096 32.1076 9.21267 31.9996 8.88444C31.8917 8.55614 31.6113 8.33789 31.2964 8.33789H7.74981C7.33593 8.33789 7 8.71119 7 9.17111V20.0026H17.9424L23.8074 12.1804Z" fill="#828282"/>
<path d="M29.7532 12.1338C28.1531 11.2456 26.1017 11.7255 24.9606 13.247L14.672 26.9663C14.465 27.2446 14.4411 27.6378 14.6135 27.9428C14.7529 28.1894 14.9944 28.3327 15.2478 28.3327C15.3078 28.3327 15.3693 28.3244 15.4292 28.3077L38.2063 21.9804C39.256 21.6888 39.9893 20.6457 39.9893 19.4375C39.9893 18.441 39.49 17.5445 38.6877 17.0979L34.5399 14.7933L33.8305 16.7646C33.6476 17.2711 33.3177 17.7011 32.8993 17.9794L25.4014 22.9785C25.2799 23.0585 25.148 23.0969 25.016 23.0969C24.761 23.0969 24.5136 22.9535 24.3726 22.6919C24.1597 22.297 24.2752 21.7855 24.6291 21.5488L32.127 16.5496C32.2665 16.4563 32.3775 16.3113 32.4389 16.1431L33.1947 14.0434L33.832 12.2721L34.2774 12.0237C34.4964 12.1687 34.7422 12.2637 35.0062 12.2637C35.1457 12.2637 35.2866 12.2421 35.4261 12.1971L41.2055 10.3607C42.2551 10.0274 42.9884 8.94598 42.9884 7.73282C42.9885 6.22643 41.8848 5 40.5292 5H39.8395C39.2816 5 38.7358 5.21332 38.3024 5.59826L34.0975 9.33599C33.7481 9.64594 33.5636 10.0942 33.5501 10.5608L32.9053 10.9191C32.7419 11.0107 32.6129 11.1657 32.544 11.3557L31.8467 13.292L29.7532 12.1338Z" fill="#828282"/>
<path d="M42.2401 20.0041H42.0526C41.7167 20.0041 41.4228 20.2507 41.3314 20.6107C40.955 22.0871 39.8963 23.2319 38.5722 23.6002L17.4971 29.4542V31.6688H42.9899V20.8373C42.9899 20.3774 42.654 20.0041 42.2401 20.0041Z" fill="#828282"/>
<path d="M7.00012 44.1668C7.00012 44.6267 7.33605 45 7.74994 45H32.493V33.3352H7.00012V44.1668Z" fill="#828282"/>
<path d="M33.9924 44.9999H42.2401C42.654 44.9999 42.9899 44.6266 42.9899 44.1667V33.3352H33.9924V44.9999Z" fill="#828282"/>
</svg>
