<svg width="270" height="73" viewBox="0 0 270 73" fill="none" xmlns="http://www.w3.org/2000/svg">
<g filter="url(#filter0_d)">
<text fill="#333333" xml:space="preserve" style="white-space: pre" font-family="Montserrat" font-size="14" font-style="italic" font-weight="bold" letter-spacing="0em"><tspan x="25.77" y="60.831">international logistics company</tspan></text>
<path d="M84.6471 30.662H68.0211L63.3801 38.312H54.5571L77.6601 2.612H85.8201L94.5921 38.312H86.3301L84.6471 30.662ZM83.2701 24.389L80.2611 10.619L71.8461 24.389H83.2701Z" fill="#333333"/>
<path d="M110.74 38.924C107.918 38.924 105.215 38.55 102.631 37.802C100.047 37.054 97.973 36.102 96.409 34.946L99.775 28.571C101.407 29.761 103.243 30.679 105.283 31.325C107.323 31.971 109.414 32.294 111.556 32.294C113.834 32.294 115.636 31.92 116.962 31.172C118.288 30.424 118.951 29.404 118.951 28.112C118.951 27.058 118.424 26.259 117.37 25.715C116.316 25.137 114.633 24.525 112.321 23.879C110.009 23.199 108.122 22.553 106.66 21.941C105.198 21.295 103.923 20.343 102.835 19.085C101.781 17.827 101.254 16.161 101.254 14.087C101.254 11.673 101.917 9.548 103.243 7.712C104.603 5.876 106.507 4.465 108.955 3.479C111.437 2.493 114.31 2 117.574 2C119.988 2 122.266 2.272 124.408 2.816C126.55 3.326 128.386 4.074 129.916 5.06L126.805 11.384C125.479 10.466 123.983 9.786 122.317 9.344C120.651 8.868 118.917 8.63 117.115 8.63C114.769 8.63 112.916 9.038 111.556 9.854C110.196 10.67 109.516 11.724 109.516 13.016C109.516 13.798 109.805 14.461 110.383 15.005C110.961 15.515 111.692 15.94 112.576 16.28C113.46 16.586 114.701 16.96 116.299 17.402C118.577 18.014 120.447 18.643 121.909 19.289C123.371 19.901 124.612 20.819 125.632 22.043C126.686 23.233 127.213 24.814 127.213 26.786C127.213 29.234 126.533 31.376 125.173 33.212C123.813 35.014 121.892 36.425 119.41 37.445C116.928 38.431 114.038 38.924 110.74 38.924Z" fill="#333333"/>
<path d="M143.478 9.344H132.054L133.431 2.612H164.541L163.164 9.344H151.791L145.977 38.312H137.715L143.478 9.344Z" fill="#333333"/>
<path d="M183.675 19.136L196.068 38.312H186.786L177.606 24.338L171.843 29.438L170.058 38.312H161.847L168.987 2.612H177.198L173.934 18.983L192.447 2.612H202.443L183.675 19.136Z" fill="#333333"/>
<path d="M216.817 38.924C213.247 38.924 210.153 38.278 207.535 36.986C204.917 35.694 202.911 33.875 201.517 31.529C200.123 29.183 199.426 26.48 199.426 23.42C199.426 19.374 200.344 15.736 202.18 12.506C204.05 9.242 206.651 6.675 209.983 4.805C213.349 2.935 217.191 2 221.509 2C225.079 2 228.173 2.646 230.791 3.938C233.409 5.23 235.415 7.049 236.809 9.395C238.203 11.741 238.9 14.444 238.9 17.504C238.9 21.55 237.965 25.205 236.095 28.469C234.259 31.699 231.658 34.249 228.292 36.119C224.96 37.989 221.135 38.924 216.817 38.924ZM217.531 31.886C220.149 31.886 222.444 31.257 224.416 29.999C226.388 28.741 227.901 27.058 228.955 24.95C230.009 22.842 230.536 20.513 230.536 17.963C230.536 15.243 229.686 13.084 227.986 11.486C226.286 9.854 223.889 9.038 220.795 9.038C218.177 9.038 215.882 9.667 213.91 10.925C211.938 12.183 210.425 13.866 209.371 15.974C208.317 18.082 207.79 20.411 207.79 22.961C207.79 25.681 208.64 27.857 210.34 29.489C212.04 31.087 214.437 31.886 217.531 31.886Z" fill="#333333"/>
<path d="M24.1698 13.712L21.2098 28.512H47.2098L45.0498 38.912H19.2098L15.1298 59.312H2.08984L13.2898 3.31201H55.6098L53.4498 13.712H24.1698Z" fill="#B81414"/>
</g>
<defs>
<filter id="filter0_d" x="0.0898438" y="0" width="269.545" height="72.14" filterUnits="userSpaceOnUse" color-interpolation-filters="sRGB">
<feFlood flood-opacity="0" result="BackgroundImageFix"/>
<feColorMatrix in="SourceAlpha" type="matrix" values="0 0 0 0 0 0 0 0 0 0 0 0 0 0 0 0 0 0 127 0"/>
<feOffset dx="3" dy="3"/>
<feGaussianBlur stdDeviation="2.5"/>
<feColorMatrix type="matrix" values="0 0 0 0 0 0 0 0 0 0 0 0 0 0 0 0 0 0 0.45 0"/>
<feBlend mode="normal" in2="BackgroundImageFix" result="effect1_dropShadow"/>
<feBlend mode="normal" in="SourceGraphic" in2="effect1_dropShadow" result="shape"/>
</filter>
</defs>
</svg>
