<svg id="Слой_1" data-name="Слой 1" xmlns="http://www.w3.org/2000/svg" viewBox="0 0 145 145"><defs><style>.cls-1{fill:#beaf87;}.cls-2{fill:none;}</style></defs><title>1</title><path class="cls-1" d="M109.4,48.18,79.55,34.08a16.57,16.57,0,0,0-14.1,0L35.6,48.18a2.92,2.92,0,0,0,0,5.28L65.45,67.55a16.5,16.5,0,0,0,14.1,0L109.4,53.46A2.92,2.92,0,0,0,109.4,48.18Z"/><path class="cls-1" d="M109.4,70.18l-7.3-3.45a2,2,0,0,0-1.74,0L76.08,78.2a8.46,8.46,0,0,1-7.16,0L44.64,66.73a2,2,0,0,0-1.74,0l-7.3,3.45a2.92,2.92,0,0,0,0,5.28L66.9,90.24a13.07,13.07,0,0,0,11.2,0l31.3-14.78A2.92,2.92,0,0,0,109.4,70.18Z"/><path class="cls-1" d="M109.4,91.18l-7.3-3.45a2,2,0,0,0-1.74,0L76.08,99.2a8.46,8.46,0,0,1-7.16,0L44.64,87.73a2,2,0,0,0-1.74,0l-7.3,3.45a2.92,2.92,0,0,0,0,5.28l31.3,14.78a13.07,13.07,0,0,0,11.2,0l31.3-14.78A2.92,2.92,0,0,0,109.4,91.18Z"/><rect class="cls-2" width="145" height="145"/><rect class="cls-2" x="-7" y="-12.5" width="145" height="145"/></svg>