<svg id="Слой_1" data-name="Слой 1" xmlns="http://www.w3.org/2000/svg" viewBox="0 0 145 145"><defs><style>.cls-1{fill:#beaf87;}.cls-2{fill:none;}</style></defs><title>6</title><path class="cls-1" d="M100.77,37c-5.53.1-10.44,2.2-15.16,4.77-7.88,4.29-14.2,10.46-19.67,17.41-2.76,3.51-5.52,5.24-10.11,4.11a9.3,9.3,0,0,0-10.18,3.6C42,72,40.05,78,38.2,83.9c-.75,2.42.65,3.51,3.22,3a8.45,8.45,0,0,0,2.45-.83c4.11-2.19,7-1.11,10.42,2.15,4.8,4.58,8.12,8.8,4.15,15.46-.7,1.18-1,2.74.37,3.79,1,.82,2.33.5,3.46,0,4.26-1.89,8.49-3.84,12.76-5.73s6-5.43,6.16-9.92a21.87,21.87,0,0,0,0-3.62,7.92,7.92,0,0,1,3.33-8.07C90,75.88,94.43,70.55,98.6,65c4.9-6.48,7.81-13.78,8.38-20.48C107.15,37.55,106.46,36.9,100.77,37ZM90.09,61a6.92,6.92,0,0,1-6.84-7,7,7,0,1,1,14,.36A6.87,6.87,0,0,1,90.09,61Z"/><rect class="cls-2" width="145" height="145"/></svg>