<svg id="Слой_1" data-name="Слой 1" xmlns="http://www.w3.org/2000/svg" viewBox="0 0 145 145"><defs><style>.cls-1{fill:#beaf87;}.cls-2{fill:none;}</style></defs><title>4</title><path class="cls-1" d="M108.61,97Q96.21,75.15,83.74,53.32q-4.23-7.43-8.51-14.84c-1.64-2.84-3.43-3.29-5.34-.22-.46.73-.91,1.47-1.34,2.22Q52.26,69.07,36,97.67c-3.11,5.47-2.21,7.12,4,7.15,10.89.06,21.77,0,32.66,0,10.54,0,21.08,0,31.62,0C111.53,104.81,112.28,103.47,108.61,97ZM76.18,97H68.82V89.6h7.36Zm0-11.64H68.82V57.89h7.36Z"/><rect class="cls-2" width="145" height="145"/></svg>