<svg xmlns="http://www.w3.org/2000/svg" viewBox="0 0 323.75 364"><defs><style>.a{fill:#d14f5c;}</style></defs><title>vigoda</title><path class="a" d="M254.56,129.19a6.41,6.41,0,0,0-5-4.34l-43.17-7.25L186.12,78.79a6.41,6.41,0,0,0-11.37,0L154.52,117.6l-43.17,7.25a6.42,6.42,0,0,0-3.52,10.82L138.5,166.9l-6.45,43.3a6.42,6.42,0,0,0,9.2,6.69l39.18-19.52,39.19,19.52a6.42,6.42,0,0,0,9.2-6.69l-6.45-43.29L253,135.67A6.43,6.43,0,0,0,254.56,129.19Z"/><path d="M323.22,316.36l-38-68.91a7,7,0,0,0-9.13-3.74,6.89,6.89,0,0,0-3.78,9l32.42,55.61-47.82-13.72a7,7,0,0,0-8.07,3.31l-24,43.18-36.25-64.76C253.51,264,302.7,207.3,302.7,139.45,302.7,62.56,239.53,0,161.87,0S21,62.56,21,139.45A137.86,137.86,0,0,0,48.9,222.62L.53,314.37a6.88,6.88,0,0,0,1.25,7.27,7,7,0,0,0,7.16,2l56.41-16.19,28.33,50.95A7,7,0,0,0,99.8,362h.39c2.68-.15,5-.81,6.07-3.27l34.17-58.81a6.89,6.89,0,0,0-3.78-9,7,7,0,0,0-9.13,3.74L98.91,339.14,74.89,297a7,7,0,0,0-8.06-3.31L19,306.37,59,234.6a141.11,141.11,0,0,0,102.85,44.3c4.19,0,8.33-.2,12.42-.55l43.2,81.38a7,7,0,0,0,6.07,4.26H224a7,7,0,0,0,6.12-3.58l28.33-50.95,56.41,16.19a7,7,0,0,0,7.16-2,6.9,6.9,0,0,0,1.25-7.27ZM35,140.83A126.85,126.85,0,1,1,161.87,267.68,127,127,0,0,1,35,140.83Z"/><path d="M237.83,118.42a6.6,6.6,0,0,0-5.17-4.46l-44.27-7.42L167.65,66.73a6.58,6.58,0,0,0-11.67,0l-20.75,39.81L91,114a6.58,6.58,0,0,0-3.61,11.1l31.45,32-6.62,44.4a6.58,6.58,0,0,0,9.44,6.86l40.18-20,40.18,20a6.64,6.64,0,0,0,2.94.69,6.58,6.58,0,0,0,6.5-7.55l-6.61-44.4,31.45-32A6.59,6.59,0,0,0,237.83,118.42Zm-44.69,31.79a6.58,6.58,0,0,0-1.82,5.58l5.24,35.15L164.75,175.1a6.59,6.59,0,0,0-5.87,0l-31.81,15.84,5.23-35.15a6.55,6.55,0,0,0-1.81-5.58l-24.9-25.36,35-5.88a6.59,6.59,0,0,0,4.75-3.45L161.81,84l16.43,31.52A6.57,6.57,0,0,0,183,119L218,124.85l-24.89,25.36Z"/><path d="M261.47,149.75a6.57,6.57,0,0,0-7.38,5.66,93.09,93.09,0,1,1,0-24.58,6.58,6.58,0,0,0,13-1.73,106.24,106.24,0,1,0,0,28,6.59,6.59,0,0,0-5.66-7.39Z"/></svg>