<svg width="50" height="51" viewBox="0 0 50 51" fill="none" xmlns="http://www.w3.org/2000/svg">
<path d="M21.0938 11.0076C20.4721 11.0076 19.876 11.2545 19.4365 11.694C18.9969 12.1336 18.75 12.7297 18.75 13.3513V17.2576C18.75 18.1205 18.0504 18.8201 17.1875 18.8201C16.3246 18.8201 15.625 18.1205 15.625 17.2576V13.3513C15.625 11.9009 16.2012 10.5099 17.2268 9.48433C18.2523 8.45874 19.6433 7.88257 21.0938 7.88257H41.4062C42.8567 7.88257 44.2477 8.45874 45.2732 9.48433C46.2988 10.5099 46.875 11.9009 46.875 13.3513V36.7888C46.875 38.2392 46.2988 39.6302 45.2732 40.6558C44.2477 41.6814 42.8567 42.2576 41.4062 42.2576H21.0938C19.6433 42.2576 18.2523 41.6814 17.2268 40.6558C16.2012 39.6302 15.625 38.2392 15.625 36.7888V32.8826C15.625 32.0196 16.3246 31.3201 17.1875 31.3201C18.0504 31.3201 18.75 32.0196 18.75 32.8826V36.7888C18.75 37.4104 18.9969 38.0066 19.4365 38.4461C19.876 38.8856 20.4721 39.1326 21.0938 39.1326H41.4062C42.0278 39.1326 42.624 38.8856 43.0635 38.4461C43.5031 38.0066 43.75 37.4104 43.75 36.7888V13.3513C43.75 12.7297 43.5031 12.1336 43.0635 11.694C42.624 11.2545 42.0278 11.0076 41.4062 11.0076H21.0938Z" fill="#333333"/>
<path d="M25.4576 16.1527C26.0678 15.5425 27.0572 15.5425 27.6674 16.1527L35.4799 23.9652C36.09 24.5754 36.09 25.5647 35.4799 26.1749L27.6674 33.9874C27.0572 34.5976 26.0678 34.5976 25.4576 33.9874C24.8475 33.3772 24.8475 32.3879 25.4576 31.7777L30.6028 26.6326H4.6875C3.82456 26.6326 3.125 25.933 3.125 25.0701C3.125 24.2071 3.82456 23.5076 4.6875 23.5076H30.6028L25.4576 18.3624C24.8475 17.7522 24.8475 16.7629 25.4576 16.1527Z" fill="#333333"/>
</svg>
