<svg width="50" height="50" viewBox="0 0 50 50" fill="none" xmlns="http://www.w3.org/2000/svg">
<path d="M12.8571 37.5V33.8672L6.01001 40.7143H9.64282C11.4173 40.7123 12.8552 39.2744 12.8571 37.5Z" fill="#828282"/>
<path d="M17.1429 37.5V31.0714C17.1459 28.5084 19.2228 26.4315 21.7858 26.4285H26.4287V23.5714H5V26.4285H9.64289C12.2059 26.4315 14.2828 28.5084 14.2858 31.0714V37.5C14.2828 40.063 12.2059 42.1399 9.64289 42.1429H5V45H26.4286V42.1429H21.7857C19.2227 42.1399 17.1459 40.063 17.1429 37.5Z" fill="#828282"/>
<path d="M43.99 5H23.1529L6.01001 22.1429H26.8471L43.99 5Z" fill="#828282"/>
<path d="M27.8571 23.1529V25.4186L35.5664 17.7093L45 8.27571V6.01001L27.8571 23.1529Z" fill="#828282"/>
<path d="M27.8571 41.7143V43.9286L40.9107 30.2221L45 26.1329V23.8671L41.9336 26.9336L27.8571 41.7143Z" fill="#828282"/>
<path d="M43.9899 22.8571H40.3571C40.2962 22.853 40.2361 22.8409 40.1785 22.8211C40.1208 22.8409 40.0607 22.8531 39.9999 22.8571C38.0075 22.8538 36.2387 21.5811 35.6026 19.693L27.6479 27.6477C27.5137 27.7813 27.3321 27.8566 27.1427 27.8571H21.7856C20.0112 27.8591 18.5732 29.297 18.5713 31.0714V37.5C18.5732 39.2744 20.0112 40.7123 21.7856 40.7143H26.8365L40.9109 25.9361L43.9899 22.8571ZM21.9357 38.3284C21.7313 38.5344 21.4226 38.5963 21.1546 38.4851C20.8865 38.3738 20.7125 38.1114 20.7142 37.8212C20.7142 37.4268 21.0339 37.1069 21.4285 37.1069C21.8229 37.1069 22.1428 37.4267 22.1428 37.8212C22.1447 38.0112 22.07 38.194 21.9357 38.3284ZM24.8026 35.323L24.0883 36.0714C23.816 36.3569 23.3637 36.3675 23.0782 36.0951C22.7928 35.8228 22.7821 35.3705 23.0545 35.0851L23.7688 34.3366C23.945 34.1519 24.2063 34.0753 24.4543 34.1356C24.7024 34.1959 24.8994 34.3839 24.9712 34.6288C25.0431 34.8737 24.9788 35.1383 24.8026 35.323ZM27.6597 32.3298L26.9454 33.0782C26.6731 33.3637 26.2208 33.3743 25.9354 33.1019C25.6499 32.8296 25.6393 32.3773 25.9116 32.0919L26.6259 31.3434C26.8982 31.058 27.3505 31.0473 27.636 31.3197C27.9214 31.5921 27.9321 32.0443 27.6597 32.3298ZM30.5168 29.3366L29.8025 30.0851C29.5302 30.3705 29.0779 30.3812 28.7925 30.1088C28.507 29.8365 28.4964 29.3842 28.7687 29.0987L29.483 28.3503C29.7554 28.0648 30.2076 28.0542 30.4931 28.3266C30.7786 28.599 30.7893 29.0512 30.5168 29.3366ZM33.374 26.3434L32.6597 27.0919C32.4836 27.2766 32.2222 27.3532 31.9742 27.2929C31.7261 27.2326 31.5291 27.0446 31.4573 26.7997C31.3855 26.5548 31.4498 26.2901 31.626 26.1055L32.3403 25.357C32.6126 25.0716 33.0649 25.0609 33.3504 25.3333C33.6357 25.6058 33.6464 26.058 33.374 26.3434ZM35.5071 24.1071C35.3739 24.2441 35.191 24.3212 35 24.3212C34.8089 24.3212 34.6261 24.244 34.4929 24.1071C34.3574 23.9763 34.2824 23.7952 34.2857 23.6069C34.284 23.3168 34.4581 23.0544 34.7261 22.9431C34.9942 22.8319 35.3029 22.8937 35.5072 23.0998C35.6387 23.2361 35.7129 23.4176 35.7143 23.6069C35.7175 23.7952 35.6425 23.9763 35.5071 24.1071Z" fill="#828282"/>
</svg>
