<svg width="50" height="50" viewBox="0 0 50 50" fill="none" xmlns="http://www.w3.org/2000/svg">
<path d="M28.7898 30.8479C30.5313 29.9143 31.6435 27.3578 31.6901 27.2494C31.7256 27.1631 31.7415 27.0699 31.7367 26.9766C31.732 26.8833 31.7066 26.7923 31.6625 26.71C31.6183 26.6277 31.5565 26.5562 31.4814 26.5006C31.4064 26.445 31.32 26.4067 31.2284 26.3885C31.1124 26.3672 28.3673 25.8794 26.6262 26.8129C26.1606 27.0593 25.7618 27.4151 25.4642 27.8498C25.1666 27.4151 24.7678 27.0592 24.3022 26.8129C22.5612 25.8794 19.8161 26.3672 19.7 26.3885C19.6083 26.4066 19.5218 26.4448 19.4466 26.5003C19.3715 26.5559 19.3096 26.6274 19.2655 26.7097C19.2213 26.7921 19.196 26.8832 19.1913 26.9765C19.1866 27.0699 19.2027 27.1631 19.2384 27.2494C19.2849 27.3578 20.3975 29.9143 22.1386 30.8479C23.0976 31.3622 24.0494 31.3253 24.8684 31.0456V32.532C24.0897 32.6527 23.3686 33.015 22.8072 33.5679C22.2458 34.1208 21.8724 34.8362 21.7398 35.6129H20.4951C20.4138 35.6114 20.333 35.626 20.2574 35.656C20.1819 35.686 20.113 35.7308 20.055 35.7877C19.9969 35.8446 19.9508 35.9126 19.9193 35.9875C19.8879 36.0625 19.8716 36.143 19.8716 36.2243C19.8716 36.3056 19.8879 36.3861 19.9193 36.4611C19.9508 36.536 19.9969 36.604 20.055 36.6609C20.113 36.7178 20.1819 36.7626 20.2574 36.7926C20.333 36.8226 20.4138 36.8373 20.4951 36.8357H30.4912C30.5724 36.8373 30.6532 36.8226 30.7288 36.7926C30.8044 36.7626 30.8732 36.7178 30.9313 36.6609C30.9893 36.604 31.0354 36.536 31.0669 36.4611C31.0984 36.3861 31.1146 36.3056 31.1146 36.2243C31.1146 36.143 31.0984 36.0625 31.0669 35.9875C31.0354 35.9126 30.9893 35.8446 30.9313 35.7877C30.8732 35.7308 30.8044 35.686 30.7288 35.656C30.6532 35.626 30.5724 35.6114 30.4912 35.6129H29.1308C29.0014 34.8561 28.6433 34.157 28.1047 33.6099C27.566 33.0627 26.8726 32.6937 26.1179 32.5526V31.0504C26.931 31.2876 27.9435 31.3021 28.7898 30.8479Z" fill="#828282"/>
<path d="M25.4931 5C22.539 5 17.4239 9.36461 14.1796 12.6853C14.0937 12.7732 14.0356 12.8846 14.0127 13.0054C13.9898 13.1262 14.003 13.251 14.0508 13.3644C14.0985 13.4777 14.1786 13.5744 14.2811 13.6424C14.3835 13.7103 14.5037 13.7466 14.6267 13.7466H36.3242C36.4477 13.7466 36.5684 13.7101 36.6712 13.6415C36.7739 13.573 36.854 13.4755 36.9014 13.3615C36.9488 13.2474 36.9613 13.1219 36.9373 13.0007C36.9134 12.8795 36.8541 12.7682 36.7669 12.6807C33.4599 9.36453 28.2306 5 25.4931 5ZM19.8703 12.4971C19.7468 12.4971 19.626 12.4604 19.5232 12.3918C19.4205 12.3231 19.3404 12.2255 19.2931 12.1114C19.2458 11.9972 19.2335 11.8716 19.2576 11.7504C19.2817 11.6292 19.3412 11.5179 19.4286 11.4305C19.5159 11.3432 19.6273 11.2837 19.7484 11.2595C19.8696 11.2354 19.9953 11.2478 20.1094 11.2951C20.2236 11.3424 20.3211 11.4225 20.3898 11.5252C20.4584 11.6279 20.4951 11.7487 20.4951 11.8723C20.4951 12.038 20.4293 12.1969 20.3121 12.3141C20.1949 12.4312 20.036 12.4971 19.8703 12.4971ZM22.3693 9.99804C22.2458 9.99804 22.125 9.96139 22.0223 9.89275C21.9195 9.8241 21.8394 9.72652 21.7921 9.61236C21.7449 9.49821 21.7325 9.37259 21.7566 9.2514C21.7807 9.13021 21.8402 9.01889 21.9276 8.93151C22.015 8.84414 22.1263 8.78464 22.2475 8.76053C22.3687 8.73642 22.4943 8.7488 22.6084 8.79608C22.7226 8.84337 22.8202 8.92345 22.8888 9.02619C22.9575 9.12893 22.9941 9.24972 22.9941 9.37328C22.9941 9.53898 22.9283 9.69788 22.8111 9.81505C22.694 9.93221 22.535 9.99804 22.3693 9.99804ZM23.6189 12.4971C23.4953 12.4971 23.3745 12.4604 23.2718 12.3918C23.169 12.3231 23.0889 12.2255 23.0417 12.1114C22.9944 11.9972 22.982 11.8716 23.0061 11.7504C23.0302 11.6292 23.0897 11.5179 23.1771 11.4305C23.2645 11.3432 23.3758 11.2837 23.497 11.2595C23.6182 11.2354 23.7438 11.2478 23.8579 11.2951C23.9721 11.3424 24.0697 11.4225 24.1383 11.5252C24.207 11.6279 24.2436 11.7487 24.2436 11.8723C24.2436 12.038 24.1778 12.1969 24.0606 12.3141C23.9435 12.4312 23.7845 12.4971 23.6189 12.4971ZM24.2436 7.49902C24.12 7.49902 23.9993 7.46238 23.8965 7.39373C23.7938 7.32508 23.7137 7.22751 23.6664 7.11335C23.6191 6.99919 23.6068 6.87357 23.6309 6.75238C23.655 6.63119 23.7145 6.51987 23.8018 6.4325C23.8892 6.34512 24.0005 6.28562 24.1217 6.26151C24.2429 6.23741 24.3685 6.24978 24.4827 6.29707C24.5969 6.34435 24.6944 6.42443 24.7631 6.52717C24.8317 6.62991 24.8684 6.7507 24.8684 6.87426C24.8684 7.03996 24.8025 7.19887 24.6854 7.31603C24.5682 7.4332 24.4093 7.49902 24.2436 7.49902ZM25.4931 9.37328C25.3696 9.37328 25.2488 9.33664 25.146 9.26799C25.0433 9.19934 24.9632 9.10177 24.9159 8.98761C24.8686 8.87345 24.8563 8.74783 24.8804 8.62664C24.9045 8.50545 24.964 8.39413 25.0514 8.30676C25.1387 8.21939 25.25 8.15988 25.3712 8.13578C25.4924 8.11167 25.618 8.12404 25.7322 8.17133C25.8464 8.21861 25.9439 8.29869 26.0126 8.40143C26.0812 8.50417 26.1179 8.62496 26.1179 8.74853C26.1179 8.91422 26.0521 9.07313 25.9349 9.19029C25.8177 9.30746 25.6588 9.37328 25.4931 9.37328ZM26.7426 12.4971C26.6191 12.4971 26.4983 12.4604 26.3955 12.3918C26.2928 12.3231 26.2127 12.2255 26.1654 12.1114C26.1181 11.9972 26.1058 11.8716 26.1299 11.7504C26.154 11.6292 26.2135 11.5179 26.3009 11.4305C26.3882 11.3432 26.4996 11.2837 26.6207 11.2595C26.7419 11.2354 26.8676 11.2478 26.9817 11.2951C27.0959 11.3424 27.1934 11.4225 27.2621 11.5252C27.3307 11.6279 27.3674 11.7487 27.3674 11.8723C27.3674 12.038 27.3016 12.1969 27.1844 12.3141C27.0672 12.4312 26.9083 12.4971 26.7426 12.4971ZM27.3674 8.12377C27.2438 8.12377 27.123 8.08713 27.0203 8.01848C26.9175 7.94983 26.8375 7.85226 26.7902 7.7381C26.7429 7.62394 26.7305 7.49832 26.7546 7.37713C26.7787 7.25594 26.8382 7.14462 26.9256 7.05725C27.013 6.96988 27.1243 6.91037 27.2455 6.88627C27.3667 6.86216 27.4923 6.87453 27.6065 6.92182C27.7206 6.96911 27.8182 7.04918 27.8868 7.15192C27.9555 7.25466 27.9921 7.37545 27.9921 7.49902C27.9921 7.66471 27.9263 7.82362 27.8092 7.94079C27.692 8.05795 27.5331 8.12377 27.3674 8.12377ZM28.6169 10.6228C28.4933 10.6228 28.3725 10.5861 28.2698 10.5175C28.1671 10.4489 28.087 10.3513 28.0397 10.2371C27.9924 10.123 27.98 9.99734 28.0041 9.87615C28.0282 9.75496 28.0877 9.64364 28.1751 9.55627C28.2625 9.46889 28.3738 9.40939 28.495 9.38529C28.6162 9.36118 28.7418 9.37355 28.856 9.42084C28.9701 9.46812 29.0677 9.5482 29.1364 9.65094C29.205 9.75368 29.2416 9.87447 29.2416 9.99804C29.2416 10.1637 29.1758 10.3226 29.0587 10.4398C28.9415 10.557 28.7826 10.6228 28.6169 10.6228ZM31.1159 12.4971C30.9923 12.4971 30.8716 12.4604 30.7688 12.3918C30.6661 12.3231 30.586 12.2255 30.5387 12.1114C30.4914 11.9972 30.4791 11.8716 30.5032 11.7504C30.5273 11.6292 30.5868 11.5179 30.6741 11.4305C30.7615 11.3432 30.8728 11.2837 30.994 11.2595C31.1152 11.2354 31.2408 11.2478 31.355 11.2951C31.4692 11.3424 31.5667 11.4225 31.6354 11.5252C31.704 11.6279 31.7407 11.7487 31.7407 11.8723C31.7407 12.038 31.6748 12.1969 31.5577 12.3141C31.4405 12.4312 31.2816 12.4971 31.1159 12.4971Z" fill="#828282"/>
<path d="M42.3615 29.3654C42.3615 27.7535 41.8054 24.1727 41.2968 21.2344C41.6413 21.2005 41.9696 21.0718 42.2454 20.8626C42.5212 20.6533 42.7336 20.3717 42.859 20.0491C42.9844 19.7264 43.018 19.3753 42.9559 19.0348C42.8939 18.6942 42.7386 18.3775 42.5075 18.1198C42.837 17.7534 43.0083 17.2714 42.9838 16.7792C42.9361 15.7737 42.0789 14.9961 41.0724 14.9961H9.24951C8.91812 14.9961 8.6003 15.1277 8.36597 15.362C8.13164 15.5964 8 15.9142 8 16.2456C8 16.577 8.13164 16.8948 8.36597 17.1291C8.6003 17.3634 8.91812 17.4951 9.24951 17.4951H29.8664C30.0321 17.4951 30.191 17.5609 30.3082 17.6781C30.4253 17.7952 30.4912 17.9541 30.4912 18.1198C30.4912 18.2855 30.4253 18.4444 30.3082 18.5616C30.191 18.6788 30.0321 18.7446 29.8664 18.7446H8.62585C8.46022 18.7451 8.30152 18.8111 8.1843 18.9281C8.06709 19.0451 8.00084 19.2037 8 19.3693C8.00058 19.8343 8.17371 20.2824 8.48584 20.627C8.79797 20.9716 9.22689 21.188 9.68949 21.2344C9.18086 24.1727 8.62475 27.7535 8.62475 29.3654C8.62475 35.8566 9.02616 38.429 9.20187 39.2436C9.04724 39.5341 8 40.8914 8 41.2357C8 42.7219 9.54627 43.6809 10.9239 43.1389C21.3744 45.4036 28.4919 45.6473 40.0624 43.1389C41.4205 43.6739 42.9862 42.7258 42.9862 41.2357C42.9862 40.8906 41.9445 39.5341 41.7844 39.2436C41.9601 38.429 42.3615 35.8566 42.3615 29.3654ZM28.3045 39.9862H22.6817C20.4448 39.9862 18.2996 39.0976 16.7179 37.5159C15.1361 35.9342 14.2475 33.7889 14.2475 31.5521C14.2475 29.3152 15.1361 27.1699 16.7179 25.5882C18.2996 24.0065 20.4448 23.1179 22.6817 23.1179H28.3045C30.5414 23.1179 32.6867 24.0065 34.2684 25.5882C35.8501 27.1699 36.7387 29.3152 36.7387 31.5521C36.7387 33.7889 35.8501 35.9342 34.2684 37.5159C32.6867 39.0976 30.5414 39.9862 28.3045 39.9862ZM38.5916 18.7446H33.6149C33.4492 18.7446 33.2903 18.6788 33.1732 18.5616C33.056 18.4444 32.9902 18.2855 32.9902 18.1198C32.9902 17.9541 33.056 17.7952 33.1732 17.6781C33.2903 17.5609 33.4492 17.4951 33.6149 17.4951H38.613C38.6985 17.4951 38.7832 17.5126 38.8617 17.5467C38.9401 17.5807 39.0108 17.6305 39.0693 17.693C39.1277 17.7555 39.1727 17.8293 39.2014 17.9099C39.2302 17.9905 39.2421 18.0761 39.2364 18.1615C39.2223 18.3221 39.148 18.4714 39.0284 18.5796C38.9089 18.6877 38.7528 18.7467 38.5916 18.7446Z" fill="#828282"/>
</svg>
