<svg width="20" height="20" viewBox="0 0 20 20" fill="none" xmlns="http://www.w3.org/2000/svg">
<path d="M11.7087 11.6248L11.7087 11.6248C11.107 12.2265 10.8061 12.5273 10.4636 12.6386C10.1624 12.7365 9.83785 12.7365 9.53658 12.6386C9.19409 12.5273 8.89325 12.2265 8.29156 11.6248C6.98795 10.3212 6.33614 9.66936 6.29272 9.11769C6.25505 8.63901 6.44881 8.17123 6.81392 7.85939C7.23471 7.5 8.15651 7.5 10.0001 7.5C11.8437 7.5 12.7655 7.5 13.1863 7.85939C13.5514 8.17123 13.7452 8.63901 13.7075 9.11769C13.6641 9.66936 13.0123 10.3212 11.7087 11.6248Z" fill="white"/>
</svg>
