<svg width="48" height="48" viewBox="0 0 48 48" fill="none" xmlns="http://www.w3.org/2000/svg">
<path fill-rule="evenodd" clip-rule="evenodd" d="M25.1064 0.575058C24.3752 0.437871 23.6249 0.437871 22.8936 0.575058C22.0603 0.731404 21.2936 1.1158 20.4233 1.55217L20.2434 1.64226L4.82994 9.34901L4.75115 9.3884L4.7511 9.38843C3.89756 9.81513 3.13745 10.1951 2.56147 10.5519C1.99373 10.9036 1.2647 11.4285 0.858048 12.2859C0.343541 13.3708 0.343541 14.6293 0.858048 15.7141C1.2647 16.5715 1.99373 17.0965 2.56147 17.4481C3.13746 17.8049 3.89758 18.1849 4.75114 18.6117L4.82994 18.6511L20.2434 26.3578L20.4233 26.4479L20.4233 26.4479C21.2937 26.8843 22.0603 27.2687 22.8936 27.425C23.6249 27.5622 24.3752 27.5622 25.1064 27.425C25.9397 27.2687 26.7064 26.8843 27.5767 26.4479L27.5768 26.4479L27.7566 26.3578L43.1701 18.6511L43.249 18.6116C44.1025 18.1849 44.8626 17.8049 45.4386 17.4481C46.0063 17.0965 46.7354 16.5715 47.142 15.7141C47.6565 14.6293 47.6565 13.3708 47.142 12.2859C46.7354 11.4285 46.0063 10.9036 45.4386 10.5519C44.8626 10.1951 44.1025 9.81512 43.2489 9.3884L43.1701 9.34901L27.7566 1.64226L27.5768 1.55217C26.7064 1.1158 25.9398 0.731404 25.1064 0.575058ZM4.89442 24.2112C3.90647 23.7172 2.70512 24.1177 2.21114 25.1056C1.71716 26.0936 2.11761 27.2949 3.10557 27.7889L21.6745 37.0733L21.7843 37.1286C22.1895 37.3328 22.6995 37.5898 23.2624 37.6954C23.7499 37.7868 24.2501 37.7868 24.7376 37.6954C25.3005 37.5898 25.8104 37.3328 26.2156 37.1286L26.2156 37.1286L26.2157 37.1286L26.2157 37.1286L26.3255 37.0733L44.8944 27.7889C45.8824 27.2949 46.2828 26.0936 45.7888 25.1056C45.2949 24.1177 44.0935 23.7172 43.1056 24.2112L24.5367 33.4956C24.256 33.636 24.114 33.7063 24.0084 33.7522L24 33.7558L23.9916 33.7522C23.886 33.7063 23.744 33.636 23.4633 33.4956L4.89442 24.2112ZM4.89442 34.2112C3.90646 33.7172 2.70512 34.1177 2.21114 35.1056C1.71716 36.0936 2.11761 37.2949 3.10557 37.7889L21.6745 47.0733L21.7843 47.1286C22.1895 47.3328 22.6995 47.5898 23.2624 47.6954C23.7499 47.7868 24.2501 47.7868 24.7376 47.6954C25.3005 47.5898 25.8105 47.3328 26.2157 47.1286L26.3255 47.0733L44.8944 37.7889C45.8824 37.2949 46.2828 36.0936 45.7888 35.1056C45.2949 34.1177 44.0935 33.7172 43.1056 34.2112L24.5367 43.4956C24.256 43.636 24.114 43.7063 24.0084 43.7522L24 43.7558L23.9916 43.7522C23.886 43.7063 23.744 43.636 23.4633 43.4956L4.89442 34.2112Z" fill="#CF68FF"/>
</svg>
