<svg width="60" height="60" viewBox="0 0 60 60" fill="none" xmlns="http://www.w3.org/2000/svg">
<path d="M60 30C60 33.9086 59.253 37.642 57.8926 41.067C57.1652 42.8988 56.2628 44.6425 55.2048 46.2759C53.8873 48.3135 52.3284 50.1809 50.5702 51.8364C49.5403 52.8074 48.4432 53.7049 47.2848 54.5229C42.3991 57.9735 36.4371 60 30 60C23.5629 60 17.6009 57.9735 12.7151 54.5229C11.2652 53.4993 9.91102 52.3519 8.66813 51.093C3.30855 45.6746 0 38.2225 0 30C0 21.7775 3.30855 14.3254 8.66813 8.90695C9.98449 7.57477 11.4257 6.36609 12.9722 5.2984C17.809 1.95668 23.6755 0 30 0C36.3245 0 42.191 1.95668 47.0278 5.2984C48.2094 6.11273 49.3287 7.01145 50.378 7.98492C52.2159 9.68449 53.8396 11.613 55.2049 13.7241C56.2629 15.3575 57.1654 17.1012 57.8927 18.933C59.253 22.358 60 26.0914 60 30Z" fill="#E4BA42"/>
<path d="M45.8262 27.3012C44.9912 24.8796 41.5675 24.8796 40.8996 26.8836C40.2316 28.8876 42.4862 30.0566 45.9933 31.2258C49.5003 32.3948 51.6715 35.4845 51.2539 38.2399C50.8364 40.9953 49.6673 44.5861 42.7368 44.5861C38.4051 44.5861 35.9979 41.8787 34.8015 39.8483L38.7286 37.4884C38.7286 37.4884 40.0646 40.3275 42.5696 40.3275C45.0748 40.3275 46.0767 39.4925 46.0767 37.5719C46.0767 35.2339 37.9769 34.399 36.7244 30.3908C35.4719 26.3826 37.142 20.7046 42.9871 21.122C46.6404 21.383 48.6953 23.1769 49.7228 24.4856L45.8262 27.3012Z" fill="#F2F2F2"/>
<path d="M27.6227 21.5396C27.6227 21.5396 27.6227 35.6515 27.6227 37.5721C27.6227 39.4925 25.9527 40.4947 24.2826 40.1606C22.6126 39.8266 21.8611 37.8226 21.8611 37.8226L18.02 40.4112C18.02 40.4112 18.855 44.2522 24.1156 44.5863C29.3763 44.9203 32.3823 41.7472 32.3823 39.0751C32.3823 36.403 32.3823 21.5396 32.3823 21.5396H27.6227Z" fill="#F2F2F2"/>
<path d="M8.66809 5.2984V51.0931C9.91098 52.3519 11.2652 53.4992 12.715 54.5229H47.2849C48.4433 53.7049 49.5404 52.8074 50.5702 51.8364H11.3546V7.98493H55.2048V46.276C56.2627 44.6425 57.1652 42.8988 57.8926 41.067V5.2984H8.66809Z" fill="#F2F2F2"/>
</svg>
