<svg width="40" height="40" viewBox="0 0 40 40" fill="none" xmlns="http://www.w3.org/2000/svg">
<path d="M13.3334 10C13.3334 10.8841 12.9822 11.7319 12.3571 12.357C11.732 12.9822 10.8841 13.3334 10.0001 13.3334C9.11603 13.3334 8.26818 12.9822 7.64306 12.357C7.01794 11.7319 6.66675 10.8841 6.66675 10C6.66675 9.11597 7.01794 8.26812 7.64306 7.643C8.26818 7.01788 9.11603 6.66669 10.0001 6.66669C10.8841 6.66669 11.732 7.01788 12.3571 7.643C12.9822 8.26812 13.3334 9.11597 13.3334 10V10Z" fill="#D4A373"/>
<path d="M13.3334 20C13.3334 20.8841 12.9822 21.7319 12.3571 22.357C11.732 22.9822 10.8841 23.3334 10.0001 23.3334C9.11603 23.3334 8.26818 22.9822 7.64306 22.357C7.01794 21.7319 6.66675 20.8841 6.66675 20C6.66675 19.116 7.01794 18.2681 7.64306 17.643C8.26818 17.0179 9.11603 16.6667 10.0001 16.6667C10.8841 16.6667 11.732 17.0179 12.3571 17.643C12.9822 18.2681 13.3334 19.116 13.3334 20Z" fill="#D4A373"/>
<path d="M10.0001 33.3333C10.8841 33.3333 11.732 32.9822 12.3571 32.357C12.9822 31.7319 13.3334 30.8841 13.3334 30C13.3334 29.116 12.9822 28.2681 12.3571 27.643C11.732 27.0179 10.8841 26.6667 10.0001 26.6667C9.11603 26.6667 8.26818 27.0179 7.64306 27.643C7.01794 28.2681 6.66675 29.116 6.66675 30C6.66675 30.8841 7.01794 31.7319 7.64306 32.357C8.26818 32.9822 9.11603 33.3333 10.0001 33.3333V33.3333Z" fill="#D4A373"/>
<path d="M23.3334 10C23.3334 10.8841 22.9822 11.7319 22.3571 12.357C21.732 12.9822 20.8841 13.3334 20.0001 13.3334C19.116 13.3334 18.2682 12.9822 17.6431 12.357C17.0179 11.7319 16.6667 10.8841 16.6667 10C16.6667 9.11597 17.0179 8.26812 17.6431 7.643C18.2682 7.01788 19.116 6.66669 20.0001 6.66669C20.8841 6.66669 21.732 7.01788 22.3571 7.643C22.9822 8.26812 23.3334 9.11597 23.3334 10V10Z" fill="#D4A373"/>
<path d="M20.0001 23.3334C20.8841 23.3334 21.732 22.9822 22.3571 22.357C22.9822 21.7319 23.3334 20.8841 23.3334 20C23.3334 19.116 22.9822 18.2681 22.3571 17.643C21.732 17.0179 20.8841 16.6667 20.0001 16.6667C19.116 16.6667 18.2682 17.0179 17.6431 17.643C17.0179 18.2681 16.6667 19.116 16.6667 20C16.6667 20.8841 17.0179 21.7319 17.6431 22.357C18.2682 22.9822 19.116 23.3334 20.0001 23.3334Z" fill="#D4A373"/>
<path d="M23.3334 30C23.3334 30.8841 22.9822 31.7319 22.3571 32.357C21.732 32.9822 20.8841 33.3333 20.0001 33.3333C19.116 33.3333 18.2682 32.9822 17.6431 32.357C17.0179 31.7319 16.6667 30.8841 16.6667 30C16.6667 29.116 17.0179 28.2681 17.6431 27.643C18.2682 27.0179 19.116 26.6667 20.0001 26.6667C20.8841 26.6667 21.732 27.0179 22.3571 27.643C22.9822 28.2681 23.3334 29.116 23.3334 30V30Z" fill="#D4A373"/>
<path d="M30.0001 13.3334C30.8841 13.3334 31.732 12.9822 32.3571 12.357C32.9822 11.7319 33.3334 10.8841 33.3334 10C33.3334 9.11597 32.9822 8.26812 32.3571 7.643C31.732 7.01788 30.8841 6.66669 30.0001 6.66669C29.116 6.66669 28.2682 7.01788 27.6431 7.643C27.0179 8.26812 26.6667 9.11597 26.6667 10C26.6667 10.8841 27.0179 11.7319 27.6431 12.357C28.2682 12.9822 29.116 13.3334 30.0001 13.3334V13.3334Z" fill="#D4A373"/>
<path d="M33.3334 20C33.3334 20.8841 32.9822 21.7319 32.3571 22.357C31.732 22.9822 30.8841 23.3334 30.0001 23.3334C29.116 23.3334 28.2682 22.9822 27.6431 22.357C27.0179 21.7319 26.6667 20.8841 26.6667 20C26.6667 19.116 27.0179 18.2681 27.6431 17.643C28.2682 17.0179 29.116 16.6667 30.0001 16.6667C30.8841 16.6667 31.732 17.0179 32.3571 17.643C32.9822 18.2681 33.3334 19.116 33.3334 20Z" fill="#D4A373"/>
<path d="M30.0001 33.3333C30.8841 33.3333 31.732 32.9822 32.3571 32.357C32.9822 31.7319 33.3334 30.8841 33.3334 30C33.3334 29.116 32.9822 28.2681 32.3571 27.643C31.732 27.0179 30.8841 26.6667 30.0001 26.6667C29.116 26.6667 28.2682 27.0179 27.6431 27.643C27.0179 28.2681 26.6667 29.116 26.6667 30C26.6667 30.8841 27.0179 31.7319 27.6431 32.357C28.2682 32.9822 29.116 33.3333 30.0001 33.3333V33.3333Z" fill="#D4A373"/>
</svg>
