<svg xmlns="http://www.w3.org/2000/svg" width="108" height="32" viewBox="0 0 108 32">
    <g fill="none" fill-rule="nonzero">
        <path fill="#000" d="M108 28.144c0 1.722-1.382 3.118-3.086 3.118H3.004C1.333 31.217 0 29.834 0 28.144V3.036C.043 1.377 1.363.043 3.005 0h101.91C106.617 0 108 1.396 108 3.118v25.108-.082z"/>
        <path fill="#FFF" d="M22.006 15.426c0-2.626 2.192-3.939 2.274-4.02a4.858 4.858 0 0 0-3.817-2.052c-1.624-.164-3.167.984-3.979.984-.812 0-2.03-.984-3.41-.984a5.029 5.029 0 0 0-4.223 2.625c-1.868 3.283-.487 7.96 1.3 10.585.811 1.313 1.867 2.708 3.247 2.626 1.3 0 1.787-.82 3.411-.82s2.03.82 3.41.82c1.381 0 2.274-1.313 3.167-2.544.975-1.477 1.38-2.954 1.38-3.036 0 0-2.679-1.066-2.76-4.184zM19.489 7.63c.73-.82 1.218-2.134 1.055-3.282-.974 0-2.273.656-3.004 1.559-.65.738-1.218 1.969-1.137 3.2 1.218.082 2.436-.575 3.086-1.477zM41.9 25.026h-1.787l-1.137-3.2h-3.491l-.975 3.2h-1.786l3.492-10.913h2.11l3.493 10.913h.08zm-3.086-4.513l-.974-2.872-.488-2.051c-.18.686-.37 1.37-.568 2.051l-.893 2.872h2.923zm12.1.492c0 1.313-.407 2.462-1.138 3.2-.65.657-1.38.985-2.354.985-1.056 0-1.787-.328-2.193-1.067v4.103h-1.786V17.149h1.461l.081 1.23a2.915 2.915 0 0 1 2.68-1.394c.893 0 1.624.41 2.274 1.148.65.657.974 1.641.974 2.872zm-1.787 0a3.308 3.308 0 0 0-.487-1.805c-.406-.574-.894-.82-1.543-.82-.406 0-.812.164-1.137.41a2.306 2.306 0 0 0-.812 1.64v1.396c0 .574.162.984.568 1.395.325.41.812.574 1.3.574.65 0 1.218-.246 1.624-.739a3.309 3.309 0 0 0 .487-1.969v-.082zm10.719 0c0 1.313-.325 2.462-1.056 3.2-.65.657-1.462.985-2.436.985-.975 0-1.705-.328-2.193-1.067v4.103h-1.786V17.149h1.462l.162 1.23a2.835 2.835 0 0 1 2.598-1.394c.975 0 1.706.41 2.355 1.148.569.657.894 1.641.894 2.872zm-1.787 0a3.308 3.308 0 0 0-.487-1.805c-.406-.574-.812-.82-1.543-.82-.415-.001-.816.144-1.137.41-.325.328-.568.656-.65 1.148l-.08.575v1.313c0 .574.162.984.487 1.395.324.41.812.574 1.38.574.65 0 1.137-.246 1.543-.739a3.309 3.309 0 0 0 .487-1.969v-.082zm11.775 1.067c0 .902-.325 1.64-.894 2.215-.812.657-1.705.985-3.004.985-1.137 0-2.03-.246-2.761-.657l.406-1.477c.812.493 1.624.657 2.436.657a2.417 2.417 0 0 0 1.624-.41c.325-.329.487-.657.487-1.231 0-.41-.162-.82-.406-1.067-.325-.328-.812-.574-1.543-.82-1.867-.82-2.842-1.805-2.842-3.2 0-.82.325-1.641.975-2.216.73-.574 1.624-.82 2.68-.82.974 0 1.786.164 2.436.492L69.023 16a4.458 4.458 0 0 0-2.112-.492c-.568 0-1.055.082-1.38.41a1.32 1.32 0 0 0-.406.985c0 .41.162.82.487 1.066.244.246.812.575 1.543.82.893.411 1.624.821 2.03 1.396.487.492.65 1.148.65 1.887zm5.684-3.528H73.65V22.4c0 .985.406 1.395 1.056 1.395h.812v1.313l-1.38.164c-.65 0-1.219-.246-1.625-.657-.325-.41-.568-1.066-.568-2.133v-3.938h-1.137V17.23h1.137v-1.477l1.705-.492v1.969H75.6v1.313h-.081zm8.689 2.543c0 1.23-.325 2.216-1.056 3.036-.73.82-1.624 1.149-2.842 1.149-1.137 0-2.03-.328-2.761-1.149-.65-.82-.975-1.64-.975-2.872 0-1.23.325-2.215 1.056-3.036.65-.82 1.624-1.148 2.842-1.148 1.137 0 2.03.41 2.761 1.148a4.13 4.13 0 0 1 .975 2.872zm-1.787.082c0-.738-.162-1.313-.487-1.887-.325-.574-.812-.903-1.624-.903-.65 0-1.137.329-1.543.903-.244.574-.406 1.149-.406 1.887 0 .82.162 1.395.406 1.887.406.657.893.985 1.624.985.65 0 1.137-.328 1.543-.985a3.625 3.625 0 0 0 .487-1.887zm7.39-2.461a2.974 2.974 0 0 0-.569 0 1.62 1.62 0 0 0-1.38.738c-.244.41-.406.903-.406 1.56v4.102h-1.787V17.23h1.462l.081 1.477c.244-.493.568-.82.893-1.231a2.096 2.096 0 0 1 1.3-.41h.406v1.64zm7.795 2.133c0 .276-.027.55-.081.82h-5.197c0 .739.243 1.313.812 1.642.325.41.893.656 1.624.656.723 0 1.44-.14 2.111-.41l.244 1.23a6.437 6.437 0 0 1-2.599.493c-1.218 0-2.111-.41-2.842-1.067-.65-.82-1.055-1.64-1.055-2.954 0-1.148.324-2.133.974-2.954a3.234 3.234 0 0 1 2.76-1.23c1.138 0 1.95.41 2.518 1.23.487.657.731 1.56.731 2.462v.082zm-1.624-.492c0-.493-.162-.985-.406-1.313-.325-.492-.812-.82-1.38-.82-.571.009-1.096.32-1.381.82-.244.328-.487.82-.487 1.313h3.654zM35.35 10c1.134 0 1.944-.672 2.106-1.567h-.81c-.162.522-.648.82-1.296.82-.973 0-1.54-.67-1.54-1.79 0-1.045.567-1.791 1.54-1.791.648 0 1.134.373 1.296.97h.81C37.294 5.672 36.484 5 35.35 5 33.89 5 33 5.97 33 7.463 33 8.955 33.891 10 35.35 10zm3.97-2.239V6.27h-.81V9.85h.81V8.358h.161l1.378 1.493h.972L40.13 7.91l1.62-1.642h-.81L39.48 7.76h-.162zm4.455 1.493c.649 0 1.054-.299 1.054-.747V8.21l-.973.15c-.486 0-.81.223-.81.522 0 .298.324.522.81.522l-.08-.15zm-.162.671c-.81 0-1.296-.447-1.296-1.119 0-.597.486-.97 1.458-1.045h1.054v-.373c0-.373-.324-.597-.81-.597-.406 0-.73.15-.81.448h-.81c.161-.672.81-1.045 1.62-1.045.972 0 1.62.448 1.62 1.194v2.463h-.81v-.523c-.243.373-.73.597-1.216.597zm6.239-.074V6.269h-.73v1.343a1.397 1.397 0 0 1-.972.373c-.405 0-.648-.224-.648-.746v-.896h-.81v1.045c0 .746.486 1.343 1.377 1.343.487 0 .81-.224.973-.373h.08v1.493h.81-.08zm2.43-.523c.649 0 1.054-.373 1.054-.746V8.21l-.973.075c-.486 0-.81.223-.81.522 0 .298.324.522.81.522h-.08zm-.162.597c-.81 0-1.296-.447-1.296-1.119 0-.597.567-.97 1.458-1.045h1.054v-.373c0-.373-.243-.597-.81-.597-.406 0-.73.15-.81.448h-.73c.081-.672.73-1.045 1.62-1.045.973 0 1.459.448 1.459 1.194v2.463h-.73v-.523c-.242.373-.729.597-1.215.597zm5.996-3.656h-3.241v.597h1.215V9.85h.81V6.866h1.216v-.597zm2.268 1.716h-.648v1.269h.648c.486 0 .81-.224.81-.672 0-.373-.324-.597-.81-.597zm-1.377 1.866V6.269h.73v1.12h.81c.81 0 1.377.447 1.377 1.193s-.568 1.269-1.459 1.269h-1.458zm7.454-2.985h-.81v.895h.81c.405 0 .648-.15.648-.448 0-.298-.243-.522-.648-.522v.075zm0 1.418h-.81v1.044h.89c.487 0 .73-.224.73-.522 0-.373-.324-.522-.81-.522zM64.84 9.85V6.269h1.782c.81 0 1.215.373 1.215.895 0 .373-.324.746-.648.746v.075c.486 0 .81.373.81.821 0 .672-.486 1.045-1.377 1.045H64.84z"/>
    </g>
</svg>
