<svg xmlns="http://www.w3.org/2000/svg" width="64" height="61" viewBox="0 0 64 61">
    <defs>
        <radialGradient id="a" r="51.576%" fx="50%" fy="50%" gradientTransform="matrix(.947 0 0 1 .027 0)">
            <stop offset="0%" stop-color="#F4E9C3"/>
            <stop offset="21.9%" stop-color="#F8EECD"/>
            <stop offset="64.4%" stop-color="#FDF4DC"/>
            <stop offset="100%" stop-color="#FFF6E1"/>
        </radialGradient>
        <linearGradient id="b" x1="49.999%" x2="49.999%" y1="0%" y2="100.001%">
            <stop offset="0%" stop-color="#42D778"/>
            <stop offset="42.8%" stop-color="#3DCA76"/>
            <stop offset="100%" stop-color="#34B171"/>
        </linearGradient>
        <linearGradient id="c" x1="50%" x2="50%" y1="81.118%" y2="-63.782%">
            <stop offset="0%" stop-color="#37AB6A"/>
            <stop offset="42.2%" stop-color="#39B66F"/>
            <stop offset="100%" stop-color="#3AC074"/>
        </linearGradient>
        <linearGradient id="d" x1="50%" x2="50%" y1="28.413%" y2="203.973%">
            <stop offset="0%" stop-color="#62DE8F"/>
            <stop offset="47.8%" stop-color="#5DD18D"/>
            <stop offset="100%" stop-color="#56BE89"/>
        </linearGradient>
    </defs>
    <g fill="none" fill-rule="evenodd">
        <path d="M0 63V-1h64v64z"/>
        <g fill-rule="nonzero">
            <path fill="url(#a)" d="M56.5 41.984h-5.857c-1.308 0-2.499-.935-2.63-2.228a2.49 2.49 0 0 1 2.487-2.74h9.369c1.451 0 2.789-.966 3.071-2.38.379-1.9-1.092-3.581-2.94-3.581h-1.83c-1.624 0-3.081-1.209-3.166-2.821A2.99 2.99 0 0 1 58 25.094h2c2.335 0 4.22-2.016 3.979-4.382-.21-2.062-2.082-3.567-4.168-3.567h-1.704c-.996 0-1.92-.677-2.08-1.654A1.993 1.993 0 0 1 58 13.171h.357c1.308 0 2.5-.935 2.63-2.228a2.49 2.49 0 0 0-2.487-2.74h-7c-.828 0-1.5-.668-1.5-1.49 0-.823.672-1.491 1.5-1.491h.857c1.308 0 2.5-.935 2.63-2.228A2.49 2.49 0 0 0 52.5.254H10.536c-1.308 0-2.499.935-2.63 2.228a2.49 2.49 0 0 0 2.487 2.74h1.5c.996 0 1.92.677 2.08 1.653A1.993 1.993 0 0 1 12 9.196H6.189c-2.086 0-3.958 1.504-4.168 3.567C1.78 15.13 3.665 17.145 6 17.145h2.302c1.895 0 3.594 1.41 3.693 3.29.106 2.005-1.499 3.665-3.494 3.665H5.215c-2.611 0-4.943 1.896-5.191 4.48-.285 2.962 2.053 5.455 4.976 5.455h6.302c1.895 0 3.594 1.41 3.693 3.29.106 2.006-1.5 3.665-3.495 3.665H7.999C5.791 40.99 4 42.77 4 44.963v.001c0 2.195 1.791 3.975 3.999 3.975H15c1.105 0 2 .889 2 1.987a1.993 1.993 0 0 1-2 1.987h-1.811c-2.086 0-3.958 1.504-4.168 3.567C8.78 58.846 10.665 60.86 13 60.86h37.812c2.086 0 3.958-1.504 4.168-3.567.24-2.366-1.645-4.381-3.98-4.381a1.993 1.993 0 0 1-1.973-2.321c.16-.977 1.083-1.653 2.08-1.653h5.278c1.67 0 3.195-1.115 3.537-2.74.47-2.23-1.254-4.215-3.422-4.215z"/>
            <path fill="url(#b)" d="M53.871 31.055H47V8.203a1.993 1.993 0 0 0-2-1.987H19c-1.105 0-2 .889-2 1.987v22.852h-6.871c-1.184 0-1.998.89-2.114 1.881a2.06 2.06 0 0 0 .612 1.725l21.66 21.52c.946.94 2.481.94 3.427 0l21.66-21.52a2.06 2.06 0 0 0 .612-1.725c-.117-.991-.931-1.881-2.115-1.881z"/>
            <path fill="url(#c)" d="M50.004 39.997H34a2.99 2.99 0 0 0-3 2.98 2.99 2.99 0 0 0 3 2.981h.5c1.381 0 2.5 1.112 2.5 2.484a2.492 2.492 0 0 1-2.5 2.484H32a2.99 2.99 0 0 0-3 2.98c0 .475.122.918.321 1.317l.966.96a2.413 2.413 0 0 0 1.713.704c.62 0 1.24-.235 1.713-.705l16.291-16.185z"/>
            <path fill="url(#d)" d="M25 18.635a2.492 2.492 0 0 0-2.5-2.484 2.492 2.492 0 0 1-2.5-2.484 2.492 2.492 0 0 1 2.5-2.484h4c1.381 0 2.5-1.111 2.5-2.484a2.492 2.492 0 0 0-2.5-2.483H19c-1.105 0-2 .889-2 1.987v12.916h5.5c1.381 0 2.5-1.112 2.5-2.484z"/>
        </g>
        <text fill="#FFF" font-family="Roboto-Regular, Roboto" font-size="19" transform="translate(0 -1)">
            <tspan x="27" y="35">₽</tspan>
        </text>
    </g>
</svg>
