<svg xmlns="http://www.w3.org/2000/svg" x="0px" y="0px"
width="19" height="19"
viewBox="0 0 172 172"
style=" fill:#000000;"><g fill="none" fill-rule="nonzero" stroke="none" stroke-width="1" stroke-linecap="butt" stroke-linejoin="miter" stroke-miterlimit="10" stroke-dasharray="" stroke-dashoffset="0" font-family="none" font-weight="none" font-size="none" text-anchor="none" style="mix-blend-mode: normal"><path d="M0,172v-172h172v172z" fill="none"></path><g fill="#b5b5b5"><path d="M34.4,22.93333c-6.33533,0 -11.46667,5.13133 -11.46667,11.46667v22.93333h34.4v-34.4zM68.8,22.93333v34.4h34.4v-34.4zM114.66667,22.93333v34.4h34.4v-22.93333c0,-6.33533 -5.13133,-11.46667 -11.46667,-11.46667zM22.93333,68.8v34.4h34.4v-34.4zM68.8,68.8v34.4h34.4v-34.4zM114.66667,68.8v26.875c-8.30042,3.96949 -15.02218,10.69124 -18.99167,18.99167h-26.875v34.4h26.875c6.46788,13.52469 20.25176,22.93333 36.19167,22.93333c22.09712,0 40.13333,-18.03621 40.13333,-40.13333c0,-15.93991 -9.40864,-29.72379 -22.93333,-36.19167v-26.875zM131.86667,103.2c15.90007,0 28.66667,12.7666 28.66667,28.66667c0,15.90007 -12.7666,28.66667 -28.66667,28.66667c-15.90007,0 -28.66667,-12.7666 -28.66667,-28.66667c0,-15.90007 12.7666,-28.66667 28.66667,-28.66667zM131.77708,108.85495c-3.16203,0.04943 -5.68705,2.6496 -5.64375,5.81172v14.82604l-6.92031,6.92031c-1.49778,1.43802 -2.10113,3.5734 -1.57735,5.5826c0.52378,2.0092 2.09284,3.57826 4.10204,4.10204c2.0092,0.52378 4.14458,-0.07957 5.5826,-1.57735l8.6,-8.6c1.07521,-1.07507 1.6794,-2.53317 1.67969,-4.05364v-17.2c0.02122,-1.54972 -0.58581,-3.04203 -1.68279,-4.1369c-1.09698,-1.09487 -2.59045,-1.69903 -4.14013,-1.67482zM22.93333,114.66667v22.93333c0,6.33533 5.13133,11.46667 11.46667,11.46667h22.93333v-34.4z"></path></g></g></svg>